<svg width="296" height="297" viewBox="0 0 296 297" fill="none" xmlns="http://www.w3.org/2000/svg">
<path d="M175.356 212.126C170.231 208.051 165.245 203.777 160.5 199.224C155.742 194.67 151.26 189.831 147.08 184.733C142.63 179.302 138.58 173.55 134.962 167.522C130.067 159.462 126.306 150.752 123.786 141.641C122.533 137.047 121.687 132.347 121.257 127.598C121.015 125.146 120.981 122.677 121.155 120.217C121.333 117.593 121.94 115.014 122.953 112.584C123.517 111.251 124.275 110.01 125.204 108.902C126.239 107.657 127.552 106.676 129.034 106.04C130.58 105.393 132.268 105.176 133.922 105.41C135.446 105.629 136.91 106.156 138.224 106.959C139.442 107.695 140.549 108.602 141.513 109.652C142.403 110.635 143.2 111.7 143.892 112.834C145.194 114.919 146.322 117.11 147.263 119.385C149.128 123.879 150.381 128.61 150.988 133.448C151.6 138.306 151.511 143.231 150.725 148.071C149.764 154.101 147.587 159.876 144.33 165.041C143.875 165.737 143.378 166.404 142.841 167.038C142.287 167.694 141.679 168.303 141.025 168.858C139.714 170.015 138.215 170.934 136.594 171.575C134.945 172.219 133.193 172.544 131.429 172.533C129.747 172.52 128.077 172.257 126.474 171.752C123.505 170.779 120.72 169.315 118.234 167.419C117.025 166.533 115.863 165.583 114.753 164.573C114.202 164.071 113.659 163.563 113.134 163.038C112.604 162.516 112.127 162.001 111.621 161.482C107.629 157.343 103.912 152.943 100.495 148.311C86.8842 129.704 78.1235 107.944 75.0079 85.0045C74.8748 84.1481 74.7877 83.2841 74.6912 82.4208C74.6013 81.5569 74.4909 80.695 74.4228 79.8281C74.2916 78.0938 74.1381 76.3619 74.0831 74.6252C73.904 71.1572 73.9321 67.6924 74.0337 64.2755C74.1239 61.5493 74.3809 58.8304 74.8034 56.1342C74.9892 55.0443 75.1698 54.0789 75.3611 53.2282C75.5715 52.3792 75.7779 51.6439 75.9794 51.0104C76.5663 49.1663 76.9433 49.2317 77.091 50.8778C77.1278 51.2895 77.1501 51.8 77.1575 52.4047C77.1589 53.0083 77.1606 53.7065 77.1627 54.4994C77.1625 55.2899 77.1487 56.1688 77.1214 57.136C77.1134 58.1031 77.1092 59.1567 77.083 60.2914C76.994 66.2746 77.2309 72.2563 77.7927 78.2095C79.0733 91.8126 82.4735 105.116 87.8688 117.631C93.1977 130.114 100.502 141.636 109.499 151.75C110.124 152.437 110.752 153.127 111.383 153.819C112.033 154.492 112.684 155.167 113.338 155.844C113.98 156.53 114.674 157.168 115.34 157.832C116.015 158.492 116.682 159.158 117.348 159.755C119.888 162.138 122.762 164.133 125.878 165.679C128.218 166.788 130.684 167.328 132.915 166.961C134.036 166.766 135.11 166.352 136.077 165.743C136.58 165.424 137.057 165.062 137.5 164.662C137.957 164.27 138.376 163.836 138.752 163.365C139.149 162.873 139.515 162.356 139.847 161.817L140.884 160.028C141.201 159.411 141.524 158.797 141.832 158.175C142.111 157.539 142.415 156.913 142.676 156.269C143.732 153.682 144.52 150.993 145.027 148.246C146.037 142.711 146.024 137.041 144.988 131.522C144.469 128.758 143.724 126.043 142.763 123.404C141.825 120.793 140.63 118.284 139.194 115.916L138.786 115.276L138.581 114.957L138.384 114.674C138.124 114.303 137.845 113.947 137.546 113.607C136.975 112.954 136.321 112.379 135.601 111.896C134.954 111.459 134.231 111.145 133.469 110.972C133.132 110.895 132.786 110.861 132.439 110.874C132.113 110.877 131.789 110.929 131.477 111.027C131.159 111.117 130.856 111.253 130.576 111.431C130.27 111.617 129.986 111.838 129.73 112.09C129.15 112.679 128.665 113.355 128.293 114.095C127.871 114.926 127.535 115.797 127.289 116.696C127.027 117.637 126.835 118.595 126.712 119.564C126.476 121.6 126.425 123.653 126.561 125.696C126.619 126.745 126.708 127.803 126.82 128.871C126.935 129.929 127.069 130.985 127.223 132.039C127.871 136.267 128.841 140.437 130.126 144.512C132.443 151.823 135.596 158.834 139.521 165.406C143.471 172.017 148.002 178.256 153.06 184.05C155.586 186.961 158.215 189.781 160.949 192.511C162.319 193.87 163.701 195.217 165.129 196.519L167.262 198.482L169.436 200.401C170.875 201.693 172.381 202.911 173.853 204.167C175.363 205.379 176.847 206.623 178.385 207.804C181.423 210.209 184.549 212.51 187.692 214.789C197.76 222.016 207.441 228.64 215.62 235.268C219.384 238.312 218.399 239.303 213.466 236.671C206.531 232.864 199.355 228.674 192.376 224.187C186.631 220.509 180.967 216.34 175.463 212.088C175.428 212.101 175.395 212.114 175.356 212.126Z" fill="#7345B3"/>
<path d="M194.437 199.914C196.054 203.669 197.958 207.292 200.133 210.748C200.735 211.651 201.331 212.563 201.95 213.46C202.601 214.337 203.262 215.207 203.946 216.054C206.974 219.668 210.307 223.074 213.72 226.449L218.886 231.499C220.613 233.183 222.366 234.859 224.057 236.593L224.082 236.619C224.663 237.215 224.984 238.021 224.974 238.86C224.963 239.698 224.622 240.5 224.026 241.088C223.648 241.458 223.185 241.727 222.679 241.873C222.173 242.018 221.64 242.035 221.127 241.922L214.485 240.418C207.315 238.836 200.14 237.249 192.962 235.612C185.784 233.971 178.603 232.283 171.438 230.396C169.277 229.796 167.152 229.078 165.07 228.244C163.081 227.485 161.951 226.453 161.385 225.419C160.564 223.906 162.131 223.036 165.043 223.53C166.96 223.87 168.855 224.324 170.718 224.891C179.302 227.334 188.037 229.219 196.868 230.532C199.311 230.906 201.874 231.205 204.183 231.881C210.17 233.632 216.331 234.774 222.447 236.073L219.829 240.835C218.796 239.815 217.781 238.78 216.801 237.712C212.915 233.515 208.77 229.498 204.917 225.137C201.426 221.244 198.241 217.083 195.391 212.691C192.584 208.268 190.167 203.606 188.169 198.755C187.777 197.793 187.413 196.834 187.086 195.882C186.79 194.919 186.534 193.962 186.319 193.012C185.893 191.176 185.692 189.292 185.722 187.404C185.739 186.562 186.044 186.068 186.485 185.976C186.915 185.887 187.523 186.182 188.027 186.959C188.672 188.084 189.259 189.261 189.869 190.433C190.486 191.6 191.071 192.79 191.634 193.983C192.129 194.944 192.568 195.943 192.992 196.954L193.308 197.713L193.651 198.457C193.882 198.952 194.113 199.446 194.343 199.939L194.437 199.914Z" fill="#7345B3"/>
</svg>
