<svg width="144" height="128" viewBox="0 0 144 128" fill="none" xmlns="http://www.w3.org/2000/svg">
<path d="M70.6293 64.1895C69.7531 64.6713 68.7754 65.0031 67.8746 65.6106C62.0439 69.4342 56.1119 73.1078 50.3825 77.0815C47.8302 78.8029 45.7074 80.9992 43.2321 82.9965C43.0575 83.2233 42.7573 83.426 42.5827 83.6529C37.5168 89.5818 39.4827 95.573 47.0247 97.0389C51.5497 97.9183 56.1202 97.8936 60.7431 98.2704C72.4503 99.111 84.2832 99.9761 95.9661 100.942C105.865 101.692 115.739 102.568 125.763 103.342C125.288 103.772 124.688 104.177 124.087 104.582C118.204 108.004 112.244 111.15 106.462 114.722C101.731 117.586 97.203 120.749 92.6747 123.913C91.6238 124.622 90.0211 125.484 90.7824 126.937C91.6449 128.539 93.3732 127.701 94.6266 127.293C98.5615 125.84 102.598 124.537 106.355 122.658C116.85 117.654 127.269 112.375 137.687 107.095C138.989 106.435 140.442 105.674 141.542 104.713C144.666 102.06 144.823 98.5681 141.869 95.6459C141.314 95.1467 140.759 94.6475 140.179 94.2739C133.273 89.5401 126.269 85.3088 118.716 81.8842C117.759 81.4373 116.652 81.0918 115.497 80.9976C114.24 80.7533 113.088 81.3121 112.466 82.4956C111.845 83.6793 111.977 85.0097 112.987 85.8579C113.971 86.8321 115.082 87.8304 116.241 88.5776C120.047 91.1435 124.027 93.4825 127.858 95.9227C128.664 96.4709 129.345 96.9945 130.379 97.7172C116.531 95.8083 103.008 93.5712 89.59 92.1374C76.0462 90.6789 62.5059 89.8732 48.4871 88.8443C49.1611 88.0621 49.5836 87.2312 50.2085 86.7003C52.9841 84.5006 55.7842 82.1751 58.7869 80.1498C64.7921 76.0992 71.0244 72.2232 77.0296 68.1727C78.5066 67.2857 80.0078 66.2732 81.2822 65.086C84.1556 62.3833 83.3069 58.6964 79.6827 57.2094C78.2231 56.6648 76.7147 56.3716 75.1575 56.3298C65.2624 56.2328 55.2661 55.9856 45.3221 56.14C36.7084 56.1615 28.1471 56.5845 19.5335 56.6061C16.3946 56.6483 13.2033 56.2888 10.0853 55.5524C6.81718 54.9172 6.0804 53.3391 7.79812 50.5424C9.14222 48.3251 10.6365 46.0067 12.6615 44.3132C17.2353 40.2453 21.9346 36.2018 27.0392 32.7589C43.3302 22.0983 60.358 13.0157 78.1996 5.78705C79.0516 5.43088 79.8546 5.32603 80.4795 4.79536C81.1044 4.26453 81.6771 3.33226 81.6979 2.55369C81.7922 1.39807 80.7586 0.675388 79.7286 0.605557C78.6985 0.535902 77.644 0.591787 76.6665 0.923671C74.4599 1.53814 72.1031 2.25416 69.9733 3.14468C53.2595 9.94028 37.307 18.1882 22.3952 28.4647C17.4408 31.8065 12.867 35.8743 8.3178 39.8165C6.2683 41.6356 4.64834 43.9296 3.15406 46.2481C2.28127 47.3829 1.88681 48.7412 1.3666 50.0749C-0.138 55.1306 1.69177 59.1387 6.60104 61.3973C10.6793 63.2335 15.1764 63.5859 19.4955 63.5122C30.4694 63.4277 41.3421 63.193 52.3161 63.1083C58.3181 63.1011 64.3201 63.0936 70.4478 63.1106C70.5001 63.512 70.577 63.7879 70.6293 64.1895Z" fill="#C5B8F5"/>
</svg>
