<svg width="479" height="559" viewBox="0 0 479 559" fill="none" xmlns="http://www.w3.org/2000/svg">
<g opacity="0.62">
<path d="M218.411 530.096C174.153 536.354 130.415 545.805 87.544 558.371L87.2842 558.448C84.6728 559.209 81.8785 559.071 79.3561 558.057C76.8336 557.044 74.7316 555.213 73.3921 552.864C72.0527 550.515 71.5547 547.786 71.9792 545.12C72.4037 542.455 73.7257 540.01 75.73 538.185C93.3008 522.18 110.67 505.962 127.837 489.531C154.09 464.302 179.823 438.334 204.075 411.305C217.654 396.165 230.956 380.788 243.979 365.174C256.97 349.533 269.707 333.683 282.191 317.624C283.895 315.438 286.349 313.949 289.088 313.439C291.827 312.929 294.659 313.435 297.047 314.86C299.434 316.284 301.211 318.529 302.039 321.167C302.867 323.805 302.688 326.652 301.537 329.168L301.499 329.245C289.011 356.488 276.213 383.671 262.245 410.415C248.411 437.443 232.953 463.622 215.954 488.812L198.696 472.637C235.652 444.102 270.718 413.241 303.677 380.243C336.647 347.278 367.454 312.253 395.908 275.384C413.828 251.997 430.078 227.663 441.292 201.493C446.908 188.59 451.014 175.092 453.53 161.263C454.727 154.427 455.479 147.521 455.781 140.59L455.845 135.396L455.874 132.799L455.761 130.21L455.548 125.029L455.034 119.884C453.664 106.276 449.982 92.9952 444.145 80.6041C443.388 79.0975 442.56 77.6317 441.777 76.1395L440.59 73.9071C440.175 73.1764 439.694 72.4884 439.251 71.7758L436.551 67.5237L433.538 63.5077L432.032 61.4974C431.504 60.8495 430.923 60.2473 430.373 59.6185L427.044 55.869C425.854 54.6873 424.6 53.5612 423.387 52.3985L421.556 50.6623C420.965 50.062 420.328 49.5083 419.65 49.0063C409.022 40.3228 396.909 33.599 383.887 29.1542C370.405 24.6189 356.419 21.719 342.233 20.5178C313.524 17.7692 283.82 20.2285 254.648 24.727C225.507 29.1469 196.963 36.8235 169.563 47.6101C156.027 53.1613 142.873 59.5893 130.187 66.8527C117.662 74.2537 105.705 82.561 94.4134 91.7068C89.031 96.5429 83.3858 101.113 78.4128 106.363C73.2335 111.358 68.3568 116.652 63.8085 122.218C54.7213 133.362 46.83 145.415 40.2624 158.181C24.3702 188.913 15.3699 223.871 16.6309 258.02C17.1083 271.664 18.9135 285.229 22.0213 298.528C24.52 309.384 27.1995 317.775 29.0991 324.428C32.2023 333.946 30.5191 335.224 24.5762 328.391C22.8004 326.231 21.1585 323.966 19.6595 321.609C18.7235 320.223 17.8879 318.639 16.923 316.965C15.967 315.286 14.9714 313.475 14.0683 311.484C9.41327 301.773 5.98149 291.531 3.85029 280.989C2.96794 277.074 2.39833 273.064 1.77378 269.019C1.32556 264.96 0.818685 260.859 0.634755 256.714C0.131554 248.35 0.232416 239.962 0.93655 231.613C1.6239 223.216 2.83929 214.869 4.57561 206.622C6.33441 198.486 8.54014 190.45 11.183 182.552C17.3174 164.638 25.6304 147.532 35.9381 131.611C41.1057 123.673 46.7836 116.073 52.9365 108.859C59.1323 101.724 65.7048 94.9187 72.6264 88.4721C100.38 62.8251 133.511 43.7336 168.31 30.0245C172.695 28.3893 177.027 26.592 181.451 25.0699L194.753 20.5881L208.212 16.6297C212.71 15.3537 217.262 14.2945 221.786 13.1153C239.948 8.74285 258.352 5.4187 276.903 3.1596C286.161 2.06425 295.482 1.02041 304.895 0.576788C307.24 0.40806 309.595 0.319197 311.954 0.256453C314.311 0.190397 316.667 0.0816431 319.03 0.0516511C323.761 0.0711551 328.488 -0.0293065 333.239 0.210997C352.518 0.633438 371.648 3.66782 390.097 9.22977C400.601 12.5709 410.691 17.0748 420.177 22.6561C429.916 28.396 438.749 35.5261 446.393 43.817C461.346 60.2485 471.475 80.4248 475.683 102.158L476.339 105.257L476.826 108.378C477.138 110.46 477.499 112.536 477.763 114.621C478.133 118.8 478.691 122.972 478.759 127.156C479.143 135.502 478.916 143.864 478.08 152.177L477.35 158.386C477.139 160.46 476.677 162.499 476.35 164.556C475.719 168.678 474.711 172.728 473.789 176.793C471.774 184.788 469.3 192.662 466.38 200.378C454.749 231.192 437.064 258.735 417.991 284.282C413.212 290.683 408.35 296.987 403.405 303.195L395.978 312.499L388.421 321.701C383.417 327.862 378.189 333.84 373.059 339.898C367.805 345.85 362.63 351.872 357.253 357.715C335.979 381.293 313.526 403.801 290.15 425.247C277.695 436.59 265.008 447.7 252.089 458.577C239.123 469.399 225.926 479.981 212.498 490.324C210.515 491.851 208.046 492.626 205.538 492.508C203.029 492.39 200.645 491.388 198.816 489.682C196.987 487.976 195.833 485.678 195.562 483.203C195.291 480.728 195.92 478.238 197.337 476.183L197.368 476.142C213.916 451.754 228.968 426.4 242.442 400.219C256.18 373.977 269.127 347.204 281.764 320.264L299.334 330.839L298.858 331.433C267.306 371.28 234.049 409.884 199.014 446.78C164.005 483.707 127.305 518.912 89.9523 553.231L81.4264 538.664C97.3587 533.933 113.392 529.605 129.528 525.681C145.659 521.747 161.909 518.316 178.218 515.18C194.544 512.119 210.955 509.509 227.453 507.35C243.966 505.322 260.543 503.692 277.201 502.77C299.027 501.469 320.923 501.928 342.675 504.143L338.817 516.556C334.449 514.139 329.918 512.023 325.256 510.224L321.692 508.803L318.058 507.498C315.646 506.617 313.229 505.753 310.776 504.974C301.034 501.722 291.241 498.844 281.542 496.231C271.845 493.603 262.244 491.151 252.754 488.979C243.266 486.787 233.907 484.738 224.637 483.095C211.95 480.808 205.776 479.24 206.735 477.368C207.654 475.696 216.083 473.577 231.457 474.318C250.863 475.679 270.164 478.241 289.248 481.988C298.935 483.915 308.646 486.047 318.4 488.744C323.283 490.134 328.172 491.568 333.118 493.317C335.566 494.088 338.106 495.193 340.604 496.158C341.838 496.614 343.14 497.228 344.446 497.862L348.339 499.741C350.941 500.997 353.026 503.105 354.244 505.708C355.461 508.311 355.736 511.251 355.023 514.032C354.309 516.812 352.65 519.264 350.325 520.973C348 522.683 345.152 523.545 342.261 523.416L341.001 523.355L326.157 522.674C308.604 522.247 290.683 522.716 272.678 523.888C254.673 525.061 236.573 526.955 218.67 529.67C218.591 529.816 218.504 529.958 218.411 530.096Z" fill="white"/>
<path d="M218.411 530.096C174.153 536.354 130.415 545.805 87.544 558.371L87.2842 558.448C84.6728 559.209 81.8785 559.071 79.3561 558.057C76.8336 557.044 74.7316 555.213 73.3921 552.864C72.0527 550.515 71.5547 547.786 71.9792 545.12C72.4037 542.455 73.7257 540.01 75.73 538.185C93.3008 522.18 110.67 505.962 127.837 489.531C154.09 464.302 179.823 438.334 204.075 411.305C217.654 396.165 230.956 380.788 243.979 365.174C256.97 349.533 269.707 333.683 282.191 317.624C283.895 315.438 286.349 313.949 289.088 313.439C291.827 312.929 294.659 313.435 297.047 314.86C299.434 316.284 301.211 318.529 302.039 321.167C302.867 323.805 302.688 326.652 301.537 329.168L301.499 329.245C289.011 356.488 276.213 383.671 262.245 410.415C248.411 437.443 232.953 463.622 215.954 488.812L198.696 472.637C235.652 444.102 270.718 413.241 303.677 380.243C336.647 347.278 367.454 312.253 395.908 275.384C413.828 251.997 430.078 227.663 441.292 201.493C446.908 188.59 451.014 175.092 453.53 161.263C454.727 154.427 455.479 147.521 455.781 140.59L455.845 135.396L455.874 132.799L455.761 130.21L455.548 125.029L455.034 119.884C453.664 106.276 449.982 92.9952 444.145 80.6041C443.388 79.0975 442.56 77.6317 441.777 76.1395L440.59 73.9071C440.175 73.1764 439.694 72.4884 439.251 71.7758L436.551 67.5237L433.538 63.5077L432.032 61.4974C431.504 60.8495 430.923 60.2473 430.373 59.6185L427.044 55.869C425.854 54.6873 424.6 53.5612 423.387 52.3985L421.556 50.6623C420.965 50.062 420.328 49.5083 419.65 49.0063C409.022 40.3228 396.909 33.599 383.887 29.1542C370.405 24.6189 356.419 21.719 342.233 20.5178C313.524 17.7692 283.82 20.2285 254.648 24.727C225.507 29.1469 196.963 36.8235 169.563 47.6101C156.027 53.1613 142.873 59.5893 130.187 66.8527C117.662 74.2537 105.705 82.561 94.4134 91.7068C89.031 96.5429 83.3858 101.113 78.4128 106.363C73.2335 111.358 68.3568 116.652 63.8085 122.218C54.7213 133.362 46.83 145.415 40.2624 158.181C24.3702 188.913 15.3699 223.871 16.6309 258.02C17.1083 271.664 18.9135 285.229 22.0213 298.528C24.52 309.384 27.1995 317.775 29.0991 324.428C32.2023 333.946 30.5191 335.224 24.5762 328.391C22.8004 326.231 21.1585 323.966 19.6595 321.609C18.7235 320.223 17.8879 318.639 16.923 316.965C15.967 315.286 14.9714 313.475 14.0683 311.484C9.41327 301.773 5.98149 291.531 3.85029 280.989C2.96794 277.074 2.39833 273.064 1.77378 269.019C1.32556 264.96 0.818685 260.859 0.634755 256.714C0.131554 248.35 0.232416 239.962 0.93655 231.613C1.6239 223.216 2.83929 214.869 4.57561 206.622C6.33441 198.486 8.54014 190.45 11.183 182.552C17.3174 164.638 25.6304 147.532 35.9381 131.611C41.1057 123.673 46.7836 116.073 52.9365 108.859C59.1323 101.724 65.7048 94.9187 72.6264 88.4721C100.38 62.8251 133.511 43.7336 168.31 30.0245C172.695 28.3893 177.027 26.592 181.451 25.0699L194.753 20.5881L208.212 16.6297C212.71 15.3537 217.262 14.2945 221.786 13.1153C239.948 8.74285 258.352 5.4187 276.903 3.1596C286.161 2.06425 295.482 1.02041 304.895 0.576788C307.24 0.40806 309.595 0.319197 311.954 0.256453C314.311 0.190397 316.667 0.0816431 319.03 0.0516511C323.761 0.0711551 328.488 -0.0293065 333.239 0.210997C352.518 0.633438 371.648 3.66782 390.097 9.22977C400.601 12.5709 410.691 17.0748 420.177 22.6561C429.916 28.396 438.749 35.5261 446.393 43.817C461.346 60.2485 471.475 80.4248 475.683 102.158L476.339 105.257L476.826 108.378C477.138 110.46 477.499 112.536 477.763 114.621C478.133 118.8 478.691 122.972 478.759 127.156C479.143 135.502 478.916 143.864 478.08 152.177L477.35 158.386C477.139 160.46 476.677 162.499 476.35 164.556C475.719 168.678 474.711 172.728 473.789 176.793C471.774 184.788 469.3 192.662 466.38 200.378C454.749 231.192 437.064 258.735 417.991 284.282C413.212 290.683 408.35 296.987 403.405 303.195L395.978 312.499L388.421 321.701C383.417 327.862 378.189 333.84 373.059 339.898C367.805 345.85 362.63 351.872 357.253 357.715C335.979 381.293 313.526 403.801 290.15 425.247C277.695 436.59 265.008 447.7 252.089 458.577C239.123 469.399 225.926 479.981 212.498 490.324C210.515 491.851 208.046 492.626 205.538 492.508C203.029 492.39 200.645 491.388 198.816 489.682C196.987 487.976 195.833 485.678 195.562 483.203C195.291 480.728 195.92 478.238 197.337 476.183L197.368 476.142C213.916 451.754 228.968 426.4 242.442 400.219C256.18 373.977 269.127 347.204 281.764 320.264L299.334 330.839L298.858 331.433C267.306 371.28 234.049 409.884 199.014 446.78C164.005 483.707 127.305 518.912 89.9523 553.231L81.4264 538.664C97.3587 533.933 113.392 529.605 129.528 525.681C145.659 521.747 161.909 518.316 178.218 515.18C194.544 512.119 210.955 509.509 227.453 507.35C243.966 505.322 260.543 503.692 277.201 502.77C299.027 501.469 320.923 501.928 342.675 504.143L338.817 516.556C334.449 514.139 329.918 512.023 325.256 510.224L321.692 508.803L318.058 507.498C315.646 506.617 313.229 505.753 310.776 504.974C301.034 501.722 291.241 498.844 281.542 496.231C271.845 493.603 262.244 491.151 252.754 488.979C243.266 486.787 233.907 484.738 224.637 483.095C211.95 480.808 205.776 479.24 206.735 477.368C207.654 475.696 216.083 473.577 231.457 474.318C250.863 475.679 270.164 478.241 289.248 481.988C298.935 483.915 308.646 486.047 318.4 488.744C323.283 490.134 328.172 491.568 333.118 493.317C335.566 494.088 338.106 495.193 340.604 496.158C341.838 496.614 343.14 497.228 344.446 497.862L348.339 499.741C350.941 500.997 353.026 503.105 354.244 505.708C355.461 508.311 355.736 511.251 355.023 514.032C354.309 516.812 352.65 519.264 350.325 520.973C348 522.683 345.152 523.545 342.261 523.416L341.001 523.355L326.157 522.674C308.604 522.247 290.683 522.716 272.678 523.888C254.673 525.061 236.573 526.955 218.67 529.67C218.591 529.816 218.504 529.958 218.411 530.096Z" fill="url(#paint0_linear_774_1955)" fill-opacity="0.7"/>
</g>
<defs>
<linearGradient id="paint0_linear_774_1955" x1="0.320314" y1="20.0883" x2="478.882" y2="14.554" gradientUnits="userSpaceOnUse">
<stop stop-color="#1C1340"/>
<stop offset="0.43" stop-color="#7345B3"/>
<stop offset="1" stop-color="#E19E12" stop-opacity="0.8"/>
</linearGradient>
</defs>
</svg>
