<svg width="340" height="184" viewBox="0 0 340 184" fill="none" xmlns="http://www.w3.org/2000/svg">
<path d="M54.06 22L61.16 6.28L68.24 22H65.96L64.44 18.64H57.82L56.28 22H54.06ZM58.68 16.64H63.56L61.14 11.18H61.1L58.68 16.64ZM74.1369 22.24C73.1902 22.24 72.3302 22.0133 71.5569 21.56C70.7969 21.1067 70.1902 20.5 69.7369 19.74C69.2969 18.98 69.0769 18.1333 69.0769 17.2C69.0769 16.2667 69.2969 15.42 69.7369 14.66C70.1902 13.9 70.7969 13.2933 71.5569 12.84C72.3302 12.3867 73.1902 12.16 74.1369 12.16C75.0702 12.16 75.9102 12.3867 76.6569 12.84V15.02C76.3635 14.7267 76.0102 14.5 75.5969 14.34C75.1835 14.18 74.7369 14.1 74.2569 14.1C73.6835 14.1 73.1635 14.24 72.6969 14.52C72.2302 14.7867 71.8635 15.1533 71.5969 15.62C71.3302 16.0867 71.1969 16.6133 71.1969 17.2C71.1969 17.7867 71.3302 18.3133 71.5969 18.78C71.8635 19.2467 72.2302 19.62 72.6969 19.9C73.1635 20.1667 73.6835 20.3 74.2569 20.3C74.7369 20.3 75.1835 20.22 75.5969 20.06C76.0102 19.9 76.3635 19.6733 76.6569 19.38V21.56C75.9102 22.0133 75.0702 22.24 74.1369 22.24ZM83.4338 22.24C82.4871 22.24 81.6271 22.0133 80.8538 21.56C80.0938 21.1067 79.4871 20.5 79.0338 19.74C78.5938 18.98 78.3738 18.1333 78.3738 17.2C78.3738 16.2667 78.5938 15.42 79.0338 14.66C79.4871 13.9 80.0938 13.2933 80.8538 12.84C81.6271 12.3867 82.4871 12.16 83.4338 12.16C84.3671 12.16 85.2071 12.3867 85.9538 12.84V15.02C85.6604 14.7267 85.3071 14.5 84.8938 14.34C84.4804 14.18 84.0338 14.1 83.5538 14.1C82.9804 14.1 82.4604 14.24 81.9938 14.52C81.5271 14.7867 81.1604 15.1533 80.8938 15.62C80.6271 16.0867 80.4938 16.6133 80.4938 17.2C80.4938 17.7867 80.6271 18.3133 80.8938 18.78C81.1604 19.2467 81.5271 19.62 81.9938 19.9C82.4604 20.1667 82.9804 20.3 83.5538 20.3C84.0338 20.3 84.4804 20.22 84.8938 20.06C85.3071 19.9 85.6604 19.6733 85.9538 19.38V21.56C85.2071 22.0133 84.3671 22.24 83.4338 22.24ZM92.5906 22.24C91.6573 22.24 90.8173 22.02 90.0706 21.58C89.3373 21.1267 88.7506 20.52 88.3106 19.76C87.884 19 87.6706 18.1533 87.6706 17.22C87.6706 16.26 87.8706 15.4 88.2706 14.64C88.684 13.8667 89.244 13.26 89.9506 12.82C90.6573 12.38 91.4573 12.16 92.3506 12.16C93.244 12.16 94.0373 12.38 94.7306 12.82C95.4373 13.26 95.9906 13.86 96.3906 14.62C96.804 15.38 97.0106 16.24 97.0106 17.2C97.0106 17.32 97.004 17.4467 96.9906 17.58C96.9906 17.7 96.984 17.82 96.9706 17.94H89.7506C89.8573 18.6333 90.1773 19.2067 90.7106 19.66C91.244 20.1 91.8773 20.32 92.6106 20.32C93.1706 20.32 93.6706 20.1867 94.1106 19.92C94.564 19.6533 94.9106 19.3 95.1506 18.86L96.8306 19.84C96.404 20.5733 95.8173 21.16 95.0706 21.6C94.3373 22.0267 93.5106 22.24 92.5906 22.24ZM89.7506 16.28H94.9106C94.8573 15.6133 94.5973 15.0667 94.1306 14.64C93.664 14.2133 93.0773 14 92.3706 14C91.664 14 91.064 14.2133 90.5706 14.64C90.0906 15.0667 89.8173 15.6133 89.7506 16.28ZM99.3291 27.08V12.4H101.289V13.36C101.689 12.9733 102.149 12.6733 102.669 12.46C103.189 12.2467 103.742 12.14 104.329 12.14C105.249 12.14 106.076 12.3667 106.809 12.82C107.542 13.2733 108.122 13.8867 108.549 14.66C108.976 15.42 109.189 16.2667 109.189 17.2C109.189 18.1333 108.976 18.98 108.549 19.74C108.122 20.5 107.542 21.1067 106.809 21.56C106.076 22.0133 105.249 22.24 104.329 22.24C103.756 22.24 103.216 22.14 102.709 21.94C102.216 21.74 101.769 21.46 101.369 21.1V27.08H99.3291ZM104.109 20.28C104.669 20.28 105.169 20.1467 105.609 19.88C106.062 19.6 106.416 19.2267 106.669 18.76C106.936 18.2933 107.069 17.7733 107.069 17.2C107.069 16.6133 106.936 16.0867 106.669 15.62C106.416 15.1533 106.062 14.7867 105.609 14.52C105.169 14.24 104.669 14.1 104.109 14.1C103.562 14.1 103.062 14.24 102.609 14.52C102.169 14.7867 101.816 15.1533 101.549 15.62C101.296 16.0867 101.169 16.6133 101.169 17.2C101.169 17.7733 101.296 18.2933 101.549 18.76C101.816 19.2267 102.169 19.6 102.609 19.88C103.062 20.1467 103.562 20.28 104.109 20.28ZM112.257 22V14.22H110.497V12.4H112.257V8.74H114.297V12.4H116.357V14.22H114.297V22H112.257ZM130.121 22.24C129.015 22.24 127.988 22.04 127.041 21.64C126.108 21.24 125.288 20.6867 124.581 19.98C123.888 19.26 123.341 18.4333 122.941 17.5C122.555 16.5533 122.361 15.54 122.361 14.46C122.361 13.38 122.555 12.3733 122.941 11.44C123.341 10.4933 123.888 9.66667 124.581 8.96C125.288 8.24 126.108 7.68 127.041 7.28C127.988 6.88 129.015 6.68 130.121 6.68C131.228 6.68 132.248 6.88 133.181 7.28C134.128 7.68 134.948 8.24 135.641 8.96C136.348 9.66667 136.895 10.4933 137.281 11.44C137.681 12.3733 137.881 13.38 137.881 14.46C137.881 15.54 137.681 16.5533 137.281 17.5C136.895 18.4333 136.348 19.26 135.641 19.98C134.948 20.6867 134.128 21.24 133.181 21.64C132.248 22.04 131.228 22.24 130.121 22.24ZM130.121 20.2C131.175 20.2 132.115 19.9467 132.941 19.44C133.781 18.9333 134.441 18.2467 134.921 17.38C135.415 16.5133 135.661 15.54 135.661 14.46C135.661 13.3667 135.415 12.3933 134.921 11.54C134.441 10.6733 133.781 9.98667 132.941 9.48C132.115 8.97333 131.175 8.72 130.121 8.72C129.068 8.72 128.121 8.97333 127.281 9.48C126.455 9.98667 125.795 10.6733 125.301 11.54C124.821 12.3933 124.581 13.3667 124.581 14.46C124.581 15.54 124.821 16.5133 125.301 17.38C125.795 18.2467 126.455 18.9333 127.281 19.44C128.121 19.9467 129.068 20.2 130.121 20.2ZM140.345 22V12.4H142.285V13.16C142.605 12.8533 142.978 12.6133 143.405 12.44C143.845 12.2533 144.318 12.16 144.825 12.16C145.345 12.16 145.825 12.2533 146.265 12.44C146.718 12.6267 147.111 12.8867 147.445 13.22C147.791 13.5667 148.058 13.9933 148.245 14.5C148.445 14.9933 148.545 15.6133 148.545 16.36V22H146.505V16.54C146.505 16.0333 146.451 15.64 146.345 15.36C146.251 15.0667 146.111 14.8333 145.925 14.66C145.538 14.2733 145.051 14.08 144.465 14.08C143.878 14.08 143.391 14.2733 143.005 14.66C142.818 14.8333 142.665 15.0667 142.545 15.36C142.438 15.64 142.385 16.0333 142.385 16.54V22H140.345ZM151.458 22V6.44H153.498V22H151.458ZM157.615 10.94C157.241 10.94 156.915 10.8 156.635 10.52C156.355 10.24 156.215 9.91333 156.215 9.54C156.215 9.15333 156.355 8.82667 156.635 8.56C156.915 8.29333 157.241 8.16 157.615 8.16C158.001 8.16 158.328 8.29333 158.595 8.56C158.861 8.82667 158.995 9.15333 158.995 9.54C158.995 9.91333 158.861 10.24 158.595 10.52C158.328 10.8 158.001 10.94 157.615 10.94ZM156.595 22V12.4H158.635V22H156.595ZM161.692 22V12.4H163.632V13.16C163.952 12.8533 164.326 12.6133 164.752 12.44C165.192 12.2533 165.666 12.16 166.172 12.16C166.692 12.16 167.172 12.2533 167.612 12.44C168.066 12.6267 168.459 12.8867 168.792 13.22C169.139 13.5667 169.406 13.9933 169.592 14.5C169.792 14.9933 169.892 15.6133 169.892 16.36V22H167.852V16.54C167.852 16.0333 167.799 15.64 167.692 15.36C167.599 15.0667 167.459 14.8333 167.272 14.66C166.886 14.2733 166.399 14.08 165.812 14.08C165.226 14.08 164.739 14.2733 164.352 14.66C164.166 14.8333 164.012 15.0667 163.892 15.36C163.786 15.64 163.732 16.0333 163.732 16.54V22H161.692ZM176.966 22.24C176.032 22.24 175.192 22.02 174.446 21.58C173.712 21.1267 173.126 20.52 172.686 19.76C172.259 19 172.046 18.1533 172.046 17.22C172.046 16.26 172.246 15.4 172.646 14.64C173.059 13.8667 173.619 13.26 174.326 12.82C175.032 12.38 175.832 12.16 176.726 12.16C177.619 12.16 178.412 12.38 179.106 12.82C179.812 13.26 180.366 13.86 180.766 14.62C181.179 15.38 181.386 16.24 181.386 17.2C181.386 17.32 181.379 17.4467 181.366 17.58C181.366 17.7 181.359 17.82 181.346 17.94H174.126C174.232 18.6333 174.552 19.2067 175.086 19.66C175.619 20.1 176.252 20.32 176.986 20.32C177.546 20.32 178.046 20.1867 178.486 19.92C178.939 19.6533 179.286 19.3 179.526 18.86L181.206 19.84C180.779 20.5733 180.192 21.16 179.446 21.6C178.712 22.0267 177.886 22.24 176.966 22.24ZM174.126 16.28H179.286C179.232 15.6133 178.972 15.0667 178.506 14.64C178.039 14.2133 177.452 14 176.746 14C176.039 14 175.439 14.2133 174.946 14.64C174.466 15.0667 174.192 15.6133 174.126 16.28ZM188.751 22V6.92H192.471C193.738 6.92 194.844 7.12 195.791 7.52C196.738 7.90667 197.551 8.43333 198.231 9.1C198.911 9.76667 199.444 10.5667 199.831 11.5C200.218 12.4333 200.411 13.42 200.411 14.46C200.411 15.5 200.218 16.4867 199.831 17.42C199.444 18.3533 198.911 19.1533 198.231 19.82C197.551 20.4867 196.738 21.02 195.791 21.42C194.844 21.8067 193.738 22 192.471 22H188.751ZM190.891 19.98H192.271C193.258 19.98 194.104 19.84 194.811 19.56C195.518 19.28 196.118 18.8933 196.611 18.4C197.104 17.8933 197.491 17.3067 197.771 16.64C198.051 15.96 198.191 15.2333 198.191 14.46C198.191 13.6733 198.051 12.9467 197.771 12.28C197.491 11.6 197.104 11.0133 196.611 10.52C196.118 10.0267 195.518 9.64 194.811 9.36C194.104 9.08 193.258 8.94 192.271 8.94H190.891V19.98ZM207.164 22.24C206.218 22.24 205.358 22.0133 204.584 21.56C203.824 21.1067 203.218 20.5 202.764 19.74C202.324 18.98 202.104 18.1333 202.104 17.2C202.104 16.2667 202.324 15.42 202.764 14.66C203.218 13.9 203.824 13.2933 204.584 12.84C205.358 12.3867 206.218 12.16 207.164 12.16C208.124 12.16 208.984 12.3867 209.744 12.84C210.518 13.2933 211.124 13.9 211.564 14.66C212.018 15.42 212.244 16.2667 212.244 17.2C212.244 18.1333 212.018 18.98 211.564 19.74C211.124 20.5 210.518 21.1067 209.744 21.56C208.984 22.0133 208.124 22.24 207.164 22.24ZM207.164 20.3C207.724 20.3 208.224 20.1667 208.664 19.9C209.118 19.62 209.471 19.2467 209.724 18.78C209.991 18.3133 210.124 17.7867 210.124 17.2C210.124 16.6133 209.991 16.0867 209.724 15.62C209.471 15.1533 209.118 14.7867 208.664 14.52C208.224 14.24 207.724 14.1 207.164 14.1C206.604 14.1 206.104 14.24 205.664 14.52C205.224 14.7867 204.871 15.1533 204.604 15.62C204.351 16.0867 204.224 16.6133 204.224 17.2C204.224 17.7867 204.351 18.3133 204.604 18.78C204.871 19.2467 205.224 19.62 205.664 19.9C206.104 20.1667 206.604 20.3 207.164 20.3ZM214.563 22V12.4H216.503V13.16C216.823 12.8533 217.197 12.6133 217.623 12.44C218.063 12.2533 218.537 12.16 219.043 12.16C219.563 12.16 220.043 12.2533 220.483 12.44C220.937 12.6267 221.33 12.8867 221.663 13.22C222.01 13.5667 222.277 13.9933 222.463 14.5C222.663 14.9933 222.763 15.6133 222.763 16.36V22H220.723V16.54C220.723 16.0333 220.67 15.64 220.563 15.36C220.47 15.0667 220.33 14.8333 220.143 14.66C219.757 14.2733 219.27 14.08 218.683 14.08C218.097 14.08 217.61 14.2733 217.223 14.66C217.037 14.8333 216.883 15.0667 216.763 15.36C216.657 15.64 216.603 16.0333 216.603 16.54V22H214.563ZM229.757 22.24C228.85 22.24 228.03 22.0133 227.297 21.56C226.563 21.1067 225.983 20.5 225.557 19.74C225.13 18.98 224.917 18.1333 224.917 17.2C224.917 16.2667 225.13 15.42 225.557 14.66C225.983 13.9 226.563 13.2933 227.297 12.84C228.03 12.3867 228.85 12.16 229.757 12.16C230.357 12.16 230.917 12.2667 231.437 12.48C231.957 12.68 232.417 12.9733 232.817 13.36V12.4H234.757V22H232.817V21.04C232.417 21.4133 231.957 21.7067 231.437 21.92C230.917 22.1333 230.357 22.24 229.757 22.24ZM229.977 20.28C230.537 20.28 231.037 20.1467 231.477 19.88C231.93 19.6133 232.283 19.2467 232.537 18.78C232.803 18.3133 232.937 17.7867 232.937 17.2C232.937 16.6133 232.803 16.0867 232.537 15.62C232.283 15.1533 231.93 14.7867 231.477 14.52C231.037 14.2533 230.537 14.12 229.977 14.12C229.417 14.12 228.917 14.2533 228.477 14.52C228.037 14.7867 227.683 15.1533 227.417 15.62C227.163 16.0867 227.037 16.6133 227.037 17.2C227.037 17.7867 227.163 18.3133 227.417 18.78C227.683 19.2467 228.037 19.6133 228.477 19.88C228.917 20.1467 229.417 20.28 229.977 20.28ZM238.604 22V14.22H236.844V12.4H238.604V8.74H240.644V12.4H242.704V14.22H240.644V22H238.604ZM245.642 10.94C245.269 10.94 244.942 10.8 244.662 10.52C244.382 10.24 244.242 9.91333 244.242 9.54C244.242 9.15333 244.382 8.82667 244.662 8.56C244.942 8.29333 245.269 8.16 245.642 8.16C246.029 8.16 246.355 8.29333 246.622 8.56C246.889 8.82667 247.022 9.15333 247.022 9.54C247.022 9.91333 246.889 10.24 246.622 10.52C246.355 10.8 246.029 10.94 245.642 10.94ZM244.622 22V12.4H246.662V22H244.622ZM254.02 22.24C253.073 22.24 252.213 22.0133 251.44 21.56C250.68 21.1067 250.073 20.5 249.62 19.74C249.18 18.98 248.96 18.1333 248.96 17.2C248.96 16.2667 249.18 15.42 249.62 14.66C250.073 13.9 250.68 13.2933 251.44 12.84C252.213 12.3867 253.073 12.16 254.02 12.16C254.98 12.16 255.84 12.3867 256.6 12.84C257.373 13.2933 257.98 13.9 258.42 14.66C258.873 15.42 259.1 16.2667 259.1 17.2C259.1 18.1333 258.873 18.98 258.42 19.74C257.98 20.5 257.373 21.1067 256.6 21.56C255.84 22.0133 254.98 22.24 254.02 22.24ZM254.02 20.3C254.58 20.3 255.08 20.1667 255.52 19.9C255.973 19.62 256.326 19.2467 256.58 18.78C256.846 18.3133 256.98 17.7867 256.98 17.2C256.98 16.6133 256.846 16.0867 256.58 15.62C256.326 15.1533 255.973 14.7867 255.52 14.52C255.08 14.24 254.58 14.1 254.02 14.1C253.46 14.1 252.96 14.24 252.52 14.52C252.08 14.7867 251.726 15.1533 251.46 15.62C251.206 16.0867 251.08 16.6133 251.08 17.2C251.08 17.7867 251.206 18.3133 251.46 18.78C251.726 19.2467 252.08 19.62 252.52 19.9C252.96 20.1667 253.46 20.3 254.02 20.3ZM261.419 22V12.4H263.359V13.16C263.679 12.8533 264.052 12.6133 264.479 12.44C264.919 12.2533 265.392 12.16 265.899 12.16C266.419 12.16 266.899 12.2533 267.339 12.44C267.792 12.6267 268.186 12.8867 268.519 13.22C268.866 13.5667 269.132 13.9933 269.319 14.5C269.519 14.9933 269.619 15.6133 269.619 16.36V22H267.579V16.54C267.579 16.0333 267.526 15.64 267.419 15.36C267.326 15.0667 267.186 14.8333 266.999 14.66C266.612 14.2733 266.126 14.08 265.539 14.08C264.952 14.08 264.466 14.2733 264.079 14.66C263.892 14.8333 263.739 15.0667 263.619 15.36C263.512 15.64 263.459 16.0333 263.459 16.54V22H261.419ZM275.072 22.24C274.219 22.24 273.472 22.0067 272.832 21.54C272.206 21.06 271.819 20.4533 271.672 19.72L273.592 19.36C273.672 19.6667 273.846 19.92 274.112 20.12C274.392 20.32 274.712 20.42 275.072 20.42C275.432 20.42 275.732 20.3133 275.972 20.1C276.212 19.8867 276.332 19.62 276.332 19.3C276.332 18.78 276.039 18.42 275.452 18.22L274.052 17.66C273.372 17.3933 272.852 17.0267 272.492 16.56C272.146 16.08 271.972 15.5333 271.972 14.92C271.972 14.4 272.106 13.9333 272.372 13.52C272.652 13.1067 273.019 12.78 273.472 12.54C273.939 12.2867 274.452 12.16 275.012 12.16C275.692 12.16 276.299 12.3467 276.832 12.72C277.366 13.08 277.726 13.5467 277.912 14.12L276.052 14.8C275.986 14.56 275.859 14.3667 275.672 14.22C275.486 14.06 275.266 13.98 275.012 13.98C274.732 13.98 274.492 14.0667 274.292 14.24C274.106 14.4 274.012 14.6133 274.012 14.88C274.012 15.0667 274.072 15.24 274.192 15.4C274.312 15.56 274.546 15.7133 274.892 15.86L276.252 16.38C276.879 16.62 277.386 16.9933 277.772 17.5C278.172 17.9933 278.372 18.5733 278.372 19.24C278.372 19.8 278.226 20.3067 277.932 20.76C277.639 21.2133 277.246 21.5733 276.752 21.84C276.259 22.1067 275.699 22.24 275.072 22.24Z" fill="black"/>
<rect y="2" width="40" height="40" rx="19.8898" fill="#715EB6"/>
<path d="M17.5137 28.0994L11.8354 22.3679L13.255 20.935L17.5137 25.2337L26.6539 16.0078L28.0735 17.4407L17.5137 28.0994Z" fill="white"/>
<rect y="72" width="40" height="40" rx="19.8898" fill="#715EB6"/>
<path d="M17.5137 98.0994L11.8354 92.3679L13.255 90.935L17.5137 95.2337L26.6539 86.0078L28.0735 87.4407L17.5137 98.0994Z" fill="white"/>
<rect y="141" width="40" height="40" rx="19.8898" fill="#715EB6"/>
<path d="M17.5137 167.099L11.8354 161.368L13.255 159.935L17.5137 164.234L26.6539 155.008L28.0735 156.441L17.5137 167.099Z" fill="white"/>
<rect x="19" y="69" width="24" height="2" rx="0.99449" transform="rotate(-90 19 69)" fill="#715EB6"/>
<rect x="19" y="139" width="24" height="2" rx="0.99449" transform="rotate(-90 19 139)" fill="#715EB6"/>
<rect x="54" y="28" width="72" height="7" rx="3.48071" fill="#DBDBDB"/>
<rect x="54" y="37" width="103" height="7" rx="3.48071" fill="#DBDBDB"/>
<path d="M55.88 161V145.92H58.02V158.98H62.62V161H55.88ZM69.0588 161.24C68.1121 161.24 67.2521 161.013 66.4788 160.56C65.7188 160.107 65.1121 159.5 64.6588 158.74C64.2188 157.98 63.9988 157.133 63.9988 156.2C63.9988 155.267 64.2188 154.42 64.6588 153.66C65.1121 152.9 65.7188 152.293 66.4788 151.84C67.2521 151.387 68.1121 151.16 69.0588 151.16C70.0188 151.16 70.8788 151.387 71.6388 151.84C72.4121 152.293 73.0188 152.9 73.4588 153.66C73.9121 154.42 74.1388 155.267 74.1388 156.2C74.1388 157.133 73.9121 157.98 73.4588 158.74C73.0188 159.5 72.4121 160.107 71.6388 160.56C70.8788 161.013 70.0188 161.24 69.0588 161.24ZM69.0588 159.3C69.6188 159.3 70.1188 159.167 70.5588 158.9C71.0121 158.62 71.3654 158.247 71.6188 157.78C71.8854 157.313 72.0188 156.787 72.0188 156.2C72.0188 155.613 71.8854 155.087 71.6188 154.62C71.3654 154.153 71.0121 153.787 70.5588 153.52C70.1188 153.24 69.6188 153.1 69.0588 153.1C68.4988 153.1 67.9988 153.24 67.5588 153.52C67.1188 153.787 66.7654 154.153 66.4988 154.62C66.2454 155.087 66.1188 155.613 66.1188 156.2C66.1188 156.787 66.2454 157.313 66.4988 157.78C66.7654 158.247 67.1188 158.62 67.5588 158.9C67.9988 159.167 68.4988 159.3 69.0588 159.3ZM80.818 166.32C79.9513 166.32 79.1646 166.133 78.458 165.76C77.7646 165.4 77.2046 164.907 76.778 164.28C76.3646 163.653 76.138 162.953 76.098 162.18H78.118C78.1846 162.833 78.4646 163.367 78.958 163.78C79.4646 164.193 80.0846 164.4 80.818 164.4C81.6446 164.4 82.3113 164.127 82.818 163.58C83.0446 163.34 83.218 163.027 83.338 162.64C83.4713 162.267 83.538 161.76 83.538 161.12V160.08C83.138 160.453 82.6846 160.74 82.178 160.94C81.6713 161.14 81.1246 161.24 80.538 161.24C79.6313 161.24 78.8113 161.013 78.078 160.56C77.3446 160.107 76.7646 159.5 76.338 158.74C75.9113 157.98 75.698 157.133 75.698 156.2C75.698 155.267 75.9113 154.42 76.338 153.66C76.7646 152.9 77.3446 152.293 78.078 151.84C78.8113 151.387 79.6313 151.16 80.538 151.16C81.138 151.16 81.698 151.267 82.218 151.48C82.738 151.68 83.198 151.973 83.598 152.36V151.4H85.538V161.16C85.538 162.04 85.4313 162.773 85.218 163.36C85.0046 163.96 84.698 164.467 84.298 164.88C83.8846 165.333 83.378 165.687 82.778 165.94C82.178 166.193 81.5246 166.32 80.818 166.32ZM80.758 159.28C81.318 159.28 81.818 159.147 82.258 158.88C82.7113 158.613 83.0646 158.247 83.318 157.78C83.5846 157.313 83.718 156.787 83.718 156.2C83.718 155.613 83.5846 155.087 83.318 154.62C83.0646 154.153 82.7113 153.787 82.258 153.52C81.818 153.253 81.318 153.12 80.758 153.12C80.198 153.12 79.698 153.253 79.258 153.52C78.818 153.787 78.4646 154.153 78.198 154.62C77.9446 155.087 77.818 155.613 77.818 156.2C77.818 156.787 77.9446 157.313 78.198 157.78C78.4646 158.247 78.818 158.613 79.258 158.88C79.698 159.147 80.198 159.28 80.758 159.28ZM97.3739 161.24C96.4672 161.24 95.6472 161.013 94.9139 160.56C94.1806 160.107 93.6006 159.5 93.1739 158.74C92.7472 157.98 92.5339 157.133 92.5339 156.2C92.5339 155.267 92.7472 154.42 93.1739 153.66C93.6006 152.9 94.1806 152.293 94.9139 151.84C95.6472 151.387 96.4672 151.16 97.3739 151.16C97.9606 151.16 98.5006 151.26 98.9939 151.46C99.5006 151.66 99.9472 151.94 100.334 152.3V145.44H102.374V161H100.434V160.04C100.034 160.413 99.5739 160.707 99.0539 160.92C98.5339 161.133 97.9739 161.24 97.3739 161.24ZM97.5939 159.28C98.1539 159.28 98.6539 159.147 99.0939 158.88C99.5472 158.613 99.9006 158.247 100.154 157.78C100.421 157.313 100.554 156.787 100.554 156.2C100.554 155.613 100.421 155.087 100.154 154.62C99.9006 154.153 99.5472 153.787 99.0939 153.52C98.6539 153.253 98.1539 153.12 97.5939 153.12C97.0339 153.12 96.5339 153.253 96.0939 153.52C95.6539 153.787 95.3006 154.153 95.0339 154.62C94.7806 155.087 94.6539 155.613 94.6539 156.2C94.6539 156.787 94.7806 157.313 95.0339 157.78C95.3006 158.247 95.6539 158.613 96.0939 158.88C96.5339 159.147 97.0339 159.28 97.5939 159.28ZM109.781 161.24C108.835 161.24 107.975 161.013 107.201 160.56C106.441 160.107 105.835 159.5 105.381 158.74C104.941 157.98 104.721 157.133 104.721 156.2C104.721 155.267 104.941 154.42 105.381 153.66C105.835 152.9 106.441 152.293 107.201 151.84C107.975 151.387 108.835 151.16 109.781 151.16C110.741 151.16 111.601 151.387 112.361 151.84C113.135 152.293 113.741 152.9 114.181 153.66C114.635 154.42 114.861 155.267 114.861 156.2C114.861 157.133 114.635 157.98 114.181 158.74C113.741 159.5 113.135 160.107 112.361 160.56C111.601 161.013 110.741 161.24 109.781 161.24ZM109.781 159.3C110.341 159.3 110.841 159.167 111.281 158.9C111.735 158.62 112.088 158.247 112.341 157.78C112.608 157.313 112.741 156.787 112.741 156.2C112.741 155.613 112.608 155.087 112.341 154.62C112.088 154.153 111.735 153.787 111.281 153.52C110.841 153.24 110.341 153.1 109.781 153.1C109.221 153.1 108.721 153.24 108.281 153.52C107.841 153.787 107.488 154.153 107.221 154.62C106.968 155.087 106.841 155.613 106.841 156.2C106.841 156.787 106.968 157.313 107.221 157.78C107.488 158.247 107.841 158.62 108.281 158.9C108.721 159.167 109.221 159.3 109.781 159.3ZM117.181 161V151.4H119.121V152.16C119.441 151.853 119.814 151.613 120.241 151.44C120.681 151.253 121.154 151.16 121.661 151.16C122.181 151.16 122.661 151.253 123.101 151.44C123.554 151.627 123.947 151.887 124.281 152.22C124.627 152.567 124.894 152.993 125.081 153.5C125.281 153.993 125.381 154.613 125.381 155.36V161H123.341V155.54C123.341 155.033 123.287 154.64 123.181 154.36C123.087 154.067 122.947 153.833 122.761 153.66C122.374 153.273 121.887 153.08 121.301 153.08C120.714 153.08 120.227 153.273 119.841 153.66C119.654 153.833 119.501 154.067 119.381 154.36C119.274 154.64 119.221 155.033 119.221 155.54V161H117.181ZM132.374 161.24C131.467 161.24 130.647 161.013 129.914 160.56C129.181 160.107 128.601 159.5 128.174 158.74C127.747 157.98 127.534 157.133 127.534 156.2C127.534 155.267 127.747 154.42 128.174 153.66C128.601 152.9 129.181 152.293 129.914 151.84C130.647 151.387 131.467 151.16 132.374 151.16C132.974 151.16 133.534 151.267 134.054 151.48C134.574 151.68 135.034 151.973 135.434 152.36V151.4H137.374V161H135.434V160.04C135.034 160.413 134.574 160.707 134.054 160.92C133.534 161.133 132.974 161.24 132.374 161.24ZM132.594 159.28C133.154 159.28 133.654 159.147 134.094 158.88C134.547 158.613 134.901 158.247 135.154 157.78C135.421 157.313 135.554 156.787 135.554 156.2C135.554 155.613 135.421 155.087 135.154 154.62C134.901 154.153 134.547 153.787 134.094 153.52C133.654 153.253 133.154 153.12 132.594 153.12C132.034 153.12 131.534 153.253 131.094 153.52C130.654 153.787 130.301 154.153 130.034 154.62C129.781 155.087 129.654 155.613 129.654 156.2C129.654 156.787 129.781 157.313 130.034 157.78C130.301 158.247 130.654 158.613 131.094 158.88C131.534 159.147 132.034 159.28 132.594 159.28ZM141.221 161V153.22H139.461V151.4H141.221V147.74H143.261V151.4H145.321V153.22H143.261V161H141.221ZM148.259 149.94C147.886 149.94 147.559 149.8 147.279 149.52C146.999 149.24 146.859 148.913 146.859 148.54C146.859 148.153 146.999 147.827 147.279 147.56C147.559 147.293 147.886 147.16 148.259 147.16C148.646 147.16 148.973 147.293 149.239 147.56C149.506 147.827 149.639 148.153 149.639 148.54C149.639 148.913 149.506 149.24 149.239 149.52C148.973 149.8 148.646 149.94 148.259 149.94ZM147.239 161V151.4H149.279V161H147.239ZM156.637 161.24C155.69 161.24 154.83 161.013 154.057 160.56C153.297 160.107 152.69 159.5 152.237 158.74C151.797 157.98 151.577 157.133 151.577 156.2C151.577 155.267 151.797 154.42 152.237 153.66C152.69 152.9 153.297 152.293 154.057 151.84C154.83 151.387 155.69 151.16 156.637 151.16C157.597 151.16 158.457 151.387 159.217 151.84C159.99 152.293 160.597 152.9 161.037 153.66C161.49 154.42 161.717 155.267 161.717 156.2C161.717 157.133 161.49 157.98 161.037 158.74C160.597 159.5 159.99 160.107 159.217 160.56C158.457 161.013 157.597 161.24 156.637 161.24ZM156.637 159.3C157.197 159.3 157.697 159.167 158.137 158.9C158.59 158.62 158.944 158.247 159.197 157.78C159.464 157.313 159.597 156.787 159.597 156.2C159.597 155.613 159.464 155.087 159.197 154.62C158.944 154.153 158.59 153.787 158.137 153.52C157.697 153.24 157.197 153.1 156.637 153.1C156.077 153.1 155.577 153.24 155.137 153.52C154.697 153.787 154.344 154.153 154.077 154.62C153.824 155.087 153.697 155.613 153.697 156.2C153.697 156.787 153.824 157.313 154.077 157.78C154.344 158.247 154.697 158.62 155.137 158.9C155.577 159.167 156.077 159.3 156.637 159.3ZM164.036 161V151.4H165.976V152.16C166.296 151.853 166.669 151.613 167.096 151.44C167.536 151.253 168.009 151.16 168.516 151.16C169.036 151.16 169.516 151.253 169.956 151.44C170.409 151.627 170.803 151.887 171.136 152.22C171.483 152.567 171.749 152.993 171.936 153.5C172.136 153.993 172.236 154.613 172.236 155.36V161H170.196V155.54C170.196 155.033 170.143 154.64 170.036 154.36C169.943 154.067 169.803 153.833 169.616 153.66C169.229 153.273 168.743 153.08 168.156 153.08C167.569 153.08 167.083 153.273 166.696 153.66C166.509 153.833 166.356 154.067 166.236 154.36C166.129 154.64 166.076 155.033 166.076 155.54V161H164.036ZM177.689 161.24C176.836 161.24 176.089 161.007 175.449 160.54C174.823 160.06 174.436 159.453 174.289 158.72L176.209 158.36C176.289 158.667 176.463 158.92 176.729 159.12C177.009 159.32 177.329 159.42 177.689 159.42C178.049 159.42 178.349 159.313 178.589 159.1C178.829 158.887 178.949 158.62 178.949 158.3C178.949 157.78 178.656 157.42 178.069 157.22L176.669 156.66C175.989 156.393 175.469 156.027 175.109 155.56C174.763 155.08 174.589 154.533 174.589 153.92C174.589 153.4 174.723 152.933 174.989 152.52C175.269 152.107 175.636 151.78 176.089 151.54C176.556 151.287 177.069 151.16 177.629 151.16C178.309 151.16 178.916 151.347 179.449 151.72C179.983 152.08 180.343 152.547 180.529 153.12L178.669 153.8C178.603 153.56 178.476 153.367 178.289 153.22C178.103 153.06 177.883 152.98 177.629 152.98C177.349 152.98 177.109 153.067 176.909 153.24C176.723 153.4 176.629 153.613 176.629 153.88C176.629 154.067 176.689 154.24 176.809 154.4C176.929 154.56 177.163 154.713 177.509 154.86L178.869 155.38C179.496 155.62 180.003 155.993 180.389 156.5C180.789 156.993 180.989 157.573 180.989 158.24C180.989 158.8 180.843 159.307 180.549 159.76C180.256 160.213 179.863 160.573 179.369 160.84C178.876 161.107 178.316 161.24 177.689 161.24ZM189.001 149.94C188.628 149.94 188.301 149.8 188.021 149.52C187.741 149.24 187.601 148.913 187.601 148.54C187.601 148.153 187.741 147.827 188.021 147.56C188.301 147.293 188.628 147.16 189.001 147.16C189.388 147.16 189.715 147.293 189.981 147.56C190.248 147.827 190.381 148.153 190.381 148.54C190.381 148.913 190.248 149.24 189.981 149.52C189.715 149.8 189.388 149.94 189.001 149.94ZM187.981 161V151.4H190.021V161H187.981ZM193.079 161V151.4H195.019V152.16C195.339 151.853 195.712 151.613 196.139 151.44C196.579 151.253 197.052 151.16 197.559 151.16C198.079 151.16 198.559 151.253 198.999 151.44C199.452 151.627 199.846 151.887 200.179 152.22C200.526 152.567 200.792 152.993 200.979 153.5C201.179 153.993 201.279 154.613 201.279 155.36V161H199.239V155.54C199.239 155.033 199.186 154.64 199.079 154.36C198.986 154.067 198.846 153.833 198.659 153.66C198.272 153.273 197.786 153.08 197.199 153.08C196.612 153.08 196.126 153.273 195.739 153.66C195.552 153.833 195.399 154.067 195.279 154.36C195.172 154.64 195.119 155.033 195.119 155.54V161H193.079ZM209.639 161V153.22H207.879V151.4H209.639V147.74H211.679V151.4H213.739V153.22H211.679V161H209.639ZM215.657 161V145.44H217.697V152.04C218.017 151.773 218.384 151.56 218.797 151.4C219.211 151.24 219.657 151.16 220.137 151.16C220.657 151.16 221.137 151.253 221.577 151.44C222.031 151.627 222.424 151.887 222.757 152.22C223.104 152.567 223.371 152.993 223.557 153.5C223.757 153.993 223.857 154.613 223.857 155.36V161H221.817V155.54C221.817 155.033 221.764 154.64 221.657 154.36C221.564 154.067 221.424 153.833 221.237 153.66C220.851 153.273 220.364 153.08 219.777 153.08C219.191 153.08 218.704 153.273 218.317 153.66C218.131 153.833 217.977 154.067 217.857 154.36C217.751 154.64 217.697 155.033 217.697 155.54V161H215.657ZM230.93 161.24C229.997 161.24 229.157 161.02 228.41 160.58C227.677 160.127 227.09 159.52 226.65 158.76C226.224 158 226.01 157.153 226.01 156.22C226.01 155.26 226.21 154.4 226.61 153.64C227.024 152.867 227.584 152.26 228.29 151.82C228.997 151.38 229.797 151.16 230.69 151.16C231.584 151.16 232.377 151.38 233.07 151.82C233.777 152.26 234.33 152.86 234.73 153.62C235.144 154.38 235.35 155.24 235.35 156.2C235.35 156.32 235.344 156.447 235.33 156.58C235.33 156.7 235.324 156.82 235.31 156.94H228.09C228.197 157.633 228.517 158.207 229.05 158.66C229.584 159.1 230.217 159.32 230.95 159.32C231.51 159.32 232.01 159.187 232.45 158.92C232.904 158.653 233.25 158.3 233.49 157.86L235.17 158.84C234.744 159.573 234.157 160.16 233.41 160.6C232.677 161.027 231.85 161.24 230.93 161.24ZM228.09 155.28H233.25C233.197 154.613 232.937 154.067 232.47 153.64C232.004 153.213 231.417 153 230.71 153C230.004 153 229.404 153.213 228.91 153.64C228.43 154.067 228.157 154.613 228.09 155.28ZM246.456 161.24C245.549 161.24 244.729 161.013 243.996 160.56C243.263 160.107 242.683 159.5 242.256 158.74C241.829 157.98 241.616 157.133 241.616 156.2C241.616 155.267 241.829 154.42 242.256 153.66C242.683 152.9 243.263 152.293 243.996 151.84C244.729 151.387 245.549 151.16 246.456 151.16C247.043 151.16 247.583 151.26 248.076 151.46C248.583 151.66 249.029 151.94 249.416 152.3V145.44H251.456V161H249.516V160.04C249.116 160.413 248.656 160.707 248.136 160.92C247.616 161.133 247.056 161.24 246.456 161.24ZM246.676 159.28C247.236 159.28 247.736 159.147 248.176 158.88C248.629 158.613 248.983 158.247 249.236 157.78C249.503 157.313 249.636 156.787 249.636 156.2C249.636 155.613 249.503 155.087 249.236 154.62C248.983 154.153 248.629 153.787 248.176 153.52C247.736 153.253 247.236 153.12 246.676 153.12C246.116 153.12 245.616 153.253 245.176 153.52C244.736 153.787 244.383 154.153 244.116 154.62C243.863 155.087 243.736 155.613 243.736 156.2C243.736 156.787 243.863 157.313 244.116 157.78C244.383 158.247 244.736 158.613 245.176 158.88C245.616 159.147 246.116 159.28 246.676 159.28ZM258.643 161.24C257.737 161.24 256.917 161.013 256.183 160.56C255.45 160.107 254.87 159.5 254.443 158.74C254.017 157.98 253.803 157.133 253.803 156.2C253.803 155.267 254.017 154.42 254.443 153.66C254.87 152.9 255.45 152.293 256.183 151.84C256.917 151.387 257.737 151.16 258.643 151.16C259.243 151.16 259.803 151.267 260.323 151.48C260.843 151.68 261.303 151.973 261.703 152.36V151.4H263.643V161H261.703V160.04C261.303 160.413 260.843 160.707 260.323 160.92C259.803 161.133 259.243 161.24 258.643 161.24ZM258.863 159.28C259.423 159.28 259.923 159.147 260.363 158.88C260.817 158.613 261.17 158.247 261.423 157.78C261.69 157.313 261.823 156.787 261.823 156.2C261.823 155.613 261.69 155.087 261.423 154.62C261.17 154.153 260.817 153.787 260.363 153.52C259.923 153.253 259.423 153.12 258.863 153.12C258.303 153.12 257.803 153.253 257.363 153.52C256.923 153.787 256.57 154.153 256.303 154.62C256.05 155.087 255.923 155.613 255.923 156.2C255.923 156.787 256.05 157.313 256.303 157.78C256.57 158.247 256.923 158.613 257.363 158.88C257.803 159.147 258.303 159.28 258.863 159.28ZM269.291 161.24C268.438 161.24 267.691 161.007 267.051 160.54C266.424 160.06 266.038 159.453 265.891 158.72L267.811 158.36C267.891 158.667 268.064 158.92 268.331 159.12C268.611 159.32 268.931 159.42 269.291 159.42C269.651 159.42 269.951 159.313 270.191 159.1C270.431 158.887 270.551 158.62 270.551 158.3C270.551 157.78 270.258 157.42 269.671 157.22L268.271 156.66C267.591 156.393 267.071 156.027 266.711 155.56C266.364 155.08 266.191 154.533 266.191 153.92C266.191 153.4 266.324 152.933 266.591 152.52C266.871 152.107 267.238 151.78 267.691 151.54C268.158 151.287 268.671 151.16 269.231 151.16C269.911 151.16 270.518 151.347 271.051 151.72C271.584 152.08 271.944 152.547 272.131 153.12L270.271 153.8C270.204 153.56 270.078 153.367 269.891 153.22C269.704 153.06 269.484 152.98 269.231 152.98C268.951 152.98 268.711 153.067 268.511 153.24C268.324 153.4 268.231 153.613 268.231 153.88C268.231 154.067 268.291 154.24 268.411 154.4C268.531 154.56 268.764 154.713 269.111 154.86L270.471 155.38C271.098 155.62 271.604 155.993 271.991 156.5C272.391 156.993 272.591 157.573 272.591 158.24C272.591 158.8 272.444 159.307 272.151 159.76C271.858 160.213 271.464 160.573 270.971 160.84C270.478 161.107 269.918 161.24 269.291 161.24ZM274.876 161V145.44H276.916V152.04C277.236 151.773 277.603 151.56 278.016 151.4C278.429 151.24 278.876 151.16 279.356 151.16C279.876 151.16 280.356 151.253 280.796 151.44C281.249 151.627 281.643 151.887 281.976 152.22C282.323 152.567 282.589 152.993 282.776 153.5C282.976 153.993 283.076 154.613 283.076 155.36V161H281.036V155.54C281.036 155.033 280.983 154.64 280.876 154.36C280.783 154.067 280.643 153.833 280.456 153.66C280.069 153.273 279.583 153.08 278.996 153.08C278.409 153.08 277.923 153.273 277.536 153.66C277.349 153.833 277.196 154.067 277.076 154.36C276.969 154.64 276.916 155.033 276.916 155.54V161H274.876ZM290.989 161.24C290.403 161.24 289.849 161.133 289.329 160.92C288.809 160.707 288.349 160.413 287.949 160.04V161H285.989V145.44H288.029V152.3C288.429 151.94 288.876 151.66 289.369 151.46C289.876 151.26 290.416 151.16 290.989 151.16C291.909 151.16 292.736 151.387 293.469 151.84C294.203 152.293 294.783 152.9 295.209 153.66C295.636 154.42 295.849 155.267 295.849 156.2C295.849 157.133 295.636 157.98 295.209 158.74C294.783 159.5 294.203 160.107 293.469 160.56C292.736 161.013 291.909 161.24 290.989 161.24ZM290.769 159.28C291.329 159.28 291.829 159.147 292.269 158.88C292.723 158.613 293.076 158.247 293.329 157.78C293.596 157.313 293.729 156.787 293.729 156.2C293.729 155.613 293.596 155.087 293.329 154.62C293.076 154.153 292.723 153.787 292.269 153.52C291.829 153.253 291.329 153.12 290.769 153.12C290.223 153.12 289.723 153.253 289.269 153.52C288.829 153.787 288.476 154.153 288.209 154.62C287.956 155.087 287.829 155.613 287.829 156.2C287.829 156.787 287.956 157.313 288.209 157.78C288.476 158.247 288.829 158.613 289.269 158.88C289.723 159.147 290.223 159.28 290.769 159.28ZM302.477 161.24C301.53 161.24 300.67 161.013 299.897 160.56C299.137 160.107 298.53 159.5 298.077 158.74C297.637 157.98 297.417 157.133 297.417 156.2C297.417 155.267 297.637 154.42 298.077 153.66C298.53 152.9 299.137 152.293 299.897 151.84C300.67 151.387 301.53 151.16 302.477 151.16C303.437 151.16 304.297 151.387 305.057 151.84C305.83 152.293 306.437 152.9 306.877 153.66C307.33 154.42 307.557 155.267 307.557 156.2C307.557 157.133 307.33 157.98 306.877 158.74C306.437 159.5 305.83 160.107 305.057 160.56C304.297 161.013 303.437 161.24 302.477 161.24ZM302.477 159.3C303.037 159.3 303.537 159.167 303.977 158.9C304.43 158.62 304.783 158.247 305.037 157.78C305.303 157.313 305.437 156.787 305.437 156.2C305.437 155.613 305.303 155.087 305.037 154.62C304.783 154.153 304.43 153.787 303.977 153.52C303.537 153.24 303.037 153.1 302.477 153.1C301.917 153.1 301.417 153.24 300.977 153.52C300.537 153.787 300.183 154.153 299.917 154.62C299.663 155.087 299.537 155.613 299.537 156.2C299.537 156.787 299.663 157.313 299.917 157.78C300.183 158.247 300.537 158.62 300.977 158.9C301.417 159.167 301.917 159.3 302.477 159.3ZM313.956 161.24C313.049 161.24 312.229 161.013 311.496 160.56C310.763 160.107 310.183 159.5 309.756 158.74C309.329 157.98 309.116 157.133 309.116 156.2C309.116 155.267 309.329 154.42 309.756 153.66C310.183 152.9 310.763 152.293 311.496 151.84C312.229 151.387 313.049 151.16 313.956 151.16C314.556 151.16 315.116 151.267 315.636 151.48C316.156 151.68 316.616 151.973 317.016 152.36V151.4H318.956V161H317.016V160.04C316.616 160.413 316.156 160.707 315.636 160.92C315.116 161.133 314.556 161.24 313.956 161.24ZM314.176 159.28C314.736 159.28 315.236 159.147 315.676 158.88C316.129 158.613 316.483 158.247 316.736 157.78C317.003 157.313 317.136 156.787 317.136 156.2C317.136 155.613 317.003 155.087 316.736 154.62C316.483 154.153 316.129 153.787 315.676 153.52C315.236 153.253 314.736 153.12 314.176 153.12C313.616 153.12 313.116 153.253 312.676 153.52C312.236 153.787 311.883 154.153 311.616 154.62C311.363 155.087 311.236 155.613 311.236 156.2C311.236 156.787 311.363 157.313 311.616 157.78C311.883 158.247 312.236 158.613 312.676 158.88C313.116 159.147 313.616 159.28 314.176 159.28ZM322.063 161V151.4H324.003V152.62C324.043 152.553 324.083 152.5 324.123 152.46C324.177 152.407 324.23 152.353 324.283 152.3C324.59 151.993 324.957 151.753 325.383 151.58C325.823 151.393 326.29 151.3 326.783 151.3C326.89 151.3 326.997 151.307 327.103 151.32C327.21 151.32 327.317 151.327 327.423 151.34V153.28C327.317 153.267 327.21 153.26 327.103 153.26C326.997 153.247 326.883 153.24 326.763 153.24C325.963 153.24 325.323 153.493 324.843 154C324.617 154.227 324.437 154.513 324.303 154.86C324.17 155.193 324.103 155.64 324.103 156.2V161H322.063ZM333.429 161.24C332.522 161.24 331.702 161.013 330.969 160.56C330.235 160.107 329.655 159.5 329.229 158.74C328.802 157.98 328.589 157.133 328.589 156.2C328.589 155.267 328.802 154.42 329.229 153.66C329.655 152.9 330.235 152.293 330.969 151.84C331.702 151.387 332.522 151.16 333.429 151.16C334.015 151.16 334.555 151.26 335.049 151.46C335.555 151.66 336.002 151.94 336.389 152.3V145.44H338.429V161H336.489V160.04C336.089 160.413 335.629 160.707 335.109 160.92C334.589 161.133 334.029 161.24 333.429 161.24ZM333.649 159.28C334.209 159.28 334.709 159.147 335.149 158.88C335.602 158.613 335.955 158.247 336.209 157.78C336.475 157.313 336.609 156.787 336.609 156.2C336.609 155.613 336.475 155.087 336.209 154.62C335.955 154.153 335.602 153.787 335.149 153.52C334.709 153.253 334.209 153.12 333.649 153.12C333.089 153.12 332.589 153.253 332.149 153.52C331.709 153.787 331.355 154.153 331.089 154.62C330.835 155.087 330.709 155.613 330.709 156.2C330.709 156.787 330.835 157.313 331.089 157.78C331.355 158.247 331.709 158.613 332.149 158.88C332.589 159.147 333.089 159.28 333.649 159.28Z" fill="black"/>
<path d="M55.88 91V75.92H59.66C60.5 75.92 61.2067 76.0333 61.78 76.26C62.3533 76.4867 62.84 76.8067 63.24 77.22C63.64 77.6067 63.9533 78.0733 64.18 78.62C64.4067 79.1667 64.52 79.7533 64.52 80.38C64.52 80.9933 64.4067 81.5733 64.18 82.12C63.9533 82.6667 63.64 83.14 63.24 83.54C62.84 83.94 62.3533 84.2533 61.78 84.48C61.2067 84.7067 60.5 84.82 59.66 84.82H58.02V91H55.88ZM58.02 82.82H59.46C60.0067 82.82 60.4467 82.76 60.78 82.64C61.1133 82.5067 61.3867 82.3267 61.6 82.1C61.8133 81.8867 61.98 81.6333 62.1 81.34C62.2333 81.0333 62.3 80.7133 62.3 80.38C62.3 80.0333 62.2333 79.7133 62.1 79.42C61.98 79.1133 61.8133 78.8533 61.6 78.64C61.3867 78.4133 61.1133 78.24 60.78 78.12C60.4467 78 60.0067 77.94 59.46 77.94H58.02V82.82ZM66.6533 91V81.4H68.5933V82.62C68.6333 82.5533 68.6733 82.5 68.7133 82.46C68.7666 82.4067 68.8199 82.3533 68.8733 82.3C69.1799 81.9933 69.5466 81.7533 69.9733 81.58C70.4133 81.3933 70.8799 81.3 71.3733 81.3C71.4799 81.3 71.5866 81.3067 71.6933 81.32C71.7999 81.32 71.9066 81.3267 72.0133 81.34V83.28C71.9066 83.2667 71.7999 83.26 71.6933 83.26C71.5866 83.2467 71.4733 83.24 71.3533 83.24C70.5533 83.24 69.9133 83.4933 69.4333 84C69.2066 84.2267 69.0266 84.5133 68.8933 84.86C68.7599 85.1933 68.6933 85.64 68.6933 86.2V91H66.6533ZM78.2384 91.24C77.2918 91.24 76.4318 91.0133 75.6584 90.56C74.8984 90.1067 74.2918 89.5 73.8384 88.74C73.3984 87.98 73.1784 87.1333 73.1784 86.2C73.1784 85.2667 73.3984 84.42 73.8384 83.66C74.2918 82.9 74.8984 82.2933 75.6584 81.84C76.4318 81.3867 77.2918 81.16 78.2384 81.16C79.1984 81.16 80.0584 81.3867 80.8184 81.84C81.5918 82.2933 82.1984 82.9 82.6384 83.66C83.0918 84.42 83.3184 85.2667 83.3184 86.2C83.3184 87.1333 83.0918 87.98 82.6384 88.74C82.1984 89.5 81.5918 90.1067 80.8184 90.56C80.0584 91.0133 79.1984 91.24 78.2384 91.24ZM78.2384 89.3C78.7984 89.3 79.2984 89.1667 79.7384 88.9C80.1918 88.62 80.5451 88.2467 80.7984 87.78C81.0651 87.3133 81.1984 86.7867 81.1984 86.2C81.1984 85.6133 81.0651 85.0867 80.7984 84.62C80.5451 84.1533 80.1918 83.7867 79.7384 83.52C79.2984 83.24 78.7984 83.1 78.2384 83.1C77.6784 83.1 77.1784 83.24 76.7384 83.52C76.2984 83.7867 75.9451 84.1533 75.6784 84.62C75.4251 85.0867 75.2984 85.6133 75.2984 86.2C75.2984 86.7867 75.4251 87.3133 75.6784 87.78C75.9451 88.2467 76.2984 88.62 76.7384 88.9C77.1784 89.1667 77.6784 89.3 78.2384 89.3ZM89.9377 91.24C88.991 91.24 88.131 91.0133 87.3577 90.56C86.5977 90.1067 85.991 89.5 85.5377 88.74C85.0977 87.98 84.8777 87.1333 84.8777 86.2C84.8777 85.2667 85.0977 84.42 85.5377 83.66C85.991 82.9 86.5977 82.2933 87.3577 81.84C88.131 81.3867 88.991 81.16 89.9377 81.16C90.871 81.16 91.711 81.3867 92.4577 81.84V84.02C92.1643 83.7267 91.811 83.5 91.3977 83.34C90.9843 83.18 90.5377 83.1 90.0577 83.1C89.4843 83.1 88.9643 83.24 88.4977 83.52C88.031 83.7867 87.6643 84.1533 87.3977 84.62C87.131 85.0867 86.9977 85.6133 86.9977 86.2C86.9977 86.7867 87.131 87.3133 87.3977 87.78C87.6643 88.2467 88.031 88.62 88.4977 88.9C88.9643 89.1667 89.4843 89.3 90.0577 89.3C90.5377 89.3 90.9843 89.22 91.3977 89.06C91.811 88.9 92.1643 88.6733 92.4577 88.38V90.56C91.711 91.0133 90.871 91.24 89.9377 91.24ZM99.0945 91.24C98.1612 91.24 97.3212 91.02 96.5745 90.58C95.8412 90.1267 95.2545 89.52 94.8145 88.76C94.3879 88 94.1745 87.1533 94.1745 86.22C94.1745 85.26 94.3745 84.4 94.7745 83.64C95.1879 82.8667 95.7479 82.26 96.4545 81.82C97.1612 81.38 97.9612 81.16 98.8545 81.16C99.7479 81.16 100.541 81.38 101.235 81.82C101.941 82.26 102.495 82.86 102.895 83.62C103.308 84.38 103.515 85.24 103.515 86.2C103.515 86.32 103.508 86.4467 103.495 86.58C103.495 86.7 103.488 86.82 103.475 86.94H96.2545C96.3612 87.6333 96.6812 88.2067 97.2145 88.66C97.7479 89.1 98.3812 89.32 99.1145 89.32C99.6745 89.32 100.175 89.1867 100.615 88.92C101.068 88.6533 101.415 88.3 101.655 87.86L103.335 88.84C102.908 89.5733 102.321 90.16 101.575 90.6C100.841 91.0267 100.015 91.24 99.0945 91.24ZM96.2545 85.28H101.415C101.361 84.6133 101.101 84.0667 100.635 83.64C100.168 83.2133 99.5812 83 98.8745 83C98.1679 83 97.5679 83.2133 97.0745 83.64C96.5945 84.0667 96.3212 84.6133 96.2545 85.28ZM108.373 91.24C107.52 91.24 106.773 91.0067 106.133 90.54C105.506 90.06 105.12 89.4533 104.973 88.72L106.893 88.36C106.973 88.6667 107.146 88.92 107.413 89.12C107.693 89.32 108.013 89.42 108.373 89.42C108.733 89.42 109.033 89.3133 109.273 89.1C109.513 88.8867 109.633 88.62 109.633 88.3C109.633 87.78 109.34 87.42 108.753 87.22L107.353 86.66C106.673 86.3933 106.153 86.0267 105.793 85.56C105.446 85.08 105.273 84.5333 105.273 83.92C105.273 83.4 105.406 82.9333 105.673 82.52C105.953 82.1067 106.32 81.78 106.773 81.54C107.24 81.2867 107.753 81.16 108.313 81.16C108.993 81.16 109.6 81.3467 110.133 81.72C110.666 82.08 111.026 82.5467 111.213 83.12L109.353 83.8C109.286 83.56 109.16 83.3667 108.973 83.22C108.786 83.06 108.566 82.98 108.313 82.98C108.033 82.98 107.793 83.0667 107.593 83.24C107.406 83.4 107.313 83.6133 107.313 83.88C107.313 84.0667 107.373 84.24 107.493 84.4C107.613 84.56 107.846 84.7133 108.193 84.86L109.553 85.38C110.18 85.62 110.686 85.9933 111.073 86.5C111.473 86.9933 111.673 87.5733 111.673 88.24C111.673 88.8 111.526 89.3067 111.233 89.76C110.94 90.2133 110.546 90.5733 110.053 90.84C109.56 91.1067 109 91.24 108.373 91.24ZM116.498 91.24C115.645 91.24 114.898 91.0067 114.258 90.54C113.631 90.06 113.245 89.4533 113.098 88.72L115.018 88.36C115.098 88.6667 115.271 88.92 115.538 89.12C115.818 89.32 116.138 89.42 116.498 89.42C116.858 89.42 117.158 89.3133 117.398 89.1C117.638 88.8867 117.758 88.62 117.758 88.3C117.758 87.78 117.465 87.42 116.878 87.22L115.478 86.66C114.798 86.3933 114.278 86.0267 113.918 85.56C113.571 85.08 113.398 84.5333 113.398 83.92C113.398 83.4 113.531 82.9333 113.798 82.52C114.078 82.1067 114.445 81.78 114.898 81.54C115.365 81.2867 115.878 81.16 116.438 81.16C117.118 81.16 117.725 81.3467 118.258 81.72C118.791 82.08 119.151 82.5467 119.338 83.12L117.478 83.8C117.411 83.56 117.285 83.3667 117.098 83.22C116.911 83.06 116.691 82.98 116.438 82.98C116.158 82.98 115.918 83.0667 115.718 83.24C115.531 83.4 115.438 83.6133 115.438 83.88C115.438 84.0667 115.498 84.24 115.618 84.4C115.738 84.56 115.971 84.7133 116.318 84.86L117.678 85.38C118.305 85.62 118.811 85.9933 119.198 86.5C119.598 86.9933 119.798 87.5733 119.798 88.24C119.798 88.8 119.651 89.3067 119.358 89.76C119.065 90.2133 118.671 90.5733 118.178 90.84C117.685 91.1067 117.125 91.24 116.498 91.24ZM130.87 91.24C129.963 91.24 129.143 91.0133 128.41 90.56C127.677 90.1067 127.097 89.5 126.67 88.74C126.243 87.98 126.03 87.1333 126.03 86.2C126.03 85.2667 126.243 84.42 126.67 83.66C127.097 82.9 127.677 82.2933 128.41 81.84C129.143 81.3867 129.963 81.16 130.87 81.16C131.457 81.16 131.997 81.26 132.49 81.46C132.997 81.66 133.443 81.94 133.83 82.3V75.44H135.87V91H133.93V90.04C133.53 90.4133 133.07 90.7067 132.55 90.92C132.03 91.1333 131.47 91.24 130.87 91.24ZM131.09 89.28C131.65 89.28 132.15 89.1467 132.59 88.88C133.043 88.6133 133.397 88.2467 133.65 87.78C133.917 87.3133 134.05 86.7867 134.05 86.2C134.05 85.6133 133.917 85.0867 133.65 84.62C133.397 84.1533 133.043 83.7867 132.59 83.52C132.15 83.2533 131.65 83.12 131.09 83.12C130.53 83.12 130.03 83.2533 129.59 83.52C129.15 83.7867 128.797 84.1533 128.53 84.62C128.277 85.0867 128.15 85.6133 128.15 86.2C128.15 86.7867 128.277 87.3133 128.53 87.78C128.797 88.2467 129.15 88.6133 129.59 88.88C130.03 89.1467 130.53 89.28 131.09 89.28ZM139.998 79.94C139.624 79.94 139.298 79.8 139.018 79.52C138.738 79.24 138.598 78.9133 138.598 78.54C138.598 78.1533 138.738 77.8267 139.018 77.56C139.298 77.2933 139.624 77.16 139.998 77.16C140.384 77.16 140.711 77.2933 140.978 77.56C141.244 77.8267 141.378 78.1533 141.378 78.54C141.378 78.9133 141.244 79.24 140.978 79.52C140.711 79.8 140.384 79.94 139.998 79.94ZM138.978 91V81.4H141.018V91H138.978ZM144.075 91V81.4H146.015V82.62C146.055 82.5533 146.095 82.5 146.135 82.46C146.188 82.4067 146.242 82.3533 146.295 82.3C146.602 81.9933 146.968 81.7533 147.395 81.58C147.835 81.3933 148.302 81.3 148.795 81.3C148.902 81.3 149.008 81.3067 149.115 81.32C149.222 81.32 149.328 81.3267 149.435 81.34V83.28C149.328 83.2667 149.222 83.26 149.115 83.26C149.008 83.2467 148.895 83.24 148.775 83.24C147.975 83.24 147.335 83.4933 146.855 84C146.628 84.2267 146.448 84.5133 146.315 84.86C146.182 85.1933 146.115 85.64 146.115 86.2V91H144.075ZM155.52 91.24C154.587 91.24 153.747 91.02 153 90.58C152.267 90.1267 151.68 89.52 151.24 88.76C150.814 88 150.6 87.1533 150.6 86.22C150.6 85.26 150.8 84.4 151.2 83.64C151.614 82.8667 152.174 82.26 152.88 81.82C153.587 81.38 154.387 81.16 155.28 81.16C156.174 81.16 156.967 81.38 157.66 81.82C158.367 82.26 158.92 82.86 159.32 83.62C159.734 84.38 159.94 85.24 159.94 86.2C159.94 86.32 159.934 86.4467 159.92 86.58C159.92 86.7 159.914 86.82 159.9 86.94H152.68C152.787 87.6333 153.107 88.2067 153.64 88.66C154.174 89.1 154.807 89.32 155.54 89.32C156.1 89.32 156.6 89.1867 157.04 88.92C157.494 88.6533 157.84 88.3 158.08 87.86L159.76 88.84C159.334 89.5733 158.747 90.16 158 90.6C157.267 91.0267 156.44 91.24 155.52 91.24ZM152.68 85.28H157.84C157.787 84.6133 157.527 84.0667 157.06 83.64C156.594 83.2133 156.007 83 155.3 83C154.594 83 153.994 83.2133 153.5 83.64C153.02 84.0667 152.747 84.6133 152.68 85.28ZM166.559 91.24C165.612 91.24 164.752 91.0133 163.979 90.56C163.219 90.1067 162.612 89.5 162.159 88.74C161.719 87.98 161.499 87.1333 161.499 86.2C161.499 85.2667 161.719 84.42 162.159 83.66C162.612 82.9 163.219 82.2933 163.979 81.84C164.752 81.3867 165.612 81.16 166.559 81.16C167.492 81.16 168.332 81.3867 169.079 81.84V84.02C168.785 83.7267 168.432 83.5 168.019 83.34C167.605 83.18 167.159 83.1 166.679 83.1C166.105 83.1 165.585 83.24 165.119 83.52C164.652 83.7867 164.285 84.1533 164.019 84.62C163.752 85.0867 163.619 85.6133 163.619 86.2C163.619 86.7867 163.752 87.3133 164.019 87.78C164.285 88.2467 164.652 88.62 165.119 88.9C165.585 89.1667 166.105 89.3 166.679 89.3C167.159 89.3 167.605 89.22 168.019 89.06C168.432 88.9 168.785 88.6733 169.079 88.38V90.56C168.332 91.0133 167.492 91.24 166.559 91.24ZM172.296 91V83.22H170.536V81.4H172.296V77.74H174.336V81.4H176.396V83.22H174.336V91H172.296ZM188.02 91.24C187.434 91.24 186.88 91.1333 186.36 90.92C185.84 90.7067 185.38 90.4133 184.98 90.04V91H183.02V75.44H185.06V82.3C185.46 81.94 185.907 81.66 186.4 81.46C186.907 81.26 187.447 81.16 188.02 81.16C188.94 81.16 189.767 81.3867 190.5 81.84C191.234 82.2933 191.814 82.9 192.24 83.66C192.667 84.42 192.88 85.2667 192.88 86.2C192.88 87.1333 192.667 87.98 192.24 88.74C191.814 89.5 191.234 90.1067 190.5 90.56C189.767 91.0133 188.94 91.24 188.02 91.24ZM187.8 89.28C188.36 89.28 188.86 89.1467 189.3 88.88C189.754 88.6133 190.107 88.2467 190.36 87.78C190.627 87.3133 190.76 86.7867 190.76 86.2C190.76 85.6133 190.627 85.0867 190.36 84.62C190.107 84.1533 189.754 83.7867 189.3 83.52C188.86 83.2533 188.36 83.12 187.8 83.12C187.254 83.12 186.754 83.2533 186.3 83.52C185.86 83.7867 185.507 84.1533 185.24 84.62C184.987 85.0867 184.86 85.6133 184.86 86.2C184.86 86.7867 184.987 87.3133 185.24 87.78C185.507 88.2467 185.86 88.6133 186.3 88.88C186.754 89.1467 187.254 89.28 187.8 89.28ZM199.288 91.24C198.381 91.24 197.561 91.0133 196.828 90.56C196.095 90.1067 195.515 89.5 195.088 88.74C194.661 87.98 194.448 87.1333 194.448 86.2C194.448 85.2667 194.661 84.42 195.088 83.66C195.515 82.9 196.095 82.2933 196.828 81.84C197.561 81.3867 198.381 81.16 199.288 81.16C199.888 81.16 200.448 81.2667 200.968 81.48C201.488 81.68 201.948 81.9733 202.348 82.36V81.4H204.288V91H202.348V90.04C201.948 90.4133 201.488 90.7067 200.968 90.92C200.448 91.1333 199.888 91.24 199.288 91.24ZM199.508 89.28C200.068 89.28 200.568 89.1467 201.008 88.88C201.461 88.6133 201.815 88.2467 202.068 87.78C202.335 87.3133 202.468 86.7867 202.468 86.2C202.468 85.6133 202.335 85.0867 202.068 84.62C201.815 84.1533 201.461 83.7867 201.008 83.52C200.568 83.2533 200.068 83.12 199.508 83.12C198.948 83.12 198.448 83.2533 198.008 83.52C197.568 83.7867 197.215 84.1533 196.948 84.62C196.695 85.0867 196.568 85.6133 196.568 86.2C196.568 86.7867 196.695 87.3133 196.948 87.78C197.215 88.2467 197.568 88.6133 198.008 88.88C198.448 89.1467 198.948 89.28 199.508 89.28ZM207.395 91V81.4H209.335V82.16C209.655 81.8533 210.029 81.6133 210.455 81.44C210.895 81.2533 211.369 81.16 211.875 81.16C212.395 81.16 212.875 81.2533 213.315 81.44C213.769 81.6267 214.162 81.8867 214.495 82.22C214.842 82.5667 215.109 82.9933 215.295 83.5C215.495 83.9933 215.595 84.6133 215.595 85.36V91H213.555V85.54C213.555 85.0333 213.502 84.64 213.395 84.36C213.302 84.0667 213.162 83.8333 212.975 83.66C212.589 83.2733 212.102 83.08 211.515 83.08C210.929 83.08 210.442 83.2733 210.055 83.66C209.869 83.8333 209.715 84.0667 209.595 84.36C209.489 84.64 209.435 85.0333 209.435 85.54V91H207.395ZM218.509 91V75.44H220.549V85.16L224.089 81.4H226.689L222.649 85.62L226.869 91H224.409L221.289 87L220.549 87.78V91H218.509ZM233.956 91V83.22H232.196V81.4H233.956V77.74H235.996V81.4H238.056V83.22H235.996V91H233.956ZM239.974 91V81.4H241.914V82.62C241.954 82.5533 241.994 82.5 242.034 82.46C242.087 82.4067 242.14 82.3533 242.194 82.3C242.5 81.9933 242.867 81.7533 243.294 81.58C243.734 81.3933 244.2 81.3 244.694 81.3C244.8 81.3 244.907 81.3067 245.014 81.32C245.12 81.32 245.227 81.3267 245.334 81.34V83.28C245.227 83.2667 245.12 83.26 245.014 83.26C244.907 83.2467 244.794 83.24 244.674 83.24C243.874 83.24 243.234 83.4933 242.754 84C242.527 84.2267 242.347 84.5133 242.214 84.86C242.08 85.1933 242.014 85.64 242.014 86.2V91H239.974ZM251.339 91.24C250.432 91.24 249.612 91.0133 248.879 90.56C248.145 90.1067 247.565 89.5 247.139 88.74C246.712 87.98 246.499 87.1333 246.499 86.2C246.499 85.2667 246.712 84.42 247.139 83.66C247.565 82.9 248.145 82.2933 248.879 81.84C249.612 81.3867 250.432 81.16 251.339 81.16C251.939 81.16 252.499 81.2667 253.019 81.48C253.539 81.68 253.999 81.9733 254.399 82.36V81.4H256.339V91H254.399V90.04C253.999 90.4133 253.539 90.7067 253.019 90.92C252.499 91.1333 251.939 91.24 251.339 91.24ZM251.559 89.28C252.119 89.28 252.619 89.1467 253.059 88.88C253.512 88.6133 253.865 88.2467 254.119 87.78C254.385 87.3133 254.519 86.7867 254.519 86.2C254.519 85.6133 254.385 85.0867 254.119 84.62C253.865 84.1533 253.512 83.7867 253.059 83.52C252.619 83.2533 252.119 83.12 251.559 83.12C250.999 83.12 250.499 83.2533 250.059 83.52C249.619 83.7867 249.265 84.1533 248.999 84.62C248.745 85.0867 248.619 85.6133 248.619 86.2C248.619 86.7867 248.745 87.3133 248.999 87.78C249.265 88.2467 249.619 88.6133 250.059 88.88C250.499 89.1467 250.999 89.28 251.559 89.28ZM259.446 91V81.4H261.386V82.16C261.706 81.8533 262.08 81.6133 262.506 81.44C262.946 81.2533 263.42 81.16 263.926 81.16C264.446 81.16 264.926 81.2533 265.366 81.44C265.82 81.6267 266.213 81.8867 266.546 82.22C266.893 82.5667 267.16 82.9933 267.346 83.5C267.546 83.9933 267.646 84.6133 267.646 85.36V91H265.606V85.54C265.606 85.0333 265.553 84.64 265.446 84.36C265.353 84.0667 265.213 83.8333 265.026 83.66C264.64 83.2733 264.153 83.08 263.566 83.08C262.98 83.08 262.493 83.2733 262.106 83.66C261.92 83.8333 261.766 84.0667 261.646 84.36C261.54 84.64 261.486 85.0333 261.486 85.54V91H259.446ZM273.1 91.24C272.246 91.24 271.5 91.0067 270.86 90.54C270.233 90.06 269.846 89.4533 269.7 88.72L271.62 88.36C271.7 88.6667 271.873 88.92 272.14 89.12C272.42 89.32 272.74 89.42 273.1 89.42C273.46 89.42 273.76 89.3133 274 89.1C274.24 88.8867 274.36 88.62 274.36 88.3C274.36 87.78 274.066 87.42 273.48 87.22L272.08 86.66C271.4 86.3933 270.88 86.0267 270.52 85.56C270.173 85.08 270 84.5333 270 83.92C270 83.4 270.133 82.9333 270.4 82.52C270.68 82.1067 271.046 81.78 271.5 81.54C271.966 81.2867 272.48 81.16 273.04 81.16C273.72 81.16 274.326 81.3467 274.86 81.72C275.393 82.08 275.753 82.5467 275.94 83.12L274.08 83.8C274.013 83.56 273.886 83.3667 273.7 83.22C273.513 83.06 273.293 82.98 273.04 82.98C272.76 82.98 272.52 83.0667 272.32 83.24C272.133 83.4 272.04 83.6133 272.04 83.88C272.04 84.0667 272.1 84.24 272.22 84.4C272.34 84.56 272.573 84.7133 272.92 84.86L274.28 85.38C274.906 85.62 275.413 85.9933 275.8 86.5C276.2 86.9933 276.4 87.5733 276.4 88.24C276.4 88.8 276.253 89.3067 275.96 89.76C275.666 90.2133 275.273 90.5733 274.78 90.84C274.286 91.1067 273.726 91.24 273.1 91.24ZM279.445 91V83.22H277.645V81.4H279.445V78.8C279.445 78.1467 279.525 77.6067 279.685 77.18C279.858 76.7533 280.091 76.3933 280.385 76.1C280.985 75.5 281.738 75.2 282.645 75.2C283.098 75.2 283.525 75.28 283.925 75.44V77.34C283.791 77.2733 283.645 77.2267 283.485 77.2C283.325 77.16 283.151 77.14 282.965 77.14C282.751 77.14 282.551 77.18 282.365 77.26C282.178 77.34 282.025 77.44 281.905 77.56C281.771 77.6933 281.665 77.8667 281.585 78.08C281.518 78.2933 281.485 78.6067 281.485 79.02V81.4H283.925V83.22H281.485V91H279.445ZM289.993 91.24C289.06 91.24 288.22 91.02 287.473 90.58C286.74 90.1267 286.153 89.52 285.713 88.76C285.286 88 285.073 87.1533 285.073 86.22C285.073 85.26 285.273 84.4 285.673 83.64C286.086 82.8667 286.646 82.26 287.353 81.82C288.06 81.38 288.86 81.16 289.753 81.16C290.646 81.16 291.44 81.38 292.133 81.82C292.84 82.26 293.393 82.86 293.793 83.62C294.206 84.38 294.413 85.24 294.413 86.2C294.413 86.32 294.406 86.4467 294.393 86.58C294.393 86.7 294.386 86.82 294.373 86.94H287.153C287.26 87.6333 287.58 88.2067 288.113 88.66C288.646 89.1 289.28 89.32 290.013 89.32C290.573 89.32 291.073 89.1867 291.513 88.92C291.966 88.6533 292.313 88.3 292.553 87.86L294.233 88.84C293.806 89.5733 293.22 90.16 292.473 90.6C291.74 91.0267 290.913 91.24 289.993 91.24ZM287.153 85.28H292.313C292.26 84.6133 292 84.0667 291.533 83.64C291.066 83.2133 290.48 83 289.773 83C289.066 83 288.466 83.2133 287.973 83.64C287.493 84.0667 287.22 84.6133 287.153 85.28ZM296.731 91V81.4H298.671V82.62C298.711 82.5533 298.751 82.5 298.791 82.46C298.845 82.4067 298.898 82.3533 298.951 82.3C299.258 81.9933 299.625 81.7533 300.051 81.58C300.491 81.3933 300.958 81.3 301.451 81.3C301.558 81.3 301.665 81.3067 301.771 81.32C301.878 81.32 301.985 81.3267 302.091 81.34V83.28C301.985 83.2667 301.878 83.26 301.771 83.26C301.665 83.2467 301.551 83.24 301.431 83.24C300.631 83.24 299.991 83.4933 299.511 84C299.285 84.2267 299.105 84.5133 298.971 84.86C298.838 85.1933 298.771 85.64 298.771 86.2V91H296.731ZM306.557 91.24C305.703 91.24 304.957 91.0067 304.317 90.54C303.69 90.06 303.303 89.4533 303.157 88.72L305.077 88.36C305.157 88.6667 305.33 88.92 305.597 89.12C305.877 89.32 306.197 89.42 306.557 89.42C306.917 89.42 307.217 89.3133 307.457 89.1C307.697 88.8867 307.817 88.62 307.817 88.3C307.817 87.78 307.523 87.42 306.937 87.22L305.537 86.66C304.857 86.3933 304.337 86.0267 303.977 85.56C303.63 85.08 303.457 84.5333 303.457 83.92C303.457 83.4 303.59 82.9333 303.857 82.52C304.137 82.1067 304.503 81.78 304.957 81.54C305.423 81.2867 305.937 81.16 306.497 81.16C307.177 81.16 307.783 81.3467 308.317 81.72C308.85 82.08 309.21 82.5467 309.397 83.12L307.537 83.8C307.47 83.56 307.343 83.3667 307.157 83.22C306.97 83.06 306.75 82.98 306.497 82.98C306.217 82.98 305.977 83.0667 305.777 83.24C305.59 83.4 305.497 83.6133 305.497 83.88C305.497 84.0667 305.557 84.24 305.677 84.4C305.797 84.56 306.03 84.7133 306.377 84.86L307.737 85.38C308.363 85.62 308.87 85.9933 309.257 86.5C309.657 86.9933 309.857 87.5733 309.857 88.24C309.857 88.8 309.71 89.3067 309.417 89.76C309.123 90.2133 308.73 90.5733 308.237 90.84C307.743 91.1067 307.183 91.24 306.557 91.24Z" fill="black"/>
<rect x="54" y="168" width="72" height="7" rx="3.48071" fill="#DBDBDB"/>
<rect x="54" y="177" width="103" height="7" rx="3.48071" fill="#DBDBDB"/>
<rect x="54" y="94" width="72" height="7" rx="3.48071" fill="#DBDBDB"/>
<rect x="54" y="103" width="103" height="7" rx="3.48071" fill="#DBDBDB"/>
</svg>
