<svg width="352" height="184" viewBox="0 0 352 184" fill="none" xmlns="http://www.w3.org/2000/svg">
<path d="M54.06 22L61.16 6.28L68.24 22H65.96L64.44 18.64H57.82L56.28 22H54.06ZM58.68 16.64H63.56L61.14 11.18H61.1L58.68 16.64ZM74.1369 22.24C73.1902 22.24 72.3302 22.0133 71.5569 21.56C70.7969 21.1067 70.1902 20.5 69.7369 19.74C69.2969 18.98 69.0769 18.1333 69.0769 17.2C69.0769 16.2667 69.2969 15.42 69.7369 14.66C70.1902 13.9 70.7969 13.2933 71.5569 12.84C72.3302 12.3867 73.1902 12.16 74.1369 12.16C75.0702 12.16 75.9102 12.3867 76.6569 12.84V15.02C76.3635 14.7267 76.0102 14.5 75.5969 14.34C75.1835 14.18 74.7369 14.1 74.2569 14.1C73.6835 14.1 73.1635 14.24 72.6969 14.52C72.2302 14.7867 71.8635 15.1533 71.5969 15.62C71.3302 16.0867 71.1969 16.6133 71.1969 17.2C71.1969 17.7867 71.3302 18.3133 71.5969 18.78C71.8635 19.2467 72.2302 19.62 72.6969 19.9C73.1635 20.1667 73.6835 20.3 74.2569 20.3C74.7369 20.3 75.1835 20.22 75.5969 20.06C76.0102 19.9 76.3635 19.6733 76.6569 19.38V21.56C75.9102 22.0133 75.0702 22.24 74.1369 22.24ZM83.4338 22.24C82.4871 22.24 81.6271 22.0133 80.8538 21.56C80.0938 21.1067 79.4871 20.5 79.0338 19.74C78.5938 18.98 78.3738 18.1333 78.3738 17.2C78.3738 16.2667 78.5938 15.42 79.0338 14.66C79.4871 13.9 80.0938 13.2933 80.8538 12.84C81.6271 12.3867 82.4871 12.16 83.4338 12.16C84.3671 12.16 85.2071 12.3867 85.9538 12.84V15.02C85.6604 14.7267 85.3071 14.5 84.8938 14.34C84.4804 14.18 84.0338 14.1 83.5538 14.1C82.9804 14.1 82.4604 14.24 81.9938 14.52C81.5271 14.7867 81.1604 15.1533 80.8938 15.62C80.6271 16.0867 80.4938 16.6133 80.4938 17.2C80.4938 17.7867 80.6271 18.3133 80.8938 18.78C81.1604 19.2467 81.5271 19.62 81.9938 19.9C82.4604 20.1667 82.9804 20.3 83.5538 20.3C84.0338 20.3 84.4804 20.22 84.8938 20.06C85.3071 19.9 85.6604 19.6733 85.9538 19.38V21.56C85.2071 22.0133 84.3671 22.24 83.4338 22.24ZM92.5906 22.24C91.6573 22.24 90.8173 22.02 90.0706 21.58C89.3373 21.1267 88.7506 20.52 88.3106 19.76C87.884 19 87.6706 18.1533 87.6706 17.22C87.6706 16.26 87.8706 15.4 88.2706 14.64C88.684 13.8667 89.244 13.26 89.9506 12.82C90.6573 12.38 91.4573 12.16 92.3506 12.16C93.244 12.16 94.0373 12.38 94.7306 12.82C95.4373 13.26 95.9906 13.86 96.3906 14.62C96.804 15.38 97.0106 16.24 97.0106 17.2C97.0106 17.32 97.004 17.4467 96.9906 17.58C96.9906 17.7 96.984 17.82 96.9706 17.94H89.7506C89.8573 18.6333 90.1773 19.2067 90.7106 19.66C91.244 20.1 91.8773 20.32 92.6106 20.32C93.1706 20.32 93.6706 20.1867 94.1106 19.92C94.564 19.6533 94.9106 19.3 95.1506 18.86L96.8306 19.84C96.404 20.5733 95.8173 21.16 95.0706 21.6C94.3373 22.0267 93.5106 22.24 92.5906 22.24ZM89.7506 16.28H94.9106C94.8573 15.6133 94.5973 15.0667 94.1306 14.64C93.664 14.2133 93.0773 14 92.3706 14C91.664 14 91.064 14.2133 90.5706 14.64C90.0906 15.0667 89.8173 15.6133 89.7506 16.28ZM99.3291 27.08V12.4H101.289V13.36C101.689 12.9733 102.149 12.6733 102.669 12.46C103.189 12.2467 103.742 12.14 104.329 12.14C105.249 12.14 106.076 12.3667 106.809 12.82C107.542 13.2733 108.122 13.8867 108.549 14.66C108.976 15.42 109.189 16.2667 109.189 17.2C109.189 18.1333 108.976 18.98 108.549 19.74C108.122 20.5 107.542 21.1067 106.809 21.56C106.076 22.0133 105.249 22.24 104.329 22.24C103.756 22.24 103.216 22.14 102.709 21.94C102.216 21.74 101.769 21.46 101.369 21.1V27.08H99.3291ZM104.109 20.28C104.669 20.28 105.169 20.1467 105.609 19.88C106.062 19.6 106.416 19.2267 106.669 18.76C106.936 18.2933 107.069 17.7733 107.069 17.2C107.069 16.6133 106.936 16.0867 106.669 15.62C106.416 15.1533 106.062 14.7867 105.609 14.52C105.169 14.24 104.669 14.1 104.109 14.1C103.562 14.1 103.062 14.24 102.609 14.52C102.169 14.7867 101.816 15.1533 101.549 15.62C101.296 16.0867 101.169 16.6133 101.169 17.2C101.169 17.7733 101.296 18.2933 101.549 18.76C101.816 19.2267 102.169 19.6 102.609 19.88C103.062 20.1467 103.562 20.28 104.109 20.28ZM112.257 22V14.22H110.497V12.4H112.257V8.74H114.297V12.4H116.357V14.22H114.297V22H112.257ZM130.121 22.24C129.015 22.24 127.988 22.04 127.041 21.64C126.108 21.24 125.288 20.6867 124.581 19.98C123.888 19.26 123.341 18.4333 122.941 17.5C122.555 16.5533 122.361 15.54 122.361 14.46C122.361 13.38 122.555 12.3733 122.941 11.44C123.341 10.4933 123.888 9.66667 124.581 8.96C125.288 8.24 126.108 7.68 127.041 7.28C127.988 6.88 129.015 6.68 130.121 6.68C131.228 6.68 132.248 6.88 133.181 7.28C134.128 7.68 134.948 8.24 135.641 8.96C136.348 9.66667 136.895 10.4933 137.281 11.44C137.681 12.3733 137.881 13.38 137.881 14.46C137.881 15.54 137.681 16.5533 137.281 17.5C136.895 18.4333 136.348 19.26 135.641 19.98C134.948 20.6867 134.128 21.24 133.181 21.64C132.248 22.04 131.228 22.24 130.121 22.24ZM130.121 20.2C131.175 20.2 132.115 19.9467 132.941 19.44C133.781 18.9333 134.441 18.2467 134.921 17.38C135.415 16.5133 135.661 15.54 135.661 14.46C135.661 13.3667 135.415 12.3933 134.921 11.54C134.441 10.6733 133.781 9.98667 132.941 9.48C132.115 8.97333 131.175 8.72 130.121 8.72C129.068 8.72 128.121 8.97333 127.281 9.48C126.455 9.98667 125.795 10.6733 125.301 11.54C124.821 12.3933 124.581 13.3667 124.581 14.46C124.581 15.54 124.821 16.5133 125.301 17.38C125.795 18.2467 126.455 18.9333 127.281 19.44C128.121 19.9467 129.068 20.2 130.121 20.2ZM140.345 22V12.4H142.285V13.16C142.605 12.8533 142.978 12.6133 143.405 12.44C143.845 12.2533 144.318 12.16 144.825 12.16C145.345 12.16 145.825 12.2533 146.265 12.44C146.718 12.6267 147.111 12.8867 147.445 13.22C147.791 13.5667 148.058 13.9933 148.245 14.5C148.445 14.9933 148.545 15.6133 148.545 16.36V22H146.505V16.54C146.505 16.0333 146.451 15.64 146.345 15.36C146.251 15.0667 146.111 14.8333 145.925 14.66C145.538 14.2733 145.051 14.08 144.465 14.08C143.878 14.08 143.391 14.2733 143.005 14.66C142.818 14.8333 142.665 15.0667 142.545 15.36C142.438 15.64 142.385 16.0333 142.385 16.54V22H140.345ZM151.458 22V6.44H153.498V22H151.458ZM157.615 10.94C157.241 10.94 156.915 10.8 156.635 10.52C156.355 10.24 156.215 9.91333 156.215 9.54C156.215 9.15333 156.355 8.82667 156.635 8.56C156.915 8.29333 157.241 8.16 157.615 8.16C158.001 8.16 158.328 8.29333 158.595 8.56C158.861 8.82667 158.995 9.15333 158.995 9.54C158.995 9.91333 158.861 10.24 158.595 10.52C158.328 10.8 158.001 10.94 157.615 10.94ZM156.595 22V12.4H158.635V22H156.595ZM161.692 22V12.4H163.632V13.16C163.952 12.8533 164.326 12.6133 164.752 12.44C165.192 12.2533 165.666 12.16 166.172 12.16C166.692 12.16 167.172 12.2533 167.612 12.44C168.066 12.6267 168.459 12.8867 168.792 13.22C169.139 13.5667 169.406 13.9933 169.592 14.5C169.792 14.9933 169.892 15.6133 169.892 16.36V22H167.852V16.54C167.852 16.0333 167.799 15.64 167.692 15.36C167.599 15.0667 167.459 14.8333 167.272 14.66C166.886 14.2733 166.399 14.08 165.812 14.08C165.226 14.08 164.739 14.2733 164.352 14.66C164.166 14.8333 164.012 15.0667 163.892 15.36C163.786 15.64 163.732 16.0333 163.732 16.54V22H161.692ZM176.966 22.24C176.032 22.24 175.192 22.02 174.446 21.58C173.712 21.1267 173.126 20.52 172.686 19.76C172.259 19 172.046 18.1533 172.046 17.22C172.046 16.26 172.246 15.4 172.646 14.64C173.059 13.8667 173.619 13.26 174.326 12.82C175.032 12.38 175.832 12.16 176.726 12.16C177.619 12.16 178.412 12.38 179.106 12.82C179.812 13.26 180.366 13.86 180.766 14.62C181.179 15.38 181.386 16.24 181.386 17.2C181.386 17.32 181.379 17.4467 181.366 17.58C181.366 17.7 181.359 17.82 181.346 17.94H174.126C174.232 18.6333 174.552 19.2067 175.086 19.66C175.619 20.1 176.252 20.32 176.986 20.32C177.546 20.32 178.046 20.1867 178.486 19.92C178.939 19.6533 179.286 19.3 179.526 18.86L181.206 19.84C180.779 20.5733 180.192 21.16 179.446 21.6C178.712 22.0267 177.886 22.24 176.966 22.24ZM174.126 16.28H179.286C179.232 15.6133 178.972 15.0667 178.506 14.64C178.039 14.2133 177.452 14 176.746 14C176.039 14 175.439 14.2133 174.946 14.64C174.466 15.0667 174.192 15.6133 174.126 16.28ZM188.751 22V6.92H192.471C193.738 6.92 194.844 7.12 195.791 7.52C196.738 7.90667 197.551 8.43333 198.231 9.1C198.911 9.76667 199.444 10.5667 199.831 11.5C200.218 12.4333 200.411 13.42 200.411 14.46C200.411 15.5 200.218 16.4867 199.831 17.42C199.444 18.3533 198.911 19.1533 198.231 19.82C197.551 20.4867 196.738 21.02 195.791 21.42C194.844 21.8067 193.738 22 192.471 22H188.751ZM190.891 19.98H192.271C193.258 19.98 194.104 19.84 194.811 19.56C195.518 19.28 196.118 18.8933 196.611 18.4C197.104 17.8933 197.491 17.3067 197.771 16.64C198.051 15.96 198.191 15.2333 198.191 14.46C198.191 13.6733 198.051 12.9467 197.771 12.28C197.491 11.6 197.104 11.0133 196.611 10.52C196.118 10.0267 195.518 9.64 194.811 9.36C194.104 9.08 193.258 8.94 192.271 8.94H190.891V19.98ZM207.164 22.24C206.218 22.24 205.358 22.0133 204.584 21.56C203.824 21.1067 203.218 20.5 202.764 19.74C202.324 18.98 202.104 18.1333 202.104 17.2C202.104 16.2667 202.324 15.42 202.764 14.66C203.218 13.9 203.824 13.2933 204.584 12.84C205.358 12.3867 206.218 12.16 207.164 12.16C208.124 12.16 208.984 12.3867 209.744 12.84C210.518 13.2933 211.124 13.9 211.564 14.66C212.018 15.42 212.244 16.2667 212.244 17.2C212.244 18.1333 212.018 18.98 211.564 19.74C211.124 20.5 210.518 21.1067 209.744 21.56C208.984 22.0133 208.124 22.24 207.164 22.24ZM207.164 20.3C207.724 20.3 208.224 20.1667 208.664 19.9C209.118 19.62 209.471 19.2467 209.724 18.78C209.991 18.3133 210.124 17.7867 210.124 17.2C210.124 16.6133 209.991 16.0867 209.724 15.62C209.471 15.1533 209.118 14.7867 208.664 14.52C208.224 14.24 207.724 14.1 207.164 14.1C206.604 14.1 206.104 14.24 205.664 14.52C205.224 14.7867 204.871 15.1533 204.604 15.62C204.351 16.0867 204.224 16.6133 204.224 17.2C204.224 17.7867 204.351 18.3133 204.604 18.78C204.871 19.2467 205.224 19.62 205.664 19.9C206.104 20.1667 206.604 20.3 207.164 20.3ZM214.563 22V12.4H216.503V13.16C216.823 12.8533 217.197 12.6133 217.623 12.44C218.063 12.2533 218.537 12.16 219.043 12.16C219.563 12.16 220.043 12.2533 220.483 12.44C220.937 12.6267 221.33 12.8867 221.663 13.22C222.01 13.5667 222.277 13.9933 222.463 14.5C222.663 14.9933 222.763 15.6133 222.763 16.36V22H220.723V16.54C220.723 16.0333 220.67 15.64 220.563 15.36C220.47 15.0667 220.33 14.8333 220.143 14.66C219.757 14.2733 219.27 14.08 218.683 14.08C218.097 14.08 217.61 14.2733 217.223 14.66C217.037 14.8333 216.883 15.0667 216.763 15.36C216.657 15.64 216.603 16.0333 216.603 16.54V22H214.563ZM229.757 22.24C228.85 22.24 228.03 22.0133 227.297 21.56C226.563 21.1067 225.983 20.5 225.557 19.74C225.13 18.98 224.917 18.1333 224.917 17.2C224.917 16.2667 225.13 15.42 225.557 14.66C225.983 13.9 226.563 13.2933 227.297 12.84C228.03 12.3867 228.85 12.16 229.757 12.16C230.357 12.16 230.917 12.2667 231.437 12.48C231.957 12.68 232.417 12.9733 232.817 13.36V12.4H234.757V22H232.817V21.04C232.417 21.4133 231.957 21.7067 231.437 21.92C230.917 22.1333 230.357 22.24 229.757 22.24ZM229.977 20.28C230.537 20.28 231.037 20.1467 231.477 19.88C231.93 19.6133 232.283 19.2467 232.537 18.78C232.803 18.3133 232.937 17.7867 232.937 17.2C232.937 16.6133 232.803 16.0867 232.537 15.62C232.283 15.1533 231.93 14.7867 231.477 14.52C231.037 14.2533 230.537 14.12 229.977 14.12C229.417 14.12 228.917 14.2533 228.477 14.52C228.037 14.7867 227.683 15.1533 227.417 15.62C227.163 16.0867 227.037 16.6133 227.037 17.2C227.037 17.7867 227.163 18.3133 227.417 18.78C227.683 19.2467 228.037 19.6133 228.477 19.88C228.917 20.1467 229.417 20.28 229.977 20.28ZM238.604 22V14.22H236.844V12.4H238.604V8.74H240.644V12.4H242.704V14.22H240.644V22H238.604ZM245.642 10.94C245.269 10.94 244.942 10.8 244.662 10.52C244.382 10.24 244.242 9.91333 244.242 9.54C244.242 9.15333 244.382 8.82667 244.662 8.56C244.942 8.29333 245.269 8.16 245.642 8.16C246.029 8.16 246.355 8.29333 246.622 8.56C246.889 8.82667 247.022 9.15333 247.022 9.54C247.022 9.91333 246.889 10.24 246.622 10.52C246.355 10.8 246.029 10.94 245.642 10.94ZM244.622 22V12.4H246.662V22H244.622ZM254.02 22.24C253.073 22.24 252.213 22.0133 251.44 21.56C250.68 21.1067 250.073 20.5 249.62 19.74C249.18 18.98 248.96 18.1333 248.96 17.2C248.96 16.2667 249.18 15.42 249.62 14.66C250.073 13.9 250.68 13.2933 251.44 12.84C252.213 12.3867 253.073 12.16 254.02 12.16C254.98 12.16 255.84 12.3867 256.6 12.84C257.373 13.2933 257.98 13.9 258.42 14.66C258.873 15.42 259.1 16.2667 259.1 17.2C259.1 18.1333 258.873 18.98 258.42 19.74C257.98 20.5 257.373 21.1067 256.6 21.56C255.84 22.0133 254.98 22.24 254.02 22.24ZM254.02 20.3C254.58 20.3 255.08 20.1667 255.52 19.9C255.973 19.62 256.326 19.2467 256.58 18.78C256.846 18.3133 256.98 17.7867 256.98 17.2C256.98 16.6133 256.846 16.0867 256.58 15.62C256.326 15.1533 255.973 14.7867 255.52 14.52C255.08 14.24 254.58 14.1 254.02 14.1C253.46 14.1 252.96 14.24 252.52 14.52C252.08 14.7867 251.726 15.1533 251.46 15.62C251.206 16.0867 251.08 16.6133 251.08 17.2C251.08 17.7867 251.206 18.3133 251.46 18.78C251.726 19.2467 252.08 19.62 252.52 19.9C252.96 20.1667 253.46 20.3 254.02 20.3ZM261.419 22V12.4H263.359V13.16C263.679 12.8533 264.052 12.6133 264.479 12.44C264.919 12.2533 265.392 12.16 265.899 12.16C266.419 12.16 266.899 12.2533 267.339 12.44C267.792 12.6267 268.186 12.8867 268.519 13.22C268.866 13.5667 269.132 13.9933 269.319 14.5C269.519 14.9933 269.619 15.6133 269.619 16.36V22H267.579V16.54C267.579 16.0333 267.526 15.64 267.419 15.36C267.326 15.0667 267.186 14.8333 266.999 14.66C266.612 14.2733 266.126 14.08 265.539 14.08C264.952 14.08 264.466 14.2733 264.079 14.66C263.892 14.8333 263.739 15.0667 263.619 15.36C263.512 15.64 263.459 16.0333 263.459 16.54V22H261.419ZM275.072 22.24C274.219 22.24 273.472 22.0067 272.832 21.54C272.206 21.06 271.819 20.4533 271.672 19.72L273.592 19.36C273.672 19.6667 273.846 19.92 274.112 20.12C274.392 20.32 274.712 20.42 275.072 20.42C275.432 20.42 275.732 20.3133 275.972 20.1C276.212 19.8867 276.332 19.62 276.332 19.3C276.332 18.78 276.039 18.42 275.452 18.22L274.052 17.66C273.372 17.3933 272.852 17.0267 272.492 16.56C272.146 16.08 271.972 15.5333 271.972 14.92C271.972 14.4 272.106 13.9333 272.372 13.52C272.652 13.1067 273.019 12.78 273.472 12.54C273.939 12.2867 274.452 12.16 275.012 12.16C275.692 12.16 276.299 12.3467 276.832 12.72C277.366 13.08 277.726 13.5467 277.912 14.12L276.052 14.8C275.986 14.56 275.859 14.3667 275.672 14.22C275.486 14.06 275.266 13.98 275.012 13.98C274.732 13.98 274.492 14.0667 274.292 14.24C274.106 14.4 274.012 14.6133 274.012 14.88C274.012 15.0667 274.072 15.24 274.192 15.4C274.312 15.56 274.546 15.7133 274.892 15.86L276.252 16.38C276.879 16.62 277.386 16.9933 277.772 17.5C278.172 17.9933 278.372 18.5733 278.372 19.24C278.372 19.8 278.226 20.3067 277.932 20.76C277.639 21.2133 277.246 21.5733 276.752 21.84C276.259 22.1067 275.699 22.24 275.072 22.24Z" fill="black"/>
<rect y="2" width="40" height="40" rx="19.8898" fill="#715EB6"/>
<path d="M17.5137 28.0994L11.8354 22.3679L13.255 20.935L17.5137 25.2337L26.6539 16.0078L28.0735 17.4407L17.5137 28.0994Z" fill="white"/>
<rect y="72" width="40" height="40" rx="19.8898" fill="#715EB6"/>
<path d="M17.5137 98.0994L11.8354 92.3679L13.255 90.935L17.5137 95.2337L26.6539 86.0078L28.0735 87.4407L17.5137 98.0994Z" fill="white"/>
<rect y="141" width="40" height="40" rx="19.8898" fill="#715EB6"/>
<path d="M17.5137 167.099L11.8354 161.368L13.255 159.935L17.5137 164.234L26.6539 155.008L28.0735 156.441L17.5137 167.099Z" fill="white"/>
<rect x="19" y="69" width="24" height="2" rx="0.99449" transform="rotate(-90 19 69)" fill="#715EB6"/>
<rect x="19" y="139" width="24" height="2" rx="0.99449" transform="rotate(-90 19 139)" fill="#715EB6"/>
<rect x="54" y="28" width="72" height="7" rx="3.48071" fill="#DBDBDB"/>
<rect x="54" y="37" width="103" height="7" rx="3.48071" fill="#DBDBDB"/>
<path d="M60.587 161V145.92H62.727V158.98H67.327V161H60.587ZM73.7658 161.24C72.8191 161.24 71.9591 161.013 71.1858 160.56C70.4258 160.107 69.8191 159.5 69.3658 158.74C68.9258 157.98 68.7058 157.133 68.7058 156.2C68.7058 155.267 68.9258 154.42 69.3658 153.66C69.8191 152.9 70.4258 152.293 71.1858 151.84C71.9591 151.387 72.8191 151.16 73.7658 151.16C74.7258 151.16 75.5858 151.387 76.3458 151.84C77.1191 152.293 77.7258 152.9 78.1658 153.66C78.6191 154.42 78.8458 155.267 78.8458 156.2C78.8458 157.133 78.6191 157.98 78.1658 158.74C77.7258 159.5 77.1191 160.107 76.3458 160.56C75.5858 161.013 74.7258 161.24 73.7658 161.24ZM73.7658 159.3C74.3258 159.3 74.8258 159.167 75.2658 158.9C75.7191 158.62 76.0724 158.247 76.3258 157.78C76.5924 157.313 76.7258 156.787 76.7258 156.2C76.7258 155.613 76.5924 155.087 76.3258 154.62C76.0724 154.153 75.7191 153.787 75.2658 153.52C74.8258 153.24 74.3258 153.1 73.7658 153.1C73.2058 153.1 72.7058 153.24 72.2658 153.52C71.8258 153.787 71.4724 154.153 71.2058 154.62C70.9524 155.087 70.8258 155.613 70.8258 156.2C70.8258 156.787 70.9524 157.313 71.2058 157.78C71.4724 158.247 71.8258 158.62 72.2658 158.9C72.7058 159.167 73.2058 159.3 73.7658 159.3ZM85.525 166.32C84.6583 166.32 83.8717 166.133 83.165 165.76C82.4717 165.4 81.9117 164.907 81.485 164.28C81.0717 163.653 80.845 162.953 80.805 162.18H82.825C82.8917 162.833 83.1717 163.367 83.665 163.78C84.1717 164.193 84.7917 164.4 85.525 164.4C86.3517 164.4 87.0183 164.127 87.525 163.58C87.7517 163.34 87.925 163.027 88.045 162.64C88.1783 162.267 88.245 161.76 88.245 161.12V160.08C87.845 160.453 87.3917 160.74 86.885 160.94C86.3783 161.14 85.8317 161.24 85.245 161.24C84.3383 161.24 83.5183 161.013 82.785 160.56C82.0517 160.107 81.4717 159.5 81.045 158.74C80.6183 157.98 80.405 157.133 80.405 156.2C80.405 155.267 80.6183 154.42 81.045 153.66C81.4717 152.9 82.0517 152.293 82.785 151.84C83.5183 151.387 84.3383 151.16 85.245 151.16C85.845 151.16 86.405 151.267 86.925 151.48C87.445 151.68 87.905 151.973 88.305 152.36V151.4H90.245V161.16C90.245 162.04 90.1383 162.773 89.925 163.36C89.7117 163.96 89.405 164.467 89.005 164.88C88.5917 165.333 88.085 165.687 87.485 165.94C86.885 166.193 86.2317 166.32 85.525 166.32ZM85.465 159.28C86.025 159.28 86.525 159.147 86.965 158.88C87.4183 158.613 87.7717 158.247 88.025 157.78C88.2917 157.313 88.425 156.787 88.425 156.2C88.425 155.613 88.2917 155.087 88.025 154.62C87.7717 154.153 87.4183 153.787 86.965 153.52C86.525 153.253 86.025 153.12 85.465 153.12C84.905 153.12 84.405 153.253 83.965 153.52C83.525 153.787 83.1717 154.153 82.905 154.62C82.6517 155.087 82.525 155.613 82.525 156.2C82.525 156.787 82.6517 157.313 82.905 157.78C83.1717 158.247 83.525 158.613 83.965 158.88C84.405 159.147 84.905 159.28 85.465 159.28ZM102.081 161.24C101.174 161.24 100.354 161.013 99.6209 160.56C98.8876 160.107 98.3076 159.5 97.8809 158.74C97.4543 157.98 97.2409 157.133 97.2409 156.2C97.2409 155.267 97.4543 154.42 97.8809 153.66C98.3076 152.9 98.8876 152.293 99.6209 151.84C100.354 151.387 101.174 151.16 102.081 151.16C102.668 151.16 103.208 151.26 103.701 151.46C104.208 151.66 104.654 151.94 105.041 152.3V145.44H107.081V161H105.141V160.04C104.741 160.413 104.281 160.707 103.761 160.92C103.241 161.133 102.681 161.24 102.081 161.24ZM102.301 159.28C102.861 159.28 103.361 159.147 103.801 158.88C104.254 158.613 104.608 158.247 104.861 157.78C105.128 157.313 105.261 156.787 105.261 156.2C105.261 155.613 105.128 155.087 104.861 154.62C104.608 154.153 104.254 153.787 103.801 153.52C103.361 153.253 102.861 153.12 102.301 153.12C101.741 153.12 101.241 153.253 100.801 153.52C100.361 153.787 100.008 154.153 99.7409 154.62C99.4876 155.087 99.3609 155.613 99.3609 156.2C99.3609 156.787 99.4876 157.313 99.7409 157.78C100.008 158.247 100.361 158.613 100.801 158.88C101.241 159.147 101.741 159.28 102.301 159.28ZM114.488 161.24C113.542 161.24 112.682 161.013 111.908 160.56C111.148 160.107 110.542 159.5 110.088 158.74C109.648 157.98 109.428 157.133 109.428 156.2C109.428 155.267 109.648 154.42 110.088 153.66C110.542 152.9 111.148 152.293 111.908 151.84C112.682 151.387 113.542 151.16 114.488 151.16C115.448 151.16 116.308 151.387 117.068 151.84C117.842 152.293 118.448 152.9 118.888 153.66C119.342 154.42 119.568 155.267 119.568 156.2C119.568 157.133 119.342 157.98 118.888 158.74C118.448 159.5 117.842 160.107 117.068 160.56C116.308 161.013 115.448 161.24 114.488 161.24ZM114.488 159.3C115.048 159.3 115.548 159.167 115.988 158.9C116.442 158.62 116.795 158.247 117.048 157.78C117.315 157.313 117.448 156.787 117.448 156.2C117.448 155.613 117.315 155.087 117.048 154.62C116.795 154.153 116.442 153.787 115.988 153.52C115.548 153.24 115.048 153.1 114.488 153.1C113.928 153.1 113.428 153.24 112.988 153.52C112.548 153.787 112.195 154.153 111.928 154.62C111.675 155.087 111.548 155.613 111.548 156.2C111.548 156.787 111.675 157.313 111.928 157.78C112.195 158.247 112.548 158.62 112.988 158.9C113.428 159.167 113.928 159.3 114.488 159.3ZM121.888 161V151.4H123.828V152.16C124.148 151.853 124.521 151.613 124.948 151.44C125.388 151.253 125.861 151.16 126.368 151.16C126.888 151.16 127.368 151.253 127.808 151.44C128.261 151.627 128.654 151.887 128.988 152.22C129.334 152.567 129.601 152.993 129.788 153.5C129.988 153.993 130.088 154.613 130.088 155.36V161H128.048V155.54C128.048 155.033 127.994 154.64 127.888 154.36C127.794 154.067 127.654 153.833 127.468 153.66C127.081 153.273 126.594 153.08 126.008 153.08C125.421 153.08 124.934 153.273 124.548 153.66C124.361 153.833 124.208 154.067 124.088 154.36C123.981 154.64 123.928 155.033 123.928 155.54V161H121.888ZM137.081 161.24C136.174 161.24 135.354 161.013 134.621 160.56C133.888 160.107 133.308 159.5 132.881 158.74C132.454 157.98 132.241 157.133 132.241 156.2C132.241 155.267 132.454 154.42 132.881 153.66C133.308 152.9 133.888 152.293 134.621 151.84C135.354 151.387 136.174 151.16 137.081 151.16C137.681 151.16 138.241 151.267 138.761 151.48C139.281 151.68 139.741 151.973 140.141 152.36V151.4H142.081V161H140.141V160.04C139.741 160.413 139.281 160.707 138.761 160.92C138.241 161.133 137.681 161.24 137.081 161.24ZM137.301 159.28C137.861 159.28 138.361 159.147 138.801 158.88C139.254 158.613 139.608 158.247 139.861 157.78C140.128 157.313 140.261 156.787 140.261 156.2C140.261 155.613 140.128 155.087 139.861 154.62C139.608 154.153 139.254 153.787 138.801 153.52C138.361 153.253 137.861 153.12 137.301 153.12C136.741 153.12 136.241 153.253 135.801 153.52C135.361 153.787 135.008 154.153 134.741 154.62C134.488 155.087 134.361 155.613 134.361 156.2C134.361 156.787 134.488 157.313 134.741 157.78C135.008 158.247 135.361 158.613 135.801 158.88C136.241 159.147 136.741 159.28 137.301 159.28ZM145.928 161V153.22H144.168V151.4H145.928V147.74H147.968V151.4H150.028V153.22H147.968V161H145.928ZM152.966 149.94C152.593 149.94 152.266 149.8 151.986 149.52C151.706 149.24 151.566 148.913 151.566 148.54C151.566 148.153 151.706 147.827 151.986 147.56C152.266 147.293 152.593 147.16 152.966 147.16C153.353 147.16 153.68 147.293 153.946 147.56C154.213 147.827 154.346 148.153 154.346 148.54C154.346 148.913 154.213 149.24 153.946 149.52C153.68 149.8 153.353 149.94 152.966 149.94ZM151.946 161V151.4H153.986V161H151.946ZM161.344 161.24C160.397 161.24 159.537 161.013 158.764 160.56C158.004 160.107 157.397 159.5 156.944 158.74C156.504 157.98 156.284 157.133 156.284 156.2C156.284 155.267 156.504 154.42 156.944 153.66C157.397 152.9 158.004 152.293 158.764 151.84C159.537 151.387 160.397 151.16 161.344 151.16C162.304 151.16 163.164 151.387 163.924 151.84C164.697 152.293 165.304 152.9 165.744 153.66C166.197 154.42 166.424 155.267 166.424 156.2C166.424 157.133 166.197 157.98 165.744 158.74C165.304 159.5 164.697 160.107 163.924 160.56C163.164 161.013 162.304 161.24 161.344 161.24ZM161.344 159.3C161.904 159.3 162.404 159.167 162.844 158.9C163.297 158.62 163.651 158.247 163.904 157.78C164.171 157.313 164.304 156.787 164.304 156.2C164.304 155.613 164.171 155.087 163.904 154.62C163.651 154.153 163.297 153.787 162.844 153.52C162.404 153.24 161.904 153.1 161.344 153.1C160.784 153.1 160.284 153.24 159.844 153.52C159.404 153.787 159.051 154.153 158.784 154.62C158.531 155.087 158.404 155.613 158.404 156.2C158.404 156.787 158.531 157.313 158.784 157.78C159.051 158.247 159.404 158.62 159.844 158.9C160.284 159.167 160.784 159.3 161.344 159.3ZM168.743 161V151.4H170.683V152.16C171.003 151.853 171.376 151.613 171.803 151.44C172.243 151.253 172.716 151.16 173.223 151.16C173.743 151.16 174.223 151.253 174.663 151.44C175.116 151.627 175.51 151.887 175.843 152.22C176.19 152.567 176.456 152.993 176.643 153.5C176.843 153.993 176.943 154.613 176.943 155.36V161H174.903V155.54C174.903 155.033 174.85 154.64 174.743 154.36C174.65 154.067 174.51 153.833 174.323 153.66C173.936 153.273 173.45 153.08 172.863 153.08C172.276 153.08 171.79 153.273 171.403 153.66C171.216 153.833 171.063 154.067 170.943 154.36C170.836 154.64 170.783 155.033 170.783 155.54V161H168.743ZM182.396 161.24C181.543 161.24 180.796 161.007 180.156 160.54C179.53 160.06 179.143 159.453 178.996 158.72L180.916 158.36C180.996 158.667 181.17 158.92 181.436 159.12C181.716 159.32 182.036 159.42 182.396 159.42C182.756 159.42 183.056 159.313 183.296 159.1C183.536 158.887 183.656 158.62 183.656 158.3C183.656 157.78 183.363 157.42 182.776 157.22L181.376 156.66C180.696 156.393 180.176 156.027 179.816 155.56C179.47 155.08 179.296 154.533 179.296 153.92C179.296 153.4 179.43 152.933 179.696 152.52C179.976 152.107 180.343 151.78 180.796 151.54C181.263 151.287 181.776 151.16 182.336 151.16C183.016 151.16 183.623 151.347 184.156 151.72C184.69 152.08 185.05 152.547 185.236 153.12L183.376 153.8C183.31 153.56 183.183 153.367 182.996 153.22C182.81 153.06 182.59 152.98 182.336 152.98C182.056 152.98 181.816 153.067 181.616 153.24C181.43 153.4 181.336 153.613 181.336 153.88C181.336 154.067 181.396 154.24 181.516 154.4C181.636 154.56 181.87 154.713 182.216 154.86L183.576 155.38C184.203 155.62 184.71 155.993 185.096 156.5C185.496 156.993 185.696 157.573 185.696 158.24C185.696 158.8 185.55 159.307 185.256 159.76C184.963 160.213 184.57 160.573 184.076 160.84C183.583 161.107 183.023 161.24 182.396 161.24ZM193.708 149.94C193.335 149.94 193.008 149.8 192.728 149.52C192.448 149.24 192.308 148.913 192.308 148.54C192.308 148.153 192.448 147.827 192.728 147.56C193.008 147.293 193.335 147.16 193.708 147.16C194.095 147.16 194.422 147.293 194.688 147.56C194.955 147.827 195.088 148.153 195.088 148.54C195.088 148.913 194.955 149.24 194.688 149.52C194.422 149.8 194.095 149.94 193.708 149.94ZM192.688 161V151.4H194.728V161H192.688ZM197.786 161V151.4H199.726V152.16C200.046 151.853 200.419 151.613 200.846 151.44C201.286 151.253 201.759 151.16 202.266 151.16C202.786 151.16 203.266 151.253 203.706 151.44C204.159 151.627 204.553 151.887 204.886 152.22C205.233 152.567 205.499 152.993 205.686 153.5C205.886 153.993 205.986 154.613 205.986 155.36V161H203.946V155.54C203.946 155.033 203.893 154.64 203.786 154.36C203.693 154.067 203.553 153.833 203.366 153.66C202.979 153.273 202.493 153.08 201.906 153.08C201.319 153.08 200.833 153.273 200.446 153.66C200.259 153.833 200.106 154.067 199.986 154.36C199.879 154.64 199.826 155.033 199.826 155.54V161H197.786ZM214.346 161V153.22H212.586V151.4H214.346V147.74H216.386V151.4H218.446V153.22H216.386V161H214.346ZM220.364 161V145.44H222.404V152.04C222.724 151.773 223.091 151.56 223.504 151.4C223.918 151.24 224.364 151.16 224.844 151.16C225.364 151.16 225.844 151.253 226.284 151.44C226.738 151.627 227.131 151.887 227.464 152.22C227.811 152.567 228.078 152.993 228.264 153.5C228.464 153.993 228.564 154.613 228.564 155.36V161H226.524V155.54C226.524 155.033 226.471 154.64 226.364 154.36C226.271 154.067 226.131 153.833 225.944 153.66C225.558 153.273 225.071 153.08 224.484 153.08C223.898 153.08 223.411 153.273 223.024 153.66C222.838 153.833 222.684 154.067 222.564 154.36C222.458 154.64 222.404 155.033 222.404 155.54V161H220.364ZM235.638 161.24C234.704 161.24 233.864 161.02 233.118 160.58C232.384 160.127 231.798 159.52 231.358 158.76C230.931 158 230.718 157.153 230.718 156.22C230.718 155.26 230.918 154.4 231.318 153.64C231.731 152.867 232.291 152.26 232.998 151.82C233.704 151.38 234.504 151.16 235.398 151.16C236.291 151.16 237.084 151.38 237.778 151.82C238.484 152.26 239.038 152.86 239.438 153.62C239.851 154.38 240.058 155.24 240.058 156.2C240.058 156.32 240.051 156.447 240.037 156.58C240.037 156.7 240.031 156.82 240.018 156.94H232.798C232.904 157.633 233.224 158.207 233.758 158.66C234.291 159.1 234.924 159.32 235.658 159.32C236.218 159.32 236.718 159.187 237.158 158.92C237.611 158.653 237.958 158.3 238.198 157.86L239.878 158.84C239.451 159.573 238.864 160.16 238.118 160.6C237.384 161.027 236.558 161.24 235.638 161.24ZM232.798 155.28H237.958C237.904 154.613 237.644 154.067 237.178 153.64C236.711 153.213 236.124 153 235.418 153C234.711 153 234.111 153.213 233.618 153.64C233.138 154.067 232.864 154.613 232.798 155.28ZM251.163 161.24C250.256 161.24 249.436 161.013 248.703 160.56C247.97 160.107 247.39 159.5 246.963 158.74C246.536 157.98 246.323 157.133 246.323 156.2C246.323 155.267 246.536 154.42 246.963 153.66C247.39 152.9 247.97 152.293 248.703 151.84C249.436 151.387 250.256 151.16 251.163 151.16C251.75 151.16 252.29 151.26 252.783 151.46C253.29 151.66 253.736 151.94 254.123 152.3V145.44H256.163V161H254.223V160.04C253.823 160.413 253.363 160.707 252.843 160.92C252.323 161.133 251.763 161.24 251.163 161.24ZM251.383 159.28C251.943 159.28 252.443 159.147 252.883 158.88C253.336 158.613 253.69 158.247 253.943 157.78C254.21 157.313 254.343 156.787 254.343 156.2C254.343 155.613 254.21 155.087 253.943 154.62C253.69 154.153 253.336 153.787 252.883 153.52C252.443 153.253 251.943 153.12 251.383 153.12C250.823 153.12 250.323 153.253 249.883 153.52C249.443 153.787 249.09 154.153 248.823 154.62C248.57 155.087 248.443 155.613 248.443 156.2C248.443 156.787 248.57 157.313 248.823 157.78C249.09 158.247 249.443 158.613 249.883 158.88C250.323 159.147 250.823 159.28 251.383 159.28ZM263.35 161.24C262.444 161.24 261.624 161.013 260.89 160.56C260.157 160.107 259.577 159.5 259.15 158.74C258.724 157.98 258.51 157.133 258.51 156.2C258.51 155.267 258.724 154.42 259.15 153.66C259.577 152.9 260.157 152.293 260.89 151.84C261.624 151.387 262.444 151.16 263.35 151.16C263.95 151.16 264.51 151.267 265.03 151.48C265.55 151.68 266.01 151.973 266.41 152.36V151.4H268.35V161H266.41V160.04C266.01 160.413 265.55 160.707 265.03 160.92C264.51 161.133 263.95 161.24 263.35 161.24ZM263.57 159.28C264.13 159.28 264.63 159.147 265.07 158.88C265.524 158.613 265.877 158.247 266.13 157.78C266.397 157.313 266.53 156.787 266.53 156.2C266.53 155.613 266.397 155.087 266.13 154.62C265.877 154.153 265.524 153.787 265.07 153.52C264.63 153.253 264.13 153.12 263.57 153.12C263.01 153.12 262.51 153.253 262.07 153.52C261.63 153.787 261.277 154.153 261.01 154.62C260.757 155.087 260.63 155.613 260.63 156.2C260.63 156.787 260.757 157.313 261.01 157.78C261.277 158.247 261.63 158.613 262.07 158.88C262.51 159.147 263.01 159.28 263.57 159.28ZM273.998 161.24C273.145 161.24 272.398 161.007 271.758 160.54C271.131 160.06 270.745 159.453 270.598 158.72L272.518 158.36C272.598 158.667 272.771 158.92 273.038 159.12C273.318 159.32 273.638 159.42 273.998 159.42C274.358 159.42 274.658 159.313 274.898 159.1C275.138 158.887 275.258 158.62 275.258 158.3C275.258 157.78 274.965 157.42 274.378 157.22L272.978 156.66C272.298 156.393 271.778 156.027 271.418 155.56C271.071 155.08 270.898 154.533 270.898 153.92C270.898 153.4 271.031 152.933 271.298 152.52C271.578 152.107 271.945 151.78 272.398 151.54C272.865 151.287 273.378 151.16 273.938 151.16C274.618 151.16 275.225 151.347 275.758 151.72C276.291 152.08 276.651 152.547 276.838 153.12L274.978 153.8C274.911 153.56 274.785 153.367 274.598 153.22C274.411 153.06 274.191 152.98 273.938 152.98C273.658 152.98 273.418 153.067 273.218 153.24C273.031 153.4 272.938 153.613 272.938 153.88C272.938 154.067 272.998 154.24 273.118 154.4C273.238 154.56 273.471 154.713 273.818 154.86L275.178 155.38C275.805 155.62 276.311 155.993 276.698 156.5C277.098 156.993 277.298 157.573 277.298 158.24C277.298 158.8 277.151 159.307 276.858 159.76C276.565 160.213 276.171 160.573 275.678 160.84C275.185 161.107 274.625 161.24 273.998 161.24ZM279.583 161V145.44H281.623V152.04C281.943 151.773 282.31 151.56 282.723 151.4C283.136 151.24 283.583 151.16 284.063 151.16C284.583 151.16 285.063 151.253 285.503 151.44C285.956 151.627 286.35 151.887 286.683 152.22C287.03 152.567 287.296 152.993 287.483 153.5C287.683 153.993 287.783 154.613 287.783 155.36V161H285.743V155.54C285.743 155.033 285.69 154.64 285.583 154.36C285.49 154.067 285.35 153.833 285.163 153.66C284.776 153.273 284.29 153.08 283.703 153.08C283.116 153.08 282.63 153.273 282.243 153.66C282.056 153.833 281.903 154.067 281.783 154.36C281.676 154.64 281.623 155.033 281.623 155.54V161H279.583ZM295.696 161.24C295.11 161.24 294.556 161.133 294.036 160.92C293.516 160.707 293.056 160.413 292.656 160.04V161H290.696V145.44H292.736V152.3C293.136 151.94 293.583 151.66 294.076 151.46C294.583 151.26 295.123 151.16 295.696 151.16C296.616 151.16 297.443 151.387 298.176 151.84C298.91 152.293 299.49 152.9 299.916 153.66C300.343 154.42 300.556 155.267 300.556 156.2C300.556 157.133 300.343 157.98 299.916 158.74C299.49 159.5 298.91 160.107 298.176 160.56C297.443 161.013 296.616 161.24 295.696 161.24ZM295.476 159.28C296.036 159.28 296.536 159.147 296.976 158.88C297.43 158.613 297.783 158.247 298.036 157.78C298.303 157.313 298.436 156.787 298.436 156.2C298.436 155.613 298.303 155.087 298.036 154.62C297.783 154.153 297.43 153.787 296.976 153.52C296.536 153.253 296.036 153.12 295.476 153.12C294.93 153.12 294.43 153.253 293.976 153.52C293.536 153.787 293.183 154.153 292.916 154.62C292.663 155.087 292.536 155.613 292.536 156.2C292.536 156.787 292.663 157.313 292.916 157.78C293.183 158.247 293.536 158.613 293.976 158.88C294.43 159.147 294.93 159.28 295.476 159.28ZM307.184 161.24C306.237 161.24 305.377 161.013 304.604 160.56C303.844 160.107 303.237 159.5 302.784 158.74C302.344 157.98 302.124 157.133 302.124 156.2C302.124 155.267 302.344 154.42 302.784 153.66C303.237 152.9 303.844 152.293 304.604 151.84C305.377 151.387 306.237 151.16 307.184 151.16C308.144 151.16 309.004 151.387 309.764 151.84C310.537 152.293 311.144 152.9 311.584 153.66C312.037 154.42 312.264 155.267 312.264 156.2C312.264 157.133 312.037 157.98 311.584 158.74C311.144 159.5 310.537 160.107 309.764 160.56C309.004 161.013 308.144 161.24 307.184 161.24ZM307.184 159.3C307.744 159.3 308.244 159.167 308.684 158.9C309.137 158.62 309.49 158.247 309.744 157.78C310.01 157.313 310.144 156.787 310.144 156.2C310.144 155.613 310.01 155.087 309.744 154.62C309.49 154.153 309.137 153.787 308.684 153.52C308.244 153.24 307.744 153.1 307.184 153.1C306.624 153.1 306.124 153.24 305.684 153.52C305.244 153.787 304.89 154.153 304.624 154.62C304.37 155.087 304.244 155.613 304.244 156.2C304.244 156.787 304.37 157.313 304.624 157.78C304.89 158.247 305.244 158.62 305.684 158.9C306.124 159.167 306.624 159.3 307.184 159.3ZM318.663 161.24C317.756 161.24 316.936 161.013 316.203 160.56C315.47 160.107 314.89 159.5 314.463 158.74C314.036 157.98 313.823 157.133 313.823 156.2C313.823 155.267 314.036 154.42 314.463 153.66C314.89 152.9 315.47 152.293 316.203 151.84C316.936 151.387 317.756 151.16 318.663 151.16C319.263 151.16 319.823 151.267 320.343 151.48C320.863 151.68 321.323 151.973 321.723 152.36V151.4H323.663V161H321.723V160.04C321.323 160.413 320.863 160.707 320.343 160.92C319.823 161.133 319.263 161.24 318.663 161.24ZM318.883 159.28C319.443 159.28 319.943 159.147 320.383 158.88C320.836 158.613 321.19 158.247 321.443 157.78C321.71 157.313 321.843 156.787 321.843 156.2C321.843 155.613 321.71 155.087 321.443 154.62C321.19 154.153 320.836 153.787 320.383 153.52C319.943 153.253 319.443 153.12 318.883 153.12C318.323 153.12 317.823 153.253 317.383 153.52C316.943 153.787 316.59 154.153 316.323 154.62C316.07 155.087 315.943 155.613 315.943 156.2C315.943 156.787 316.07 157.313 316.323 157.78C316.59 158.247 316.943 158.613 317.383 158.88C317.823 159.147 318.323 159.28 318.883 159.28ZM326.77 161V151.4H328.71V152.62C328.75 152.553 328.79 152.5 328.83 152.46C328.884 152.407 328.937 152.353 328.99 152.3C329.297 151.993 329.664 151.753 330.09 151.58C330.53 151.393 330.997 151.3 331.49 151.3C331.597 151.3 331.704 151.307 331.81 151.32C331.917 151.32 332.024 151.327 332.13 151.34V153.28C332.024 153.267 331.917 153.26 331.81 153.26C331.704 153.247 331.59 153.24 331.47 153.24C330.67 153.24 330.03 153.493 329.55 154C329.324 154.227 329.144 154.513 329.01 154.86C328.877 155.193 328.81 155.64 328.81 156.2V161H326.77ZM338.136 161.24C337.229 161.24 336.409 161.013 335.676 160.56C334.942 160.107 334.362 159.5 333.936 158.74C333.509 157.98 333.296 157.133 333.296 156.2C333.296 155.267 333.509 154.42 333.936 153.66C334.362 152.9 334.942 152.293 335.676 151.84C336.409 151.387 337.229 151.16 338.136 151.16C338.722 151.16 339.262 151.26 339.756 151.46C340.262 151.66 340.709 151.94 341.096 152.3V145.44H343.136V161H341.196V160.04C340.796 160.413 340.336 160.707 339.816 160.92C339.296 161.133 338.736 161.24 338.136 161.24ZM338.356 159.28C338.916 159.28 339.416 159.147 339.856 158.88C340.309 158.613 340.662 158.247 340.916 157.78C341.182 157.313 341.316 156.787 341.316 156.2C341.316 155.613 341.182 155.087 340.916 154.62C340.662 154.153 340.309 153.787 339.856 153.52C339.416 153.253 338.916 153.12 338.356 153.12C337.796 153.12 337.296 153.253 336.856 153.52C336.416 153.787 336.062 154.153 335.796 154.62C335.542 155.087 335.416 155.613 335.416 156.2C335.416 156.787 335.542 157.313 335.796 157.78C336.062 158.247 336.416 158.613 336.856 158.88C337.296 159.147 337.796 159.28 338.356 159.28Z" fill="black"/>
<path d="M55.88 91V75.92H59.66C60.5 75.92 61.2067 76.0333 61.78 76.26C62.3533 76.4867 62.84 76.8067 63.24 77.22C63.64 77.6067 63.9533 78.0733 64.18 78.62C64.4067 79.1667 64.52 79.7533 64.52 80.38C64.52 80.9933 64.4067 81.5733 64.18 82.12C63.9533 82.6667 63.64 83.14 63.24 83.54C62.84 83.94 62.3533 84.2533 61.78 84.48C61.2067 84.7067 60.5 84.82 59.66 84.82H58.02V91H55.88ZM58.02 82.82H59.46C60.0067 82.82 60.4467 82.76 60.78 82.64C61.1133 82.5067 61.3867 82.3267 61.6 82.1C61.8133 81.8867 61.98 81.6333 62.1 81.34C62.2333 81.0333 62.3 80.7133 62.3 80.38C62.3 80.0333 62.2333 79.7133 62.1 79.42C61.98 79.1133 61.8133 78.8533 61.6 78.64C61.3867 78.4133 61.1133 78.24 60.78 78.12C60.4467 78 60.0067 77.94 59.46 77.94H58.02V82.82ZM66.6533 91V81.4H68.5933V82.62C68.6333 82.5533 68.6733 82.5 68.7133 82.46C68.7666 82.4067 68.8199 82.3533 68.8733 82.3C69.1799 81.9933 69.5466 81.7533 69.9733 81.58C70.4133 81.3933 70.8799 81.3 71.3733 81.3C71.4799 81.3 71.5866 81.3067 71.6933 81.32C71.7999 81.32 71.9066 81.3267 72.0133 81.34V83.28C71.9066 83.2667 71.7999 83.26 71.6933 83.26C71.5866 83.2467 71.4733 83.24 71.3533 83.24C70.5533 83.24 69.9133 83.4933 69.4333 84C69.2066 84.2267 69.0266 84.5133 68.8933 84.86C68.7599 85.1933 68.6933 85.64 68.6933 86.2V91H66.6533ZM78.2384 91.24C77.2918 91.24 76.4318 91.0133 75.6584 90.56C74.8984 90.1067 74.2918 89.5 73.8384 88.74C73.3984 87.98 73.1784 87.1333 73.1784 86.2C73.1784 85.2667 73.3984 84.42 73.8384 83.66C74.2918 82.9 74.8984 82.2933 75.6584 81.84C76.4318 81.3867 77.2918 81.16 78.2384 81.16C79.1984 81.16 80.0584 81.3867 80.8184 81.84C81.5918 82.2933 82.1984 82.9 82.6384 83.66C83.0918 84.42 83.3184 85.2667 83.3184 86.2C83.3184 87.1333 83.0918 87.98 82.6384 88.74C82.1984 89.5 81.5918 90.1067 80.8184 90.56C80.0584 91.0133 79.1984 91.24 78.2384 91.24ZM78.2384 89.3C78.7984 89.3 79.2984 89.1667 79.7384 88.9C80.1918 88.62 80.5451 88.2467 80.7984 87.78C81.0651 87.3133 81.1984 86.7867 81.1984 86.2C81.1984 85.6133 81.0651 85.0867 80.7984 84.62C80.5451 84.1533 80.1918 83.7867 79.7384 83.52C79.2984 83.24 78.7984 83.1 78.2384 83.1C77.6784 83.1 77.1784 83.24 76.7384 83.52C76.2984 83.7867 75.9451 84.1533 75.6784 84.62C75.4251 85.0867 75.2984 85.6133 75.2984 86.2C75.2984 86.7867 75.4251 87.3133 75.6784 87.78C75.9451 88.2467 76.2984 88.62 76.7384 88.9C77.1784 89.1667 77.6784 89.3 78.2384 89.3ZM89.9377 91.24C88.991 91.24 88.131 91.0133 87.3577 90.56C86.5977 90.1067 85.991 89.5 85.5377 88.74C85.0977 87.98 84.8777 87.1333 84.8777 86.2C84.8777 85.2667 85.0977 84.42 85.5377 83.66C85.991 82.9 86.5977 82.2933 87.3577 81.84C88.131 81.3867 88.991 81.16 89.9377 81.16C90.871 81.16 91.711 81.3867 92.4577 81.84V84.02C92.1643 83.7267 91.811 83.5 91.3977 83.34C90.9843 83.18 90.5377 83.1 90.0577 83.1C89.4843 83.1 88.9643 83.24 88.4977 83.52C88.031 83.7867 87.6643 84.1533 87.3977 84.62C87.131 85.0867 86.9977 85.6133 86.9977 86.2C86.9977 86.7867 87.131 87.3133 87.3977 87.78C87.6643 88.2467 88.031 88.62 88.4977 88.9C88.9643 89.1667 89.4843 89.3 90.0577 89.3C90.5377 89.3 90.9843 89.22 91.3977 89.06C91.811 88.9 92.1643 88.6733 92.4577 88.38V90.56C91.711 91.0133 90.871 91.24 89.9377 91.24ZM99.0945 91.24C98.1612 91.24 97.3212 91.02 96.5745 90.58C95.8412 90.1267 95.2545 89.52 94.8145 88.76C94.3879 88 94.1745 87.1533 94.1745 86.22C94.1745 85.26 94.3745 84.4 94.7745 83.64C95.1879 82.8667 95.7479 82.26 96.4545 81.82C97.1612 81.38 97.9612 81.16 98.8545 81.16C99.7479 81.16 100.541 81.38 101.235 81.82C101.941 82.26 102.495 82.86 102.895 83.62C103.308 84.38 103.515 85.24 103.515 86.2C103.515 86.32 103.508 86.4467 103.495 86.58C103.495 86.7 103.488 86.82 103.475 86.94H96.2545C96.3612 87.6333 96.6812 88.2067 97.2145 88.66C97.7479 89.1 98.3812 89.32 99.1145 89.32C99.6745 89.32 100.175 89.1867 100.615 88.92C101.068 88.6533 101.415 88.3 101.655 87.86L103.335 88.84C102.908 89.5733 102.321 90.16 101.575 90.6C100.841 91.0267 100.015 91.24 99.0945 91.24ZM96.2545 85.28H101.415C101.361 84.6133 101.101 84.0667 100.635 83.64C100.168 83.2133 99.5812 83 98.8745 83C98.1679 83 97.5679 83.2133 97.0745 83.64C96.5945 84.0667 96.3212 84.6133 96.2545 85.28ZM108.373 91.24C107.52 91.24 106.773 91.0067 106.133 90.54C105.506 90.06 105.12 89.4533 104.973 88.72L106.893 88.36C106.973 88.6667 107.146 88.92 107.413 89.12C107.693 89.32 108.013 89.42 108.373 89.42C108.733 89.42 109.033 89.3133 109.273 89.1C109.513 88.8867 109.633 88.62 109.633 88.3C109.633 87.78 109.34 87.42 108.753 87.22L107.353 86.66C106.673 86.3933 106.153 86.0267 105.793 85.56C105.446 85.08 105.273 84.5333 105.273 83.92C105.273 83.4 105.406 82.9333 105.673 82.52C105.953 82.1067 106.32 81.78 106.773 81.54C107.24 81.2867 107.753 81.16 108.313 81.16C108.993 81.16 109.6 81.3467 110.133 81.72C110.666 82.08 111.026 82.5467 111.213 83.12L109.353 83.8C109.286 83.56 109.16 83.3667 108.973 83.22C108.786 83.06 108.566 82.98 108.313 82.98C108.033 82.98 107.793 83.0667 107.593 83.24C107.406 83.4 107.313 83.6133 107.313 83.88C107.313 84.0667 107.373 84.24 107.493 84.4C107.613 84.56 107.846 84.7133 108.193 84.86L109.553 85.38C110.18 85.62 110.686 85.9933 111.073 86.5C111.473 86.9933 111.673 87.5733 111.673 88.24C111.673 88.8 111.526 89.3067 111.233 89.76C110.94 90.2133 110.546 90.5733 110.053 90.84C109.56 91.1067 109 91.24 108.373 91.24ZM116.498 91.24C115.645 91.24 114.898 91.0067 114.258 90.54C113.631 90.06 113.245 89.4533 113.098 88.72L115.018 88.36C115.098 88.6667 115.271 88.92 115.538 89.12C115.818 89.32 116.138 89.42 116.498 89.42C116.858 89.42 117.158 89.3133 117.398 89.1C117.638 88.8867 117.758 88.62 117.758 88.3C117.758 87.78 117.465 87.42 116.878 87.22L115.478 86.66C114.798 86.3933 114.278 86.0267 113.918 85.56C113.571 85.08 113.398 84.5333 113.398 83.92C113.398 83.4 113.531 82.9333 113.798 82.52C114.078 82.1067 114.445 81.78 114.898 81.54C115.365 81.2867 115.878 81.16 116.438 81.16C117.118 81.16 117.725 81.3467 118.258 81.72C118.791 82.08 119.151 82.5467 119.338 83.12L117.478 83.8C117.411 83.56 117.285 83.3667 117.098 83.22C116.911 83.06 116.691 82.98 116.438 82.98C116.158 82.98 115.918 83.0667 115.718 83.24C115.531 83.4 115.438 83.6133 115.438 83.88C115.438 84.0667 115.498 84.24 115.618 84.4C115.738 84.56 115.971 84.7133 116.318 84.86L117.678 85.38C118.305 85.62 118.811 85.9933 119.198 86.5C119.598 86.9933 119.798 87.5733 119.798 88.24C119.798 88.8 119.651 89.3067 119.358 89.76C119.065 90.2133 118.671 90.5733 118.178 90.84C117.685 91.1067 117.125 91.24 116.498 91.24ZM130.87 91.24C129.963 91.24 129.143 91.0133 128.41 90.56C127.677 90.1067 127.097 89.5 126.67 88.74C126.243 87.98 126.03 87.1333 126.03 86.2C126.03 85.2667 126.243 84.42 126.67 83.66C127.097 82.9 127.677 82.2933 128.41 81.84C129.143 81.3867 129.963 81.16 130.87 81.16C131.457 81.16 131.997 81.26 132.49 81.46C132.997 81.66 133.443 81.94 133.83 82.3V75.44H135.87V91H133.93V90.04C133.53 90.4133 133.07 90.7067 132.55 90.92C132.03 91.1333 131.47 91.24 130.87 91.24ZM131.09 89.28C131.65 89.28 132.15 89.1467 132.59 88.88C133.043 88.6133 133.397 88.2467 133.65 87.78C133.917 87.3133 134.05 86.7867 134.05 86.2C134.05 85.6133 133.917 85.0867 133.65 84.62C133.397 84.1533 133.043 83.7867 132.59 83.52C132.15 83.2533 131.65 83.12 131.09 83.12C130.53 83.12 130.03 83.2533 129.59 83.52C129.15 83.7867 128.797 84.1533 128.53 84.62C128.277 85.0867 128.15 85.6133 128.15 86.2C128.15 86.7867 128.277 87.3133 128.53 87.78C128.797 88.2467 129.15 88.6133 129.59 88.88C130.03 89.1467 130.53 89.28 131.09 89.28ZM139.998 79.94C139.624 79.94 139.298 79.8 139.018 79.52C138.738 79.24 138.598 78.9133 138.598 78.54C138.598 78.1533 138.738 77.8267 139.018 77.56C139.298 77.2933 139.624 77.16 139.998 77.16C140.384 77.16 140.711 77.2933 140.978 77.56C141.244 77.8267 141.378 78.1533 141.378 78.54C141.378 78.9133 141.244 79.24 140.978 79.52C140.711 79.8 140.384 79.94 139.998 79.94ZM138.978 91V81.4H141.018V91H138.978ZM144.075 91V81.4H146.015V82.62C146.055 82.5533 146.095 82.5 146.135 82.46C146.188 82.4067 146.242 82.3533 146.295 82.3C146.602 81.9933 146.968 81.7533 147.395 81.58C147.835 81.3933 148.302 81.3 148.795 81.3C148.902 81.3 149.008 81.3067 149.115 81.32C149.222 81.32 149.328 81.3267 149.435 81.34V83.28C149.328 83.2667 149.222 83.26 149.115 83.26C149.008 83.2467 148.895 83.24 148.775 83.24C147.975 83.24 147.335 83.4933 146.855 84C146.628 84.2267 146.448 84.5133 146.315 84.86C146.182 85.1933 146.115 85.64 146.115 86.2V91H144.075ZM155.52 91.24C154.587 91.24 153.747 91.02 153 90.58C152.267 90.1267 151.68 89.52 151.24 88.76C150.814 88 150.6 87.1533 150.6 86.22C150.6 85.26 150.8 84.4 151.2 83.64C151.614 82.8667 152.174 82.26 152.88 81.82C153.587 81.38 154.387 81.16 155.28 81.16C156.174 81.16 156.967 81.38 157.66 81.82C158.367 82.26 158.92 82.86 159.32 83.62C159.734 84.38 159.94 85.24 159.94 86.2C159.94 86.32 159.934 86.4467 159.92 86.58C159.92 86.7 159.914 86.82 159.9 86.94H152.68C152.787 87.6333 153.107 88.2067 153.64 88.66C154.174 89.1 154.807 89.32 155.54 89.32C156.1 89.32 156.6 89.1867 157.04 88.92C157.494 88.6533 157.84 88.3 158.08 87.86L159.76 88.84C159.334 89.5733 158.747 90.16 158 90.6C157.267 91.0267 156.44 91.24 155.52 91.24ZM152.68 85.28H157.84C157.787 84.6133 157.527 84.0667 157.06 83.64C156.594 83.2133 156.007 83 155.3 83C154.594 83 153.994 83.2133 153.5 83.64C153.02 84.0667 152.747 84.6133 152.68 85.28ZM166.559 91.24C165.612 91.24 164.752 91.0133 163.979 90.56C163.219 90.1067 162.612 89.5 162.159 88.74C161.719 87.98 161.499 87.1333 161.499 86.2C161.499 85.2667 161.719 84.42 162.159 83.66C162.612 82.9 163.219 82.2933 163.979 81.84C164.752 81.3867 165.612 81.16 166.559 81.16C167.492 81.16 168.332 81.3867 169.079 81.84V84.02C168.785 83.7267 168.432 83.5 168.019 83.34C167.605 83.18 167.159 83.1 166.679 83.1C166.105 83.1 165.585 83.24 165.119 83.52C164.652 83.7867 164.285 84.1533 164.019 84.62C163.752 85.0867 163.619 85.6133 163.619 86.2C163.619 86.7867 163.752 87.3133 164.019 87.78C164.285 88.2467 164.652 88.62 165.119 88.9C165.585 89.1667 166.105 89.3 166.679 89.3C167.159 89.3 167.605 89.22 168.019 89.06C168.432 88.9 168.785 88.6733 169.079 88.38V90.56C168.332 91.0133 167.492 91.24 166.559 91.24ZM172.296 91V83.22H170.536V81.4H172.296V77.74H174.336V81.4H176.396V83.22H174.336V91H172.296ZM188.02 91.24C187.434 91.24 186.88 91.1333 186.36 90.92C185.84 90.7067 185.38 90.4133 184.98 90.04V91H183.02V75.44H185.06V82.3C185.46 81.94 185.907 81.66 186.4 81.46C186.907 81.26 187.447 81.16 188.02 81.16C188.94 81.16 189.767 81.3867 190.5 81.84C191.234 82.2933 191.814 82.9 192.24 83.66C192.667 84.42 192.88 85.2667 192.88 86.2C192.88 87.1333 192.667 87.98 192.24 88.74C191.814 89.5 191.234 90.1067 190.5 90.56C189.767 91.0133 188.94 91.24 188.02 91.24ZM187.8 89.28C188.36 89.28 188.86 89.1467 189.3 88.88C189.754 88.6133 190.107 88.2467 190.36 87.78C190.627 87.3133 190.76 86.7867 190.76 86.2C190.76 85.6133 190.627 85.0867 190.36 84.62C190.107 84.1533 189.754 83.7867 189.3 83.52C188.86 83.2533 188.36 83.12 187.8 83.12C187.254 83.12 186.754 83.2533 186.3 83.52C185.86 83.7867 185.507 84.1533 185.24 84.62C184.987 85.0867 184.86 85.6133 184.86 86.2C184.86 86.7867 184.987 87.3133 185.24 87.78C185.507 88.2467 185.86 88.6133 186.3 88.88C186.754 89.1467 187.254 89.28 187.8 89.28ZM199.288 91.24C198.381 91.24 197.561 91.0133 196.828 90.56C196.095 90.1067 195.515 89.5 195.088 88.74C194.661 87.98 194.448 87.1333 194.448 86.2C194.448 85.2667 194.661 84.42 195.088 83.66C195.515 82.9 196.095 82.2933 196.828 81.84C197.561 81.3867 198.381 81.16 199.288 81.16C199.888 81.16 200.448 81.2667 200.968 81.48C201.488 81.68 201.948 81.9733 202.348 82.36V81.4H204.288V91H202.348V90.04C201.948 90.4133 201.488 90.7067 200.968 90.92C200.448 91.1333 199.888 91.24 199.288 91.24ZM199.508 89.28C200.068 89.28 200.568 89.1467 201.008 88.88C201.461 88.6133 201.815 88.2467 202.068 87.78C202.335 87.3133 202.468 86.7867 202.468 86.2C202.468 85.6133 202.335 85.0867 202.068 84.62C201.815 84.1533 201.461 83.7867 201.008 83.52C200.568 83.2533 200.068 83.12 199.508 83.12C198.948 83.12 198.448 83.2533 198.008 83.52C197.568 83.7867 197.215 84.1533 196.948 84.62C196.695 85.0867 196.568 85.6133 196.568 86.2C196.568 86.7867 196.695 87.3133 196.948 87.78C197.215 88.2467 197.568 88.6133 198.008 88.88C198.448 89.1467 198.948 89.28 199.508 89.28ZM207.395 91V81.4H209.335V82.16C209.655 81.8533 210.029 81.6133 210.455 81.44C210.895 81.2533 211.369 81.16 211.875 81.16C212.395 81.16 212.875 81.2533 213.315 81.44C213.769 81.6267 214.162 81.8867 214.495 82.22C214.842 82.5667 215.109 82.9933 215.295 83.5C215.495 83.9933 215.595 84.6133 215.595 85.36V91H213.555V85.54C213.555 85.0333 213.502 84.64 213.395 84.36C213.302 84.0667 213.162 83.8333 212.975 83.66C212.589 83.2733 212.102 83.08 211.515 83.08C210.929 83.08 210.442 83.2733 210.055 83.66C209.869 83.8333 209.715 84.0667 209.595 84.36C209.489 84.64 209.435 85.0333 209.435 85.54V91H207.395ZM218.509 91V75.44H220.549V85.16L224.089 81.4H226.689L222.649 85.62L226.869 91H224.409L221.289 87L220.549 87.78V91H218.509ZM233.956 91V83.22H232.196V81.4H233.956V77.74H235.996V81.4H238.056V83.22H235.996V91H233.956ZM239.974 91V81.4H241.914V82.62C241.954 82.5533 241.994 82.5 242.034 82.46C242.087 82.4067 242.14 82.3533 242.194 82.3C242.5 81.9933 242.867 81.7533 243.294 81.58C243.734 81.3933 244.2 81.3 244.694 81.3C244.8 81.3 244.907 81.3067 245.014 81.32C245.12 81.32 245.227 81.3267 245.334 81.34V83.28C245.227 83.2667 245.12 83.26 245.014 83.26C244.907 83.2467 244.794 83.24 244.674 83.24C243.874 83.24 243.234 83.4933 242.754 84C242.527 84.2267 242.347 84.5133 242.214 84.86C242.08 85.1933 242.014 85.64 242.014 86.2V91H239.974ZM251.339 91.24C250.432 91.24 249.612 91.0133 248.879 90.56C248.145 90.1067 247.565 89.5 247.139 88.74C246.712 87.98 246.499 87.1333 246.499 86.2C246.499 85.2667 246.712 84.42 247.139 83.66C247.565 82.9 248.145 82.2933 248.879 81.84C249.612 81.3867 250.432 81.16 251.339 81.16C251.939 81.16 252.499 81.2667 253.019 81.48C253.539 81.68 253.999 81.9733 254.399 82.36V81.4H256.339V91H254.399V90.04C253.999 90.4133 253.539 90.7067 253.019 90.92C252.499 91.1333 251.939 91.24 251.339 91.24ZM251.559 89.28C252.119 89.28 252.619 89.1467 253.059 88.88C253.512 88.6133 253.865 88.2467 254.119 87.78C254.385 87.3133 254.519 86.7867 254.519 86.2C254.519 85.6133 254.385 85.0867 254.119 84.62C253.865 84.1533 253.512 83.7867 253.059 83.52C252.619 83.2533 252.119 83.12 251.559 83.12C250.999 83.12 250.499 83.2533 250.059 83.52C249.619 83.7867 249.265 84.1533 248.999 84.62C248.745 85.0867 248.619 85.6133 248.619 86.2C248.619 86.7867 248.745 87.3133 248.999 87.78C249.265 88.2467 249.619 88.6133 250.059 88.88C250.499 89.1467 250.999 89.28 251.559 89.28ZM259.446 91V81.4H261.386V82.16C261.706 81.8533 262.08 81.6133 262.506 81.44C262.946 81.2533 263.42 81.16 263.926 81.16C264.446 81.16 264.926 81.2533 265.366 81.44C265.82 81.6267 266.213 81.8867 266.546 82.22C266.893 82.5667 267.16 82.9933 267.346 83.5C267.546 83.9933 267.646 84.6133 267.646 85.36V91H265.606V85.54C265.606 85.0333 265.553 84.64 265.446 84.36C265.353 84.0667 265.213 83.8333 265.026 83.66C264.64 83.2733 264.153 83.08 263.566 83.08C262.98 83.08 262.493 83.2733 262.106 83.66C261.92 83.8333 261.766 84.0667 261.646 84.36C261.54 84.64 261.486 85.0333 261.486 85.54V91H259.446ZM273.1 91.24C272.246 91.24 271.5 91.0067 270.86 90.54C270.233 90.06 269.846 89.4533 269.7 88.72L271.62 88.36C271.7 88.6667 271.873 88.92 272.14 89.12C272.42 89.32 272.74 89.42 273.1 89.42C273.46 89.42 273.76 89.3133 274 89.1C274.24 88.8867 274.36 88.62 274.36 88.3C274.36 87.78 274.066 87.42 273.48 87.22L272.08 86.66C271.4 86.3933 270.88 86.0267 270.52 85.56C270.173 85.08 270 84.5333 270 83.92C270 83.4 270.133 82.9333 270.4 82.52C270.68 82.1067 271.046 81.78 271.5 81.54C271.966 81.2867 272.48 81.16 273.04 81.16C273.72 81.16 274.326 81.3467 274.86 81.72C275.393 82.08 275.753 82.5467 275.94 83.12L274.08 83.8C274.013 83.56 273.886 83.3667 273.7 83.22C273.513 83.06 273.293 82.98 273.04 82.98C272.76 82.98 272.52 83.0667 272.32 83.24C272.133 83.4 272.04 83.6133 272.04 83.88C272.04 84.0667 272.1 84.24 272.22 84.4C272.34 84.56 272.573 84.7133 272.92 84.86L274.28 85.38C274.906 85.62 275.413 85.9933 275.8 86.5C276.2 86.9933 276.4 87.5733 276.4 88.24C276.4 88.8 276.253 89.3067 275.96 89.76C275.666 90.2133 275.273 90.5733 274.78 90.84C274.286 91.1067 273.726 91.24 273.1 91.24ZM279.445 91V83.22H277.645V81.4H279.445V78.8C279.445 78.1467 279.525 77.6067 279.685 77.18C279.858 76.7533 280.091 76.3933 280.385 76.1C280.985 75.5 281.738 75.2 282.645 75.2C283.098 75.2 283.525 75.28 283.925 75.44V77.34C283.791 77.2733 283.645 77.2267 283.485 77.2C283.325 77.16 283.151 77.14 282.965 77.14C282.751 77.14 282.551 77.18 282.365 77.26C282.178 77.34 282.025 77.44 281.905 77.56C281.771 77.6933 281.665 77.8667 281.585 78.08C281.518 78.2933 281.485 78.6067 281.485 79.02V81.4H283.925V83.22H281.485V91H279.445ZM289.993 91.24C289.06 91.24 288.22 91.02 287.473 90.58C286.74 90.1267 286.153 89.52 285.713 88.76C285.286 88 285.073 87.1533 285.073 86.22C285.073 85.26 285.273 84.4 285.673 83.64C286.086 82.8667 286.646 82.26 287.353 81.82C288.06 81.38 288.86 81.16 289.753 81.16C290.646 81.16 291.44 81.38 292.133 81.82C292.84 82.26 293.393 82.86 293.793 83.62C294.206 84.38 294.413 85.24 294.413 86.2C294.413 86.32 294.406 86.4467 294.393 86.58C294.393 86.7 294.386 86.82 294.373 86.94H287.153C287.26 87.6333 287.58 88.2067 288.113 88.66C288.646 89.1 289.28 89.32 290.013 89.32C290.573 89.32 291.073 89.1867 291.513 88.92C291.966 88.6533 292.313 88.3 292.553 87.86L294.233 88.84C293.806 89.5733 293.22 90.16 292.473 90.6C291.74 91.0267 290.913 91.24 289.993 91.24ZM287.153 85.28H292.313C292.26 84.6133 292 84.0667 291.533 83.64C291.066 83.2133 290.48 83 289.773 83C289.066 83 288.466 83.2133 287.973 83.64C287.493 84.0667 287.22 84.6133 287.153 85.28ZM296.731 91V81.4H298.671V82.62C298.711 82.5533 298.751 82.5 298.791 82.46C298.845 82.4067 298.898 82.3533 298.951 82.3C299.258 81.9933 299.625 81.7533 300.051 81.58C300.491 81.3933 300.958 81.3 301.451 81.3C301.558 81.3 301.665 81.3067 301.771 81.32C301.878 81.32 301.985 81.3267 302.091 81.34V83.28C301.985 83.2667 301.878 83.26 301.771 83.26C301.665 83.2467 301.551 83.24 301.431 83.24C300.631 83.24 299.991 83.4933 299.511 84C299.285 84.2267 299.105 84.5133 298.971 84.86C298.838 85.1933 298.771 85.64 298.771 86.2V91H296.731ZM306.557 91.24C305.703 91.24 304.957 91.0067 304.317 90.54C303.69 90.06 303.303 89.4533 303.157 88.72L305.077 88.36C305.157 88.6667 305.33 88.92 305.597 89.12C305.877 89.32 306.197 89.42 306.557 89.42C306.917 89.42 307.217 89.3133 307.457 89.1C307.697 88.8867 307.817 88.62 307.817 88.3C307.817 87.78 307.523 87.42 306.937 87.22L305.537 86.66C304.857 86.3933 304.337 86.0267 303.977 85.56C303.63 85.08 303.457 84.5333 303.457 83.92C303.457 83.4 303.59 82.9333 303.857 82.52C304.137 82.1067 304.503 81.78 304.957 81.54C305.423 81.2867 305.937 81.16 306.497 81.16C307.177 81.16 307.783 81.3467 308.317 81.72C308.85 82.08 309.21 82.5467 309.397 83.12L307.537 83.8C307.47 83.56 307.343 83.3667 307.157 83.22C306.97 83.06 306.75 82.98 306.497 82.98C306.217 82.98 305.977 83.0667 305.777 83.24C305.59 83.4 305.497 83.6133 305.497 83.88C305.497 84.0667 305.557 84.24 305.677 84.4C305.797 84.56 306.03 84.7133 306.377 84.86L307.737 85.38C308.363 85.62 308.87 85.9933 309.257 86.5C309.657 86.9933 309.857 87.5733 309.857 88.24C309.857 88.8 309.71 89.3067 309.417 89.76C309.123 90.2133 308.73 90.5733 308.237 90.84C307.743 91.1067 307.183 91.24 306.557 91.24Z" fill="black"/>
<rect x="54" y="168" width="72" height="7" rx="3.48071" fill="#DBDBDB"/>
<rect x="54" y="177" width="103" height="7" rx="3.48071" fill="#DBDBDB"/>
<rect x="54" y="94" width="72" height="7" rx="3.48071" fill="#DBDBDB"/>
<rect x="54" y="103" width="103" height="7" rx="3.48071" fill="#DBDBDB"/>
</svg>
