<svg width="699" height="184" viewBox="0 0 699 184" fill="none" xmlns="http://www.w3.org/2000/svg">
<path d="M240.119 22L247.219 6.28L254.299 22H252.019L250.499 18.64H243.879L242.339 22H240.119ZM244.739 16.64H249.619L247.199 11.18H247.159L244.739 16.64ZM260.195 22.24C259.249 22.24 258.389 22.0133 257.615 21.56C256.855 21.1067 256.249 20.5 255.795 19.74C255.355 18.98 255.135 18.1333 255.135 17.2C255.135 16.2667 255.355 15.42 255.795 14.66C256.249 13.9 256.855 13.2933 257.615 12.84C258.389 12.3867 259.249 12.16 260.195 12.16C261.129 12.16 261.969 12.3867 262.715 12.84V15.02C262.422 14.7267 262.069 14.5 261.655 14.34C261.242 14.18 260.795 14.1 260.315 14.1C259.742 14.1 259.222 14.24 258.755 14.52C258.289 14.7867 257.922 15.1533 257.655 15.62C257.389 16.0867 257.255 16.6133 257.255 17.2C257.255 17.7867 257.389 18.3133 257.655 18.78C257.922 19.2467 258.289 19.62 258.755 19.9C259.222 20.1667 259.742 20.3 260.315 20.3C260.795 20.3 261.242 20.22 261.655 20.06C262.069 19.9 262.422 19.6733 262.715 19.38V21.56C261.969 22.0133 261.129 22.24 260.195 22.24ZM269.492 22.24C268.546 22.24 267.686 22.0133 266.912 21.56C266.152 21.1067 265.546 20.5 265.092 19.74C264.652 18.98 264.432 18.1333 264.432 17.2C264.432 16.2667 264.652 15.42 265.092 14.66C265.546 13.9 266.152 13.2933 266.912 12.84C267.686 12.3867 268.546 12.16 269.492 12.16C270.426 12.16 271.266 12.3867 272.012 12.84V15.02C271.719 14.7267 271.366 14.5 270.952 14.34C270.539 14.18 270.092 14.1 269.612 14.1C269.039 14.1 268.519 14.24 268.052 14.52C267.586 14.7867 267.219 15.1533 266.952 15.62C266.686 16.0867 266.552 16.6133 266.552 17.2C266.552 17.7867 266.686 18.3133 266.952 18.78C267.219 19.2467 267.586 19.62 268.052 19.9C268.519 20.1667 269.039 20.3 269.612 20.3C270.092 20.3 270.539 20.22 270.952 20.06C271.366 19.9 271.719 19.6733 272.012 19.38V21.56C271.266 22.0133 270.426 22.24 269.492 22.24ZM278.649 22.24C277.716 22.24 276.876 22.02 276.129 21.58C275.396 21.1267 274.809 20.52 274.369 19.76C273.943 19 273.729 18.1533 273.729 17.22C273.729 16.26 273.929 15.4 274.329 14.64C274.743 13.8667 275.303 13.26 276.009 12.82C276.716 12.38 277.516 12.16 278.409 12.16C279.303 12.16 280.096 12.38 280.789 12.82C281.496 13.26 282.049 13.86 282.449 14.62C282.863 15.38 283.069 16.24 283.069 17.2C283.069 17.32 283.063 17.4467 283.049 17.58C283.049 17.7 283.043 17.82 283.029 17.94H275.809C275.916 18.6333 276.236 19.2067 276.769 19.66C277.303 20.1 277.936 20.32 278.669 20.32C279.229 20.32 279.729 20.1867 280.169 19.92C280.623 19.6533 280.969 19.3 281.209 18.86L282.889 19.84C282.463 20.5733 281.876 21.16 281.129 21.6C280.396 22.0267 279.569 22.24 278.649 22.24ZM275.809 16.28H280.969C280.916 15.6133 280.656 15.0667 280.189 14.64C279.723 14.2133 279.136 14 278.429 14C277.723 14 277.123 14.2133 276.629 14.64C276.149 15.0667 275.876 15.6133 275.809 16.28ZM285.388 27.08V12.4H287.348V13.36C287.748 12.9733 288.208 12.6733 288.728 12.46C289.248 12.2467 289.801 12.14 290.388 12.14C291.308 12.14 292.134 12.3667 292.868 12.82C293.601 13.2733 294.181 13.8867 294.608 14.66C295.034 15.42 295.248 16.2667 295.248 17.2C295.248 18.1333 295.034 18.98 294.608 19.74C294.181 20.5 293.601 21.1067 292.868 21.56C292.134 22.0133 291.308 22.24 290.388 22.24C289.814 22.24 289.274 22.14 288.768 21.94C288.274 21.74 287.828 21.46 287.428 21.1V27.08H285.388ZM290.168 20.28C290.728 20.28 291.228 20.1467 291.668 19.88C292.121 19.6 292.474 19.2267 292.728 18.76C292.994 18.2933 293.128 17.7733 293.128 17.2C293.128 16.6133 292.994 16.0867 292.728 15.62C292.474 15.1533 292.121 14.7867 291.668 14.52C291.228 14.24 290.728 14.1 290.168 14.1C289.621 14.1 289.121 14.24 288.668 14.52C288.228 14.7867 287.874 15.1533 287.608 15.62C287.354 16.0867 287.228 16.6133 287.228 17.2C287.228 17.7733 287.354 18.2933 287.608 18.76C287.874 19.2267 288.228 19.6 288.668 19.88C289.121 20.1467 289.621 20.28 290.168 20.28ZM298.315 22V14.22H296.555V12.4H298.315V8.74H300.355V12.4H302.415V14.22H300.355V22H298.315ZM316.18 22.24C315.073 22.24 314.047 22.04 313.1 21.64C312.167 21.24 311.347 20.6867 310.64 19.98C309.947 19.26 309.4 18.4333 309 17.5C308.613 16.5533 308.42 15.54 308.42 14.46C308.42 13.38 308.613 12.3733 309 11.44C309.4 10.4933 309.947 9.66667 310.64 8.96C311.347 8.24 312.167 7.68 313.1 7.28C314.047 6.88 315.073 6.68 316.18 6.68C317.287 6.68 318.307 6.88 319.24 7.28C320.187 7.68 321.007 8.24 321.7 8.96C322.407 9.66667 322.953 10.4933 323.34 11.44C323.74 12.3733 323.94 13.38 323.94 14.46C323.94 15.54 323.74 16.5533 323.34 17.5C322.953 18.4333 322.407 19.26 321.7 19.98C321.007 20.6867 320.187 21.24 319.24 21.64C318.307 22.04 317.287 22.24 316.18 22.24ZM316.18 20.2C317.233 20.2 318.173 19.9467 319 19.44C319.84 18.9333 320.5 18.2467 320.98 17.38C321.473 16.5133 321.72 15.54 321.72 14.46C321.72 13.3667 321.473 12.3933 320.98 11.54C320.5 10.6733 319.84 9.98667 319 9.48C318.173 8.97333 317.233 8.72 316.18 8.72C315.127 8.72 314.18 8.97333 313.34 9.48C312.513 9.98667 311.853 10.6733 311.36 11.54C310.88 12.3933 310.64 13.3667 310.64 14.46C310.64 15.54 310.88 16.5133 311.36 17.38C311.853 18.2467 312.513 18.9333 313.34 19.44C314.18 19.9467 315.127 20.2 316.18 20.2ZM326.403 22V12.4H328.343V13.16C328.663 12.8533 329.037 12.6133 329.463 12.44C329.903 12.2533 330.377 12.16 330.883 12.16C331.403 12.16 331.883 12.2533 332.323 12.44C332.777 12.6267 333.17 12.8867 333.503 13.22C333.85 13.5667 334.117 13.9933 334.303 14.5C334.503 14.9933 334.603 15.6133 334.603 16.36V22H332.563V16.54C332.563 16.0333 332.51 15.64 332.403 15.36C332.31 15.0667 332.17 14.8333 331.983 14.66C331.597 14.2733 331.11 14.08 330.523 14.08C329.937 14.08 329.45 14.2733 329.063 14.66C328.877 14.8333 328.723 15.0667 328.603 15.36C328.497 15.64 328.443 16.0333 328.443 16.54V22H326.403ZM337.517 22V6.44H339.557V22H337.517ZM343.673 10.94C343.3 10.94 342.973 10.8 342.693 10.52C342.413 10.24 342.273 9.91333 342.273 9.54C342.273 9.15333 342.413 8.82667 342.693 8.56C342.973 8.29333 343.3 8.16 343.673 8.16C344.06 8.16 344.387 8.29333 344.653 8.56C344.92 8.82667 345.053 9.15333 345.053 9.54C345.053 9.91333 344.92 10.24 344.653 10.52C344.387 10.8 344.06 10.94 343.673 10.94ZM342.653 22V12.4H344.693V22H342.653ZM347.751 22V12.4H349.691V13.16C350.011 12.8533 350.384 12.6133 350.811 12.44C351.251 12.2533 351.724 12.16 352.231 12.16C352.751 12.16 353.231 12.2533 353.671 12.44C354.124 12.6267 354.518 12.8867 354.851 13.22C355.198 13.5667 355.464 13.9933 355.651 14.5C355.851 14.9933 355.951 15.6133 355.951 16.36V22H353.911V16.54C353.911 16.0333 353.858 15.64 353.751 15.36C353.658 15.0667 353.518 14.8333 353.331 14.66C352.944 14.2733 352.458 14.08 351.871 14.08C351.284 14.08 350.798 14.2733 350.411 14.66C350.224 14.8333 350.071 15.0667 349.951 15.36C349.844 15.64 349.791 16.0333 349.791 16.54V22H347.751ZM363.024 22.24C362.091 22.24 361.251 22.02 360.504 21.58C359.771 21.1267 359.184 20.52 358.744 19.76C358.318 19 358.104 18.1533 358.104 17.22C358.104 16.26 358.304 15.4 358.704 14.64C359.118 13.8667 359.678 13.26 360.384 12.82C361.091 12.38 361.891 12.16 362.784 12.16C363.678 12.16 364.471 12.38 365.164 12.82C365.871 13.26 366.424 13.86 366.824 14.62C367.238 15.38 367.444 16.24 367.444 17.2C367.444 17.32 367.438 17.4467 367.424 17.58C367.424 17.7 367.418 17.82 367.404 17.94H360.184C360.291 18.6333 360.611 19.2067 361.144 19.66C361.678 20.1 362.311 20.32 363.044 20.32C363.604 20.32 364.104 20.1867 364.544 19.92C364.998 19.6533 365.344 19.3 365.584 18.86L367.264 19.84C366.838 20.5733 366.251 21.16 365.504 21.6C364.771 22.0267 363.944 22.24 363.024 22.24ZM360.184 16.28H365.344C365.291 15.6133 365.031 15.0667 364.564 14.64C364.098 14.2133 363.511 14 362.804 14C362.098 14 361.498 14.2133 361.004 14.64C360.524 15.0667 360.251 15.6133 360.184 16.28ZM374.81 22V6.92H378.53C379.796 6.92 380.903 7.12 381.85 7.52C382.796 7.90667 383.61 8.43333 384.29 9.1C384.97 9.76667 385.503 10.5667 385.89 11.5C386.276 12.4333 386.47 13.42 386.47 14.46C386.47 15.5 386.276 16.4867 385.89 17.42C385.503 18.3533 384.97 19.1533 384.29 19.82C383.61 20.4867 382.796 21.02 381.85 21.42C380.903 21.8067 379.796 22 378.53 22H374.81ZM376.95 19.98H378.33C379.316 19.98 380.163 19.84 380.87 19.56C381.576 19.28 382.176 18.8933 382.67 18.4C383.163 17.8933 383.55 17.3067 383.83 16.64C384.11 15.96 384.25 15.2333 384.25 14.46C384.25 13.6733 384.11 12.9467 383.83 12.28C383.55 11.6 383.163 11.0133 382.67 10.52C382.176 10.0267 381.576 9.64 380.87 9.36C380.163 9.08 379.316 8.94 378.33 8.94H376.95V19.98ZM393.223 22.24C392.276 22.24 391.416 22.0133 390.643 21.56C389.883 21.1067 389.276 20.5 388.823 19.74C388.383 18.98 388.163 18.1333 388.163 17.2C388.163 16.2667 388.383 15.42 388.823 14.66C389.276 13.9 389.883 13.2933 390.643 12.84C391.416 12.3867 392.276 12.16 393.223 12.16C394.183 12.16 395.043 12.3867 395.803 12.84C396.576 13.2933 397.183 13.9 397.623 14.66C398.076 15.42 398.303 16.2667 398.303 17.2C398.303 18.1333 398.076 18.98 397.623 19.74C397.183 20.5 396.576 21.1067 395.803 21.56C395.043 22.0133 394.183 22.24 393.223 22.24ZM393.223 20.3C393.783 20.3 394.283 20.1667 394.723 19.9C395.176 19.62 395.529 19.2467 395.783 18.78C396.049 18.3133 396.183 17.7867 396.183 17.2C396.183 16.6133 396.049 16.0867 395.783 15.62C395.529 15.1533 395.176 14.7867 394.723 14.52C394.283 14.24 393.783 14.1 393.223 14.1C392.663 14.1 392.163 14.24 391.723 14.52C391.283 14.7867 390.929 15.1533 390.663 15.62C390.409 16.0867 390.283 16.6133 390.283 17.2C390.283 17.7867 390.409 18.3133 390.663 18.78C390.929 19.2467 391.283 19.62 391.723 19.9C392.163 20.1667 392.663 20.3 393.223 20.3ZM400.622 22V12.4H402.562V13.16C402.882 12.8533 403.255 12.6133 403.682 12.44C404.122 12.2533 404.595 12.16 405.102 12.16C405.622 12.16 406.102 12.2533 406.542 12.44C406.995 12.6267 407.389 12.8867 407.722 13.22C408.069 13.5667 408.335 13.9933 408.522 14.5C408.722 14.9933 408.822 15.6133 408.822 16.36V22H406.782V16.54C406.782 16.0333 406.729 15.64 406.622 15.36C406.529 15.0667 406.389 14.8333 406.202 14.66C405.815 14.2733 405.329 14.08 404.742 14.08C404.155 14.08 403.669 14.2733 403.282 14.66C403.095 14.8333 402.942 15.0667 402.822 15.36C402.715 15.64 402.662 16.0333 402.662 16.54V22H400.622ZM415.815 22.24C414.909 22.24 414.089 22.0133 413.355 21.56C412.622 21.1067 412.042 20.5 411.615 19.74C411.189 18.98 410.975 18.1333 410.975 17.2C410.975 16.2667 411.189 15.42 411.615 14.66C412.042 13.9 412.622 13.2933 413.355 12.84C414.089 12.3867 414.909 12.16 415.815 12.16C416.415 12.16 416.975 12.2667 417.495 12.48C418.015 12.68 418.475 12.9733 418.875 13.36V12.4H420.815V22H418.875V21.04C418.475 21.4133 418.015 21.7067 417.495 21.92C416.975 22.1333 416.415 22.24 415.815 22.24ZM416.035 20.28C416.595 20.28 417.095 20.1467 417.535 19.88C417.989 19.6133 418.342 19.2467 418.595 18.78C418.862 18.3133 418.995 17.7867 418.995 17.2C418.995 16.6133 418.862 16.0867 418.595 15.62C418.342 15.1533 417.989 14.7867 417.535 14.52C417.095 14.2533 416.595 14.12 416.035 14.12C415.475 14.12 414.975 14.2533 414.535 14.52C414.095 14.7867 413.742 15.1533 413.475 15.62C413.222 16.0867 413.095 16.6133 413.095 17.2C413.095 17.7867 413.222 18.3133 413.475 18.78C413.742 19.2467 414.095 19.6133 414.535 19.88C414.975 20.1467 415.475 20.28 416.035 20.28ZM424.663 22V14.22H422.903V12.4H424.663V8.74H426.703V12.4H428.763V14.22H426.703V22H424.663ZM431.701 10.94C431.327 10.94 431.001 10.8 430.721 10.52C430.441 10.24 430.301 9.91333 430.301 9.54C430.301 9.15333 430.441 8.82667 430.721 8.56C431.001 8.29333 431.327 8.16 431.701 8.16C432.087 8.16 432.414 8.29333 432.681 8.56C432.947 8.82667 433.081 9.15333 433.081 9.54C433.081 9.91333 432.947 10.24 432.681 10.52C432.414 10.8 432.087 10.94 431.701 10.94ZM430.681 22V12.4H432.721V22H430.681ZM440.078 22.24C439.132 22.24 438.272 22.0133 437.498 21.56C436.738 21.1067 436.132 20.5 435.678 19.74C435.238 18.98 435.018 18.1333 435.018 17.2C435.018 16.2667 435.238 15.42 435.678 14.66C436.132 13.9 436.738 13.2933 437.498 12.84C438.272 12.3867 439.132 12.16 440.078 12.16C441.038 12.16 441.898 12.3867 442.658 12.84C443.432 13.2933 444.038 13.9 444.478 14.66C444.932 15.42 445.158 16.2667 445.158 17.2C445.158 18.1333 444.932 18.98 444.478 19.74C444.038 20.5 443.432 21.1067 442.658 21.56C441.898 22.0133 441.038 22.24 440.078 22.24ZM440.078 20.3C440.638 20.3 441.138 20.1667 441.578 19.9C442.032 19.62 442.385 19.2467 442.638 18.78C442.905 18.3133 443.038 17.7867 443.038 17.2C443.038 16.6133 442.905 16.0867 442.638 15.62C442.385 15.1533 442.032 14.7867 441.578 14.52C441.138 14.24 440.638 14.1 440.078 14.1C439.518 14.1 439.018 14.24 438.578 14.52C438.138 14.7867 437.785 15.1533 437.518 15.62C437.265 16.0867 437.138 16.6133 437.138 17.2C437.138 17.7867 437.265 18.3133 437.518 18.78C437.785 19.2467 438.138 19.62 438.578 19.9C439.018 20.1667 439.518 20.3 440.078 20.3ZM447.478 22V12.4H449.418V13.16C449.738 12.8533 450.111 12.6133 450.538 12.44C450.978 12.2533 451.451 12.16 451.958 12.16C452.478 12.16 452.958 12.2533 453.398 12.44C453.851 12.6267 454.244 12.8867 454.578 13.22C454.924 13.5667 455.191 13.9933 455.378 14.5C455.578 14.9933 455.678 15.6133 455.678 16.36V22H453.638V16.54C453.638 16.0333 453.584 15.64 453.478 15.36C453.384 15.0667 453.244 14.8333 453.058 14.66C452.671 14.2733 452.184 14.08 451.598 14.08C451.011 14.08 450.524 14.2733 450.138 14.66C449.951 14.8333 449.798 15.0667 449.678 15.36C449.571 15.64 449.518 16.0333 449.518 16.54V22H447.478ZM461.131 22.24C460.277 22.24 459.531 22.0067 458.891 21.54C458.264 21.06 457.877 20.4533 457.731 19.72L459.651 19.36C459.731 19.6667 459.904 19.92 460.171 20.12C460.451 20.32 460.771 20.42 461.131 20.42C461.491 20.42 461.791 20.3133 462.031 20.1C462.271 19.8867 462.391 19.62 462.391 19.3C462.391 18.78 462.097 18.42 461.511 18.22L460.111 17.66C459.431 17.3933 458.911 17.0267 458.551 16.56C458.204 16.08 458.031 15.5333 458.031 14.92C458.031 14.4 458.164 13.9333 458.431 13.52C458.711 13.1067 459.077 12.78 459.531 12.54C459.997 12.2867 460.511 12.16 461.071 12.16C461.751 12.16 462.357 12.3467 462.891 12.72C463.424 13.08 463.784 13.5467 463.971 14.12L462.111 14.8C462.044 14.56 461.917 14.3667 461.731 14.22C461.544 14.06 461.324 13.98 461.071 13.98C460.791 13.98 460.551 14.0667 460.351 14.24C460.164 14.4 460.071 14.6133 460.071 14.88C460.071 15.0667 460.131 15.24 460.251 15.4C460.371 15.56 460.604 15.7133 460.951 15.86L462.311 16.38C462.937 16.62 463.444 16.9933 463.831 17.5C464.231 17.9933 464.431 18.5733 464.431 19.24C464.431 19.8 464.284 20.3067 463.991 20.76C463.697 21.2133 463.304 21.5733 462.811 21.84C462.317 22.1067 461.757 22.24 461.131 22.24Z" fill="black"/>
<rect x="184" y="2" width="40" height="40" rx="19.8898" fill="#715EB6"/>
<path d="M201.514 28.0994L195.835 22.3679L197.255 20.935L201.514 25.2337L210.654 16.0078L212.073 17.4407L201.514 28.0994Z" fill="white"/>
<rect x="184" y="72" width="40" height="40" rx="19.8898" fill="#715EB6"/>
<path d="M201.514 98.0994L195.835 92.3679L197.255 90.935L201.514 95.2337L210.654 86.0078L212.073 87.4407L201.514 98.0994Z" fill="white"/>
<rect x="184" y="141" width="40" height="40" rx="19.8898" fill="#715EB6"/>
<path d="M201.514 167.099L195.835 161.368L197.255 159.935L201.514 164.234L210.654 155.008L212.073 156.441L201.514 167.099Z" fill="white"/>
<rect x="203" y="69" width="24" height="2" rx="0.99449" transform="rotate(-90 203 69)" fill="#715EB6"/>
<rect x="203" y="139" width="24" height="2" rx="0.99449" transform="rotate(-90 203 139)" fill="#715EB6"/>
<rect x="238" y="28" width="72" height="7" rx="3.48071" fill="#DBDBDB"/>
<rect x="238" y="37" width="103" height="7" rx="3.48071" fill="#DBDBDB"/>
<path d="M241.939 161V145.92H244.079V158.98H248.679V161H241.939ZM255.117 161.24C254.171 161.24 253.311 161.013 252.537 160.56C251.777 160.107 251.171 159.5 250.717 158.74C250.277 157.98 250.057 157.133 250.057 156.2C250.057 155.267 250.277 154.42 250.717 153.66C251.171 152.9 251.777 152.293 252.537 151.84C253.311 151.387 254.171 151.16 255.117 151.16C256.077 151.16 256.937 151.387 257.697 151.84C258.471 152.293 259.077 152.9 259.517 153.66C259.971 154.42 260.197 155.267 260.197 156.2C260.197 157.133 259.971 157.98 259.517 158.74C259.077 159.5 258.471 160.107 257.697 160.56C256.937 161.013 256.077 161.24 255.117 161.24ZM255.117 159.3C255.677 159.3 256.177 159.167 256.617 158.9C257.071 158.62 257.424 158.247 257.677 157.78C257.944 157.313 258.077 156.787 258.077 156.2C258.077 155.613 257.944 155.087 257.677 154.62C257.424 154.153 257.071 153.787 256.617 153.52C256.177 153.24 255.677 153.1 255.117 153.1C254.557 153.1 254.057 153.24 253.617 153.52C253.177 153.787 252.824 154.153 252.557 154.62C252.304 155.087 252.177 155.613 252.177 156.2C252.177 156.787 252.304 157.313 252.557 157.78C252.824 158.247 253.177 158.62 253.617 158.9C254.057 159.167 254.557 159.3 255.117 159.3ZM266.877 166.32C266.01 166.32 265.223 166.133 264.517 165.76C263.823 165.4 263.263 164.907 262.837 164.28C262.423 163.653 262.197 162.953 262.157 162.18H264.177C264.243 162.833 264.523 163.367 265.017 163.78C265.523 164.193 266.143 164.4 266.877 164.4C267.703 164.4 268.37 164.127 268.877 163.58C269.103 163.34 269.277 163.027 269.397 162.64C269.53 162.267 269.597 161.76 269.597 161.12V160.08C269.197 160.453 268.743 160.74 268.237 160.94C267.73 161.14 267.183 161.24 266.597 161.24C265.69 161.24 264.87 161.013 264.137 160.56C263.403 160.107 262.823 159.5 262.397 158.74C261.97 157.98 261.757 157.133 261.757 156.2C261.757 155.267 261.97 154.42 262.397 153.66C262.823 152.9 263.403 152.293 264.137 151.84C264.87 151.387 265.69 151.16 266.597 151.16C267.197 151.16 267.757 151.267 268.277 151.48C268.797 151.68 269.257 151.973 269.657 152.36V151.4H271.597V161.16C271.597 162.04 271.49 162.773 271.277 163.36C271.063 163.96 270.757 164.467 270.357 164.88C269.943 165.333 269.437 165.687 268.837 165.94C268.237 166.193 267.583 166.32 266.877 166.32ZM266.817 159.28C267.377 159.28 267.877 159.147 268.317 158.88C268.77 158.613 269.123 158.247 269.377 157.78C269.643 157.313 269.777 156.787 269.777 156.2C269.777 155.613 269.643 155.087 269.377 154.62C269.123 154.153 268.77 153.787 268.317 153.52C267.877 153.253 267.377 153.12 266.817 153.12C266.257 153.12 265.757 153.253 265.317 153.52C264.877 153.787 264.523 154.153 264.257 154.62C264.003 155.087 263.877 155.613 263.877 156.2C263.877 156.787 264.003 157.313 264.257 157.78C264.523 158.247 264.877 158.613 265.317 158.88C265.757 159.147 266.257 159.28 266.817 159.28ZM283.433 161.24C282.526 161.24 281.706 161.013 280.973 160.56C280.239 160.107 279.659 159.5 279.233 158.74C278.806 157.98 278.593 157.133 278.593 156.2C278.593 155.267 278.806 154.42 279.233 153.66C279.659 152.9 280.239 152.293 280.973 151.84C281.706 151.387 282.526 151.16 283.433 151.16C284.019 151.16 284.559 151.26 285.053 151.46C285.559 151.66 286.006 151.94 286.393 152.3V145.44H288.433V161H286.493V160.04C286.093 160.413 285.633 160.707 285.113 160.92C284.593 161.133 284.033 161.24 283.433 161.24ZM283.653 159.28C284.213 159.28 284.713 159.147 285.153 158.88C285.606 158.613 285.959 158.247 286.213 157.78C286.479 157.313 286.613 156.787 286.613 156.2C286.613 155.613 286.479 155.087 286.213 154.62C285.959 154.153 285.606 153.787 285.153 153.52C284.713 153.253 284.213 153.12 283.653 153.12C283.093 153.12 282.593 153.253 282.153 153.52C281.713 153.787 281.359 154.153 281.093 154.62C280.839 155.087 280.713 155.613 280.713 156.2C280.713 156.787 280.839 157.313 281.093 157.78C281.359 158.247 281.713 158.613 282.153 158.88C282.593 159.147 283.093 159.28 283.653 159.28ZM295.84 161.24C294.893 161.24 294.033 161.013 293.26 160.56C292.5 160.107 291.893 159.5 291.44 158.74C291 157.98 290.78 157.133 290.78 156.2C290.78 155.267 291 154.42 291.44 153.66C291.893 152.9 292.5 152.293 293.26 151.84C294.033 151.387 294.893 151.16 295.84 151.16C296.8 151.16 297.66 151.387 298.42 151.84C299.193 152.293 299.8 152.9 300.24 153.66C300.693 154.42 300.92 155.267 300.92 156.2C300.92 157.133 300.693 157.98 300.24 158.74C299.8 159.5 299.193 160.107 298.42 160.56C297.66 161.013 296.8 161.24 295.84 161.24ZM295.84 159.3C296.4 159.3 296.9 159.167 297.34 158.9C297.793 158.62 298.147 158.247 298.4 157.78C298.667 157.313 298.8 156.787 298.8 156.2C298.8 155.613 298.667 155.087 298.4 154.62C298.147 154.153 297.793 153.787 297.34 153.52C296.9 153.24 296.4 153.1 295.84 153.1C295.28 153.1 294.78 153.24 294.34 153.52C293.9 153.787 293.547 154.153 293.28 154.62C293.027 155.087 292.9 155.613 292.9 156.2C292.9 156.787 293.027 157.313 293.28 157.78C293.547 158.247 293.9 158.62 294.34 158.9C294.78 159.167 295.28 159.3 295.84 159.3ZM303.239 161V151.4H305.179V152.16C305.499 151.853 305.873 151.613 306.299 151.44C306.739 151.253 307.213 151.16 307.719 151.16C308.239 151.16 308.719 151.253 309.159 151.44C309.613 151.627 310.006 151.887 310.339 152.22C310.686 152.567 310.953 152.993 311.139 153.5C311.339 153.993 311.439 154.613 311.439 155.36V161H309.399V155.54C309.399 155.033 309.346 154.64 309.239 154.36C309.146 154.067 309.006 153.833 308.819 153.66C308.433 153.273 307.946 153.08 307.359 153.08C306.773 153.08 306.286 153.273 305.899 153.66C305.713 153.833 305.559 154.067 305.439 154.36C305.333 154.64 305.279 155.033 305.279 155.54V161H303.239ZM318.433 161.24C317.526 161.24 316.706 161.013 315.973 160.56C315.239 160.107 314.659 159.5 314.233 158.74C313.806 157.98 313.593 157.133 313.593 156.2C313.593 155.267 313.806 154.42 314.233 153.66C314.659 152.9 315.239 152.293 315.973 151.84C316.706 151.387 317.526 151.16 318.433 151.16C319.033 151.16 319.593 151.267 320.113 151.48C320.633 151.68 321.093 151.973 321.493 152.36V151.4H323.433V161H321.493V160.04C321.093 160.413 320.633 160.707 320.113 160.92C319.593 161.133 319.033 161.24 318.433 161.24ZM318.653 159.28C319.213 159.28 319.713 159.147 320.153 158.88C320.606 158.613 320.959 158.247 321.213 157.78C321.479 157.313 321.613 156.787 321.613 156.2C321.613 155.613 321.479 155.087 321.213 154.62C320.959 154.153 320.606 153.787 320.153 153.52C319.713 153.253 319.213 153.12 318.653 153.12C318.093 153.12 317.593 153.253 317.153 153.52C316.713 153.787 316.359 154.153 316.093 154.62C315.839 155.087 315.713 155.613 315.713 156.2C315.713 156.787 315.839 157.313 316.093 157.78C316.359 158.247 316.713 158.613 317.153 158.88C317.593 159.147 318.093 159.28 318.653 159.28ZM327.28 161V153.22H325.52V151.4H327.28V147.74H329.32V151.4H331.38V153.22H329.32V161H327.28ZM334.318 149.94C333.944 149.94 333.618 149.8 333.338 149.52C333.058 149.24 332.918 148.913 332.918 148.54C332.918 148.153 333.058 147.827 333.338 147.56C333.618 147.293 333.944 147.16 334.318 147.16C334.704 147.16 335.031 147.293 335.298 147.56C335.564 147.827 335.698 148.153 335.698 148.54C335.698 148.913 335.564 149.24 335.298 149.52C335.031 149.8 334.704 149.94 334.318 149.94ZM333.298 161V151.4H335.338V161H333.298ZM342.695 161.24C341.749 161.24 340.889 161.013 340.115 160.56C339.355 160.107 338.749 159.5 338.295 158.74C337.855 157.98 337.635 157.133 337.635 156.2C337.635 155.267 337.855 154.42 338.295 153.66C338.749 152.9 339.355 152.293 340.115 151.84C340.889 151.387 341.749 151.16 342.695 151.16C343.655 151.16 344.515 151.387 345.275 151.84C346.049 152.293 346.655 152.9 347.095 153.66C347.549 154.42 347.775 155.267 347.775 156.2C347.775 157.133 347.549 157.98 347.095 158.74C346.655 159.5 346.049 160.107 345.275 160.56C344.515 161.013 343.655 161.24 342.695 161.24ZM342.695 159.3C343.255 159.3 343.755 159.167 344.195 158.9C344.649 158.62 345.002 158.247 345.255 157.78C345.522 157.313 345.655 156.787 345.655 156.2C345.655 155.613 345.522 155.087 345.255 154.62C345.002 154.153 344.649 153.787 344.195 153.52C343.755 153.24 343.255 153.1 342.695 153.1C342.135 153.1 341.635 153.24 341.195 153.52C340.755 153.787 340.402 154.153 340.135 154.62C339.882 155.087 339.755 155.613 339.755 156.2C339.755 156.787 339.882 157.313 340.135 157.78C340.402 158.247 340.755 158.62 341.195 158.9C341.635 159.167 342.135 159.3 342.695 159.3ZM350.095 161V151.4H352.035V152.16C352.355 151.853 352.728 151.613 353.155 151.44C353.595 151.253 354.068 151.16 354.575 151.16C355.095 151.16 355.575 151.253 356.015 151.44C356.468 151.627 356.861 151.887 357.195 152.22C357.541 152.567 357.808 152.993 357.995 153.5C358.195 153.993 358.295 154.613 358.295 155.36V161H356.255V155.54C356.255 155.033 356.201 154.64 356.095 154.36C356.001 154.067 355.861 153.833 355.675 153.66C355.288 153.273 354.801 153.08 354.215 153.08C353.628 153.08 353.141 153.273 352.755 153.66C352.568 153.833 352.415 154.067 352.295 154.36C352.188 154.64 352.135 155.033 352.135 155.54V161H350.095ZM363.748 161.24C362.895 161.24 362.148 161.007 361.508 160.54C360.881 160.06 360.495 159.453 360.348 158.72L362.268 158.36C362.348 158.667 362.521 158.92 362.788 159.12C363.068 159.32 363.388 159.42 363.748 159.42C364.108 159.42 364.408 159.313 364.648 159.1C364.888 158.887 365.008 158.62 365.008 158.3C365.008 157.78 364.715 157.42 364.128 157.22L362.728 156.66C362.048 156.393 361.528 156.027 361.168 155.56C360.821 155.08 360.648 154.533 360.648 153.92C360.648 153.4 360.781 152.933 361.048 152.52C361.328 152.107 361.695 151.78 362.148 151.54C362.615 151.287 363.128 151.16 363.688 151.16C364.368 151.16 364.975 151.347 365.508 151.72C366.041 152.08 366.401 152.547 366.588 153.12L364.728 153.8C364.661 153.56 364.535 153.367 364.348 153.22C364.161 153.06 363.941 152.98 363.688 152.98C363.408 152.98 363.168 153.067 362.968 153.24C362.781 153.4 362.688 153.613 362.688 153.88C362.688 154.067 362.748 154.24 362.868 154.4C362.988 154.56 363.221 154.713 363.568 154.86L364.928 155.38C365.555 155.62 366.061 155.993 366.448 156.5C366.848 156.993 367.048 157.573 367.048 158.24C367.048 158.8 366.901 159.307 366.608 159.76C366.315 160.213 365.921 160.573 365.428 160.84C364.935 161.107 364.375 161.24 363.748 161.24ZM375.06 149.94C374.687 149.94 374.36 149.8 374.08 149.52C373.8 149.24 373.66 148.913 373.66 148.54C373.66 148.153 373.8 147.827 374.08 147.56C374.36 147.293 374.687 147.16 375.06 147.16C375.447 147.16 375.773 147.293 376.04 147.56C376.307 147.827 376.44 148.153 376.44 148.54C376.44 148.913 376.307 149.24 376.04 149.52C375.773 149.8 375.447 149.94 375.06 149.94ZM374.04 161V151.4H376.08V161H374.04ZM379.138 161V151.4H381.078V152.16C381.398 151.853 381.771 151.613 382.198 151.44C382.638 151.253 383.111 151.16 383.618 151.16C384.138 151.16 384.618 151.253 385.058 151.44C385.511 151.627 385.904 151.887 386.238 152.22C386.584 152.567 386.851 152.993 387.038 153.5C387.238 153.993 387.338 154.613 387.338 155.36V161H385.298V155.54C385.298 155.033 385.244 154.64 385.138 154.36C385.044 154.067 384.904 153.833 384.718 153.66C384.331 153.273 383.844 153.08 383.258 153.08C382.671 153.08 382.184 153.273 381.798 153.66C381.611 153.833 381.458 154.067 381.338 154.36C381.231 154.64 381.178 155.033 381.178 155.54V161H379.138ZM395.698 161V153.22H393.938V151.4H395.698V147.74H397.738V151.4H399.798V153.22H397.738V161H395.698ZM401.716 161V145.44H403.756V152.04C404.076 151.773 404.442 151.56 404.856 151.4C405.269 151.24 405.716 151.16 406.196 151.16C406.716 151.16 407.196 151.253 407.636 151.44C408.089 151.627 408.482 151.887 408.816 152.22C409.162 152.567 409.429 152.993 409.616 153.5C409.816 153.993 409.916 154.613 409.916 155.36V161H407.876V155.54C407.876 155.033 407.822 154.64 407.716 154.36C407.622 154.067 407.482 153.833 407.296 153.66C406.909 153.273 406.422 153.08 405.836 153.08C405.249 153.08 404.762 153.273 404.376 153.66C404.189 153.833 404.036 154.067 403.916 154.36C403.809 154.64 403.756 155.033 403.756 155.54V161H401.716ZM416.989 161.24C416.056 161.24 415.216 161.02 414.469 160.58C413.736 160.127 413.149 159.52 412.709 158.76C412.282 158 412.069 157.153 412.069 156.22C412.069 155.26 412.269 154.4 412.669 153.64C413.082 152.867 413.642 152.26 414.349 151.82C415.056 151.38 415.856 151.16 416.749 151.16C417.642 151.16 418.436 151.38 419.129 151.82C419.836 152.26 420.389 152.86 420.789 153.62C421.202 154.38 421.409 155.24 421.409 156.2C421.409 156.32 421.402 156.447 421.389 156.58C421.389 156.7 421.382 156.82 421.369 156.94H414.149C414.256 157.633 414.576 158.207 415.109 158.66C415.642 159.1 416.276 159.32 417.009 159.32C417.569 159.32 418.069 159.187 418.509 158.92C418.962 158.653 419.309 158.3 419.549 157.86L421.229 158.84C420.802 159.573 420.216 160.16 419.469 160.6C418.736 161.027 417.909 161.24 416.989 161.24ZM414.149 155.28H419.309C419.256 154.613 418.996 154.067 418.529 153.64C418.062 153.213 417.476 153 416.769 153C416.062 153 415.462 153.213 414.969 153.64C414.489 154.067 414.216 154.613 414.149 155.28ZM432.515 161.24C431.608 161.24 430.788 161.013 430.055 160.56C429.321 160.107 428.741 159.5 428.315 158.74C427.888 157.98 427.675 157.133 427.675 156.2C427.675 155.267 427.888 154.42 428.315 153.66C428.741 152.9 429.321 152.293 430.055 151.84C430.788 151.387 431.608 151.16 432.515 151.16C433.101 151.16 433.641 151.26 434.135 151.46C434.641 151.66 435.088 151.94 435.475 152.3V145.44H437.515V161H435.575V160.04C435.175 160.413 434.715 160.707 434.195 160.92C433.675 161.133 433.115 161.24 432.515 161.24ZM432.735 159.28C433.295 159.28 433.795 159.147 434.235 158.88C434.688 158.613 435.041 158.247 435.295 157.78C435.561 157.313 435.695 156.787 435.695 156.2C435.695 155.613 435.561 155.087 435.295 154.62C435.041 154.153 434.688 153.787 434.235 153.52C433.795 153.253 433.295 153.12 432.735 153.12C432.175 153.12 431.675 153.253 431.235 153.52C430.795 153.787 430.441 154.153 430.175 154.62C429.921 155.087 429.795 155.613 429.795 156.2C429.795 156.787 429.921 157.313 430.175 157.78C430.441 158.247 430.795 158.613 431.235 158.88C431.675 159.147 432.175 159.28 432.735 159.28ZM444.702 161.24C443.795 161.24 442.975 161.013 442.242 160.56C441.509 160.107 440.929 159.5 440.502 158.74C440.075 157.98 439.862 157.133 439.862 156.2C439.862 155.267 440.075 154.42 440.502 153.66C440.929 152.9 441.509 152.293 442.242 151.84C442.975 151.387 443.795 151.16 444.702 151.16C445.302 151.16 445.862 151.267 446.382 151.48C446.902 151.68 447.362 151.973 447.762 152.36V151.4H449.702V161H447.762V160.04C447.362 160.413 446.902 160.707 446.382 160.92C445.862 161.133 445.302 161.24 444.702 161.24ZM444.922 159.28C445.482 159.28 445.982 159.147 446.422 158.88C446.875 158.613 447.229 158.247 447.482 157.78C447.749 157.313 447.882 156.787 447.882 156.2C447.882 155.613 447.749 155.087 447.482 154.62C447.229 154.153 446.875 153.787 446.422 153.52C445.982 153.253 445.482 153.12 444.922 153.12C444.362 153.12 443.862 153.253 443.422 153.52C442.982 153.787 442.629 154.153 442.362 154.62C442.109 155.087 441.982 155.613 441.982 156.2C441.982 156.787 442.109 157.313 442.362 157.78C442.629 158.247 442.982 158.613 443.422 158.88C443.862 159.147 444.362 159.28 444.922 159.28ZM455.35 161.24C454.496 161.24 453.75 161.007 453.11 160.54C452.483 160.06 452.096 159.453 451.95 158.72L453.87 158.36C453.95 158.667 454.123 158.92 454.39 159.12C454.67 159.32 454.99 159.42 455.35 159.42C455.71 159.42 456.01 159.313 456.25 159.1C456.49 158.887 456.61 158.62 456.61 158.3C456.61 157.78 456.316 157.42 455.73 157.22L454.33 156.66C453.65 156.393 453.13 156.027 452.77 155.56C452.423 155.08 452.25 154.533 452.25 153.92C452.25 153.4 452.383 152.933 452.65 152.52C452.93 152.107 453.296 151.78 453.75 151.54C454.216 151.287 454.73 151.16 455.29 151.16C455.97 151.16 456.576 151.347 457.11 151.72C457.643 152.08 458.003 152.547 458.19 153.12L456.33 153.8C456.263 153.56 456.136 153.367 455.95 153.22C455.763 153.06 455.543 152.98 455.29 152.98C455.01 152.98 454.77 153.067 454.57 153.24C454.383 153.4 454.29 153.613 454.29 153.88C454.29 154.067 454.35 154.24 454.47 154.4C454.59 154.56 454.823 154.713 455.17 154.86L456.53 155.38C457.156 155.62 457.663 155.993 458.05 156.5C458.45 156.993 458.65 157.573 458.65 158.24C458.65 158.8 458.503 159.307 458.21 159.76C457.916 160.213 457.523 160.573 457.03 160.84C456.536 161.107 455.976 161.24 455.35 161.24ZM460.935 161V145.44H462.975V152.04C463.295 151.773 463.661 151.56 464.075 151.4C464.488 151.24 464.935 151.16 465.415 151.16C465.935 151.16 466.415 151.253 466.855 151.44C467.308 151.627 467.701 151.887 468.035 152.22C468.381 152.567 468.648 152.993 468.835 153.5C469.035 153.993 469.135 154.613 469.135 155.36V161H467.095V155.54C467.095 155.033 467.041 154.64 466.935 154.36C466.841 154.067 466.701 153.833 466.515 153.66C466.128 153.273 465.641 153.08 465.055 153.08C464.468 153.08 463.981 153.273 463.595 153.66C463.408 153.833 463.255 154.067 463.135 154.36C463.028 154.64 462.975 155.033 462.975 155.54V161H460.935ZM477.048 161.24C476.461 161.24 475.908 161.133 475.388 160.92C474.868 160.707 474.408 160.413 474.008 160.04V161H472.048V145.44H474.088V152.3C474.488 151.94 474.934 151.66 475.428 151.46C475.934 151.26 476.474 151.16 477.048 151.16C477.968 151.16 478.794 151.387 479.528 151.84C480.261 152.293 480.841 152.9 481.268 153.66C481.694 154.42 481.908 155.267 481.908 156.2C481.908 157.133 481.694 157.98 481.268 158.74C480.841 159.5 480.261 160.107 479.528 160.56C478.794 161.013 477.968 161.24 477.048 161.24ZM476.828 159.28C477.388 159.28 477.888 159.147 478.328 158.88C478.781 158.613 479.134 158.247 479.388 157.78C479.654 157.313 479.788 156.787 479.788 156.2C479.788 155.613 479.654 155.087 479.388 154.62C479.134 154.153 478.781 153.787 478.328 153.52C477.888 153.253 477.388 153.12 476.828 153.12C476.281 153.12 475.781 153.253 475.328 153.52C474.888 153.787 474.534 154.153 474.268 154.62C474.014 155.087 473.888 155.613 473.888 156.2C473.888 156.787 474.014 157.313 474.268 157.78C474.534 158.247 474.888 158.613 475.328 158.88C475.781 159.147 476.281 159.28 476.828 159.28ZM488.535 161.24C487.589 161.24 486.729 161.013 485.955 160.56C485.195 160.107 484.589 159.5 484.135 158.74C483.695 157.98 483.475 157.133 483.475 156.2C483.475 155.267 483.695 154.42 484.135 153.66C484.589 152.9 485.195 152.293 485.955 151.84C486.729 151.387 487.589 151.16 488.535 151.16C489.495 151.16 490.355 151.387 491.115 151.84C491.889 152.293 492.495 152.9 492.935 153.66C493.389 154.42 493.615 155.267 493.615 156.2C493.615 157.133 493.389 157.98 492.935 158.74C492.495 159.5 491.889 160.107 491.115 160.56C490.355 161.013 489.495 161.24 488.535 161.24ZM488.535 159.3C489.095 159.3 489.595 159.167 490.035 158.9C490.489 158.62 490.842 158.247 491.095 157.78C491.362 157.313 491.495 156.787 491.495 156.2C491.495 155.613 491.362 155.087 491.095 154.62C490.842 154.153 490.489 153.787 490.035 153.52C489.595 153.24 489.095 153.1 488.535 153.1C487.975 153.1 487.475 153.24 487.035 153.52C486.595 153.787 486.242 154.153 485.975 154.62C485.722 155.087 485.595 155.613 485.595 156.2C485.595 156.787 485.722 157.313 485.975 157.78C486.242 158.247 486.595 158.62 487.035 158.9C487.475 159.167 487.975 159.3 488.535 159.3ZM500.015 161.24C499.108 161.24 498.288 161.013 497.555 160.56C496.821 160.107 496.241 159.5 495.815 158.74C495.388 157.98 495.175 157.133 495.175 156.2C495.175 155.267 495.388 154.42 495.815 153.66C496.241 152.9 496.821 152.293 497.555 151.84C498.288 151.387 499.108 151.16 500.015 151.16C500.615 151.16 501.175 151.267 501.695 151.48C502.215 151.68 502.675 151.973 503.075 152.36V151.4H505.015V161H503.075V160.04C502.675 160.413 502.215 160.707 501.695 160.92C501.175 161.133 500.615 161.24 500.015 161.24ZM500.235 159.28C500.795 159.28 501.295 159.147 501.735 158.88C502.188 158.613 502.541 158.247 502.795 157.78C503.061 157.313 503.195 156.787 503.195 156.2C503.195 155.613 503.061 155.087 502.795 154.62C502.541 154.153 502.188 153.787 501.735 153.52C501.295 153.253 500.795 153.12 500.235 153.12C499.675 153.12 499.175 153.253 498.735 153.52C498.295 153.787 497.941 154.153 497.675 154.62C497.421 155.087 497.295 155.613 497.295 156.2C497.295 156.787 497.421 157.313 497.675 157.78C497.941 158.247 498.295 158.613 498.735 158.88C499.175 159.147 499.675 159.28 500.235 159.28ZM508.122 161V151.4H510.062V152.62C510.102 152.553 510.142 152.5 510.182 152.46C510.235 152.407 510.289 152.353 510.342 152.3C510.649 151.993 511.015 151.753 511.442 151.58C511.882 151.393 512.349 151.3 512.842 151.3C512.949 151.3 513.055 151.307 513.162 151.32C513.269 151.32 513.375 151.327 513.482 151.34V153.28C513.375 153.267 513.269 153.26 513.162 153.26C513.055 153.247 512.942 153.24 512.822 153.24C512.022 153.24 511.382 153.493 510.902 154C510.675 154.227 510.495 154.513 510.362 154.86C510.229 155.193 510.162 155.64 510.162 156.2V161H508.122ZM519.487 161.24C518.581 161.24 517.761 161.013 517.027 160.56C516.294 160.107 515.714 159.5 515.287 158.74C514.861 157.98 514.647 157.133 514.647 156.2C514.647 155.267 514.861 154.42 515.287 153.66C515.714 152.9 516.294 152.293 517.027 151.84C517.761 151.387 518.581 151.16 519.487 151.16C520.074 151.16 520.614 151.26 521.107 151.46C521.614 151.66 522.061 151.94 522.447 152.3V145.44H524.487V161H522.547V160.04C522.147 160.413 521.687 160.707 521.167 160.92C520.647 161.133 520.087 161.24 519.487 161.24ZM519.707 159.28C520.267 159.28 520.767 159.147 521.207 158.88C521.661 158.613 522.014 158.247 522.267 157.78C522.534 157.313 522.667 156.787 522.667 156.2C522.667 155.613 522.534 155.087 522.267 154.62C522.014 154.153 521.661 153.787 521.207 153.52C520.767 153.253 520.267 153.12 519.707 153.12C519.147 153.12 518.647 153.253 518.207 153.52C517.767 153.787 517.414 154.153 517.147 154.62C516.894 155.087 516.767 155.613 516.767 156.2C516.767 156.787 516.894 157.313 517.147 157.78C517.414 158.247 517.767 158.613 518.207 158.88C518.647 159.147 519.147 159.28 519.707 159.28Z" fill="black"/>
<path d="M241.939 91V75.92H245.719C246.559 75.92 247.265 76.0333 247.839 76.26C248.412 76.4867 248.899 76.8067 249.299 77.22C249.699 77.6067 250.012 78.0733 250.239 78.62C250.465 79.1667 250.579 79.7533 250.579 80.38C250.579 80.9933 250.465 81.5733 250.239 82.12C250.012 82.6667 249.699 83.14 249.299 83.54C248.899 83.94 248.412 84.2533 247.839 84.48C247.265 84.7067 246.559 84.82 245.719 84.82H244.079V91H241.939ZM244.079 82.82H245.519C246.065 82.82 246.505 82.76 246.839 82.64C247.172 82.5067 247.445 82.3267 247.659 82.1C247.872 81.8867 248.039 81.6333 248.159 81.34C248.292 81.0333 248.359 80.7133 248.359 80.38C248.359 80.0333 248.292 79.7133 248.159 79.42C248.039 79.1133 247.872 78.8533 247.659 78.64C247.445 78.4133 247.172 78.24 246.839 78.12C246.505 78 246.065 77.94 245.519 77.94H244.079V82.82ZM252.712 91V81.4H254.652V82.62C254.692 82.5533 254.732 82.5 254.772 82.46C254.825 82.4067 254.879 82.3533 254.932 82.3C255.239 81.9933 255.605 81.7533 256.032 81.58C256.472 81.3933 256.939 81.3 257.432 81.3C257.539 81.3 257.645 81.3067 257.752 81.32C257.859 81.32 257.965 81.3267 258.072 81.34V83.28C257.965 83.2667 257.859 83.26 257.752 83.26C257.645 83.2467 257.532 83.24 257.412 83.24C256.612 83.24 255.972 83.4933 255.492 84C255.265 84.2267 255.085 84.5133 254.952 84.86C254.819 85.1933 254.752 85.64 254.752 86.2V91H252.712ZM264.297 91.24C263.35 91.24 262.49 91.0133 261.717 90.56C260.957 90.1067 260.35 89.5 259.897 88.74C259.457 87.98 259.237 87.1333 259.237 86.2C259.237 85.2667 259.457 84.42 259.897 83.66C260.35 82.9 260.957 82.2933 261.717 81.84C262.49 81.3867 263.35 81.16 264.297 81.16C265.257 81.16 266.117 81.3867 266.877 81.84C267.65 82.2933 268.257 82.9 268.697 83.66C269.15 84.42 269.377 85.2667 269.377 86.2C269.377 87.1333 269.15 87.98 268.697 88.74C268.257 89.5 267.65 90.1067 266.877 90.56C266.117 91.0133 265.257 91.24 264.297 91.24ZM264.297 89.3C264.857 89.3 265.357 89.1667 265.797 88.9C266.25 88.62 266.604 88.2467 266.857 87.78C267.124 87.3133 267.257 86.7867 267.257 86.2C267.257 85.6133 267.124 85.0867 266.857 84.62C266.604 84.1533 266.25 83.7867 265.797 83.52C265.357 83.24 264.857 83.1 264.297 83.1C263.737 83.1 263.237 83.24 262.797 83.52C262.357 83.7867 262.004 84.1533 261.737 84.62C261.484 85.0867 261.357 85.6133 261.357 86.2C261.357 86.7867 261.484 87.3133 261.737 87.78C262.004 88.2467 262.357 88.62 262.797 88.9C263.237 89.1667 263.737 89.3 264.297 89.3ZM275.996 91.24C275.05 91.24 274.19 91.0133 273.416 90.56C272.656 90.1067 272.05 89.5 271.596 88.74C271.156 87.98 270.936 87.1333 270.936 86.2C270.936 85.2667 271.156 84.42 271.596 83.66C272.05 82.9 272.656 82.2933 273.416 81.84C274.19 81.3867 275.05 81.16 275.996 81.16C276.93 81.16 277.77 81.3867 278.516 81.84V84.02C278.223 83.7267 277.87 83.5 277.456 83.34C277.043 83.18 276.596 83.1 276.116 83.1C275.543 83.1 275.023 83.24 274.556 83.52C274.09 83.7867 273.723 84.1533 273.456 84.62C273.19 85.0867 273.056 85.6133 273.056 86.2C273.056 86.7867 273.19 87.3133 273.456 87.78C273.723 88.2467 274.09 88.62 274.556 88.9C275.023 89.1667 275.543 89.3 276.116 89.3C276.596 89.3 277.043 89.22 277.456 89.06C277.87 88.9 278.223 88.6733 278.516 88.38V90.56C277.77 91.0133 276.93 91.24 275.996 91.24ZM285.153 91.24C284.22 91.24 283.38 91.02 282.633 90.58C281.9 90.1267 281.313 89.52 280.873 88.76C280.446 88 280.233 87.1533 280.233 86.22C280.233 85.26 280.433 84.4 280.833 83.64C281.246 82.8667 281.806 82.26 282.513 81.82C283.22 81.38 284.02 81.16 284.913 81.16C285.806 81.16 286.6 81.38 287.293 81.82C288 82.26 288.553 82.86 288.953 83.62C289.366 84.38 289.573 85.24 289.573 86.2C289.573 86.32 289.566 86.4467 289.553 86.58C289.553 86.7 289.546 86.82 289.533 86.94H282.313C282.42 87.6333 282.74 88.2067 283.273 88.66C283.806 89.1 284.44 89.32 285.173 89.32C285.733 89.32 286.233 89.1867 286.673 88.92C287.126 88.6533 287.473 88.3 287.713 87.86L289.393 88.84C288.966 89.5733 288.38 90.16 287.633 90.6C286.9 91.0267 286.073 91.24 285.153 91.24ZM282.313 85.28H287.473C287.42 84.6133 287.16 84.0667 286.693 83.64C286.226 83.2133 285.64 83 284.933 83C284.226 83 283.626 83.2133 283.133 83.64C282.653 84.0667 282.38 84.6133 282.313 85.28ZM294.432 91.24C293.578 91.24 292.832 91.0067 292.192 90.54C291.565 90.06 291.178 89.4533 291.032 88.72L292.952 88.36C293.032 88.6667 293.205 88.92 293.472 89.12C293.752 89.32 294.072 89.42 294.432 89.42C294.792 89.42 295.092 89.3133 295.332 89.1C295.572 88.8867 295.692 88.62 295.692 88.3C295.692 87.78 295.398 87.42 294.812 87.22L293.412 86.66C292.732 86.3933 292.212 86.0267 291.852 85.56C291.505 85.08 291.332 84.5333 291.332 83.92C291.332 83.4 291.465 82.9333 291.732 82.52C292.012 82.1067 292.378 81.78 292.832 81.54C293.298 81.2867 293.812 81.16 294.372 81.16C295.052 81.16 295.658 81.3467 296.192 81.72C296.725 82.08 297.085 82.5467 297.272 83.12L295.412 83.8C295.345 83.56 295.218 83.3667 295.032 83.22C294.845 83.06 294.625 82.98 294.372 82.98C294.092 82.98 293.852 83.0667 293.652 83.24C293.465 83.4 293.372 83.6133 293.372 83.88C293.372 84.0667 293.432 84.24 293.552 84.4C293.672 84.56 293.905 84.7133 294.252 84.86L295.612 85.38C296.238 85.62 296.745 85.9933 297.132 86.5C297.532 86.9933 297.732 87.5733 297.732 88.24C297.732 88.8 297.585 89.3067 297.292 89.76C296.998 90.2133 296.605 90.5733 296.112 90.84C295.618 91.1067 295.058 91.24 294.432 91.24ZM302.557 91.24C301.703 91.24 300.957 91.0067 300.317 90.54C299.69 90.06 299.303 89.4533 299.157 88.72L301.077 88.36C301.157 88.6667 301.33 88.92 301.597 89.12C301.877 89.32 302.197 89.42 302.557 89.42C302.917 89.42 303.217 89.3133 303.457 89.1C303.697 88.8867 303.817 88.62 303.817 88.3C303.817 87.78 303.523 87.42 302.937 87.22L301.537 86.66C300.857 86.3933 300.337 86.0267 299.977 85.56C299.63 85.08 299.457 84.5333 299.457 83.92C299.457 83.4 299.59 82.9333 299.857 82.52C300.137 82.1067 300.503 81.78 300.957 81.54C301.423 81.2867 301.937 81.16 302.497 81.16C303.177 81.16 303.783 81.3467 304.317 81.72C304.85 82.08 305.21 82.5467 305.397 83.12L303.537 83.8C303.47 83.56 303.343 83.3667 303.157 83.22C302.97 83.06 302.75 82.98 302.497 82.98C302.217 82.98 301.977 83.0667 301.777 83.24C301.59 83.4 301.497 83.6133 301.497 83.88C301.497 84.0667 301.557 84.24 301.677 84.4C301.797 84.56 302.03 84.7133 302.377 84.86L303.737 85.38C304.363 85.62 304.87 85.9933 305.257 86.5C305.657 86.9933 305.857 87.5733 305.857 88.24C305.857 88.8 305.71 89.3067 305.417 89.76C305.123 90.2133 304.73 90.5733 304.237 90.84C303.743 91.1067 303.183 91.24 302.557 91.24ZM316.929 91.24C316.022 91.24 315.202 91.0133 314.469 90.56C313.735 90.1067 313.155 89.5 312.729 88.74C312.302 87.98 312.089 87.1333 312.089 86.2C312.089 85.2667 312.302 84.42 312.729 83.66C313.155 82.9 313.735 82.2933 314.469 81.84C315.202 81.3867 316.022 81.16 316.929 81.16C317.515 81.16 318.055 81.26 318.549 81.46C319.055 81.66 319.502 81.94 319.889 82.3V75.44H321.929V91H319.989V90.04C319.589 90.4133 319.129 90.7067 318.609 90.92C318.089 91.1333 317.529 91.24 316.929 91.24ZM317.149 89.28C317.709 89.28 318.209 89.1467 318.649 88.88C319.102 88.6133 319.455 88.2467 319.709 87.78C319.975 87.3133 320.109 86.7867 320.109 86.2C320.109 85.6133 319.975 85.0867 319.709 84.62C319.455 84.1533 319.102 83.7867 318.649 83.52C318.209 83.2533 317.709 83.12 317.149 83.12C316.589 83.12 316.089 83.2533 315.649 83.52C315.209 83.7867 314.855 84.1533 314.589 84.62C314.335 85.0867 314.209 85.6133 314.209 86.2C314.209 86.7867 314.335 87.3133 314.589 87.78C314.855 88.2467 315.209 88.6133 315.649 88.88C316.089 89.1467 316.589 89.28 317.149 89.28ZM326.056 79.94C325.683 79.94 325.356 79.8 325.076 79.52C324.796 79.24 324.656 78.9133 324.656 78.54C324.656 78.1533 324.796 77.8267 325.076 77.56C325.356 77.2933 325.683 77.16 326.056 77.16C326.443 77.16 326.769 77.2933 327.036 77.56C327.303 77.8267 327.436 78.1533 327.436 78.54C327.436 78.9133 327.303 79.24 327.036 79.52C326.769 79.8 326.443 79.94 326.056 79.94ZM325.036 91V81.4H327.076V91H325.036ZM330.134 91V81.4H332.074V82.62C332.114 82.5533 332.154 82.5 332.194 82.46C332.247 82.4067 332.3 82.3533 332.354 82.3C332.66 81.9933 333.027 81.7533 333.454 81.58C333.894 81.3933 334.36 81.3 334.854 81.3C334.96 81.3 335.067 81.3067 335.174 81.32C335.28 81.32 335.387 81.3267 335.494 81.34V83.28C335.387 83.2667 335.28 83.26 335.174 83.26C335.067 83.2467 334.954 83.24 334.834 83.24C334.034 83.24 333.394 83.4933 332.914 84C332.687 84.2267 332.507 84.5133 332.374 84.86C332.24 85.1933 332.174 85.64 332.174 86.2V91H330.134ZM341.579 91.24C340.646 91.24 339.806 91.02 339.059 90.58C338.326 90.1267 337.739 89.52 337.299 88.76C336.872 88 336.659 87.1533 336.659 86.22C336.659 85.26 336.859 84.4 337.259 83.64C337.672 82.8667 338.232 82.26 338.939 81.82C339.646 81.38 340.446 81.16 341.339 81.16C342.232 81.16 343.026 81.38 343.719 81.82C344.426 82.26 344.979 82.86 345.379 83.62C345.792 84.38 345.999 85.24 345.999 86.2C345.999 86.32 345.992 86.4467 345.979 86.58C345.979 86.7 345.972 86.82 345.959 86.94H338.739C338.846 87.6333 339.166 88.2067 339.699 88.66C340.232 89.1 340.866 89.32 341.599 89.32C342.159 89.32 342.659 89.1867 343.099 88.92C343.552 88.6533 343.899 88.3 344.139 87.86L345.819 88.84C345.392 89.5733 344.806 90.16 344.059 90.6C343.326 91.0267 342.499 91.24 341.579 91.24ZM338.739 85.28H343.899C343.846 84.6133 343.586 84.0667 343.119 83.64C342.652 83.2133 342.066 83 341.359 83C340.652 83 340.052 83.2133 339.559 83.64C339.079 84.0667 338.806 84.6133 338.739 85.28ZM352.617 91.24C351.671 91.24 350.811 91.0133 350.037 90.56C349.277 90.1067 348.671 89.5 348.217 88.74C347.777 87.98 347.557 87.1333 347.557 86.2C347.557 85.2667 347.777 84.42 348.217 83.66C348.671 82.9 349.277 82.2933 350.037 81.84C350.811 81.3867 351.671 81.16 352.617 81.16C353.551 81.16 354.391 81.3867 355.137 81.84V84.02C354.844 83.7267 354.491 83.5 354.077 83.34C353.664 83.18 353.217 83.1 352.737 83.1C352.164 83.1 351.644 83.24 351.177 83.52C350.711 83.7867 350.344 84.1533 350.077 84.62C349.811 85.0867 349.677 85.6133 349.677 86.2C349.677 86.7867 349.811 87.3133 350.077 87.78C350.344 88.2467 350.711 88.62 351.177 88.9C351.644 89.1667 352.164 89.3 352.737 89.3C353.217 89.3 353.664 89.22 354.077 89.06C354.491 88.9 354.844 88.6733 355.137 88.38V90.56C354.391 91.0133 353.551 91.24 352.617 91.24ZM358.354 91V83.22H356.594V81.4H358.354V77.74H360.394V81.4H362.454V83.22H360.394V91H358.354ZM374.079 91.24C373.492 91.24 372.939 91.1333 372.419 90.92C371.899 90.7067 371.439 90.4133 371.039 90.04V91H369.079V75.44H371.119V82.3C371.519 81.94 371.966 81.66 372.459 81.46C372.966 81.26 373.506 81.16 374.079 81.16C374.999 81.16 375.826 81.3867 376.559 81.84C377.292 82.2933 377.872 82.9 378.299 83.66C378.726 84.42 378.939 85.2667 378.939 86.2C378.939 87.1333 378.726 87.98 378.299 88.74C377.872 89.5 377.292 90.1067 376.559 90.56C375.826 91.0133 374.999 91.24 374.079 91.24ZM373.859 89.28C374.419 89.28 374.919 89.1467 375.359 88.88C375.812 88.6133 376.166 88.2467 376.419 87.78C376.686 87.3133 376.819 86.7867 376.819 86.2C376.819 85.6133 376.686 85.0867 376.419 84.62C376.166 84.1533 375.812 83.7867 375.359 83.52C374.919 83.2533 374.419 83.12 373.859 83.12C373.312 83.12 372.812 83.2533 372.359 83.52C371.919 83.7867 371.566 84.1533 371.299 84.62C371.046 85.0867 370.919 85.6133 370.919 86.2C370.919 86.7867 371.046 87.3133 371.299 87.78C371.566 88.2467 371.919 88.6133 372.359 88.88C372.812 89.1467 373.312 89.28 373.859 89.28ZM385.347 91.24C384.44 91.24 383.62 91.0133 382.887 90.56C382.153 90.1067 381.573 89.5 381.147 88.74C380.72 87.98 380.507 87.1333 380.507 86.2C380.507 85.2667 380.72 84.42 381.147 83.66C381.573 82.9 382.153 82.2933 382.887 81.84C383.62 81.3867 384.44 81.16 385.347 81.16C385.947 81.16 386.507 81.2667 387.027 81.48C387.547 81.68 388.007 81.9733 388.407 82.36V81.4H390.347V91H388.407V90.04C388.007 90.4133 387.547 90.7067 387.027 90.92C386.507 91.1333 385.947 91.24 385.347 91.24ZM385.567 89.28C386.127 89.28 386.627 89.1467 387.067 88.88C387.52 88.6133 387.873 88.2467 388.127 87.78C388.393 87.3133 388.527 86.7867 388.527 86.2C388.527 85.6133 388.393 85.0867 388.127 84.62C387.873 84.1533 387.52 83.7867 387.067 83.52C386.627 83.2533 386.127 83.12 385.567 83.12C385.007 83.12 384.507 83.2533 384.067 83.52C383.627 83.7867 383.273 84.1533 383.007 84.62C382.753 85.0867 382.627 85.6133 382.627 86.2C382.627 86.7867 382.753 87.3133 383.007 87.78C383.273 88.2467 383.627 88.6133 384.067 88.88C384.507 89.1467 385.007 89.28 385.567 89.28ZM393.454 91V81.4H395.394V82.16C395.714 81.8533 396.087 81.6133 396.514 81.44C396.954 81.2533 397.427 81.16 397.934 81.16C398.454 81.16 398.934 81.2533 399.374 81.44C399.827 81.6267 400.221 81.8867 400.554 82.22C400.901 82.5667 401.167 82.9933 401.354 83.5C401.554 83.9933 401.654 84.6133 401.654 85.36V91H399.614V85.54C399.614 85.0333 399.561 84.64 399.454 84.36C399.361 84.0667 399.221 83.8333 399.034 83.66C398.647 83.2733 398.161 83.08 397.574 83.08C396.987 83.08 396.501 83.2733 396.114 83.66C395.927 83.8333 395.774 84.0667 395.654 84.36C395.547 84.64 395.494 85.0333 395.494 85.54V91H393.454ZM404.567 91V75.44H406.607V85.16L410.147 81.4H412.747L408.707 85.62L412.927 91H410.467L407.347 87L406.607 87.78V91H404.567ZM420.014 91V83.22H418.254V81.4H420.014V77.74H422.054V81.4H424.114V83.22H422.054V91H420.014ZM426.032 91V81.4H427.972V82.62C428.012 82.5533 428.052 82.5 428.092 82.46C428.146 82.4067 428.199 82.3533 428.252 82.3C428.559 81.9933 428.926 81.7533 429.352 81.58C429.792 81.3933 430.259 81.3 430.752 81.3C430.859 81.3 430.966 81.3067 431.072 81.32C431.179 81.32 431.286 81.3267 431.392 81.34V83.28C431.286 83.2667 431.179 83.26 431.072 83.26C430.966 83.2467 430.852 83.24 430.732 83.24C429.932 83.24 429.292 83.4933 428.812 84C428.586 84.2267 428.406 84.5133 428.272 84.86C428.139 85.1933 428.072 85.64 428.072 86.2V91H426.032ZM437.397 91.24C436.491 91.24 435.671 91.0133 434.937 90.56C434.204 90.1067 433.624 89.5 433.197 88.74C432.771 87.98 432.557 87.1333 432.557 86.2C432.557 85.2667 432.771 84.42 433.197 83.66C433.624 82.9 434.204 82.2933 434.937 81.84C435.671 81.3867 436.491 81.16 437.397 81.16C437.997 81.16 438.557 81.2667 439.077 81.48C439.597 81.68 440.057 81.9733 440.457 82.36V81.4H442.397V91H440.457V90.04C440.057 90.4133 439.597 90.7067 439.077 90.92C438.557 91.1333 437.997 91.24 437.397 91.24ZM437.617 89.28C438.177 89.28 438.677 89.1467 439.117 88.88C439.571 88.6133 439.924 88.2467 440.177 87.78C440.444 87.3133 440.577 86.7867 440.577 86.2C440.577 85.6133 440.444 85.0867 440.177 84.62C439.924 84.1533 439.571 83.7867 439.117 83.52C438.677 83.2533 438.177 83.12 437.617 83.12C437.057 83.12 436.557 83.2533 436.117 83.52C435.677 83.7867 435.324 84.1533 435.057 84.62C434.804 85.0867 434.677 85.6133 434.677 86.2C434.677 86.7867 434.804 87.3133 435.057 87.78C435.324 88.2467 435.677 88.6133 436.117 88.88C436.557 89.1467 437.057 89.28 437.617 89.28ZM445.505 91V81.4H447.445V82.16C447.765 81.8533 448.138 81.6133 448.565 81.44C449.005 81.2533 449.478 81.16 449.985 81.16C450.505 81.16 450.985 81.2533 451.425 81.44C451.878 81.6267 452.272 81.8867 452.605 82.22C452.952 82.5667 453.218 82.9933 453.405 83.5C453.605 83.9933 453.705 84.6133 453.705 85.36V91H451.665V85.54C451.665 85.0333 451.612 84.64 451.505 84.36C451.412 84.0667 451.272 83.8333 451.085 83.66C450.698 83.2733 450.212 83.08 449.625 83.08C449.038 83.08 448.552 83.2733 448.165 83.66C447.978 83.8333 447.825 84.0667 447.705 84.36C447.598 84.64 447.545 85.0333 447.545 85.54V91H445.505ZM459.158 91.24C458.305 91.24 457.558 91.0067 456.918 90.54C456.291 90.06 455.905 89.4533 455.758 88.72L457.678 88.36C457.758 88.6667 457.931 88.92 458.198 89.12C458.478 89.32 458.798 89.42 459.158 89.42C459.518 89.42 459.818 89.3133 460.058 89.1C460.298 88.8867 460.418 88.62 460.418 88.3C460.418 87.78 460.125 87.42 459.538 87.22L458.138 86.66C457.458 86.3933 456.938 86.0267 456.578 85.56C456.231 85.08 456.058 84.5333 456.058 83.92C456.058 83.4 456.191 82.9333 456.458 82.52C456.738 82.1067 457.105 81.78 457.558 81.54C458.025 81.2867 458.538 81.16 459.098 81.16C459.778 81.16 460.385 81.3467 460.918 81.72C461.451 82.08 461.811 82.5467 461.998 83.12L460.138 83.8C460.071 83.56 459.945 83.3667 459.758 83.22C459.571 83.06 459.351 82.98 459.098 82.98C458.818 82.98 458.578 83.0667 458.378 83.24C458.191 83.4 458.098 83.6133 458.098 83.88C458.098 84.0667 458.158 84.24 458.278 84.4C458.398 84.56 458.631 84.7133 458.978 84.86L460.338 85.38C460.965 85.62 461.471 85.9933 461.858 86.5C462.258 86.9933 462.458 87.5733 462.458 88.24C462.458 88.8 462.311 89.3067 462.018 89.76C461.725 90.2133 461.331 90.5733 460.838 90.84C460.345 91.1067 459.785 91.24 459.158 91.24ZM465.503 91V83.22H463.703V81.4H465.503V78.8C465.503 78.1467 465.583 77.6067 465.743 77.18C465.916 76.7533 466.15 76.3933 466.443 76.1C467.043 75.5 467.796 75.2 468.703 75.2C469.156 75.2 469.583 75.28 469.983 75.44V77.34C469.85 77.2733 469.703 77.2267 469.543 77.2C469.383 77.16 469.21 77.14 469.023 77.14C468.81 77.14 468.61 77.18 468.423 77.26C468.236 77.34 468.083 77.44 467.963 77.56C467.83 77.6933 467.723 77.8667 467.643 78.08C467.576 78.2933 467.543 78.6067 467.543 79.02V81.4H469.983V83.22H467.543V91H465.503ZM476.052 91.24C475.118 91.24 474.278 91.02 473.532 90.58C472.798 90.1267 472.212 89.52 471.772 88.76C471.345 88 471.132 87.1533 471.132 86.22C471.132 85.26 471.332 84.4 471.732 83.64C472.145 82.8667 472.705 82.26 473.412 81.82C474.118 81.38 474.918 81.16 475.812 81.16C476.705 81.16 477.498 81.38 478.192 81.82C478.898 82.26 479.452 82.86 479.852 83.62C480.265 84.38 480.472 85.24 480.472 86.2C480.472 86.32 480.465 86.4467 480.452 86.58C480.452 86.7 480.445 86.82 480.432 86.94H473.212C473.318 87.6333 473.638 88.2067 474.172 88.66C474.705 89.1 475.338 89.32 476.072 89.32C476.632 89.32 477.132 89.1867 477.572 88.92C478.025 88.6533 478.372 88.3 478.612 87.86L480.292 88.84C479.865 89.5733 479.278 90.16 478.532 90.6C477.798 91.0267 476.972 91.24 476.052 91.24ZM473.212 85.28H478.372C478.318 84.6133 478.058 84.0667 477.592 83.64C477.125 83.2133 476.538 83 475.832 83C475.125 83 474.525 83.2133 474.032 83.64C473.552 84.0667 473.278 84.6133 473.212 85.28ZM482.79 91V81.4H484.73V82.62C484.77 82.5533 484.81 82.5 484.85 82.46C484.903 82.4067 484.957 82.3533 485.01 82.3C485.317 81.9933 485.683 81.7533 486.11 81.58C486.55 81.3933 487.017 81.3 487.51 81.3C487.617 81.3 487.723 81.3067 487.83 81.32C487.937 81.32 488.043 81.3267 488.15 81.34V83.28C488.043 83.2667 487.937 83.26 487.83 83.26C487.723 83.2467 487.61 83.24 487.49 83.24C486.69 83.24 486.05 83.4933 485.57 84C485.343 84.2267 485.163 84.5133 485.03 84.86C484.897 85.1933 484.83 85.64 484.83 86.2V91H482.79ZM492.615 91.24C491.762 91.24 491.015 91.0067 490.375 90.54C489.748 90.06 489.362 89.4533 489.215 88.72L491.135 88.36C491.215 88.6667 491.388 88.92 491.655 89.12C491.935 89.32 492.255 89.42 492.615 89.42C492.975 89.42 493.275 89.3133 493.515 89.1C493.755 88.8867 493.875 88.62 493.875 88.3C493.875 87.78 493.582 87.42 492.995 87.22L491.595 86.66C490.915 86.3933 490.395 86.0267 490.035 85.56C489.688 85.08 489.515 84.5333 489.515 83.92C489.515 83.4 489.648 82.9333 489.915 82.52C490.195 82.1067 490.562 81.78 491.015 81.54C491.482 81.2867 491.995 81.16 492.555 81.16C493.235 81.16 493.842 81.3467 494.375 81.72C494.908 82.08 495.268 82.5467 495.455 83.12L493.595 83.8C493.528 83.56 493.402 83.3667 493.215 83.22C493.028 83.06 492.808 82.98 492.555 82.98C492.275 82.98 492.035 83.0667 491.835 83.24C491.648 83.4 491.555 83.6133 491.555 83.88C491.555 84.0667 491.615 84.24 491.735 84.4C491.855 84.56 492.088 84.7133 492.435 84.86L493.795 85.38C494.422 85.62 494.928 85.9933 495.315 86.5C495.715 86.9933 495.915 87.5733 495.915 88.24C495.915 88.8 495.768 89.3067 495.475 89.76C495.182 90.2133 494.788 90.5733 494.295 90.84C493.802 91.1067 493.242 91.24 492.615 91.24Z" fill="black"/>
<rect x="238" y="168" width="72" height="7" rx="3.48071" fill="#DBDBDB"/>
<rect x="238" y="177" width="103" height="7" rx="3.48071" fill="#DBDBDB"/>
<rect x="238" y="94" width="72" height="7" rx="3.48071" fill="#DBDBDB"/>
<rect x="238" y="103" width="103" height="7" rx="3.48071" fill="#DBDBDB"/>
</svg>
