<svg width="468" height="516" viewBox="0 0 468 516" fill="none" xmlns="http://www.w3.org/2000/svg">
<g opacity="0.91">
<circle cx="6" cy="6" r="6" fill="#E6E6E6"/>
<circle cx="63" cy="6" r="6" fill="#E6E6E6"/>
<circle cx="120" cy="6" r="6" fill="#E6E6E6"/>
<circle cx="177" cy="6" r="6" fill="#E6E6E6"/>
<circle cx="234" cy="6" r="6" fill="#E6E6E6"/>
<circle cx="291" cy="6" r="6" fill="#E6E6E6"/>
<circle cx="348" cy="6" r="6" fill="#E6E6E6"/>
<circle cx="405" cy="6" r="6" fill="#E6E6E6"/>
<circle cx="462" cy="6" r="6" fill="#E6E6E6"/>
<circle cx="6" cy="54" r="6" fill="#DBDBDB"/>
<circle cx="63" cy="54" r="6" fill="#DBDBDB"/>
<circle cx="120" cy="54" r="6" fill="#DBDBDB"/>
<circle cx="177" cy="54" r="6" fill="#DBDBDB"/>
<circle cx="234" cy="54" r="6" fill="#DBDBDB"/>
<circle cx="291" cy="54" r="6" fill="#DBDBDB"/>
<circle cx="348" cy="54" r="6" fill="#DBDBDB"/>
<circle cx="405" cy="54" r="6" fill="#DBDBDB"/>
<circle cx="462" cy="54" r="6" fill="#DBDBDB"/>
<circle cx="6" cy="102" r="6" fill="#DBDBDB"/>
<circle cx="63" cy="102" r="6" fill="#DBDBDB"/>
<circle cx="120" cy="102" r="6" fill="#DBDBDB"/>
<circle cx="177" cy="102" r="6" fill="#DBDBDB"/>
<circle cx="234" cy="102" r="6" fill="#DBDBDB"/>
<circle cx="291" cy="102" r="6" fill="#DBDBDB"/>
<circle cx="348" cy="102" r="6" fill="#DBDBDB"/>
<circle cx="405" cy="102" r="6" fill="#DBDBDB"/>
<circle cx="462" cy="102" r="6" fill="#DBDBDB"/>
<circle cx="6" cy="150" r="6" fill="#DBDBDB"/>
<circle cx="63" cy="150" r="6" fill="#DBDBDB"/>
<circle cx="120" cy="150" r="6" fill="#DBDBDB"/>
<circle cx="177" cy="150" r="6" fill="#DBDBDB"/>
<circle cx="234" cy="150" r="6" fill="#DBDBDB"/>
<circle cx="291" cy="150" r="6" fill="#DBDBDB"/>
<circle cx="348" cy="150" r="6" fill="#DBDBDB"/>
<circle cx="405" cy="150" r="6" fill="#DBDBDB"/>
<circle cx="462" cy="150" r="6" fill="#DBDBDB"/>
<circle cx="6" cy="198" r="6" fill="#DBDBDB"/>
<circle cx="63" cy="198" r="6" fill="#DBDBDB"/>
<circle cx="120" cy="198" r="6" fill="#DBDBDB"/>
<circle cx="177" cy="198" r="6" fill="#DBDBDB"/>
<circle cx="234" cy="198" r="6" fill="#DBDBDB"/>
<circle cx="291" cy="198" r="6" fill="#DBDBDB"/>
<circle cx="348" cy="198" r="6" fill="#DBDBDB"/>
<circle cx="405" cy="198" r="6" fill="#DBDBDB"/>
<circle cx="462" cy="198" r="6" fill="#DBDBDB"/>
<circle cx="6" cy="246" r="6" fill="#DBDBDB"/>
<circle cx="63" cy="246" r="6" fill="#DBDBDB"/>
<circle cx="120" cy="246" r="6" fill="#DBDBDB"/>
<circle cx="177" cy="246" r="6" fill="#DBDBDB"/>
<circle cx="234" cy="246" r="6" fill="#DBDBDB"/>
<circle cx="291" cy="246" r="6" fill="#DBDBDB"/>
<circle cx="348" cy="246" r="6" fill="#DBDBDB"/>
<circle cx="405" cy="246" r="6" fill="#DBDBDB"/>
<circle cx="462" cy="246" r="6" fill="#DBDBDB"/>
<circle cx="6" cy="294" r="6" fill="#DBDBDB"/>
<circle cx="63" cy="294" r="6" fill="#DBDBDB"/>
<circle cx="120" cy="294" r="6" fill="#DBDBDB"/>
<circle cx="177" cy="294" r="6" fill="#DBDBDB"/>
<circle cx="234" cy="294" r="6" fill="#DBDBDB"/>
<circle cx="291" cy="294" r="6" fill="#DBDBDB"/>
<circle cx="348" cy="294" r="6" fill="#DBDBDB"/>
<circle cx="405" cy="294" r="6" fill="#DBDBDB"/>
<circle cx="462" cy="294" r="6" fill="#DBDBDB"/>
<circle cx="6" cy="342" r="6" fill="#DBDBDB"/>
<circle cx="63" cy="342" r="6" fill="#DBDBDB"/>
<circle cx="120" cy="342" r="6" fill="#DBDBDB"/>
<circle cx="177" cy="342" r="6" fill="#DBDBDB"/>
<circle cx="234" cy="342" r="6" fill="#DBDBDB"/>
<circle cx="291" cy="342" r="6" fill="#DBDBDB"/>
<circle cx="348" cy="342" r="6" fill="#DBDBDB"/>
<circle cx="405" cy="342" r="6" fill="#DBDBDB"/>
<circle cx="462" cy="342" r="6" fill="#DBDBDB"/>
<circle cx="6" cy="390" r="6" fill="#DBDBDB"/>
<circle cx="63" cy="390" r="6" fill="#DBDBDB"/>
<circle cx="120" cy="390" r="6" fill="#DBDBDB"/>
<circle cx="177" cy="390" r="6" fill="#DBDBDB"/>
<circle cx="234" cy="390" r="6" fill="#DBDBDB"/>
<circle cx="291" cy="390" r="6" fill="#DBDBDB"/>
<circle cx="348" cy="390" r="6" fill="#DBDBDB"/>
<circle cx="405" cy="390" r="6" fill="#DBDBDB"/>
<circle cx="462" cy="390" r="6" fill="#DBDBDB"/>
<circle cx="6" cy="438" r="6" fill="#DBDBDB"/>
<circle cx="63" cy="438" r="6" fill="#DBDBDB"/>
<circle cx="120" cy="438" r="6" fill="#DBDBDB"/>
<circle cx="177" cy="438" r="6" fill="#DBDBDB"/>
<circle cx="234" cy="438" r="6" fill="#DBDBDB"/>
<circle cx="291" cy="438" r="6" fill="#DBDBDB"/>
<circle cx="348" cy="438" r="6" fill="#DBDBDB"/>
<circle cx="405" cy="438" r="6" fill="#DBDBDB"/>
<circle cx="462" cy="438" r="6" fill="#DBDBDB"/>
<circle cx="6" cy="486" r="6" fill="#DBDBDB"/>
<circle cx="63" cy="486" r="6" fill="#DBDBDB"/>
<circle cx="120" cy="486" r="6" fill="#DBDBDB"/>
<circle cx="177" cy="486" r="6" fill="#DBDBDB"/>
<circle cx="234" cy="486" r="6" fill="#DBDBDB"/>
<circle cx="291" cy="486" r="6" fill="#DBDBDB"/>
<circle cx="348" cy="486" r="6" fill="#DBDBDB"/>
<circle cx="405" cy="486" r="6" fill="#DBDBDB"/>
<circle cx="462" cy="486" r="6" fill="#DBDBDB"/>
</g>
</svg>
