<svg width="160" height="129" viewBox="0 0 160 129" fill="none" xmlns="http://www.w3.org/2000/svg">
<path fill-rule="evenodd" clip-rule="evenodd" d="M107.86 126.536C122.53 132.724 138.666 126.536 146.735 116.016C163.605 107.971 163.605 86.9322 151.136 73.9373C144.534 66.5117 136.466 67.1305 129.131 70.2245C128.398 70.2245 127.664 70.2245 126.931 70.2245C125.464 49.1852 137.933 31.8588 150.402 13.2947C151.136 13.9135 153.336 14.5323 154.069 13.2947C155.536 10.8195 157.737 8.34428 158.47 5.25027C158.47 4.63147 158.47 3.39386 157.737 2.77506C157.737 0.918654 154.803 -0.318951 152.603 1.53746C151.869 2.15626 151.869 2.77506 151.136 3.39386C137.199 12.0571 124.73 23.1955 115.195 35.5716C103.459 44.2348 95.391 55.3733 93.1906 68.3681C89.5232 75.175 88.0562 82.6006 87.3228 88.7886C85.1223 104.877 90.2567 119.11 107.86 126.536ZM150.402 97.4518C150.402 98.0706 147.468 99.3083 146.735 99.9271C146.735 97.4519 144.534 94.3578 143.067 91.8826C143.067 90.645 145.268 88.7886 145.268 87.551C147.468 90.645 150.402 93.739 150.402 97.4518C150.402 96.833 150.402 96.833 150.402 97.4518ZM145.268 75.7938C152.603 80.7442 154.803 91.2638 154.069 98.6894C154.069 100.546 153.336 102.402 152.603 104.259C152.603 103.64 152.603 103.64 152.603 103.021C154.803 98.0706 154.803 93.1202 152.603 88.1698C152.603 87.551 152.603 86.9322 152.603 86.3134C152.603 85.0758 151.869 83.8382 151.136 82.6006C150.402 80.7442 149.669 79.5066 148.202 77.6502C146.735 75.7938 143.067 74.5562 140.133 73.9373C138.666 74.5562 137.933 73.9373 137.199 73.9373C140.133 73.3185 142.334 73.9373 145.268 75.7938ZM118.862 119.729C123.263 120.348 128.398 120.348 132.065 119.11C132.799 119.11 134.266 119.11 134.999 119.11H135.732C132.065 121.585 127.664 123.442 122.53 123.442C123.263 122.823 123.263 122.204 121.796 122.204C118.862 122.204 115.928 121.585 113.728 120.966C116.662 120.348 118.129 119.729 118.862 119.729ZM112.261 67.1305C112.261 68.9869 112.261 72.0809 112.995 74.5562C112.995 74.5562 112.261 74.5562 112.261 75.1749C112.261 72.6997 112.261 69.6057 112.261 67.1305ZM94.6576 101.165C95.391 101.783 96.858 101.165 96.858 99.9271C95.391 94.9766 95.391 90.0262 96.858 85.0758C96.858 86.3134 96.858 87.551 96.858 88.7886C96.858 89.4074 96.858 89.4074 96.858 90.0262C96.1245 92.5014 96.1245 94.3578 96.858 96.833C97.5915 103.64 99.0584 111.065 102.726 116.016C96.858 112.303 94.6576 106.734 94.6576 101.165C94.6576 101.165 94.6576 100.546 94.6576 101.165Z" fill="white" fill-opacity="0.71"/>
<path fill-rule="evenodd" clip-rule="evenodd" d="M21.3092 125.916C35.9788 132.104 52.1154 125.916 60.1836 115.397C77.0537 107.352 77.0537 86.3131 64.5845 73.3182C57.9832 65.8926 49.9149 66.5114 42.5801 69.6054C41.8466 69.6054 41.1131 69.6054 40.3797 69.6054C38.9127 48.5661 51.3819 31.2396 63.851 12.6756C64.5845 13.2944 66.785 13.9132 67.5184 12.6756C68.9854 10.2004 71.1859 7.72514 71.9193 4.63113C71.9193 4.01233 71.9193 2.77472 71.1859 2.15592C71.1859 0.299513 68.2519 -0.938092 66.0515 0.918316C65.318 1.53712 65.318 2.15592 64.5845 2.77472C50.6484 11.438 38.1792 22.5764 28.644 35.5713C16.9083 44.2345 8.83999 55.3729 6.63955 68.3678C2.97214 75.1746 1.50519 82.6002 0.771705 88.7883C-2.16222 104.258 2.97215 118.491 21.3092 125.916ZM62.3841 96.2139C62.3841 96.8327 60.1836 98.0703 59.4502 98.6891C59.4502 96.2139 57.2497 93.1199 55.7827 90.6447C55.7827 89.4071 57.2497 87.5507 57.2497 86.3131C59.4502 89.4071 62.3841 93.1199 62.3841 96.2139ZM57.9832 75.1746C65.318 80.125 67.5184 90.6447 66.785 98.0703C66.785 99.9267 66.0515 101.783 65.318 103.64C65.318 103.021 65.318 103.021 65.318 102.402C67.5184 97.4515 67.5184 92.5011 65.318 87.5507C65.318 86.9319 65.318 86.3131 65.318 85.6943C65.318 84.4566 64.5845 83.2191 63.851 81.9814C63.1176 80.125 62.3841 78.8874 60.9171 77.031C59.4502 75.1746 55.7828 73.937 52.8488 73.3182C52.1153 72.6994 51.3819 72.6994 50.6484 72.0806C52.8488 72.6994 55.7827 73.3182 57.9832 75.1746ZM32.3114 118.491C36.7123 119.11 41.8466 119.11 45.514 117.872C46.2475 117.872 47.7145 117.872 48.4479 117.872H49.1814C45.514 120.347 41.1131 122.204 35.9788 122.204C36.7123 121.585 36.7123 120.966 35.2453 120.966C32.3114 120.966 29.3775 120.347 27.177 119.728C29.3775 119.11 30.8444 119.11 32.3114 118.491ZM25.71 66.5114C25.71 65.8926 25.71 66.5114 25.71 66.5114C25.71 68.3678 25.71 71.4618 26.4435 73.937C26.4435 73.937 25.71 73.937 25.71 74.5558C24.9766 71.4618 24.9766 68.9866 25.71 66.5114ZM7.37303 100.546C8.10651 101.164 9.57347 100.546 9.57347 99.3079C8.10651 94.3575 8.10651 89.4071 9.57347 84.4567C9.57347 85.6943 9.57347 86.9319 9.57347 88.1695C9.57347 88.7883 9.57347 88.7883 9.57347 89.4071C8.83999 91.8823 8.83999 93.7387 9.57347 96.2139C10.307 103.021 11.7739 110.446 15.4413 115.397C9.57347 111.065 7.37303 105.496 7.37303 100.546C7.37303 99.9267 7.37303 99.9267 7.37303 100.546Z" fill="white" fill-opacity="0.71"/>
</svg>
