<svg width="109" height="108" viewBox="0 0 109 108" fill="none" xmlns="http://www.w3.org/2000/svg">
<path fill-rule="evenodd" clip-rule="evenodd" d="M73.0649 105.009C83.0023 110.145 93.9334 105.009 99.399 96.2793C110.827 89.6034 110.827 72.1433 102.38 61.3591C97.9084 55.1967 92.4428 55.7102 87.4741 58.2779C86.9773 58.2779 86.4804 58.2779 85.9835 58.2779C84.9898 40.8178 93.4365 26.4389 101.883 11.0329C102.38 11.5464 103.871 12.0599 104.368 11.0329C105.361 8.97875 106.852 6.92462 107.349 4.35696C107.349 3.84343 107.349 2.81636 106.852 2.30283C106.852 0.762232 104.865 -0.264833 103.374 1.27577C102.877 1.7893 102.877 2.30283 102.38 2.81636C92.9397 10.0058 84.4929 19.2494 78.0336 29.5201C70.0837 36.7095 64.6182 45.9531 63.1276 56.7373C60.6432 62.3862 59.6495 68.5485 59.1526 73.6839C57.662 87.0357 61.1401 98.847 73.0649 105.009ZM101.883 80.8733C101.883 81.3868 99.8958 82.4139 99.399 82.9275C99.399 80.8733 97.9084 78.3056 96.9146 76.2515C96.9146 75.2245 98.4052 73.6839 98.4052 72.6568C99.8958 75.2245 101.883 77.7921 101.883 80.8733C101.883 80.3598 101.883 80.3598 101.883 80.8733ZM98.4052 62.8997C103.374 67.0079 104.865 75.738 104.368 81.9004C104.368 83.441 103.871 84.9816 103.374 86.5222C103.374 86.0086 103.374 86.0087 103.374 85.4951C104.865 81.3869 104.865 77.2786 103.374 73.1703C103.374 72.6568 103.374 72.1433 103.374 71.6297C103.374 70.6027 102.877 69.5756 102.38 68.5485C101.883 67.0079 101.386 65.9809 100.393 64.4403C99.399 62.8997 96.9146 61.8726 94.9272 61.3591C93.9334 61.8726 93.4366 61.3591 92.9397 61.3591C94.9272 60.8456 96.4178 61.3591 98.4052 62.8997ZM80.518 99.3605C83.4992 99.874 86.9773 99.874 89.4616 98.847C89.9585 98.847 90.9522 98.847 91.4491 98.847H91.9459C89.4616 100.901 86.4804 102.442 83.0023 102.442C83.4992 101.928 83.4992 101.415 82.5054 101.415C80.518 101.415 78.5305 100.901 77.0399 100.388C79.0274 99.874 80.0211 99.3605 80.518 99.3605ZM76.0461 55.7102C76.0461 57.2508 76.0462 59.8185 76.543 61.8726C76.543 61.8726 76.0461 61.8726 76.0461 62.3861C76.0461 60.332 76.0461 57.7644 76.0461 55.7102ZM64.1213 83.9545C64.6182 84.468 65.6119 83.9545 65.6119 82.9275C64.6182 78.8192 64.6182 74.7109 65.6119 70.6027C65.6119 71.6297 65.6119 72.6568 65.6119 73.6839C65.6119 74.1974 65.6119 74.1974 65.6119 74.7109C65.115 76.7651 65.115 78.3056 65.6119 80.3598C66.1088 86.0086 67.1025 92.171 69.5868 96.2793C65.6119 93.1981 64.1213 88.5763 64.1213 83.9545Z" fill="white"/>
<path fill-rule="evenodd" clip-rule="evenodd" d="M73.0649 105.009C83.0023 110.145 93.9334 105.009 99.399 96.2793C110.827 89.6034 110.827 72.1433 102.38 61.3591C97.9084 55.1967 92.4428 55.7102 87.4741 58.2779C86.9773 58.2779 86.4804 58.2779 85.9835 58.2779C84.9898 40.8178 93.4365 26.4389 101.883 11.0329C102.38 11.5464 103.871 12.0599 104.368 11.0329C105.361 8.97875 106.852 6.92462 107.349 4.35696C107.349 3.84343 107.349 2.81636 106.852 2.30283C106.852 0.762232 104.865 -0.264833 103.374 1.27577C102.877 1.7893 102.877 2.30283 102.38 2.81636C92.9397 10.0058 84.4929 19.2494 78.0336 29.5201C70.0837 36.7095 64.6182 45.9531 63.1276 56.7373C60.6432 62.3862 59.6495 68.5485 59.1526 73.6839C57.662 87.0357 61.1401 98.847 73.0649 105.009ZM101.883 80.8733C101.883 81.3868 99.8958 82.4139 99.399 82.9275C99.399 80.8733 97.9084 78.3056 96.9146 76.2515C96.9146 75.2245 98.4052 73.6839 98.4052 72.6568C99.8958 75.2245 101.883 77.7921 101.883 80.8733C101.883 80.3598 101.883 80.3598 101.883 80.8733ZM98.4052 62.8997C103.374 67.0079 104.865 75.738 104.368 81.9004C104.368 83.441 103.871 84.9816 103.374 86.5222C103.374 86.0086 103.374 86.0087 103.374 85.4951C104.865 81.3869 104.865 77.2786 103.374 73.1703C103.374 72.6568 103.374 72.1433 103.374 71.6297C103.374 70.6027 102.877 69.5756 102.38 68.5485C101.883 67.0079 101.386 65.9809 100.393 64.4403C99.399 62.8997 96.9146 61.8726 94.9272 61.3591C93.9334 61.8726 93.4366 61.3591 92.9397 61.3591C94.9272 60.8456 96.4178 61.3591 98.4052 62.8997ZM80.518 99.3605C83.4992 99.874 86.9773 99.874 89.4616 98.847C89.9585 98.847 90.9522 98.847 91.4491 98.847H91.9459C89.4616 100.901 86.4804 102.442 83.0023 102.442C83.4992 101.928 83.4992 101.415 82.5054 101.415C80.518 101.415 78.5305 100.901 77.0399 100.388C79.0274 99.874 80.0211 99.3605 80.518 99.3605ZM76.0461 55.7102C76.0461 57.2508 76.0462 59.8185 76.543 61.8726C76.543 61.8726 76.0461 61.8726 76.0461 62.3861C76.0461 60.332 76.0461 57.7644 76.0461 55.7102ZM64.1213 83.9545C64.6182 84.468 65.6119 83.9545 65.6119 82.9275C64.6182 78.8192 64.6182 74.7109 65.6119 70.6027C65.6119 71.6297 65.6119 72.6568 65.6119 73.6839C65.6119 74.1974 65.6119 74.1974 65.6119 74.7109C65.115 76.7651 65.115 78.3056 65.6119 80.3598C66.1088 86.0086 67.1025 92.171 69.5868 96.2793C65.6119 93.1981 64.1213 88.5763 64.1213 83.9545Z" fill="url(#paint0_linear_774_1958)"/>
<path fill-rule="evenodd" clip-rule="evenodd" d="M14.4351 104.496C24.3725 109.631 35.3036 104.496 40.7691 95.7656C52.1971 89.0897 52.1971 71.6296 43.7503 60.8454C39.2785 54.683 33.813 55.1966 28.8443 57.7642C28.3474 57.7642 27.8505 57.7642 27.3537 57.7642C26.3599 40.3041 34.8067 25.9252 43.2535 10.5192C43.7503 11.0327 45.2409 11.5463 45.7378 10.5192C46.7316 8.46508 48.2222 6.41095 48.719 3.84329C48.719 3.32976 48.719 2.30269 48.2222 1.78916C48.2222 0.24856 46.2347 -0.778505 44.7441 0.762093C44.2472 1.27563 44.2472 1.78916 43.7503 2.30269C34.3098 9.49215 25.8631 18.7357 19.4038 29.5199C11.4539 36.7094 5.98832 45.953 4.49771 56.7372C2.01337 62.386 1.01963 68.5484 0.522763 73.6837C-1.46471 86.522 2.01337 98.3333 14.4351 104.496ZM42.2597 79.8461C42.2597 80.3597 40.7691 81.3867 40.2723 81.9003C40.2723 79.8461 38.7817 77.2785 37.7879 75.2243C37.7879 74.1973 38.7817 72.6567 38.7817 71.6296C40.2723 74.1973 42.2597 77.2785 42.2597 79.8461ZM39.2785 62.386C44.2472 66.4943 45.7378 75.2243 45.2409 81.3867C45.2409 82.9273 44.7441 84.4679 44.2472 86.0085C44.2472 85.495 44.2472 85.495 44.2472 84.9815C45.7378 80.8732 45.7378 76.7649 44.2472 72.6567C44.2472 72.1431 44.2472 71.6296 44.2472 71.1161C44.2472 70.089 43.7503 69.0619 43.2535 68.0349C42.7566 66.4943 42.2597 65.4672 41.266 63.9266C40.2723 62.386 37.7879 61.3589 35.8004 60.8454C35.3036 60.3319 34.8067 60.3319 34.3098 59.8183C35.8004 60.3319 37.7879 60.8454 39.2785 62.386ZM21.8881 98.3333C24.8693 98.8468 28.3474 98.8468 30.8318 97.8198C31.3286 97.8198 32.3224 97.8198 32.8192 97.8198H33.3161C30.8318 99.8739 27.8505 101.414 24.3725 101.414C24.8693 100.901 24.8693 100.387 23.8756 100.387C21.8881 100.387 19.9006 99.8739 18.41 99.3604C19.9006 98.8468 20.8944 98.8468 21.8881 98.3333ZM17.4163 55.1966C17.4163 54.683 17.4163 55.1966 17.4163 55.1966C17.4163 56.7372 17.4163 59.3048 17.9132 61.3589C17.9132 61.3589 17.4163 61.3589 17.4163 61.8725C16.9194 59.3048 16.9194 57.2507 17.4163 55.1966ZM4.99458 83.4408C5.49145 83.9544 6.48519 83.4408 6.48519 82.4138C5.49145 78.3055 5.49145 74.1973 6.48519 70.089C6.48519 71.1161 6.48519 72.1431 6.48519 73.1702C6.48519 73.6837 6.48519 73.6837 6.48519 74.1973C5.98832 76.2514 5.98832 77.792 6.48519 79.8461C6.98205 85.495 7.97579 91.6574 10.4601 95.7656C6.48519 92.1709 4.99458 87.5491 4.99458 83.4408C4.99458 82.9273 4.99458 82.9273 4.99458 83.4408Z" fill="white"/>
<path fill-rule="evenodd" clip-rule="evenodd" d="M14.4351 104.496C24.3725 109.631 35.3036 104.496 40.7691 95.7656C52.1971 89.0897 52.1971 71.6296 43.7503 60.8454C39.2785 54.683 33.813 55.1966 28.8443 57.7642C28.3474 57.7642 27.8505 57.7642 27.3537 57.7642C26.3599 40.3041 34.8067 25.9252 43.2535 10.5192C43.7503 11.0327 45.2409 11.5463 45.7378 10.5192C46.7316 8.46508 48.2222 6.41095 48.719 3.84329C48.719 3.32976 48.719 2.30269 48.2222 1.78916C48.2222 0.24856 46.2347 -0.778505 44.7441 0.762093C44.2472 1.27563 44.2472 1.78916 43.7503 2.30269C34.3098 9.49215 25.8631 18.7357 19.4038 29.5199C11.4539 36.7094 5.98832 45.953 4.49771 56.7372C2.01337 62.386 1.01963 68.5484 0.522763 73.6837C-1.46471 86.522 2.01337 98.3333 14.4351 104.496ZM42.2597 79.8461C42.2597 80.3597 40.7691 81.3867 40.2723 81.9003C40.2723 79.8461 38.7817 77.2785 37.7879 75.2243C37.7879 74.1973 38.7817 72.6567 38.7817 71.6296C40.2723 74.1973 42.2597 77.2785 42.2597 79.8461ZM39.2785 62.386C44.2472 66.4943 45.7378 75.2243 45.2409 81.3867C45.2409 82.9273 44.7441 84.4679 44.2472 86.0085C44.2472 85.495 44.2472 85.495 44.2472 84.9815C45.7378 80.8732 45.7378 76.7649 44.2472 72.6567C44.2472 72.1431 44.2472 71.6296 44.2472 71.1161C44.2472 70.089 43.7503 69.0619 43.2535 68.0349C42.7566 66.4943 42.2597 65.4672 41.266 63.9266C40.2723 62.386 37.7879 61.3589 35.8004 60.8454C35.3036 60.3319 34.8067 60.3319 34.3098 59.8183C35.8004 60.3319 37.7879 60.8454 39.2785 62.386ZM21.8881 98.3333C24.8693 98.8468 28.3474 98.8468 30.8318 97.8198C31.3286 97.8198 32.3224 97.8198 32.8192 97.8198H33.3161C30.8318 99.8739 27.8505 101.414 24.3725 101.414C24.8693 100.901 24.8693 100.387 23.8756 100.387C21.8881 100.387 19.9006 99.8739 18.41 99.3604C19.9006 98.8468 20.8944 98.8468 21.8881 98.3333ZM17.4163 55.1966C17.4163 54.683 17.4163 55.1966 17.4163 55.1966C17.4163 56.7372 17.4163 59.3048 17.9132 61.3589C17.9132 61.3589 17.4163 61.3589 17.4163 61.8725C16.9194 59.3048 16.9194 57.2507 17.4163 55.1966ZM4.99458 83.4408C5.49145 83.9544 6.48519 83.4408 6.48519 82.4138C5.49145 78.3055 5.49145 74.1973 6.48519 70.089C6.48519 71.1161 6.48519 72.1431 6.48519 73.1702C6.48519 73.6837 6.48519 73.6837 6.48519 74.1973C5.98832 76.2514 5.98832 77.792 6.48519 79.8461C6.98205 85.495 7.97579 91.6574 10.4601 95.7656C6.48519 92.1709 4.99458 87.5491 4.99458 83.4408C4.99458 82.9273 4.99458 82.9273 4.99458 83.4408Z" fill="url(#paint1_linear_774_1958)"/>
<defs>
<linearGradient id="paint0_linear_774_1958" x1="58.8281" y1="4.33418" x2="108.383" y2="4.02292" gradientUnits="userSpaceOnUse">
<stop stop-color="#1C1340"/>
<stop offset="0.43" stop-color="#7345B3"/>
<stop offset="1" stop-color="#E19E12" stop-opacity="0.8"/>
</linearGradient>
<linearGradient id="paint1_linear_774_1958" x1="1.40265e-07" y1="3.82051" x2="49.7534" y2="3.50675" gradientUnits="userSpaceOnUse">
<stop stop-color="#1C1340"/>
<stop offset="0.43" stop-color="#7345B3"/>
<stop offset="1" stop-color="#E19E12" stop-opacity="0.8"/>
</linearGradient>
</defs>
</svg>
