<svg width="401" height="186" viewBox="0 0 401 186" fill="none" xmlns="http://www.w3.org/2000/svg">
<rect width="401" height="186" rx="40" fill="#735EC0" fill-opacity="0.08"/>
<rect x="78" y="128" width="72" height="7" rx="3.48071" fill="#DBDBDB"/>
<rect x="78" y="137" width="103" height="7" rx="3.48071" fill="#DBDBDB"/>
<path d="M86.68 56.24C85.5733 56.24 84.5467 56.04 83.6 55.64C82.6667 55.24 81.8467 54.6867 81.14 53.98C80.4467 53.26 79.9 52.4333 79.5 51.5C79.1133 50.5533 78.92 49.54 78.92 48.46C78.92 47.38 79.1133 46.3733 79.5 45.44C79.9 44.4933 80.4467 43.6667 81.14 42.96C81.8467 42.24 82.6667 41.68 83.6 41.28C84.5467 40.88 85.5733 40.68 86.68 40.68C87.44 40.68 88.1667 40.78 88.86 40.98C89.5533 41.18 90.1867 41.4667 90.76 41.84V44.16C90.2267 43.7067 89.6267 43.3533 88.96 43.1C88.2933 42.8467 87.5733 42.72 86.8 42.72C85.7333 42.72 84.7667 42.9733 83.9 43.48C83.0467 43.9867 82.3733 44.6733 81.88 45.54C81.3867 46.3933 81.14 47.3667 81.14 48.46C81.14 49.54 81.3867 50.5133 81.88 51.38C82.3733 52.2467 83.0467 52.9333 83.9 53.44C84.7667 53.9467 85.7333 54.2 86.8 54.2C87.5733 54.2 88.2933 54.0733 88.96 53.82C89.6267 53.5667 90.2267 53.2133 90.76 52.76V55.08C90.1867 55.4533 89.5533 55.74 88.86 55.94C88.1667 56.14 87.44 56.24 86.68 56.24ZM93.1923 56V40.44H95.2323V47.04C95.5523 46.7733 95.919 46.56 96.3323 46.4C96.7457 46.24 97.1923 46.16 97.6723 46.16C98.1923 46.16 98.6723 46.2533 99.1123 46.44C99.5657 46.6267 99.959 46.8867 100.292 47.22C100.639 47.5667 100.906 47.9933 101.092 48.5C101.292 48.9933 101.392 49.6133 101.392 50.36V56H99.3523V50.54C99.3523 50.0333 99.299 49.64 99.1923 49.36C99.099 49.0667 98.959 48.8333 98.7723 48.66C98.3857 48.2733 97.899 48.08 97.3123 48.08C96.7257 48.08 96.239 48.2733 95.8523 48.66C95.6657 48.8333 95.5123 49.0667 95.3923 49.36C95.2857 49.64 95.2323 50.0333 95.2323 50.54V56H93.1923ZM108.606 56.24C107.659 56.24 106.799 56.0133 106.026 55.56C105.266 55.1067 104.659 54.5 104.206 53.74C103.766 52.98 103.546 52.1333 103.546 51.2C103.546 50.2667 103.766 49.42 104.206 48.66C104.659 47.9 105.266 47.2933 106.026 46.84C106.799 46.3867 107.659 46.16 108.606 46.16C109.566 46.16 110.426 46.3867 111.186 46.84C111.959 47.2933 112.566 47.9 113.006 48.66C113.459 49.42 113.686 50.2667 113.686 51.2C113.686 52.1333 113.459 52.98 113.006 53.74C112.566 54.5 111.959 55.1067 111.186 55.56C110.426 56.0133 109.566 56.24 108.606 56.24ZM108.606 54.3C109.166 54.3 109.666 54.1667 110.106 53.9C110.559 53.62 110.912 53.2467 111.166 52.78C111.432 52.3133 111.566 51.7867 111.566 51.2C111.566 50.6133 111.432 50.0867 111.166 49.62C110.912 49.1533 110.559 48.7867 110.106 48.52C109.666 48.24 109.166 48.1 108.606 48.1C108.046 48.1 107.546 48.24 107.106 48.52C106.666 48.7867 106.312 49.1533 106.046 49.62C105.792 50.0867 105.666 50.6133 105.666 51.2C105.666 51.7867 105.792 52.3133 106.046 52.78C106.312 53.2467 106.666 53.62 107.106 53.9C107.546 54.1667 108.046 54.3 108.606 54.3ZM117.025 44.94C116.652 44.94 116.325 44.8 116.045 44.52C115.765 44.24 115.625 43.9133 115.625 43.54C115.625 43.1533 115.765 42.8267 116.045 42.56C116.325 42.2933 116.652 42.16 117.025 42.16C117.412 42.16 117.738 42.2933 118.005 42.56C118.272 42.8267 118.405 43.1533 118.405 43.54C118.405 43.9133 118.272 44.24 118.005 44.52C117.738 44.8 117.412 44.94 117.025 44.94ZM116.005 56V46.4H118.045V56H116.005ZM125.403 56.24C124.456 56.24 123.596 56.0133 122.823 55.56C122.063 55.1067 121.456 54.5 121.003 53.74C120.563 52.98 120.343 52.1333 120.343 51.2C120.343 50.2667 120.563 49.42 121.003 48.66C121.456 47.9 122.063 47.2933 122.823 46.84C123.596 46.3867 124.456 46.16 125.403 46.16C126.336 46.16 127.176 46.3867 127.923 46.84V49.02C127.629 48.7267 127.276 48.5 126.863 48.34C126.449 48.18 126.003 48.1 125.523 48.1C124.949 48.1 124.429 48.24 123.963 48.52C123.496 48.7867 123.129 49.1533 122.863 49.62C122.596 50.0867 122.463 50.6133 122.463 51.2C122.463 51.7867 122.596 52.3133 122.863 52.78C123.129 53.2467 123.496 53.62 123.963 53.9C124.429 54.1667 124.949 54.3 125.523 54.3C126.003 54.3 126.449 54.22 126.863 54.06C127.276 53.9 127.629 53.6733 127.923 53.38V55.56C127.176 56.0133 126.336 56.24 125.403 56.24ZM134.559 56.24C133.626 56.24 132.786 56.02 132.039 55.58C131.306 55.1267 130.719 54.52 130.279 53.76C129.853 53 129.639 52.1533 129.639 51.22C129.639 50.26 129.839 49.4 130.239 48.64C130.653 47.8667 131.213 47.26 131.919 46.82C132.626 46.38 133.426 46.16 134.319 46.16C135.213 46.16 136.006 46.38 136.699 46.82C137.406 47.26 137.959 47.86 138.359 48.62C138.773 49.38 138.979 50.24 138.979 51.2C138.979 51.32 138.973 51.4467 138.959 51.58C138.959 51.7 138.953 51.82 138.939 51.94H131.719C131.826 52.6333 132.146 53.2067 132.679 53.66C133.213 54.1 133.846 54.32 134.579 54.32C135.139 54.32 135.639 54.1867 136.079 53.92C136.533 53.6533 136.879 53.3 137.119 52.86L138.799 53.84C138.373 54.5733 137.786 55.16 137.039 55.6C136.306 56.0267 135.479 56.24 134.559 56.24ZM131.719 50.28H136.879C136.826 49.6133 136.566 49.0667 136.099 48.64C135.633 48.2133 135.046 48 134.339 48C133.633 48 133.033 48.2133 132.539 48.64C132.059 49.0667 131.786 49.6133 131.719 50.28ZM144.525 56L151.625 40.28L158.705 56H156.425L154.905 52.64H148.285L146.745 56H144.525ZM149.145 50.64H154.025L151.605 45.18H151.565L149.145 50.64Z" fill="black"/>
<rect x="24" y="36" width="40" height="40" rx="19.8898" fill="#715EB6"/>
<path d="M41.5137 62.0994L35.8354 56.3679L37.255 54.935L41.5137 59.2337L50.6539 50.0078L52.0735 51.4407L41.5137 62.0994Z" fill="white"/>
<rect x="25" y="107" width="38" height="38" rx="18.8898" stroke="#715EB6" stroke-width="2"/>
<rect x="43" y="103" width="24" height="2" rx="0.99449" transform="rotate(-90 43 103)" fill="#715EB6"/>
<rect x="78" y="62" width="72" height="7" rx="3.48071" fill="#DBDBDB"/>
<rect x="78" y="71" width="103" height="7" rx="3.48071" fill="#DBDBDB"/>
<path d="M86.68 125.24C85.5733 125.24 84.5467 125.04 83.6 124.64C82.6667 124.24 81.8467 123.687 81.14 122.98C80.4467 122.26 79.9 121.433 79.5 120.5C79.1133 119.553 78.92 118.54 78.92 117.46C78.92 116.38 79.1133 115.373 79.5 114.44C79.9 113.493 80.4467 112.667 81.14 111.96C81.8467 111.24 82.6667 110.68 83.6 110.28C84.5467 109.88 85.5733 109.68 86.68 109.68C87.44 109.68 88.1667 109.78 88.86 109.98C89.5533 110.18 90.1867 110.467 90.76 110.84V113.16C90.2267 112.707 89.6267 112.353 88.96 112.1C88.2933 111.847 87.5733 111.72 86.8 111.72C85.7333 111.72 84.7667 111.973 83.9 112.48C83.0467 112.987 82.3733 113.673 81.88 114.54C81.3867 115.393 81.14 116.367 81.14 117.46C81.14 118.54 81.3867 119.513 81.88 120.38C82.3733 121.247 83.0467 121.933 83.9 122.44C84.7667 122.947 85.7333 123.2 86.8 123.2C87.5733 123.2 88.2933 123.073 88.96 122.82C89.6267 122.567 90.2267 122.213 90.76 121.76V124.08C90.1867 124.453 89.5533 124.74 88.86 124.94C88.1667 125.14 87.44 125.24 86.68 125.24ZM93.1923 125V109.44H95.2323V116.04C95.5523 115.773 95.919 115.56 96.3323 115.4C96.7457 115.24 97.1923 115.16 97.6723 115.16C98.1923 115.16 98.6723 115.253 99.1123 115.44C99.5657 115.627 99.959 115.887 100.292 116.22C100.639 116.567 100.906 116.993 101.092 117.5C101.292 117.993 101.392 118.613 101.392 119.36V125H99.3523V119.54C99.3523 119.033 99.299 118.64 99.1923 118.36C99.099 118.067 98.959 117.833 98.7723 117.66C98.3857 117.273 97.899 117.08 97.3123 117.08C96.7257 117.08 96.239 117.273 95.8523 117.66C95.6657 117.833 95.5123 118.067 95.3923 118.36C95.2857 118.64 95.2323 119.033 95.2323 119.54V125H93.1923ZM108.606 125.24C107.659 125.24 106.799 125.013 106.026 124.56C105.266 124.107 104.659 123.5 104.206 122.74C103.766 121.98 103.546 121.133 103.546 120.2C103.546 119.267 103.766 118.42 104.206 117.66C104.659 116.9 105.266 116.293 106.026 115.84C106.799 115.387 107.659 115.16 108.606 115.16C109.566 115.16 110.426 115.387 111.186 115.84C111.959 116.293 112.566 116.9 113.006 117.66C113.459 118.42 113.686 119.267 113.686 120.2C113.686 121.133 113.459 121.98 113.006 122.74C112.566 123.5 111.959 124.107 111.186 124.56C110.426 125.013 109.566 125.24 108.606 125.24ZM108.606 123.3C109.166 123.3 109.666 123.167 110.106 122.9C110.559 122.62 110.912 122.247 111.166 121.78C111.432 121.313 111.566 120.787 111.566 120.2C111.566 119.613 111.432 119.087 111.166 118.62C110.912 118.153 110.559 117.787 110.106 117.52C109.666 117.24 109.166 117.1 108.606 117.1C108.046 117.1 107.546 117.24 107.106 117.52C106.666 117.787 106.312 118.153 106.046 118.62C105.792 119.087 105.666 119.613 105.666 120.2C105.666 120.787 105.792 121.313 106.046 121.78C106.312 122.247 106.666 122.62 107.106 122.9C107.546 123.167 108.046 123.3 108.606 123.3ZM117.025 113.94C116.652 113.94 116.325 113.8 116.045 113.52C115.765 113.24 115.625 112.913 115.625 112.54C115.625 112.153 115.765 111.827 116.045 111.56C116.325 111.293 116.652 111.16 117.025 111.16C117.412 111.16 117.738 111.293 118.005 111.56C118.272 111.827 118.405 112.153 118.405 112.54C118.405 112.913 118.272 113.24 118.005 113.52C117.738 113.8 117.412 113.94 117.025 113.94ZM116.005 125V115.4H118.045V125H116.005ZM125.403 125.24C124.456 125.24 123.596 125.013 122.823 124.56C122.063 124.107 121.456 123.5 121.003 122.74C120.563 121.98 120.343 121.133 120.343 120.2C120.343 119.267 120.563 118.42 121.003 117.66C121.456 116.9 122.063 116.293 122.823 115.84C123.596 115.387 124.456 115.16 125.403 115.16C126.336 115.16 127.176 115.387 127.923 115.84V118.02C127.629 117.727 127.276 117.5 126.863 117.34C126.449 117.18 126.003 117.1 125.523 117.1C124.949 117.1 124.429 117.24 123.963 117.52C123.496 117.787 123.129 118.153 122.863 118.62C122.596 119.087 122.463 119.613 122.463 120.2C122.463 120.787 122.596 121.313 122.863 121.78C123.129 122.247 123.496 122.62 123.963 122.9C124.429 123.167 124.949 123.3 125.523 123.3C126.003 123.3 126.449 123.22 126.863 123.06C127.276 122.9 127.629 122.673 127.923 122.38V124.56C127.176 125.013 126.336 125.24 125.403 125.24ZM134.559 125.24C133.626 125.24 132.786 125.02 132.039 124.58C131.306 124.127 130.719 123.52 130.279 122.76C129.853 122 129.639 121.153 129.639 120.22C129.639 119.26 129.839 118.4 130.239 117.64C130.653 116.867 131.213 116.26 131.919 115.82C132.626 115.38 133.426 115.16 134.319 115.16C135.213 115.16 136.006 115.38 136.699 115.82C137.406 116.26 137.959 116.86 138.359 117.62C138.773 118.38 138.979 119.24 138.979 120.2C138.979 120.32 138.973 120.447 138.959 120.58C138.959 120.7 138.953 120.82 138.939 120.94H131.719C131.826 121.633 132.146 122.207 132.679 122.66C133.213 123.1 133.846 123.32 134.579 123.32C135.139 123.32 135.639 123.187 136.079 122.92C136.533 122.653 136.879 122.3 137.119 121.86L138.799 122.84C138.373 123.573 137.786 124.16 137.039 124.6C136.306 125.027 135.479 125.24 134.559 125.24ZM131.719 119.28H136.879C136.826 118.613 136.566 118.067 136.099 117.64C135.633 117.213 135.046 117 134.339 117C133.633 117 133.033 117.213 132.539 117.64C132.059 118.067 131.786 118.613 131.719 119.28ZM153.145 125.24C152.038 125.24 151.012 125.04 150.065 124.64C149.132 124.24 148.312 123.687 147.605 122.98C146.912 122.26 146.365 121.433 145.965 120.5C145.578 119.553 145.385 118.54 145.385 117.46C145.385 116.38 145.578 115.373 145.965 114.44C146.365 113.493 146.912 112.667 147.605 111.96C148.312 111.24 149.132 110.68 150.065 110.28C151.012 109.88 152.038 109.68 153.145 109.68C153.905 109.68 154.632 109.78 155.325 109.98C156.018 110.18 156.652 110.467 157.225 110.84V113.16C156.692 112.707 156.092 112.353 155.425 112.1C154.758 111.847 154.038 111.72 153.265 111.72C152.198 111.72 151.232 111.973 150.365 112.48C149.512 112.987 148.838 113.673 148.345 114.54C147.852 115.393 147.605 116.367 147.605 117.46C147.605 118.54 147.852 119.513 148.345 120.38C148.838 121.247 149.512 121.933 150.365 122.44C151.232 122.947 152.198 123.2 153.265 123.2C154.038 123.2 154.758 123.073 155.425 122.82C156.092 122.567 156.692 122.213 157.225 121.76V124.08C156.652 124.453 156.018 124.74 155.325 124.94C154.632 125.14 153.905 125.24 153.145 125.24Z" fill="black"/>
<path d="M276.68 56.24C275.573 56.24 274.547 56.04 273.6 55.64C272.667 55.24 271.847 54.6867 271.14 53.98C270.447 53.26 269.9 52.4333 269.5 51.5C269.113 50.5533 268.92 49.54 268.92 48.46C268.92 47.38 269.113 46.3733 269.5 45.44C269.9 44.4933 270.447 43.6667 271.14 42.96C271.847 42.24 272.667 41.68 273.6 41.28C274.547 40.88 275.573 40.68 276.68 40.68C277.44 40.68 278.167 40.78 278.86 40.98C279.553 41.18 280.187 41.4667 280.76 41.84V44.16C280.227 43.7067 279.627 43.3533 278.96 43.1C278.293 42.8467 277.573 42.72 276.8 42.72C275.733 42.72 274.767 42.9733 273.9 43.48C273.047 43.9867 272.373 44.6733 271.88 45.54C271.387 46.3933 271.14 47.3667 271.14 48.46C271.14 49.54 271.387 50.5133 271.88 51.38C272.373 52.2467 273.047 52.9333 273.9 53.44C274.767 53.9467 275.733 54.2 276.8 54.2C277.573 54.2 278.293 54.0733 278.96 53.82C279.627 53.5667 280.227 53.2133 280.76 52.76V55.08C280.187 55.4533 279.553 55.74 278.86 55.94C278.167 56.14 277.44 56.24 276.68 56.24ZM283.192 56V40.44H285.232V47.04C285.552 46.7733 285.919 46.56 286.332 46.4C286.746 46.24 287.192 46.16 287.672 46.16C288.192 46.16 288.672 46.2533 289.112 46.44C289.566 46.6267 289.959 46.8867 290.292 47.22C290.639 47.5667 290.906 47.9933 291.092 48.5C291.292 48.9933 291.392 49.6133 291.392 50.36V56H289.352V50.54C289.352 50.0333 289.299 49.64 289.192 49.36C289.099 49.0667 288.959 48.8333 288.772 48.66C288.386 48.2733 287.899 48.08 287.312 48.08C286.726 48.08 286.239 48.2733 285.852 48.66C285.666 48.8333 285.512 49.0667 285.392 49.36C285.286 49.64 285.232 50.0333 285.232 50.54V56H283.192ZM298.606 56.24C297.659 56.24 296.799 56.0133 296.026 55.56C295.266 55.1067 294.659 54.5 294.206 53.74C293.766 52.98 293.546 52.1333 293.546 51.2C293.546 50.2667 293.766 49.42 294.206 48.66C294.659 47.9 295.266 47.2933 296.026 46.84C296.799 46.3867 297.659 46.16 298.606 46.16C299.566 46.16 300.426 46.3867 301.186 46.84C301.959 47.2933 302.566 47.9 303.006 48.66C303.459 49.42 303.686 50.2667 303.686 51.2C303.686 52.1333 303.459 52.98 303.006 53.74C302.566 54.5 301.959 55.1067 301.186 55.56C300.426 56.0133 299.566 56.24 298.606 56.24ZM298.606 54.3C299.166 54.3 299.666 54.1667 300.106 53.9C300.559 53.62 300.912 53.2467 301.166 52.78C301.432 52.3133 301.566 51.7867 301.566 51.2C301.566 50.6133 301.432 50.0867 301.166 49.62C300.912 49.1533 300.559 48.7867 300.106 48.52C299.666 48.24 299.166 48.1 298.606 48.1C298.046 48.1 297.546 48.24 297.106 48.52C296.666 48.7867 296.312 49.1533 296.046 49.62C295.792 50.0867 295.666 50.6133 295.666 51.2C295.666 51.7867 295.792 52.3133 296.046 52.78C296.312 53.2467 296.666 53.62 297.106 53.9C297.546 54.1667 298.046 54.3 298.606 54.3ZM307.025 44.94C306.652 44.94 306.325 44.8 306.045 44.52C305.765 44.24 305.625 43.9133 305.625 43.54C305.625 43.1533 305.765 42.8267 306.045 42.56C306.325 42.2933 306.652 42.16 307.025 42.16C307.412 42.16 307.738 42.2933 308.005 42.56C308.272 42.8267 308.405 43.1533 308.405 43.54C308.405 43.9133 308.272 44.24 308.005 44.52C307.738 44.8 307.412 44.94 307.025 44.94ZM306.005 56V46.4H308.045V56H306.005ZM315.403 56.24C314.456 56.24 313.596 56.0133 312.823 55.56C312.063 55.1067 311.456 54.5 311.003 53.74C310.563 52.98 310.343 52.1333 310.343 51.2C310.343 50.2667 310.563 49.42 311.003 48.66C311.456 47.9 312.063 47.2933 312.823 46.84C313.596 46.3867 314.456 46.16 315.403 46.16C316.336 46.16 317.176 46.3867 317.923 46.84V49.02C317.629 48.7267 317.276 48.5 316.863 48.34C316.449 48.18 316.003 48.1 315.523 48.1C314.949 48.1 314.429 48.24 313.963 48.52C313.496 48.7867 313.129 49.1533 312.863 49.62C312.596 50.0867 312.463 50.6133 312.463 51.2C312.463 51.7867 312.596 52.3133 312.863 52.78C313.129 53.2467 313.496 53.62 313.963 53.9C314.429 54.1667 314.949 54.3 315.523 54.3C316.003 54.3 316.449 54.22 316.863 54.06C317.276 53.9 317.629 53.6733 317.923 53.38V55.56C317.176 56.0133 316.336 56.24 315.403 56.24ZM324.559 56.24C323.626 56.24 322.786 56.02 322.039 55.58C321.306 55.1267 320.719 54.52 320.279 53.76C319.853 53 319.639 52.1533 319.639 51.22C319.639 50.26 319.839 49.4 320.239 48.64C320.653 47.8667 321.213 47.26 321.919 46.82C322.626 46.38 323.426 46.16 324.319 46.16C325.213 46.16 326.006 46.38 326.699 46.82C327.406 47.26 327.959 47.86 328.359 48.62C328.773 49.38 328.979 50.24 328.979 51.2C328.979 51.32 328.973 51.4467 328.959 51.58C328.959 51.7 328.953 51.82 328.939 51.94H321.719C321.826 52.6333 322.146 53.2067 322.679 53.66C323.213 54.1 323.846 54.32 324.579 54.32C325.139 54.32 325.639 54.1867 326.079 53.92C326.533 53.6533 326.879 53.3 327.119 52.86L328.799 53.84C328.373 54.5733 327.786 55.16 327.039 55.6C326.306 56.0267 325.479 56.24 324.559 56.24ZM321.719 50.28H326.879C326.826 49.6133 326.566 49.0667 326.099 48.64C325.633 48.2133 325.046 48 324.339 48C323.633 48 323.033 48.2133 322.539 48.64C322.059 49.0667 321.786 49.6133 321.719 50.28ZM336.345 56V40.92H339.825C340.612 40.92 341.265 41.0267 341.785 41.24C342.318 41.44 342.772 41.7267 343.145 42.1C343.532 42.4733 343.832 42.9133 344.045 43.42C344.258 43.9267 344.365 44.4733 344.365 45.06C344.365 45.5933 344.252 46.1133 344.025 46.62C343.798 47.1267 343.485 47.5333 343.085 47.84C343.845 48.1733 344.438 48.68 344.865 49.36C345.305 50.04 345.525 50.8 345.525 51.64C345.525 52.2533 345.412 52.8267 345.185 53.36C344.958 53.88 344.652 54.34 344.265 54.74C343.878 55.1267 343.398 55.4333 342.825 55.66C342.265 55.8867 341.578 56 340.765 56H336.345ZM338.485 47.24H339.585C340.092 47.24 340.492 47.1867 340.785 47.08C341.092 46.9733 341.338 46.8267 341.525 46.64C341.712 46.44 341.858 46.2067 341.965 45.94C342.085 45.6733 342.145 45.3867 342.145 45.08C342.145 44.76 342.085 44.4733 341.965 44.22C341.858 43.9533 341.712 43.72 341.525 43.52C341.338 43.3333 341.092 43.1867 340.785 43.08C340.492 42.9733 340.092 42.92 339.585 42.92H338.485V47.24ZM338.485 54H340.505C341.052 54 341.485 53.9467 341.805 53.84C342.125 53.72 342.398 53.5467 342.625 53.32C342.838 53.1067 343.005 52.8533 343.125 52.56C343.245 52.2667 343.305 51.9533 343.305 51.62C343.305 50.9267 343.078 50.3533 342.625 49.9C342.412 49.6733 342.138 49.5067 341.805 49.4C341.485 49.28 341.052 49.22 340.505 49.22H338.485V54Z" fill="black"/>
<rect x="215" y="37" width="38" height="38" rx="18.8898" stroke="#715EB6" stroke-width="2"/>
<rect x="215" y="107" width="38" height="38" rx="18.8898" stroke="#715EB6" stroke-width="2"/>
<rect x="233" y="103" width="24" height="2" rx="0.99449" transform="rotate(-90 233 103)" fill="#715EB6"/>
<rect x="268" y="62" width="72" height="7" rx="3.48071" fill="#DBDBDB"/>
<rect x="268" y="71" width="103" height="7" rx="3.48071" fill="#DBDBDB"/>
<path d="M276.68 125.24C275.573 125.24 274.547 125.04 273.6 124.64C272.667 124.24 271.847 123.687 271.14 122.98C270.447 122.26 269.9 121.433 269.5 120.5C269.113 119.553 268.92 118.54 268.92 117.46C268.92 116.38 269.113 115.373 269.5 114.44C269.9 113.493 270.447 112.667 271.14 111.96C271.847 111.24 272.667 110.68 273.6 110.28C274.547 109.88 275.573 109.68 276.68 109.68C277.44 109.68 278.167 109.78 278.86 109.98C279.553 110.18 280.187 110.467 280.76 110.84V113.16C280.227 112.707 279.627 112.353 278.96 112.1C278.293 111.847 277.573 111.72 276.8 111.72C275.733 111.72 274.767 111.973 273.9 112.48C273.047 112.987 272.373 113.673 271.88 114.54C271.387 115.393 271.14 116.367 271.14 117.46C271.14 118.54 271.387 119.513 271.88 120.38C272.373 121.247 273.047 121.933 273.9 122.44C274.767 122.947 275.733 123.2 276.8 123.2C277.573 123.2 278.293 123.073 278.96 122.82C279.627 122.567 280.227 122.213 280.76 121.76V124.08C280.187 124.453 279.553 124.74 278.86 124.94C278.167 125.14 277.44 125.24 276.68 125.24ZM283.192 125V109.44H285.232V116.04C285.552 115.773 285.919 115.56 286.332 115.4C286.746 115.24 287.192 115.16 287.672 115.16C288.192 115.16 288.672 115.253 289.112 115.44C289.566 115.627 289.959 115.887 290.292 116.22C290.639 116.567 290.906 116.993 291.092 117.5C291.292 117.993 291.392 118.613 291.392 119.36V125H289.352V119.54C289.352 119.033 289.299 118.64 289.192 118.36C289.099 118.067 288.959 117.833 288.772 117.66C288.386 117.273 287.899 117.08 287.312 117.08C286.726 117.08 286.239 117.273 285.852 117.66C285.666 117.833 285.512 118.067 285.392 118.36C285.286 118.64 285.232 119.033 285.232 119.54V125H283.192ZM298.606 125.24C297.659 125.24 296.799 125.013 296.026 124.56C295.266 124.107 294.659 123.5 294.206 122.74C293.766 121.98 293.546 121.133 293.546 120.2C293.546 119.267 293.766 118.42 294.206 117.66C294.659 116.9 295.266 116.293 296.026 115.84C296.799 115.387 297.659 115.16 298.606 115.16C299.566 115.16 300.426 115.387 301.186 115.84C301.959 116.293 302.566 116.9 303.006 117.66C303.459 118.42 303.686 119.267 303.686 120.2C303.686 121.133 303.459 121.98 303.006 122.74C302.566 123.5 301.959 124.107 301.186 124.56C300.426 125.013 299.566 125.24 298.606 125.24ZM298.606 123.3C299.166 123.3 299.666 123.167 300.106 122.9C300.559 122.62 300.912 122.247 301.166 121.78C301.432 121.313 301.566 120.787 301.566 120.2C301.566 119.613 301.432 119.087 301.166 118.62C300.912 118.153 300.559 117.787 300.106 117.52C299.666 117.24 299.166 117.1 298.606 117.1C298.046 117.1 297.546 117.24 297.106 117.52C296.666 117.787 296.312 118.153 296.046 118.62C295.792 119.087 295.666 119.613 295.666 120.2C295.666 120.787 295.792 121.313 296.046 121.78C296.312 122.247 296.666 122.62 297.106 122.9C297.546 123.167 298.046 123.3 298.606 123.3ZM307.025 113.94C306.652 113.94 306.325 113.8 306.045 113.52C305.765 113.24 305.625 112.913 305.625 112.54C305.625 112.153 305.765 111.827 306.045 111.56C306.325 111.293 306.652 111.16 307.025 111.16C307.412 111.16 307.738 111.293 308.005 111.56C308.272 111.827 308.405 112.153 308.405 112.54C308.405 112.913 308.272 113.24 308.005 113.52C307.738 113.8 307.412 113.94 307.025 113.94ZM306.005 125V115.4H308.045V125H306.005ZM315.403 125.24C314.456 125.24 313.596 125.013 312.823 124.56C312.063 124.107 311.456 123.5 311.003 122.74C310.563 121.98 310.343 121.133 310.343 120.2C310.343 119.267 310.563 118.42 311.003 117.66C311.456 116.9 312.063 116.293 312.823 115.84C313.596 115.387 314.456 115.16 315.403 115.16C316.336 115.16 317.176 115.387 317.923 115.84V118.02C317.629 117.727 317.276 117.5 316.863 117.34C316.449 117.18 316.003 117.1 315.523 117.1C314.949 117.1 314.429 117.24 313.963 117.52C313.496 117.787 313.129 118.153 312.863 118.62C312.596 119.087 312.463 119.613 312.463 120.2C312.463 120.787 312.596 121.313 312.863 121.78C313.129 122.247 313.496 122.62 313.963 122.9C314.429 123.167 314.949 123.3 315.523 123.3C316.003 123.3 316.449 123.22 316.863 123.06C317.276 122.9 317.629 122.673 317.923 122.38V124.56C317.176 125.013 316.336 125.24 315.403 125.24ZM324.559 125.24C323.626 125.24 322.786 125.02 322.039 124.58C321.306 124.127 320.719 123.52 320.279 122.76C319.853 122 319.639 121.153 319.639 120.22C319.639 119.26 319.839 118.4 320.239 117.64C320.653 116.867 321.213 116.26 321.919 115.82C322.626 115.38 323.426 115.16 324.319 115.16C325.213 115.16 326.006 115.38 326.699 115.82C327.406 116.26 327.959 116.86 328.359 117.62C328.773 118.38 328.979 119.24 328.979 120.2C328.979 120.32 328.973 120.447 328.959 120.58C328.959 120.7 328.953 120.82 328.939 120.94H321.719C321.826 121.633 322.146 122.207 322.679 122.66C323.213 123.1 323.846 123.32 324.579 123.32C325.139 123.32 325.639 123.187 326.079 122.92C326.533 122.653 326.879 122.3 327.119 121.86L328.799 122.84C328.373 123.573 327.786 124.16 327.039 124.6C326.306 125.027 325.479 125.24 324.559 125.24ZM321.719 119.28H326.879C326.826 118.613 326.566 118.067 326.099 117.64C325.633 117.213 325.046 117 324.339 117C323.633 117 323.033 117.213 322.539 117.64C322.059 118.067 321.786 118.613 321.719 119.28ZM336.345 125V109.92H340.065C341.332 109.92 342.438 110.12 343.385 110.52C344.332 110.907 345.145 111.433 345.825 112.1C346.505 112.767 347.038 113.567 347.425 114.5C347.812 115.433 348.005 116.42 348.005 117.46C348.005 118.5 347.812 119.487 347.425 120.42C347.038 121.353 346.505 122.153 345.825 122.82C345.145 123.487 344.332 124.02 343.385 124.42C342.438 124.807 341.332 125 340.065 125H336.345ZM338.485 122.98H339.865C340.852 122.98 341.698 122.84 342.405 122.56C343.112 122.28 343.712 121.893 344.205 121.4C344.698 120.893 345.085 120.307 345.365 119.64C345.645 118.96 345.785 118.233 345.785 117.46C345.785 116.673 345.645 115.947 345.365 115.28C345.085 114.6 344.698 114.013 344.205 113.52C343.712 113.027 343.112 112.64 342.405 112.36C341.698 112.08 340.852 111.94 339.865 111.94H338.485V122.98Z" fill="black"/>
<rect x="268" y="128" width="72" height="7" rx="3.48071" fill="#DBDBDB"/>
<rect x="268" y="137" width="103" height="7" rx="3.48071" fill="#DBDBDB"/>
</svg>
