<svg width="91" height="99" viewBox="0 0 91 99" fill="none" xmlns="http://www.w3.org/2000/svg">
<path d="M15.4464 33.1116C17.4943 34.2309 19.5418 35.5852 21.2597 37.4588C22.106 38.3974 22.8497 39.4393 23.476 40.5638C24.0852 41.6703 24.6027 42.8335 25.0223 44.0398C25.8923 46.5754 26.3644 49.1984 26.7307 51.7687C26.8267 52.4065 26.9132 53.0439 26.9947 53.6792L27.2293 55.5815L25.0926 55.8709C24.75 52.8787 24.4817 49.804 24.7168 46.6848C24.9407 43.5795 25.6909 40.4151 27.2127 37.6436C27.5947 36.9467 28.0246 36.2822 28.4986 35.6559C28.974 35.0179 29.5022 34.4289 30.0766 33.8961C30.2165 33.756 30.3685 33.6344 30.5173 33.5076C30.6681 33.3842 30.8132 33.2502 30.9694 33.1362C31.281 32.9063 31.59 32.6692 31.9162 32.4695C32.556 32.0552 33.223 31.6927 33.9116 31.3847C34.5879 31.0805 35.2791 30.8173 35.9821 30.5964C36.6784 30.3848 37.3775 30.1893 38.0746 30.0362C39.4704 29.7137 40.8572 29.4962 42.2248 29.2825L42.3596 32.102L41.141 32.0735C39.8169 32.0465 38.4808 31.9693 37.1343 31.8509C35.7561 31.7432 34.3872 31.523 33.0393 31.1924C31.6182 30.847 30.2565 30.2585 29.005 29.4488C28.3585 29.0144 27.7607 28.4993 27.2238 27.9142C26.6892 27.3258 26.2238 26.6674 25.8384 25.9541C25.0771 24.5606 24.6102 23.1026 24.2111 21.7002C23.8081 20.2891 23.4725 18.8563 23.2055 17.4075C22.932 15.9611 22.7365 14.4985 22.6203 13.0273C22.5644 12.292 22.5207 11.5558 22.4997 10.8189L22.4841 10.2663C22.4801 10.0822 22.4844 9.89763 22.4702 9.71377C22.4507 9.34571 22.4465 8.97707 22.4341 8.60845L24.7316 8.72678C24.5385 11.4163 24.3318 14.1518 23.8554 16.9007C23.7905 17.2437 23.731 17.5882 23.6609 17.9303L23.4252 18.9552L23.156 19.976L22.8499 20.9901C22.416 22.3522 21.8622 23.6655 21.1962 24.9118C19.9082 27.2675 18.1417 29.2713 16.032 30.7697C15.2164 31.3663 14.324 31.8283 13.384 32.1406C13.0408 32.2475 12.6902 32.3246 12.3357 32.3709C12.1777 32.3896 12.0288 32.4018 11.8891 32.4075L11.7858 32.4107L11.7023 32.3994C11.6436 32.3906 11.587 32.3822 11.5325 32.3742C10.8566 32.2667 10.4813 32.1387 11.0021 31.5818C11.0774 31.5045 11.1571 31.4324 11.2406 31.3658C11.2843 31.3289 11.346 31.287 11.3854 31.252C11.422 31.2187 11.4602 31.1839 11.5 31.1477C11.6593 31.0041 11.8517 30.8637 12.0641 30.6975C12.2747 30.5273 12.5195 30.3656 12.7766 30.1656C12.9071 30.0709 13.0434 29.972 13.1855 29.8688C13.3249 29.7613 13.4709 29.6522 13.6233 29.5415C14.4123 28.9528 15.1649 28.3086 15.8765 27.613C16.6032 26.9138 17.2793 26.1546 17.8988 25.3423C18.7431 24.2221 19.4528 22.9894 20.0107 21.674C20.5747 20.3305 21.0233 18.9333 21.3511 17.5001C22.0545 14.6116 22.3726 11.5733 22.6711 8.51092L22.6713 8.50918C22.6961 8.25546 22.8091 8.02168 22.9873 7.8557C23.1654 7.68972 23.3951 7.60411 23.6293 7.6164C23.8636 7.62869 24.0847 7.73795 24.2473 7.9218C24.4099 8.10566 24.5017 8.35019 24.504 8.60533C24.5082 9.10213 24.4931 9.59988 24.5251 10.0963C24.554 10.5925 24.5883 11.0881 24.6346 11.5824C24.7228 12.5714 24.854 13.5545 25.0037 14.5324C25.3 16.487 25.7342 18.4139 26.3025 20.296C26.666 21.583 27.1382 22.8307 27.713 24.0232C27.9834 24.5621 28.3021 25.0706 28.6645 25.5413C29.0182 25.9835 29.4099 26.3878 29.8344 26.7488C30.2329 27.0732 30.6559 27.3602 31.0989 27.6068C31.5624 27.855 32.0408 28.0688 32.5308 28.2467C33.5563 28.6028 34.6102 28.8537 35.6786 28.9962C37.867 29.306 40.1414 29.3512 42.4289 29.4431L42.4423 29.4437C42.7289 29.4551 43.001 29.5834 43.2047 29.803C43.4084 30.0225 43.5289 30.3174 43.5421 30.6291C43.5553 30.9407 43.4604 31.2464 43.2761 31.4854C43.0919 31.7245 42.8317 31.8795 42.5473 31.9196C40.8106 32.1649 39.1017 32.4214 37.4594 32.8377C35.8239 33.263 34.2401 33.8204 32.8415 34.6952C32.245 35.0659 31.6817 35.4967 31.159 35.9818C30.6396 36.4779 30.1638 37.0255 29.7377 37.6176C28.8871 38.842 28.2185 40.204 27.7561 41.6539C27.2829 43.1251 26.9776 44.654 26.8472 46.2062C26.7115 47.784 26.6814 49.3704 26.757 50.953C26.8177 52.4936 26.9617 54.0433 27.1288 55.5985L27.1299 55.6088C27.1598 55.8878 27.0868 56.1682 26.927 56.3887C26.7671 56.6092 26.5334 56.7517 26.2771 56.7851C26.0208 56.8184 25.7628 56.7398 25.5597 56.5665C25.3566 56.3933 25.2249 56.1394 25.1935 55.8607C24.9129 53.3628 24.6167 50.8862 24.0859 48.4989C23.8365 47.3107 23.5179 46.141 23.132 44.9968C22.7467 43.8729 22.265 42.791 21.6933 41.7653C21.5433 41.5173 21.4039 41.2602 21.2461 41.0186L20.7584 40.3056C20.4153 39.8468 20.0505 39.4079 19.6654 38.9905C18.8684 38.1595 17.9949 37.4198 17.0588 36.7832C16.5874 36.4576 16.1014 36.1506 15.6051 35.858C15.357 35.7118 15.1064 35.5689 14.8534 35.4293L14.4724 35.222L14.282 35.1204L14.1011 35.0322C13.865 34.9088 13.606 34.8088 13.3544 34.7006C13.0926 34.6078 12.8367 34.5024 12.5679 34.4224C12.0389 34.2434 11.4926 34.1076 10.9467 33.9789C9.8879 33.7388 8.81362 33.5879 7.73345 33.5276C6.68651 33.4715 5.65343 33.5385 4.79481 33.8619L4.54801 32.7939L4.54721 32.7233H4.5482H4.55424H4.56232H4.5785L4.61084 32.7235C4.63183 32.7239 4.65332 32.7245 4.68353 32.7228L4.85061 32.7169L5.19044 32.7016C5.41837 32.6905 5.64501 32.6795 5.87035 32.6685C6.32279 32.6489 6.76971 32.6296 7.21109 32.6105C8.09532 32.5757 8.95858 32.5549 9.80203 32.5355C10.089 32.5238 10.3764 32.5359 10.6616 32.572C10.7723 32.5817 10.8384 32.6179 10.9404 32.6175C11.0068 32.6155 11.0722 32.6356 11.1279 32.6751L11.2953 32.4625C11.2717 32.5596 11.2389 32.6023 11.2545 32.611C11.2652 32.6197 11.3233 32.5923 11.3765 32.4995C11.3829 32.4883 11.387 32.4758 11.3884 32.4627C11.3898 32.4496 11.3886 32.4364 11.3848 32.4239C11.381 32.4114 11.3746 32.4 11.3663 32.3904C11.3579 32.3809 11.3478 32.3735 11.3365 32.3688C11.3252 32.364 11.3131 32.3621 11.301 32.363C11.2889 32.364 11.2772 32.3678 11.2666 32.3743C11.2561 32.3807 11.247 32.3896 11.24 32.4004C11.233 32.4111 11.2282 32.4234 11.2261 32.4363L11.1739 32.7568C11.1642 32.8161 11.0907 32.9067 10.9541 33.0073C10.8592 33.0914 10.756 33.1636 10.6462 33.2224C10.308 33.4023 9.95127 33.5378 9.58357 33.6259C8.78705 33.8252 7.98485 34.0014 7.17073 34.1689C6.76391 34.2524 6.35426 34.3327 5.94179 34.4098L5.31753 34.5224L4.99672 34.5759L4.82973 34.6016C4.767 34.6106 4.67321 34.6197 4.59612 34.6269C4.31993 34.6528 4.04413 34.5727 3.8165 34.4006C3.58887 34.2285 3.42374 33.9752 3.34974 33.6846C3.27574 33.394 3.29752 33.0843 3.41131 32.8093C3.5251 32.5343 3.72373 32.3113 3.97278 32.1789L4.05241 32.1372C4.69393 31.8124 5.37537 31.5906 6.07543 31.4786C6.3997 31.4358 6.73047 31.3807 7.04844 31.368C7.2086 31.3585 7.3704 31.3443 7.52947 31.3398L8.00429 31.3356C9.26425 31.3492 10.5193 31.5087 11.7482 31.8116C12.3691 31.9574 12.9829 32.1369 13.5874 32.3494L14.0458 32.5158L14.5063 32.7065C14.6586 32.7657 14.8154 32.8461 14.9702 32.9193L15.2026 33.0313L15.4096 33.1399C15.4216 33.13 15.4328 33.121 15.4464 33.1116Z" fill="white"/>
<path d="M15.4464 33.1116C17.4943 34.2309 19.5418 35.5852 21.2597 37.4588C22.106 38.3974 22.8497 39.4393 23.476 40.5638C24.0852 41.6703 24.6027 42.8335 25.0223 44.0398C25.8923 46.5754 26.3644 49.1984 26.7307 51.7687C26.8267 52.4065 26.9132 53.0439 26.9947 53.6792L27.2293 55.5815L25.0926 55.8709C24.75 52.8787 24.4817 49.804 24.7168 46.6848C24.9407 43.5795 25.6909 40.4151 27.2127 37.6436C27.5947 36.9467 28.0246 36.2822 28.4986 35.6559C28.974 35.0179 29.5022 34.4289 30.0766 33.8961C30.2165 33.756 30.3685 33.6344 30.5173 33.5076C30.6681 33.3842 30.8132 33.2502 30.9694 33.1362C31.281 32.9063 31.59 32.6692 31.9162 32.4695C32.556 32.0552 33.223 31.6927 33.9116 31.3847C34.5879 31.0805 35.2791 30.8173 35.9821 30.5964C36.6784 30.3848 37.3775 30.1893 38.0746 30.0362C39.4704 29.7137 40.8572 29.4962 42.2248 29.2825L42.3596 32.102L41.141 32.0735C39.8169 32.0465 38.4808 31.9693 37.1343 31.8509C35.7561 31.7432 34.3872 31.523 33.0393 31.1924C31.6182 30.847 30.2565 30.2585 29.005 29.4488C28.3585 29.0144 27.7607 28.4993 27.2238 27.9142C26.6892 27.3258 26.2238 26.6674 25.8384 25.9541C25.0771 24.5606 24.6102 23.1026 24.2111 21.7002C23.8081 20.2891 23.4725 18.8563 23.2055 17.4075C22.932 15.9611 22.7365 14.4985 22.6203 13.0273C22.5644 12.292 22.5207 11.5558 22.4997 10.8189L22.4841 10.2663C22.4801 10.0822 22.4844 9.89763 22.4702 9.71377C22.4507 9.34571 22.4465 8.97707 22.4341 8.60845L24.7316 8.72678C24.5385 11.4163 24.3318 14.1518 23.8554 16.9007C23.7905 17.2437 23.731 17.5882 23.6609 17.9303L23.4252 18.9552L23.156 19.976L22.8499 20.9901C22.416 22.3522 21.8622 23.6655 21.1962 24.9118C19.9082 27.2675 18.1417 29.2713 16.032 30.7697C15.2164 31.3663 14.324 31.8283 13.384 32.1406C13.0408 32.2475 12.6902 32.3246 12.3357 32.3709C12.1777 32.3896 12.0288 32.4018 11.8891 32.4075L11.7858 32.4107L11.7023 32.3994C11.6436 32.3906 11.587 32.3822 11.5325 32.3742C10.8566 32.2667 10.4813 32.1387 11.0021 31.5818C11.0774 31.5045 11.1571 31.4324 11.2406 31.3658C11.2843 31.3289 11.346 31.287 11.3854 31.252C11.422 31.2187 11.4602 31.1839 11.5 31.1477C11.6593 31.0041 11.8517 30.8637 12.0641 30.6975C12.2747 30.5273 12.5195 30.3656 12.7766 30.1656C12.9071 30.0709 13.0434 29.972 13.1855 29.8688C13.3249 29.7613 13.4709 29.6522 13.6233 29.5415C14.4123 28.9528 15.1649 28.3086 15.8765 27.613C16.6032 26.9138 17.2793 26.1546 17.8988 25.3423C18.7431 24.2221 19.4528 22.9894 20.0107 21.674C20.5747 20.3305 21.0233 18.9333 21.3511 17.5001C22.0545 14.6116 22.3726 11.5733 22.6711 8.51092L22.6713 8.50918C22.6961 8.25546 22.8091 8.02168 22.9873 7.8557C23.1654 7.68972 23.3951 7.60411 23.6293 7.6164C23.8636 7.62869 24.0847 7.73795 24.2473 7.9218C24.4099 8.10566 24.5017 8.35019 24.504 8.60533C24.5082 9.10213 24.4931 9.59988 24.5251 10.0963C24.554 10.5925 24.5883 11.0881 24.6346 11.5824C24.7228 12.5714 24.854 13.5545 25.0037 14.5324C25.3 16.487 25.7342 18.4139 26.3025 20.296C26.666 21.583 27.1382 22.8307 27.713 24.0232C27.9834 24.5621 28.3021 25.0706 28.6645 25.5413C29.0182 25.9835 29.4099 26.3878 29.8344 26.7488C30.2329 27.0732 30.6559 27.3602 31.0989 27.6068C31.5624 27.855 32.0408 28.0688 32.5308 28.2467C33.5563 28.6028 34.6102 28.8537 35.6786 28.9962C37.867 29.306 40.1414 29.3512 42.4289 29.4431L42.4423 29.4437C42.7289 29.4551 43.001 29.5834 43.2047 29.803C43.4084 30.0225 43.5289 30.3174 43.5421 30.6291C43.5553 30.9407 43.4604 31.2464 43.2761 31.4854C43.0919 31.7245 42.8317 31.8795 42.5473 31.9196C40.8106 32.1649 39.1017 32.4214 37.4594 32.8377C35.8239 33.263 34.2401 33.8204 32.8415 34.6952C32.245 35.0659 31.6817 35.4967 31.159 35.9818C30.6396 36.4779 30.1638 37.0255 29.7377 37.6176C28.8871 38.842 28.2185 40.204 27.7561 41.6539C27.2829 43.1251 26.9776 44.654 26.8472 46.2062C26.7115 47.784 26.6814 49.3704 26.757 50.953C26.8177 52.4936 26.9617 54.0433 27.1288 55.5985L27.1299 55.6088C27.1598 55.8878 27.0868 56.1682 26.927 56.3887C26.7671 56.6092 26.5334 56.7517 26.2771 56.7851C26.0208 56.8184 25.7628 56.7398 25.5597 56.5665C25.3566 56.3933 25.2249 56.1394 25.1935 55.8607C24.9129 53.3628 24.6167 50.8862 24.0859 48.4989C23.8365 47.3107 23.5179 46.141 23.132 44.9968C22.7467 43.8729 22.265 42.791 21.6933 41.7653C21.5433 41.5173 21.4039 41.2602 21.2461 41.0186L20.7584 40.3056C20.4153 39.8468 20.0505 39.4079 19.6654 38.9905C18.8684 38.1595 17.9949 37.4198 17.0588 36.7832C16.5874 36.4576 16.1014 36.1506 15.6051 35.858C15.357 35.7118 15.1064 35.5689 14.8534 35.4293L14.4724 35.222L14.282 35.1204L14.1011 35.0322C13.865 34.9088 13.606 34.8088 13.3544 34.7006C13.0926 34.6078 12.8367 34.5024 12.5679 34.4224C12.0389 34.2434 11.4926 34.1076 10.9467 33.9789C9.8879 33.7388 8.81362 33.5879 7.73345 33.5276C6.68651 33.4715 5.65343 33.5385 4.79481 33.8619L4.54801 32.7939L4.54721 32.7233H4.5482H4.55424H4.56232H4.5785L4.61084 32.7235C4.63183 32.7239 4.65332 32.7245 4.68353 32.7228L4.85061 32.7169L5.19044 32.7016C5.41837 32.6905 5.64501 32.6795 5.87035 32.6685C6.32279 32.6489 6.76971 32.6296 7.21109 32.6105C8.09532 32.5757 8.95858 32.5549 9.80203 32.5355C10.089 32.5238 10.3764 32.5359 10.6616 32.572C10.7723 32.5817 10.8384 32.6179 10.9404 32.6175C11.0068 32.6155 11.0722 32.6356 11.1279 32.6751L11.2953 32.4625C11.2717 32.5596 11.2389 32.6023 11.2545 32.611C11.2652 32.6197 11.3233 32.5923 11.3765 32.4995C11.3829 32.4883 11.387 32.4758 11.3884 32.4627C11.3898 32.4496 11.3886 32.4364 11.3848 32.4239C11.381 32.4114 11.3746 32.4 11.3663 32.3904C11.3579 32.3809 11.3478 32.3735 11.3365 32.3688C11.3252 32.364 11.3131 32.3621 11.301 32.363C11.2889 32.364 11.2772 32.3678 11.2666 32.3743C11.2561 32.3807 11.247 32.3896 11.24 32.4004C11.233 32.4111 11.2282 32.4234 11.2261 32.4363L11.1739 32.7568C11.1642 32.8161 11.0907 32.9067 10.9541 33.0073C10.8592 33.0914 10.756 33.1636 10.6462 33.2224C10.308 33.4023 9.95127 33.5378 9.58357 33.6259C8.78705 33.8252 7.98485 34.0014 7.17073 34.1689C6.76391 34.2524 6.35426 34.3327 5.94179 34.4098L5.31753 34.5224L4.99672 34.5759L4.82973 34.6016C4.767 34.6106 4.67321 34.6197 4.59612 34.6269C4.31993 34.6528 4.04413 34.5727 3.8165 34.4006C3.58887 34.2285 3.42374 33.9752 3.34974 33.6846C3.27574 33.394 3.29752 33.0843 3.41131 32.8093C3.5251 32.5343 3.72373 32.3113 3.97278 32.1789L4.05241 32.1372C4.69393 31.8124 5.37537 31.5906 6.07543 31.4786C6.3997 31.4358 6.73047 31.3807 7.04844 31.368C7.2086 31.3585 7.3704 31.3443 7.52947 31.3398L8.00429 31.3356C9.26425 31.3492 10.5193 31.5087 11.7482 31.8116C12.3691 31.9574 12.9829 32.1369 13.5874 32.3494L14.0458 32.5158L14.5063 32.7065C14.6586 32.7657 14.8154 32.8461 14.9702 32.9193L15.2026 33.0313L15.4096 33.1399C15.4216 33.13 15.4328 33.121 15.4464 33.1116Z" fill="url(#paint0_linear_3474_3608)"/>
<path d="M69.884 38.8894C70.9517 40.2821 71.8128 41.8479 72.4359 43.53C72.5122 43.7406 72.5945 43.9483 72.6648 44.1612L72.8523 44.81C72.9118 45.0271 72.9818 45.2404 73.0317 45.4604L73.1691 46.1245C73.211 46.3467 73.2678 46.5649 73.2962 46.7901L73.3811 47.465L73.4226 47.8022C73.437 47.9136 73.4508 48.026 73.458 48.1498C73.4748 48.3924 73.4833 48.6431 73.4776 48.904C73.4718 49.373 73.4017 49.8385 73.2696 50.285C73.1875 50.5452 73.0776 50.794 72.9423 51.0263C72.7916 51.2741 72.6089 51.4969 72.4 51.6881L72.3851 51.7016C72.2121 51.8596 71.9992 51.957 71.7744 51.981C71.5496 52.0049 71.3234 51.9544 71.1254 51.836C70.9275 51.7176 70.7671 51.5368 70.6654 51.3174C70.5636 51.098 70.5252 50.8503 70.5552 50.6067C70.6952 49.4783 70.894 48.3594 71.1508 47.2556C71.5685 45.4101 72.2157 43.6352 73.0746 41.9801C73.9546 40.288 75.1047 38.7799 76.4709 37.5264C77.8697 36.2692 79.4853 35.3285 81.2228 34.7597C83.0076 34.1824 84.8947 34.0859 86.7214 34.4786C86.9897 34.5388 87.2342 34.6883 87.4211 34.9062C87.6079 35.1242 87.7279 35.3999 87.7645 35.6953C87.8011 35.9907 87.7524 36.2911 87.6252 36.5551C87.498 36.8191 87.2986 37.0336 87.0545 37.1689L87.0303 37.1821C86.4358 37.5017 85.7987 37.7175 85.1425 37.8215C84.5392 37.9136 83.9289 37.9401 83.3208 37.9005C82.7379 37.8691 82.1827 37.7939 81.6489 37.7106C81.1166 37.6255 80.6087 37.5427 80.0573 37.4331C79.2643 37.288 78.4882 37.0492 77.7428 36.7209C77.3348 36.5346 76.9446 36.305 76.578 36.0355C76.2036 35.7575 75.8581 35.4363 75.5474 35.0774C74.9704 34.3896 74.499 33.6052 74.1513 32.7544C73.8291 31.9685 73.5763 31.151 73.3961 30.3131C72.6689 27.066 72.7303 23.669 73.5744 20.4555L73.5756 20.4508C73.6495 20.1707 73.797 19.9203 74.0001 19.7303C74.2032 19.5403 74.4529 19.4191 74.7185 19.3816C74.9841 19.3441 75.254 19.3919 75.4949 19.5191C75.7358 19.6464 75.9373 19.8476 76.0745 20.0978C76.5045 20.9107 76.7373 21.8293 76.7509 22.767C76.7649 23.5891 76.6713 24.4092 76.4731 25.2026C76.3855 25.5855 76.2719 25.9395 76.1637 26.2972C76.0428 26.6501 75.925 27.0048 75.7815 27.347C75.5078 28.0368 75.1867 28.7031 74.821 29.3405C73.3678 31.9146 71.2613 33.9765 68.7553 35.2776C67.1611 36.0906 65.4299 36.5372 63.6699 36.5897C62.9793 36.6157 62.2898 36.5127 61.6312 36.2851C61.4976 36.2364 61.3728 36.1862 61.2563 36.1333C61.1401 36.0753 61.0323 36.0159 60.9327 35.9554C60.7505 35.8494 60.581 35.7193 60.428 35.5682C60.0255 35.1737 60.1019 34.8561 60.5017 34.6485C60.903 34.4453 61.6281 34.338 62.6132 34.2304L63.0852 34.175L63.5628 34.1055C63.8823 34.0525 64.2061 34.0083 64.5287 33.9425C65.1725 33.8187 65.809 33.6532 66.4347 33.4468C67.6422 33.0383 68.7758 32.406 69.7856 31.578C71.8263 29.9092 73.3086 27.5593 74.0057 24.8875C74.1721 24.2787 74.2566 23.6469 74.2565 23.0118C74.2639 22.4876 74.1345 21.9719 73.8834 21.5245L76.0299 21.2174C75.8113 22.1627 75.6747 23.1282 75.6218 24.1012C75.5196 25.8977 75.7447 27.7451 76.0291 29.4425C76.2261 30.6521 76.5711 31.7972 77.1317 32.6776C77.3958 33.1009 77.7304 33.4667 78.1182 33.756C78.5411 34.0486 79.0019 34.2708 79.4851 34.4154C80.0362 34.581 80.596 34.7105 81.1613 34.803C81.7638 34.9089 82.3634 35.0152 82.9277 35.0779C84.0627 35.2108 85.1082 35.1604 85.9075 34.7343L86.1837 37.1514L85.7874 37.0695L85.5895 37.027L85.3886 37.0012L84.9865 36.9482L84.5805 36.926C83.6574 36.8879 82.7344 37.0055 81.8444 37.2748C80.9383 37.5514 80.0695 37.9564 79.2604 38.4793C78.4461 39.0031 77.6945 39.6344 77.0227 40.3589C76.3443 41.0944 75.7418 41.9083 75.2259 42.786C73.8091 45.1673 72.9735 47.9872 72.6266 50.8691L71.0591 49.9503C71.1526 49.8647 71.2233 49.7533 71.2639 49.6278C71.3291 49.4325 71.3663 49.2274 71.3741 49.0197C71.3865 48.7617 71.3803 48.503 71.3554 48.246L71.2427 47.3863C71.2041 47.0992 71.1507 46.8147 71.0827 46.534L70.9931 46.1091C70.9658 45.9665 70.9145 45.8309 70.8766 45.6913C70.7917 45.4151 70.7194 45.1337 70.6254 44.8604L70.3177 44.0496C69.8717 42.9784 69.3173 41.9646 68.6646 41.0272C67.9964 40.096 67.2401 39.2438 66.4082 38.4845C65.3577 37.55 64.2143 36.7465 62.9994 36.089C62.9263 36.0474 62.8545 36.0026 62.781 35.9632L62.5569 35.856L62.1116 35.6367C61.8192 35.4751 61.5147 35.3679 61.2162 35.2372L60.7688 35.0429C60.6224 34.9856 60.4772 34.934 60.3312 34.8937C60.0428 34.7961 59.7341 34.7946 59.4449 34.8896C59.3742 34.919 59.3098 34.9552 59.259 34.9802C59.2579 34.9807 59.257 34.9815 59.2562 34.9824C59.2554 34.9833 59.2548 34.9844 59.2544 34.9856L59.2485 35.0034C59.2294 35.0682 59.2335 35.1384 59.26 35.2C59.2839 35.2566 59.3183 35.3072 59.3608 35.3488C59.4378 35.4236 59.534 35.4707 59.6365 35.4838C59.6849 35.4909 59.7342 35.4868 59.7811 35.4717C59.823 35.4629 59.8642 35.4508 59.9045 35.4354C59.9724 35.4075 60.0219 35.3899 60.05 35.4096C60.0772 35.428 60.0853 35.4861 60.0452 35.5852C60.0159 35.6457 59.9768 35.7001 59.9299 35.7457C59.8736 35.819 59.8003 35.8746 59.7175 35.9066C59.5192 35.9939 59.2988 36.0017 59.0956 35.9285C58.9454 35.8744 58.8106 35.7789 58.7043 35.6513C58.6281 35.5588 58.5679 35.4519 58.5267 35.3359C58.4795 35.1984 58.4581 35.052 58.4638 34.9054C58.4677 34.7941 58.501 34.6864 58.5597 34.5951L58.7069 34.3656C58.7841 34.2448 58.8745 34.1348 58.9762 34.038C59.0329 33.984 59.0932 33.9346 59.1565 33.8902C59.224 33.8489 59.2939 33.8128 59.366 33.782C59.7064 33.6413 60.0684 33.5731 60.4325 33.5812C60.717 33.5825 61.0008 33.6097 61.2812 33.6623L62.0519 33.7957L62.2458 33.832L62.4358 33.8842L62.8172 33.9912C63.8452 34.2819 64.838 34.704 65.7748 35.2486C67.3223 36.1911 68.7007 37.4297 69.8437 38.9049C69.8567 38.8998 69.8688 38.8951 69.884 38.8894Z" fill="white"/>
<path d="M69.884 38.8894C70.9517 40.2821 71.8128 41.8479 72.4359 43.53C72.5122 43.7406 72.5945 43.9483 72.6648 44.1612L72.8523 44.81C72.9118 45.0271 72.9818 45.2404 73.0317 45.4604L73.1691 46.1245C73.211 46.3467 73.2678 46.5649 73.2962 46.7901L73.3811 47.465L73.4226 47.8022C73.437 47.9136 73.4508 48.026 73.458 48.1498C73.4748 48.3924 73.4833 48.6431 73.4776 48.904C73.4718 49.373 73.4017 49.8385 73.2696 50.285C73.1875 50.5452 73.0776 50.794 72.9423 51.0263C72.7916 51.2741 72.6089 51.4969 72.4 51.6881L72.3851 51.7016C72.2121 51.8596 71.9992 51.957 71.7744 51.981C71.5496 52.0049 71.3234 51.9544 71.1254 51.836C70.9275 51.7176 70.7671 51.5368 70.6654 51.3174C70.5636 51.098 70.5252 50.8503 70.5552 50.6067C70.6952 49.4783 70.894 48.3594 71.1508 47.2556C71.5685 45.4101 72.2157 43.6352 73.0746 41.9801C73.9546 40.288 75.1047 38.7799 76.4709 37.5264C77.8697 36.2692 79.4853 35.3285 81.2228 34.7597C83.0076 34.1824 84.8947 34.0859 86.7214 34.4786C86.9897 34.5388 87.2342 34.6883 87.4211 34.9062C87.6079 35.1242 87.7279 35.3999 87.7645 35.6953C87.8011 35.9907 87.7524 36.2911 87.6252 36.5551C87.498 36.8191 87.2986 37.0336 87.0545 37.1689L87.0303 37.1821C86.4358 37.5017 85.7987 37.7175 85.1425 37.8215C84.5392 37.9136 83.9289 37.9401 83.3208 37.9005C82.7379 37.8691 82.1827 37.7939 81.6489 37.7106C81.1166 37.6255 80.6087 37.5427 80.0573 37.4331C79.2643 37.288 78.4882 37.0492 77.7428 36.7209C77.3348 36.5346 76.9446 36.305 76.578 36.0355C76.2036 35.7575 75.8581 35.4363 75.5474 35.0774C74.9704 34.3896 74.499 33.6052 74.1513 32.7544C73.8291 31.9685 73.5763 31.151 73.3961 30.3131C72.6689 27.066 72.7303 23.669 73.5744 20.4555L73.5756 20.4508C73.6495 20.1707 73.797 19.9203 74.0001 19.7303C74.2032 19.5403 74.4529 19.4191 74.7185 19.3816C74.9841 19.3441 75.254 19.3919 75.4949 19.5191C75.7358 19.6464 75.9373 19.8476 76.0745 20.0978C76.5045 20.9107 76.7373 21.8293 76.7509 22.767C76.7649 23.5891 76.6713 24.4092 76.4731 25.2026C76.3855 25.5855 76.2719 25.9395 76.1637 26.2972C76.0428 26.6501 75.925 27.0048 75.7815 27.347C75.5078 28.0368 75.1867 28.7031 74.821 29.3405C73.3678 31.9146 71.2613 33.9765 68.7553 35.2776C67.1611 36.0906 65.4299 36.5372 63.6699 36.5897C62.9793 36.6157 62.2898 36.5127 61.6312 36.2851C61.4976 36.2364 61.3728 36.1862 61.2563 36.1333C61.1401 36.0753 61.0323 36.0159 60.9327 35.9554C60.7505 35.8494 60.581 35.7193 60.428 35.5682C60.0255 35.1737 60.1019 34.8561 60.5017 34.6485C60.903 34.4453 61.6281 34.338 62.6132 34.2304L63.0852 34.175L63.5628 34.1055C63.8823 34.0525 64.2061 34.0083 64.5287 33.9425C65.1725 33.8187 65.809 33.6532 66.4347 33.4468C67.6422 33.0383 68.7758 32.406 69.7856 31.578C71.8263 29.9092 73.3086 27.5593 74.0057 24.8875C74.1721 24.2787 74.2566 23.6469 74.2565 23.0118C74.2639 22.4876 74.1345 21.9719 73.8834 21.5245L76.0299 21.2174C75.8113 22.1627 75.6747 23.1282 75.6218 24.1012C75.5196 25.8977 75.7447 27.7451 76.0291 29.4425C76.2261 30.6521 76.5711 31.7972 77.1317 32.6776C77.3958 33.1009 77.7304 33.4667 78.1182 33.756C78.5411 34.0486 79.0019 34.2708 79.4851 34.4154C80.0362 34.581 80.596 34.7105 81.1613 34.803C81.7638 34.9089 82.3634 35.0152 82.9277 35.0779C84.0627 35.2108 85.1082 35.1604 85.9075 34.7343L86.1837 37.1514L85.7874 37.0695L85.5895 37.027L85.3886 37.0012L84.9865 36.9482L84.5805 36.926C83.6574 36.8879 82.7344 37.0055 81.8444 37.2748C80.9383 37.5514 80.0695 37.9564 79.2604 38.4793C78.4461 39.0031 77.6945 39.6344 77.0227 40.3589C76.3443 41.0944 75.7418 41.9083 75.2259 42.786C73.8091 45.1673 72.9735 47.9872 72.6266 50.8691L71.0591 49.9503C71.1526 49.8647 71.2233 49.7533 71.2639 49.6278C71.3291 49.4325 71.3663 49.2274 71.3741 49.0197C71.3865 48.7617 71.3803 48.503 71.3554 48.246L71.2427 47.3863C71.2041 47.0992 71.1507 46.8147 71.0827 46.534L70.9931 46.1091C70.9658 45.9665 70.9145 45.8309 70.8766 45.6913C70.7917 45.4151 70.7194 45.1337 70.6254 44.8604L70.3177 44.0496C69.8717 42.9784 69.3173 41.9646 68.6646 41.0272C67.9964 40.096 67.2401 39.2438 66.4082 38.4845C65.3577 37.55 64.2143 36.7465 62.9994 36.089C62.9263 36.0474 62.8545 36.0026 62.781 35.9632L62.5569 35.856L62.1116 35.6367C61.8192 35.4751 61.5147 35.3679 61.2162 35.2372L60.7688 35.0429C60.6224 34.9856 60.4772 34.934 60.3312 34.8937C60.0428 34.7961 59.7341 34.7946 59.4449 34.8896C59.3742 34.919 59.3098 34.9552 59.259 34.9802C59.2579 34.9807 59.257 34.9815 59.2562 34.9824C59.2554 34.9833 59.2548 34.9844 59.2544 34.9856L59.2485 35.0034C59.2294 35.0682 59.2335 35.1384 59.26 35.2C59.2839 35.2566 59.3183 35.3072 59.3608 35.3488C59.4378 35.4236 59.534 35.4707 59.6365 35.4838C59.6849 35.4909 59.7342 35.4868 59.7811 35.4717C59.823 35.4629 59.8642 35.4508 59.9045 35.4354C59.9724 35.4075 60.0219 35.3899 60.05 35.4096C60.0772 35.428 60.0853 35.4861 60.0452 35.5852C60.0159 35.6457 59.9768 35.7001 59.9299 35.7457C59.8736 35.819 59.8003 35.8746 59.7175 35.9066C59.5192 35.9939 59.2988 36.0017 59.0956 35.9285C58.9454 35.8744 58.8106 35.7789 58.7043 35.6513C58.6281 35.5588 58.5679 35.4519 58.5267 35.3359C58.4795 35.1984 58.4581 35.052 58.4638 34.9054C58.4677 34.7941 58.501 34.6864 58.5597 34.5951L58.7069 34.3656C58.7841 34.2448 58.8745 34.1348 58.9762 34.038C59.0329 33.984 59.0932 33.9346 59.1565 33.8902C59.224 33.8489 59.2939 33.8128 59.366 33.782C59.7064 33.6413 60.0684 33.5731 60.4325 33.5812C60.717 33.5825 61.0008 33.6097 61.2812 33.6623L62.0519 33.7957L62.2458 33.832L62.4358 33.8842L62.8172 33.9912C63.8452 34.2819 64.838 34.704 65.7748 35.2486C67.3223 36.1911 68.7007 37.4297 69.8437 38.9049C69.8567 38.8998 69.8688 38.8951 69.884 38.8894Z" fill="url(#paint1_linear_3474_3608)"/>
<path d="M45.8866 68.8153L46.6985 69.3098L47.4797 69.861L47.6741 70L47.8606 70.152L48.2331 70.4568C48.3564 70.5593 48.4822 70.6584 48.6032 70.7641L48.9559 71.0964C49.4278 71.5373 49.8765 72.0067 50.3 72.5024L50.9088 73.271C51.1083 73.5298 51.284 73.8085 51.4716 74.0766C52.191 75.1684 52.801 76.3409 53.2912 77.574C53.7654 78.8055 54.1248 80.0857 54.3639 81.3954C54.4184 81.7435 54.4849 82.0896 54.5261 82.4399L54.6334 83.4935L54.6807 84.5528C54.6974 84.9057 54.6761 85.2602 54.6751 85.6134C54.6328 87.0293 54.4474 88.4358 54.1223 89.8075L53.8681 90.7727C53.795 91.05 53.6322 91.2893 53.4098 91.4464C53.1874 91.6036 52.9203 91.668 52.6577 91.6279C52.3951 91.5878 52.1546 91.4458 51.9806 91.2282C51.8066 91.0105 51.7107 90.7317 51.7106 90.4432L51.7109 90.3874C51.7134 87.2726 51.7073 84.0607 52.2575 80.8344C52.528 79.2015 52.9704 77.6079 53.5761 76.0852C54.1949 74.5201 55.0432 73.0748 56.0879 71.8057C57.1594 70.5488 58.4183 69.4977 59.8115 68.6968C61.1636 67.9288 62.586 67.3172 64.0554 66.872C64.7777 66.6476 65.5019 66.4558 66.2287 66.2862C66.9573 66.1186 67.7036 65.971 68.4745 65.8794C69.2624 65.7781 70.057 65.7524 70.8491 65.8028C71.68 65.8561 72.5012 66.0251 73.2926 66.3056C73.5534 66.3981 73.7815 66.5759 73.946 66.8147C74.1104 67.0536 74.2031 67.3418 74.2113 67.6401C74.2196 67.9384 74.143 68.2322 73.9921 68.4813C73.8412 68.7305 73.6232 68.9229 73.368 69.0323L73.3394 69.0444C72.0933 69.5489 70.7757 69.8126 69.4461 69.8236C68.0353 69.8329 66.6264 69.711 65.2347 69.4593C63.8548 69.251 62.4887 68.9465 61.1447 68.5479C60.4501 68.3385 59.7679 68.0833 59.1019 67.7835C58.416 67.4807 57.7541 67.117 57.1231 66.696C56.4757 66.2662 55.8681 65.7692 55.3089 65.2119C54.7526 64.6514 54.2489 64.0321 53.8055 63.363C52.9623 62.0697 52.2777 60.6623 51.7691 59.1765C50.7692 56.322 50.1515 53.326 49.935 50.2804C49.9097 49.9005 49.8879 49.5203 49.8759 49.1397C49.8681 48.9494 49.8625 48.7591 49.8603 48.5686C49.8575 48.3766 49.8512 48.1988 49.8548 47.9652C49.8547 47.4522 49.9244 46.9419 50.0617 46.4511C50.1558 46.1268 50.2963 45.8206 50.4781 45.5439C50.6952 45.2167 50.9758 44.9455 51.3001 44.7495L51.3139 44.7414C51.4725 44.6472 51.6467 44.588 51.8264 44.5671C52.0062 44.5462 52.1879 44.564 52.3613 44.6195C52.5347 44.675 52.6964 44.7671 52.837 44.8906C52.9777 45.014 53.0946 45.1664 53.1812 45.3391C53.2741 45.5261 53.33 45.7323 53.3454 45.9442C53.7514 52.0123 52.3117 58.0572 49.2482 63.1473C48.5349 64.33 47.6894 65.4118 46.7311 66.3678C46.2404 66.8504 45.7147 67.289 45.1592 67.6796C44.6014 68.0721 44.0112 68.4074 43.3964 68.6812C42.4212 69.1316 41.3652 69.3366 40.3071 69.2809C39.6287 69.2536 38.9664 69.0492 38.3759 68.6849C37.7407 68.2449 37.8665 67.9411 38.4197 67.7995C38.701 67.7112 39.094 67.6565 39.5876 67.554C40.1842 67.433 40.7728 67.2699 41.3499 67.0659C42.2358 66.7401 43.0733 66.2757 43.8361 65.6872C44.6297 65.0689 45.3546 64.3524 45.9964 63.5522C46.9229 62.3824 47.7183 61.0968 48.3659 59.7226C49.037 58.343 49.5821 56.8952 49.9934 55.3998C50.8219 52.4086 51.1184 49.2729 50.8671 46.1608L52.5037 47.1167C52.5041 47.1178 52.5065 47.1214 52.5041 47.1172L52.4979 47.1077C52.499 47.1096 52.5002 47.1115 52.5015 47.1132C52.5049 47.1179 52.5081 47.1213 52.5064 47.1188V47.1224C52.497 47.137 52.4892 47.1526 52.483 47.169C52.4404 47.2785 52.4128 47.3942 52.4012 47.5124C52.3795 47.6978 52.3709 47.8848 52.3755 48.0716L52.3997 48.7793C52.4448 49.7416 52.5384 50.7001 52.6666 51.6519C52.93 53.5525 53.3705 55.419 53.9813 57.2226C54.403 58.5036 54.9533 59.7301 55.6222 60.8798C55.9415 61.4203 56.2995 61.9326 56.6929 62.4119C56.8822 62.6427 57.082 62.8629 57.2917 63.0718C57.3975 63.1737 57.4961 63.283 57.6047 63.3812L57.9303 63.6746C58.9061 64.4881 59.9997 65.119 61.1661 65.5415C62.4001 65.9953 63.6668 66.3358 64.953 66.5594C66.2419 66.82 67.5459 66.9828 68.8555 67.0465C70.072 67.1105 71.2883 66.9186 72.4379 66.4813L72.4793 68.9036C71.3412 68.4825 70.0557 68.4135 68.7354 68.5582C68.075 68.6261 67.4045 68.745 66.7271 68.8869C66.0488 69.031 65.3748 69.1931 64.7125 69.3796C63.2934 69.7599 61.9242 70.3338 60.6374 71.0877C59.3867 71.8177 58.2772 72.8035 57.3698 73.9908C56.4707 75.2101 55.7604 76.5807 55.2669 78.0488C54.7582 79.5519 54.403 81.1114 54.2076 82.699C53.8795 85.1996 53.8445 87.7825 53.8141 90.4001L51.8715 90.0531C53.1655 85.9034 52.7142 81.1203 50.7776 77.2299C50.6509 76.9903 50.5386 76.7406 50.4008 76.5083L49.9866 75.8117C49.8458 75.5816 49.6845 75.368 49.5347 75.1446C49.4571 75.0354 49.3855 74.9205 49.3031 74.8156L49.0531 74.5035C48.7215 74.085 48.3707 73.685 48.0021 73.305C47.6154 72.9459 47.2405 72.5696 46.8215 72.2515C46.6206 72.0802 46.4118 71.9201 46.196 71.7718C45.9799 71.6237 45.7691 71.466 45.549 71.3246L44.8771 70.9205C44.6548 70.7821 44.4157 70.6786 44.186 70.5554C43.2543 70.0839 42.2801 69.719 41.279 69.4666C38.8937 68.8573 36.4168 68.8049 34.0115 69.3129L33.9863 68.2744C35.4267 68.7509 36.9386 68.9177 38.4375 68.7656C39.2883 68.6785 39.7202 68.6535 39.7167 68.8527C39.711 68.9406 39.5986 69.0931 39.3563 69.2667C39.2093 69.3719 39.0555 69.4654 38.8961 69.5463C38.8029 69.5957 38.7013 69.6457 38.5903 69.6921C38.5349 69.7153 38.4778 69.742 38.4176 69.7631C38.357 69.7823 38.2943 69.8012 38.2295 69.8198C36.7262 70.2494 35.1556 70.3233 33.6238 70.0366C33.3703 69.9882 33.1389 69.8489 32.9665 69.6409C32.7942 69.4329 32.6908 69.1682 32.6728 68.8889C32.6547 68.6095 32.7231 68.3316 32.8671 68.0995C33.0111 67.8673 33.2223 67.6943 33.4671 67.6079L33.5643 67.574C35.086 67.0462 36.6739 66.7784 38.2712 66.7804C39.5828 66.7762 40.8893 66.958 42.1578 67.321C43.435 67.6806 44.6723 68.1905 45.848 68.8417C45.8604 68.8323 45.8722 68.8239 45.8866 68.8153Z" fill="white"/>
<path d="M45.8866 68.8153L46.6985 69.3098L47.4797 69.861L47.6741 70L47.8606 70.152L48.2331 70.4568C48.3564 70.5593 48.4822 70.6584 48.6032 70.7641L48.9559 71.0964C49.4278 71.5373 49.8765 72.0067 50.3 72.5024L50.9088 73.271C51.1083 73.5298 51.284 73.8085 51.4716 74.0766C52.191 75.1684 52.801 76.3409 53.2912 77.574C53.7654 78.8055 54.1248 80.0857 54.3639 81.3954C54.4184 81.7435 54.4849 82.0896 54.5261 82.4399L54.6334 83.4935L54.6807 84.5528C54.6974 84.9057 54.6761 85.2602 54.6751 85.6134C54.6328 87.0293 54.4474 88.4358 54.1223 89.8075L53.8681 90.7727C53.795 91.05 53.6322 91.2893 53.4098 91.4464C53.1874 91.6036 52.9203 91.668 52.6577 91.6279C52.3951 91.5878 52.1546 91.4458 51.9806 91.2282C51.8066 91.0105 51.7107 90.7317 51.7106 90.4432L51.7109 90.3874C51.7134 87.2726 51.7073 84.0607 52.2575 80.8344C52.528 79.2015 52.9704 77.6079 53.5761 76.0852C54.1949 74.5201 55.0432 73.0748 56.0879 71.8057C57.1594 70.5488 58.4183 69.4977 59.8115 68.6968C61.1636 67.9288 62.586 67.3172 64.0554 66.872C64.7777 66.6476 65.5019 66.4558 66.2287 66.2862C66.9573 66.1186 67.7036 65.971 68.4745 65.8794C69.2624 65.7781 70.057 65.7524 70.8491 65.8028C71.68 65.8561 72.5012 66.0251 73.2926 66.3056C73.5534 66.3981 73.7815 66.5759 73.946 66.8147C74.1104 67.0536 74.2031 67.3418 74.2113 67.6401C74.2196 67.9384 74.143 68.2322 73.9921 68.4813C73.8412 68.7305 73.6232 68.9229 73.368 69.0323L73.3394 69.0444C72.0933 69.5489 70.7757 69.8126 69.4461 69.8236C68.0353 69.8329 66.6264 69.711 65.2347 69.4593C63.8548 69.251 62.4887 68.9465 61.1447 68.5479C60.4501 68.3385 59.7679 68.0833 59.1019 67.7835C58.416 67.4807 57.7541 67.117 57.1231 66.696C56.4757 66.2662 55.8681 65.7692 55.3089 65.2119C54.7526 64.6514 54.2489 64.0321 53.8055 63.363C52.9623 62.0697 52.2777 60.6623 51.7691 59.1765C50.7692 56.322 50.1515 53.326 49.935 50.2804C49.9097 49.9005 49.8879 49.5203 49.8759 49.1397C49.8681 48.9494 49.8625 48.7591 49.8603 48.5686C49.8575 48.3766 49.8512 48.1988 49.8548 47.9652C49.8547 47.4522 49.9244 46.9419 50.0617 46.4511C50.1558 46.1268 50.2963 45.8206 50.4781 45.5439C50.6952 45.2167 50.9758 44.9455 51.3001 44.7495L51.3139 44.7414C51.4725 44.6472 51.6467 44.588 51.8264 44.5671C52.0062 44.5462 52.1879 44.564 52.3613 44.6195C52.5347 44.675 52.6964 44.7671 52.837 44.8906C52.9777 45.014 53.0946 45.1664 53.1812 45.3391C53.2741 45.5261 53.33 45.7323 53.3454 45.9442C53.7514 52.0123 52.3117 58.0572 49.2482 63.1473C48.5349 64.33 47.6894 65.4118 46.7311 66.3678C46.2404 66.8504 45.7147 67.289 45.1592 67.6796C44.6014 68.0721 44.0112 68.4074 43.3964 68.6812C42.4212 69.1316 41.3652 69.3366 40.3071 69.2809C39.6287 69.2536 38.9664 69.0492 38.3759 68.6849C37.7407 68.2449 37.8665 67.9411 38.4197 67.7995C38.701 67.7112 39.094 67.6565 39.5876 67.554C40.1842 67.433 40.7728 67.2699 41.3499 67.0659C42.2358 66.7401 43.0733 66.2757 43.8361 65.6872C44.6297 65.0689 45.3546 64.3524 45.9964 63.5522C46.9229 62.3824 47.7183 61.0968 48.3659 59.7226C49.037 58.343 49.5821 56.8952 49.9934 55.3998C50.8219 52.4086 51.1184 49.2729 50.8671 46.1608L52.5037 47.1167C52.5041 47.1178 52.5065 47.1214 52.5041 47.1172L52.4979 47.1077C52.499 47.1096 52.5002 47.1115 52.5015 47.1132C52.5049 47.1179 52.5081 47.1213 52.5064 47.1188V47.1224C52.497 47.137 52.4892 47.1526 52.483 47.169C52.4404 47.2785 52.4128 47.3942 52.4012 47.5124C52.3795 47.6978 52.3709 47.8848 52.3755 48.0716L52.3997 48.7793C52.4448 49.7416 52.5384 50.7001 52.6666 51.6519C52.93 53.5525 53.3705 55.419 53.9813 57.2226C54.403 58.5036 54.9533 59.7301 55.6222 60.8798C55.9415 61.4203 56.2995 61.9326 56.6929 62.4119C56.8822 62.6427 57.082 62.8629 57.2917 63.0718C57.3975 63.1737 57.4961 63.283 57.6047 63.3812L57.9303 63.6746C58.9061 64.4881 59.9997 65.119 61.1661 65.5415C62.4001 65.9953 63.6668 66.3358 64.953 66.5594C66.2419 66.82 67.5459 66.9828 68.8555 67.0465C70.072 67.1105 71.2883 66.9186 72.4379 66.4813L72.4793 68.9036C71.3412 68.4825 70.0557 68.4135 68.7354 68.5582C68.075 68.6261 67.4045 68.745 66.7271 68.8869C66.0488 69.031 65.3748 69.1931 64.7125 69.3796C63.2934 69.7599 61.9242 70.3338 60.6374 71.0877C59.3867 71.8177 58.2772 72.8035 57.3698 73.9908C56.4707 75.2101 55.7604 76.5807 55.2669 78.0488C54.7582 79.5519 54.403 81.1114 54.2076 82.699C53.8795 85.1996 53.8445 87.7825 53.8141 90.4001L51.8715 90.0531C53.1655 85.9034 52.7142 81.1203 50.7776 77.2299C50.6509 76.9903 50.5386 76.7406 50.4008 76.5083L49.9866 75.8117C49.8458 75.5816 49.6845 75.368 49.5347 75.1446C49.4571 75.0354 49.3855 74.9205 49.3031 74.8156L49.0531 74.5035C48.7215 74.085 48.3707 73.685 48.0021 73.305C47.6154 72.9459 47.2405 72.5696 46.8215 72.2515C46.6206 72.0802 46.4118 71.9201 46.196 71.7718C45.9799 71.6237 45.7691 71.466 45.549 71.3246L44.8771 70.9205C44.6548 70.7821 44.4157 70.6786 44.186 70.5554C43.2543 70.0839 42.2801 69.719 41.279 69.4666C38.8937 68.8573 36.4168 68.8049 34.0115 69.3129L33.9863 68.2744C35.4267 68.7509 36.9386 68.9177 38.4375 68.7656C39.2883 68.6785 39.7202 68.6535 39.7167 68.8527C39.711 68.9406 39.5986 69.0931 39.3563 69.2667C39.2093 69.3719 39.0555 69.4654 38.8961 69.5463C38.8029 69.5957 38.7013 69.6457 38.5903 69.6921C38.5349 69.7153 38.4778 69.742 38.4176 69.7631C38.357 69.7823 38.2943 69.8012 38.2295 69.8198C36.7262 70.2494 35.1556 70.3233 33.6238 70.0366C33.3703 69.9882 33.1389 69.8489 32.9665 69.6409C32.7942 69.4329 32.6908 69.1682 32.6728 68.8889C32.6547 68.6095 32.7231 68.3316 32.8671 68.0995C33.0111 67.8673 33.2223 67.6943 33.4671 67.6079L33.5643 67.574C35.086 67.0462 36.6739 66.7784 38.2712 66.7804C39.5828 66.7762 40.8893 66.958 42.1578 67.321C43.435 67.6806 44.6723 68.1905 45.848 68.8417C45.8604 68.8323 45.8722 68.8239 45.8866 68.8153Z" fill="url(#paint2_linear_3474_3608)"/>
<defs>
<linearGradient id="paint0_linear_3474_3608" x1="3.30664" y1="9.37871" x2="43.5389" y2="8.9342" gradientUnits="userSpaceOnUse">
<stop stop-color="#1C1340"/>
<stop offset="0.43" stop-color="#7345B3"/>
<stop offset="1" stop-color="#E19E12" stop-opacity="0.8"/>
</linearGradient>
<linearGradient id="paint1_linear_3474_3608" x1="58.4629" y1="20.5388" x2="87.7724" y2="20.1831" gradientUnits="userSpaceOnUse">
<stop stop-color="#1C1340"/>
<stop offset="0.43" stop-color="#7345B3"/>
<stop offset="1" stop-color="#E19E12" stop-opacity="0.8"/>
</linearGradient>
<linearGradient id="paint2_linear_3474_3608" x1="32.6699" y1="46.2469" x2="74.2065" y2="45.752" gradientUnits="userSpaceOnUse">
<stop stop-color="#1C1340"/>
<stop offset="0.43" stop-color="#7345B3"/>
<stop offset="1" stop-color="#E19E12" stop-opacity="0.8"/>
</linearGradient>
</defs>
</svg>
