<svg width="379" height="212" viewBox="0 0 379 212" fill="none" xmlns="http://www.w3.org/2000/svg">
<path d="M4.352 179V173.928L0 166.936H3.2L5.76 171.192H5.792L8.352 166.936H11.488L7.136 173.928V179H4.352ZM16.1084 179.256C15.255 179.256 14.487 179.069 13.8044 178.696C13.1324 178.312 12.599 177.8 12.2044 177.16C11.8097 176.509 11.6124 175.789 11.6124 175C11.6124 174.2 11.8097 173.48 12.2044 172.84C12.599 172.2 13.1324 171.693 13.8044 171.32C14.487 170.936 15.255 170.744 16.1084 170.744C16.9617 170.744 17.7244 170.936 18.3964 171.32C19.079 171.693 19.6177 172.2 20.0124 172.84C20.407 173.48 20.6044 174.2 20.6044 175C20.6044 175.789 20.407 176.509 20.0124 177.16C19.6177 177.8 19.079 178.312 18.3964 178.696C17.7244 179.069 16.9617 179.256 16.1084 179.256ZM16.1084 176.824C16.6097 176.824 17.0204 176.653 17.3404 176.312C17.671 175.96 17.8364 175.523 17.8364 175C17.8364 174.477 17.671 174.045 17.3404 173.704C17.0204 173.352 16.6097 173.176 16.1084 173.176C15.607 173.176 15.191 173.352 14.8604 173.704C14.5404 174.045 14.3804 174.477 14.3804 175C14.3804 175.523 14.5404 175.96 14.8604 176.312C15.191 176.653 15.607 176.824 16.1084 176.824ZM25.423 179.256C24.815 179.256 24.2497 179.155 23.727 178.952C23.2043 178.739 22.7723 178.456 22.431 178.104C22.143 177.816 21.919 177.48 21.759 177.096C21.6097 176.712 21.535 176.243 21.535 175.688V171H24.223V175.464C24.223 175.763 24.2443 175.987 24.287 176.136C24.3403 176.275 24.415 176.392 24.511 176.488C24.735 176.712 25.039 176.824 25.423 176.824C25.807 176.824 26.111 176.712 26.335 176.488C26.431 176.392 26.5003 176.275 26.543 176.136C26.5963 175.987 26.623 175.763 26.623 175.464V171H29.311V175.688C29.311 176.243 29.231 176.712 29.071 177.096C28.9217 177.48 28.703 177.816 28.415 178.104C28.063 178.456 27.6257 178.739 27.103 178.952C26.591 179.155 26.031 179.256 25.423 179.256ZM30.686 179V171H33.134V171.96C33.294 171.768 33.4593 171.608 33.63 171.48C34.1313 171.096 34.7073 170.904 35.358 170.904C35.5073 170.904 35.6513 170.915 35.79 170.936C35.9287 170.947 36.0673 170.963 36.206 170.984V173.448C35.982 173.373 35.71 173.336 35.39 173.336C34.7927 173.336 34.3073 173.523 33.934 173.896C33.7527 174.077 33.614 174.307 33.518 174.584C33.422 174.851 33.374 175.203 33.374 175.64V179H30.686ZM45.7781 179.256C44.8928 179.256 44.0661 179.096 43.2981 178.776C42.5408 178.456 41.8741 178.008 41.2981 177.432C40.7328 176.856 40.2901 176.189 39.9701 175.432C39.6608 174.664 39.5061 173.843 39.5061 172.968C39.5061 172.083 39.6608 171.261 39.9701 170.504C40.2901 169.747 40.7328 169.08 41.2981 168.504C41.8741 167.928 42.5408 167.48 43.2981 167.16C44.0661 166.84 44.8928 166.68 45.7781 166.68C46.7488 166.68 47.6448 166.893 48.4661 167.32V170.28C48.1355 170.003 47.7568 169.789 47.3301 169.64C46.9035 169.48 46.4395 169.4 45.9381 169.4C45.2555 169.4 44.6475 169.555 44.1141 169.864C43.5808 170.173 43.1595 170.6 42.8501 171.144C42.5408 171.677 42.3861 172.285 42.3861 172.968C42.3861 173.651 42.5408 174.264 42.8501 174.808C43.1595 175.341 43.5808 175.763 44.1141 176.072C44.6475 176.381 45.2555 176.536 45.9381 176.536C46.4395 176.536 46.9035 176.461 47.3301 176.312C47.7568 176.152 48.1355 175.933 48.4661 175.656V178.616C47.6448 179.043 46.7488 179.256 45.7781 179.256ZM49.8198 179V166.552H52.5078V171.448C53.0304 170.989 53.6971 170.755 54.5078 170.744C54.9771 170.733 55.4091 170.813 55.8038 170.984C56.2091 171.144 56.5611 171.373 56.8598 171.672C57.1478 171.96 57.3718 172.323 57.5318 172.76C57.7024 173.197 57.7878 173.747 57.7878 174.408V179H55.0998V174.744C55.0998 174.403 55.0678 174.141 55.0038 173.96C54.9398 173.768 54.8491 173.613 54.7318 173.496C54.4971 173.261 54.1878 173.144 53.8038 173.144C53.4198 173.144 53.1104 173.261 52.8758 173.496C52.7584 173.613 52.6678 173.768 52.6038 173.96C52.5398 174.141 52.5078 174.403 52.5078 174.744V179H49.8198ZM63.2352 179.256C62.3819 179.256 61.6139 179.069 60.9312 178.696C60.2592 178.312 59.7259 177.8 59.3312 177.16C58.9366 176.509 58.7392 175.789 58.7392 175C58.7392 174.2 58.9366 173.48 59.3312 172.84C59.7259 172.2 60.2592 171.693 60.9312 171.32C61.6139 170.936 62.3819 170.744 63.2352 170.744C64.0886 170.744 64.8512 170.936 65.5232 171.32C66.2059 171.693 66.7446 172.2 67.1392 172.84C67.5339 173.48 67.7312 174.2 67.7312 175C67.7312 175.789 67.5339 176.509 67.1392 177.16C66.7446 177.8 66.2059 178.312 65.5232 178.696C64.8512 179.069 64.0886 179.256 63.2352 179.256ZM63.2352 176.824C63.7366 176.824 64.1472 176.653 64.4672 176.312C64.7979 175.96 64.9632 175.523 64.9632 175C64.9632 174.477 64.7979 174.045 64.4672 173.704C64.1472 173.352 63.7366 173.176 63.2352 173.176C62.7339 173.176 62.3179 173.352 61.9872 173.704C61.6672 174.045 61.5072 174.477 61.5072 175C61.5072 175.523 61.6672 175.96 61.9872 176.312C62.3179 176.653 62.7339 176.824 63.2352 176.824ZM70.1019 169.928C69.6859 169.928 69.3285 169.779 69.0299 169.48C68.7312 169.181 68.5819 168.824 68.5819 168.408C68.5819 167.992 68.7312 167.635 69.0299 167.336C69.3285 167.037 69.6859 166.888 70.1019 166.888C70.5179 166.888 70.8752 167.037 71.1739 167.336C71.4725 167.635 71.6219 167.992 71.6219 168.408C71.6219 168.824 71.4725 169.181 71.1739 169.48C70.8752 169.779 70.5179 169.928 70.1019 169.928ZM68.7579 179V171H71.4459V179H68.7579ZM76.8103 179.256C75.9889 179.256 75.2476 179.069 74.5863 178.696C73.9356 178.312 73.4183 177.8 73.0343 177.16C72.6609 176.509 72.4743 175.789 72.4743 175C72.4743 174.2 72.6609 173.48 73.0343 172.84C73.4183 172.2 73.9356 171.693 74.5863 171.32C75.2476 170.936 75.9889 170.744 76.8103 170.744C77.1196 170.744 77.4183 170.776 77.7063 170.84C77.9943 170.893 78.2716 170.979 78.5383 171.096V173.688C78.1649 173.347 77.6956 173.176 77.1303 173.176C76.5756 173.176 76.1223 173.352 75.7703 173.704C75.4183 174.045 75.2423 174.477 75.2423 175C75.2423 175.523 75.4183 175.96 75.7703 176.312C76.1223 176.653 76.5756 176.824 77.1303 176.824C77.6956 176.824 78.1649 176.653 78.5383 176.312V178.904C78.2716 179.011 77.9943 179.096 77.7063 179.16C77.4183 179.224 77.1196 179.256 76.8103 179.256ZM83.6145 179.256C82.7825 179.256 82.0412 179.075 81.3905 178.712C80.7398 178.339 80.2278 177.832 79.8545 177.192C79.4918 176.552 79.3105 175.821 79.3105 175C79.3105 174.179 79.4865 173.448 79.8385 172.808C80.1905 172.168 80.6812 171.667 81.3105 171.304C81.9398 170.931 82.6598 170.744 83.4705 170.744C84.2918 170.744 85.0118 170.931 85.6305 171.304C86.2598 171.667 86.7505 172.168 87.1025 172.808C87.4545 173.448 87.6305 174.179 87.6305 175C87.6305 175.235 87.6145 175.464 87.5825 175.688H81.9985C82.0518 176.083 82.2332 176.403 82.5425 176.648C82.8625 176.893 83.2465 177.016 83.6945 177.016C84.0572 177.016 84.3772 176.931 84.6545 176.76C84.9318 176.589 85.1398 176.371 85.2785 176.104L87.3585 177.16C86.9958 177.779 86.4892 178.285 85.8385 178.68C85.1878 179.064 84.4465 179.256 83.6145 179.256ZM81.9985 173.992H84.9425C84.8892 173.651 84.7238 173.373 84.4465 173.16C84.1798 172.936 83.8545 172.824 83.4705 172.824C83.0865 172.824 82.7558 172.936 82.4785 173.16C82.2118 173.373 82.0518 173.651 81.9985 173.992Z" fill="black"/>
<path d="M334.2 119V109.576H331.416V106.936H339.784V109.576H337V119H334.2ZM340.779 119V106.552H343.467V111.448C343.99 110.989 344.656 110.755 345.467 110.744C345.936 110.733 346.368 110.813 346.763 110.984C347.168 111.144 347.52 111.373 347.819 111.672C348.107 111.96 348.331 112.323 348.491 112.76C348.662 113.197 348.747 113.747 348.747 114.408V119H346.059V114.744C346.059 114.403 346.027 114.141 345.963 113.96C345.899 113.768 345.808 113.613 345.691 113.496C345.456 113.261 345.147 113.144 344.763 113.144C344.379 113.144 344.07 113.261 343.835 113.496C343.718 113.613 343.627 113.768 343.563 113.96C343.499 114.141 343.467 114.403 343.467 114.744V119H340.779ZM354.003 119.256C353.171 119.256 352.429 119.075 351.779 118.712C351.128 118.339 350.616 117.832 350.243 117.192C349.88 116.552 349.699 115.821 349.699 115C349.699 114.179 349.875 113.448 350.227 112.808C350.579 112.168 351.069 111.667 351.699 111.304C352.328 110.931 353.048 110.744 353.859 110.744C354.68 110.744 355.4 110.931 356.019 111.304C356.648 111.667 357.139 112.168 357.491 112.808C357.843 113.448 358.019 114.179 358.019 115C358.019 115.235 358.003 115.464 357.971 115.688H352.387C352.44 116.083 352.621 116.403 352.931 116.648C353.251 116.893 353.635 117.016 354.083 117.016C354.445 117.016 354.765 116.931 355.043 116.76C355.32 116.589 355.528 116.371 355.667 116.104L357.747 117.16C357.384 117.779 356.877 118.285 356.227 118.68C355.576 119.064 354.835 119.256 354.003 119.256ZM352.387 113.992H355.331C355.277 113.651 355.112 113.373 354.835 113.16C354.568 112.936 354.243 112.824 353.859 112.824C353.475 112.824 353.144 112.936 352.867 113.16C352.6 113.373 352.44 113.651 352.387 113.992ZM360.389 109.928C359.973 109.928 359.616 109.779 359.317 109.48C359.019 109.181 358.869 108.824 358.869 108.408C358.869 107.992 359.019 107.635 359.317 107.336C359.616 107.037 359.973 106.888 360.389 106.888C360.805 106.888 361.163 107.037 361.461 107.336C361.76 107.635 361.909 107.992 361.909 108.408C361.909 108.824 361.76 109.181 361.461 109.48C361.163 109.779 360.805 109.928 360.389 109.928ZM359.045 119V111H361.733V119H359.045ZM363.21 119V111H365.658V111.96C365.818 111.768 365.983 111.608 366.154 111.48C366.655 111.096 367.231 110.904 367.882 110.904C368.031 110.904 368.175 110.915 368.314 110.936C368.452 110.947 368.591 110.963 368.73 110.984V113.448C368.506 113.373 368.234 113.336 367.914 113.336C367.316 113.336 366.831 113.523 366.458 113.896C366.276 114.077 366.138 114.307 366.042 114.584C365.946 114.851 365.898 115.203 365.898 115.64V119H363.21ZM372.202 119.256C371.626 119.256 371.077 119.176 370.554 119.016C370.031 118.856 369.514 118.595 369.002 118.232L370.266 116.376C370.618 116.632 370.938 116.819 371.226 116.936C371.514 117.043 371.813 117.096 372.122 117.096C372.335 117.096 372.511 117.064 372.65 117C372.799 116.925 372.874 116.808 372.874 116.648C372.874 116.435 372.607 116.264 372.074 116.136L371.61 116.024C370.874 115.843 370.298 115.544 369.882 115.128C369.477 114.712 369.274 114.152 369.274 113.448C369.274 112.904 369.418 112.429 369.706 112.024C370.005 111.619 370.399 111.304 370.89 111.08C371.391 110.856 371.935 110.744 372.522 110.744C372.991 110.744 373.455 110.824 373.914 110.984C374.373 111.133 374.842 111.379 375.322 111.72L374.154 113.432C373.93 113.24 373.69 113.096 373.434 113C373.189 112.904 372.954 112.856 372.73 112.856C372.527 112.856 372.351 112.893 372.202 112.968C372.063 113.032 371.994 113.139 371.994 113.288C371.994 113.405 372.053 113.501 372.17 113.576C372.287 113.64 372.495 113.709 372.794 113.784L373.114 113.864C373.839 114.045 374.431 114.349 374.89 114.776C375.359 115.192 375.594 115.757 375.594 116.472C375.594 117.005 375.45 117.485 375.162 117.912C374.874 118.328 374.474 118.659 373.962 118.904C373.45 119.139 372.863 119.256 372.202 119.256Z" fill="black"/>
<g filter="url(#filter0_d_540_1864)">
<g filter="url(#filter1_d_540_1864)">
<path d="M186.447 108.184C185.963 107.805 185.68 107.225 185.68 106.61V17.1436C185.68 16.039 184.783 15.1412 183.679 15.1661C156.305 15.7827 131.714 29.0098 115.47 49.0852C115.428 49.1371 115.391 49.1927 115.349 49.2448C115.344 49.2512 115.339 49.2568 115.335 49.261C115.247 49.3514 115.175 49.4578 115.097 49.5571C102.539 65.4426 95 85.6011 95 107.584C95 128.309 101.696 147.469 112.999 162.886C113.004 162.893 113.011 162.896 113.018 162.896C113.026 162.896 113.033 162.9 113.037 162.906C129.58 185.417 155.962 200 185.68 200C214.694 200 239.751 186.496 256.338 165.431C257.013 164.574 256.85 163.336 255.991 162.664L186.447 108.184Z" fill="#44347F"/>
</g>
<path d="M196.724 0.0200613C195.619 -0.00203427 194.717 0.895431 194.717 2V101.256C194.717 101.871 194.999 102.451 195.483 102.831L272.629 163.262C273.51 163.951 274.787 163.786 275.443 162.879C287.725 145.905 295 124.94 295 102.23C295.024 46.4509 251.185 1.10972 196.724 0.0200613Z" fill="#715EB6"/>
</g>
<g clip-path="url(#clip0_540_1864)">
<path d="M326.224 91.2849L323.723 89.8103C323.308 89.5612 322.886 89.3245 322.464 89.0882L321.197 88.3776C320.748 88.1287 320.302 87.8716 319.848 87.6302C319.393 87.3902 318.937 87.1546 318.479 86.9232C317.867 86.6176 317.258 86.3069 316.643 86.0067L314.792 85.1248C313.563 84.5266 312.313 83.9752 311.07 83.4095L310.136 82.9879L309.195 82.5827L307.315 81.7706L306.845 81.5678L306.371 81.3733L305.425 80.9837L303.532 80.2015L301.187 79.2777C300.796 79.1246 300.406 78.9663 300.013 78.8172L298.833 78.3763C298.045 78.0847 297.261 77.782 296.471 77.4983L294.095 76.659C290.92 75.565 287.725 74.525 284.497 73.6074C284.011 73.4642 283.526 73.3097 283.043 73.1506C282.559 72.9974 282.077 72.845 281.598 72.6936C280.684 72.4013 280.118 72.1013 279.788 71.8233C279.306 71.4193 279.917 71.2874 281.257 71.5588C281.681 71.645 282.122 71.7465 282.564 71.8564C282.785 71.9131 283.007 71.97 283.227 72.0266C283.446 72.0903 283.664 72.1537 283.879 72.2163C284.866 72.5085 285.853 72.8005 286.839 73.0924C287.821 73.3987 288.804 73.6994 289.787 73.9945C290.281 74.1375 290.768 74.3004 291.259 74.4528L292.73 74.9113C293.715 75.2056 294.689 75.5323 295.67 75.8407C296.211 76.0131 296.766 76.1799 297.312 76.3623C297.855 76.5504 298.393 76.7457 298.905 76.9566C300.544 77.6159 302.183 78.2864 303.834 78.9295L306.291 79.9428C306.7 80.1142 307.11 80.2804 307.516 80.4587L308.727 81.0036L310.528 81.8142C311.127 82.0913 311.725 82.3686 312.324 82.6461L314.119 83.4808C314.712 83.7717 315.304 84.0625 315.896 84.3532C316.422 84.6157 316.952 84.8713 317.475 85.1398L319.041 85.9543L320.605 86.7709L322.153 87.617L323.702 88.4633L325.234 89.3389L326.767 90.2151C327.276 90.509 327.774 90.8239 328.279 91.1271C328.68 91.3712 329.072 91.6166 329.455 91.8632C329.646 91.988 329.834 92.1116 330.021 92.234C330.205 92.3612 330.386 92.4909 330.564 92.6195C331.275 93.1343 331.939 93.6534 332.546 94.1691C333.108 94.6387 332.964 94.7849 332.188 94.4525C332.052 94.3929 331.914 94.3329 331.776 94.2726C331.639 94.2103 331.506 94.1389 331.371 94.0715L330.558 93.6538C330.016 93.3683 329.469 93.0799 328.923 92.7923C328.027 92.3174 327.132 91.7852 326.242 91.2702C326.236 91.275 326.23 91.2793 326.224 91.2849Z" fill="black"/>
<path d="M314.68 89.3293C316.555 89.5315 318.42 89.8344 320.266 90.2369C320.754 90.3494 321.242 90.4622 321.73 90.5751C322.215 90.7003 322.701 90.8221 323.187 90.9361C325.253 91.4516 327.289 92.0754 329.296 92.7715C331.302 93.47 333.281 94.2322 335.246 95.0237L334.488 96.2525C334.291 96.0722 334.107 95.8782 333.917 95.6898L333.635 95.4054C333.588 95.3583 333.541 95.3098 333.493 95.2639C333.452 95.2099 333.405 95.1625 333.361 95.1115C333.271 95.0123 333.185 94.9082 333.091 94.8129L332.809 94.5277C332.621 94.3385 332.427 94.1545 332.236 93.9675C329.881 91.6869 327.486 89.4483 325.11 87.1893C323.918 86.064 322.736 84.9279 321.553 83.7926L318.004 80.3874C317.29 79.7027 316.596 78.9825 315.916 78.2785C315.266 77.6037 314.915 77.0905 314.756 76.7086C314.524 76.1528 315.099 76.3411 316.108 77.2032C316.747 77.749 317.416 78.3769 318.039 78.9828C319.472 80.3774 320.917 81.7557 322.373 83.1177C323.101 83.7988 323.833 84.4757 324.568 85.1484C325.301 85.824 326.037 86.4959 326.777 87.1639C327.594 87.9013 328.455 88.6563 329.206 89.4209C331.199 91.433 333.263 93.3895 335.424 95.23C335.543 95.3309 335.622 95.4707 335.65 95.6246C335.677 95.7784 335.649 95.9363 335.572 96.07C335.495 96.2038 335.373 96.3047 335.229 96.3547C335.084 96.4048 334.926 96.4007 334.783 96.3433L334.747 96.3286C334.203 96.1095 333.661 95.8874 333.121 95.6623C330.794 94.7002 328.418 93.8444 326.035 93.0725C323.914 92.3759 321.758 91.8059 319.575 91.3654C317.391 90.9334 315.183 90.6518 312.966 90.5227C312.08 90.4829 311.22 90.4086 310.392 90.3459C310.184 90.3275 309.979 90.307 309.776 90.2843C309.675 90.2719 309.574 90.2594 309.474 90.2471C309.373 90.2366 309.273 90.2263 309.174 90.216C308.777 90.1763 308.389 90.114 308.011 90.0609C307.316 89.9608 307.345 89.7507 308.142 89.5657C308.284 89.5336 308.426 89.5014 308.569 89.469C308.712 89.4402 308.857 89.4271 309.002 89.406C309.147 89.3872 309.293 89.3685 309.439 89.3496C309.586 89.3357 309.734 89.3218 309.882 89.3113C310.178 89.2917 310.476 89.2719 310.774 89.2521C311.073 89.2341 311.373 89.2144 311.672 89.2169C312.165 89.2129 312.665 89.2241 313.166 89.2427C313.667 89.2793 314.17 89.316 314.67 89.3525L314.68 89.3293Z" fill="black"/>
</g>
<path d="M121.636 141.743L119.476 143.05C119.113 143.266 118.76 143.49 118.406 143.714L117.345 144.385C116.971 144.623 116.591 144.858 116.223 145.102C115.856 145.347 115.492 145.593 115.131 145.842C114.653 146.176 114.17 146.506 113.696 146.842L112.286 147.861C111.339 148.535 110.427 149.233 109.505 149.924L108.815 150.444L108.138 150.972L106.782 152.027L106.443 152.291L106.111 152.559L105.446 153.095L104.113 154.165L102.503 155.503C102.235 155.727 101.963 155.948 101.699 156.173L100.91 156.852C100.386 157.306 99.8535 157.755 99.3357 158.212L97.7921 159.591C95.7539 161.44 93.7583 163.315 91.8626 165.242C91.5728 165.531 91.2727 165.816 90.9694 166.099C90.6709 166.385 90.3741 166.668 90.079 166.95C89.5128 167.488 89.0543 167.792 88.6936 167.945C88.1688 168.168 88.2507 167.729 88.9384 166.903C89.1562 166.642 89.3935 166.373 89.639 166.105C89.7632 165.971 89.8878 165.837 90.0119 165.704C90.1418 165.574 90.271 165.444 90.3984 165.317C90.9888 164.73 91.5787 164.144 92.1682 163.558C92.7695 162.978 93.366 162.397 93.9577 161.813C94.25 161.519 94.5583 161.234 94.8581 160.944L95.7587 160.076C96.35 159.492 96.9673 158.922 97.5701 158.344C97.9046 158.025 98.2387 157.696 98.5839 157.377C98.9336 157.061 99.2878 156.75 99.6475 156.46C100.785 155.529 101.933 154.6 103.06 153.656L104.789 152.266C105.079 152.035 105.364 151.802 105.66 151.575L106.553 150.901L107.881 149.898C108.329 149.567 108.778 149.236 109.227 148.904L110.575 147.911C111.034 147.587 111.493 147.263 111.951 146.939C112.363 146.652 112.769 146.362 113.184 146.078L114.439 145.233L115.694 144.39L116.971 143.564L118.248 142.738L119.547 141.93L120.846 141.122C121.28 140.854 121.73 140.598 122.171 140.336C122.524 140.128 122.876 139.926 123.226 139.731C123.402 139.634 123.576 139.539 123.748 139.444C123.924 139.352 124.101 139.264 124.276 139.176C124.977 138.827 125.667 138.511 126.334 138.232C126.945 137.972 127.03 138.103 126.473 138.539C126.374 138.615 126.274 138.692 126.174 138.77C126.072 138.846 125.964 138.917 125.858 138.991L125.212 139.431C124.774 139.722 124.333 140.017 123.892 140.311C123.166 140.792 122.389 141.259 121.629 141.727C121.631 141.732 121.633 141.737 121.636 141.743Z" fill="black"/>
<path d="M116.057 148.955C116.859 147.755 117.748 146.587 118.722 145.455C118.984 145.158 119.247 144.86 119.511 144.562C119.784 144.27 120.055 143.976 120.318 143.68C121.467 142.429 122.703 141.225 123.995 140.057C125.29 138.891 126.633 137.757 127.998 136.641L128.861 137.444C128.633 137.531 128.396 137.607 128.163 137.687L127.812 137.806C127.754 137.826 127.695 137.845 127.637 137.867C127.575 137.881 127.516 137.901 127.456 137.917C127.336 137.953 127.214 137.985 127.096 138.025L126.745 138.143C126.511 138.223 126.281 138.307 126.048 138.389C123.206 139.405 120.388 140.457 117.558 141.491C116.146 142.012 114.726 142.524 113.308 143.036L109.053 144.574C108.197 144.884 107.316 145.172 106.454 145.453C105.628 145.723 105.047 145.832 104.649 145.846C104.069 145.866 104.429 145.528 105.543 145.065C106.248 144.772 107.038 144.479 107.792 144.211C109.528 143.595 111.253 142.967 112.967 142.327C113.824 142.007 114.679 141.684 115.53 141.357C116.384 141.033 117.236 140.706 118.085 140.375C119.022 140.01 119.99 139.62 120.93 139.305C123.41 138.466 125.863 137.565 128.243 136.572C128.374 136.518 128.527 136.499 128.675 136.518C128.823 136.537 128.957 136.594 129.053 136.678C129.149 136.761 129.2 136.867 129.198 136.975C129.196 137.084 129.14 137.188 129.04 137.269L129.015 137.29C128.637 137.599 128.257 137.906 127.875 138.211C126.237 139.527 124.678 140.901 123.193 142.301C121.863 143.544 120.635 144.842 119.516 146.189C118.405 147.538 117.422 148.94 116.574 150.385C116.245 150.966 115.894 151.52 115.564 152.057C115.48 152.19 115.393 152.322 115.306 152.451C115.261 152.516 115.217 152.58 115.172 152.644C115.13 152.708 115.087 152.772 115.045 152.836C114.879 153.09 114.694 153.334 114.521 153.573C114.202 154.011 114.021 153.941 114.116 153.365C114.134 153.263 114.151 153.161 114.169 153.058C114.19 152.956 114.226 152.856 114.255 152.754C114.286 152.653 114.317 152.551 114.348 152.449C114.384 152.348 114.42 152.246 114.459 152.145C114.539 151.943 114.619 151.74 114.7 151.537C114.782 151.333 114.863 151.129 114.964 150.93C115.123 150.601 115.298 150.271 115.48 149.942C115.678 149.617 115.877 149.291 116.075 148.967L116.057 148.955Z" fill="black"/>
<defs>
<filter id="filter0_d_540_1864" x="91" y="0.0195312" width="208" height="210.98" filterUnits="userSpaceOnUse" color-interpolation-filters="sRGB">
<feFlood flood-opacity="0" result="BackgroundImageFix"/>
<feColorMatrix in="SourceAlpha" type="matrix" values="0 0 0 0 0 0 0 0 0 0 0 0 0 0 0 0 0 0 127 0" result="hardAlpha"/>
<feOffset dy="7"/>
<feGaussianBlur stdDeviation="2"/>
<feComposite in2="hardAlpha" operator="out"/>
<feColorMatrix type="matrix" values="0 0 0 0 0.208826 0 0 0 0 0.161078 0 0 0 0 0.382227 0 0 0 0.56 0"/>
<feBlend mode="normal" in2="BackgroundImageFix" result="effect1_dropShadow_540_1864"/>
<feBlend mode="normal" in="SourceGraphic" in2="effect1_dropShadow_540_1864" result="shape"/>
</filter>
<filter id="filter1_d_540_1864" x="83" y="15.166" width="173.755" height="196.834" filterUnits="userSpaceOnUse" color-interpolation-filters="sRGB">
<feFlood flood-opacity="0" result="BackgroundImageFix"/>
<feColorMatrix in="SourceAlpha" type="matrix" values="0 0 0 0 0 0 0 0 0 0 0 0 0 0 0 0 0 0 127 0" result="hardAlpha"/>
<feOffset dx="-8" dy="8"/>
<feGaussianBlur stdDeviation="2"/>
<feComposite in2="hardAlpha" operator="out"/>
<feColorMatrix type="matrix" values="0 0 0 0 0.208826 0 0 0 0 0.161078 0 0 0 0 0.382227 0 0 0 1 0"/>
<feBlend mode="normal" in2="BackgroundImageFix" result="effect1_dropShadow_540_1864"/>
<feBlend mode="normal" in="SourceGraphic" in2="effect1_dropShadow_540_1864" result="shape"/>
</filter>
<clipPath id="clip0_540_1864">
<rect width="59.1233" height="57.8622" fill="white" transform="translate(324.373 46) rotate(70)"/>
</clipPath>
</defs>
</svg>
