<svg width="164" height="169" viewBox="0 0 164 169" fill="none" xmlns="http://www.w3.org/2000/svg">
<path d="M19.6294 55.5557C21.504 56.1376 22.54 56.4858 23.6239 56.6102C26.3841 57.2027 29.0964 58.0187 31.8566 58.611C32.9397 58.7359 34.0707 58.6371 35.1265 58.3693C36.3046 58.0473 37.107 56.8805 36.7979 55.1968C36.4137 53.3442 35.2745 52.4349 33.9182 52.0269C29.0578 50.346 24.0471 48.3273 19.1875 46.646C17.2377 45.8952 15.2409 45.3677 13.3184 45.0095C7.27998 43.6507 4.84556 46.7582 6.8256 54.1735C9.64108 64.4547 13.0217 74.6867 16.2048 84.8042C16.7866 86.7713 18.1317 88.8031 19.3265 90.4972C20.3238 92.0768 21.5853 92.9316 23.226 91.9989C22.967 87.4597 22.3884 82.8606 21.1686 78.1422C20.0993 73.7617 18.9546 69.2121 18.376 64.613C19.8904 66.3671 21.481 68.2897 23.1185 69.989C27.9089 75.1412 32.6523 80.5169 37.66 85.1677C48.0983 95.0904 58.5263 97.7327 68.9517 94.1029C74.4945 92.0398 79.4358 88.6256 84.104 84.9283C86.2069 83.3848 88.31 81.8415 90.4129 80.298C95.5993 76.7747 101.546 75.9485 108.075 77.089C118.569 78.892 128.504 84.3847 137.558 93.5071C143.959 99.9663 149.849 107.26 155.202 114.995C155.973 116.068 156.377 117.304 157.149 118.378C157.769 119.112 158.861 120.245 159.427 120.196C160.115 120.092 161.19 119.209 161.181 118.2C161.343 116.914 160.837 115.117 160.235 113.765C159.107 111.232 157.611 108.863 156.116 106.493C147.198 93.06 137.016 81.4044 124.265 74.5347C114.604 69.3254 105.061 66.6934 95.7975 67.9848C89.9734 68.7565 85.2773 72.0616 80.6564 75.5355C77.7708 77.6298 75.0355 80.0618 72.0746 81.9871C69.4062 83.5799 66.5123 84.666 63.5432 85.5832C58.2176 87.1449 52.6221 85.7911 47.0299 81.8054C44.5059 80.0961 42.1528 78.1082 39.8468 75.897C33.8701 70.0589 27.9403 63.9972 21.9634 58.159C21.295 57.6471 20.7968 56.8572 19.6294 55.5557Z" fill="#AD1D1D"/>
</svg>
